<?xml version="1.0" encoding="utf-8"?>
<!-- Generator: Adobe Illustrator 21.0.0, SVG Export Plug-In . SVG Version: 6.00 Build 0)  -->
<svg version="1.1" id="Layer_1" xmlns="http://www.w3.org/2000/svg" xmlns:xlink="http://www.w3.org/1999/xlink" x="0px" y="0px"
	 viewBox="0 0 419 591.4" style="enable-background:new 0 0 419 591.4;" xml:space="preserve">
<style type="text/css">
	.st0{clip-path:url(#SVGID_2_);fill:url(#SVGID_3_);}
	.st1{clip-path:url(#SVGID_5_);fill:url(#SVGID_6_);}
</style>
<g>
	<defs>
		<path id="SVGID_1_" d="M416.3,588.8v-20.7H2.6v20.7H416.3z M397.3,565.4v-3.2H20.7v3.2H397.3z M404.1,416.6H14
			c0.1,0.4,0.3,0.5,0.5,0.7c0.9,0.6,1.6,1.4,1.8,3.7h385.4c0.2-2.3,1-3,1.8-3.7C403.8,417.1,404,417,404.1,416.6z M398.6,427.7v-4.1
			H19.4v4.1H398.6z M397.3,552.9V430.3H20.7v122.5H397.3z M333.2,352.8v-4.1H84.8v4.1H333.2z M332.3,414v-58.5H85.8V414H332.3z
			 M82.2,346.1h253.6c0.2-2.3,1-3,1.8-3.7c0.2-0.2,0.4-0.3,0.5-0.7H79.9c0.1,0.4,0.3,0.5,0.5,0.7C81.3,343,82,343.8,82.2,346.1z
			 M322.4,272.4H95.7c0.1,0.7,0.4,1,0.8,1.3c0.7,0.7,1.4,1.4,1.6,3.1h222c0.2-1.6,0.8-2.4,1.6-3.1
			C321.9,273.4,322.2,273.2,322.4,272.4z M321,332.4c0-0.5-0.4-0.9-0.9-0.9H98c-0.5,0-0.9,0.4-0.9,0.9c0,0.5,0.4,0.9,0.9,0.9h222
			C320.5,333.3,321,332.9,321,332.4z M318,283.6v-4.1H100v4.1H318z M317.4,339.1v-3.2H100.6v3.2H317.4z M317.4,328.7v-42.5h-13
			h-17.3h-17.3h-17.3h-17.2h-17.3h-17.3h-17.2h-17.3h-17.3h-17.3h-17.2h-14v42.5h14h17.2h17.3h17.3h17.3h17.2h17.3h17.3h17.2h17.3
			h17.3h17.3H317.4z M191.5,90.4h35c-0.7-9.1-8.3-16.2-17.5-16.2C199.8,74.2,192.2,81.4,191.5,90.4z M157.8,177.4
			c-12.1,6.8-22.7,16.7-31.2,29.3c-12.2,18.1-18.8,39.9-19.1,63.1h202.8c-0.2-23.2-6.8-45-19.1-63.1c-8.1-12-18.1-21.6-29.5-28.4
			c-6-3.6-12.4-6.3-19.1-8.3h-67.4C169.2,171.8,163.4,174.3,157.8,177.4z M402,557.6c0-1.1-0.9-2.1-2.1-2.1H18.1
			c-1.1,0-2.1,0.9-2.1,2.1c0,1.1,0.9,2.1,2.1,2.1h381.8C401.1,559.6,402,558.7,402,557.6 M79.6,346.3c-0.1-1.3-0.4-1.5-0.8-1.8
			c-0.9-0.7-1.7-1.5-1.7-4.2v-1.3H98v-3.1c-2,0-3.6-1.6-3.6-3.6s1.6-3.6,3.6-3.6v-42.6h-0.6v-6.8h-1.9v-1.3c0-1.7-0.3-2-0.8-2.5
			c-0.9-0.9-1.7-1.8-1.7-4.5v-1.3h12c0.2-23.7,7-46,19.5-64.6c8.6-12.7,19.6-22.9,32.1-30.1c5.5-3.1,11.3-5.6,17.2-7.5v-11.2
			c-1.5,0-2.7-1.2-2.7-2.7s1.2-2.7,2.7-2.7h4v-4.5c-1.5,0-2.7-1.2-2.7-2.7c0-1.5,1.2-2.7,2.7-2.7h8V90.4h3.1
			c0.7-10.2,8.9-18.3,19.1-18.9L209,0l1,71.6c10.2,0.5,18.5,8.7,19.1,18.9h3.1v50.7h7.9c1.5,0,2.7,1.2,2.7,2.7
			c0,1.5-1.2,2.7-2.7,2.7v4.5h4c1.5,0,2.7,1.2,2.7,2.7s-1.2,2.7-2.7,2.7v11.2c6.6,2,12.9,4.9,18.9,8.4c11.8,7.1,22.2,17,30.4,29.1
			c12.5,18.5,19.3,40.8,19.5,64.6h12v1.3c0,2.7-0.8,3.7-1.7,4.5c-0.5,0.5-0.8,0.8-0.8,2.5v1.3h-1.9v6.8H320v42.6
			c2,0,3.6,1.6,3.6,3.6s-1.6,3.6-3.6,3.6v3.1h20.9v1.3c0,2.7-0.8,3.5-1.7,4.2c-0.3,0.2-0.7,0.5-0.8,1.8c0,0.3,0,0.7,0,1.1v1.3h-2.5
			v6.8h-1v58.5h71.9v1.3c0,2.7-0.8,3.5-1.7,4.2c-0.4,0.3-0.8,0.6-0.8,2.8v1.3h-3.1v6.8h-1.3v122.5c2.5,0,4.6,2,4.7,4.6
			c0,0,0,0.1,0,0.1c0,2.6-2.1,4.7-4.7,4.7v3.2h19v26H0v-26h18.1v-3.2c0,0-0.1,0-0.1,0c-2.5-0.1-4.6-2.1-4.6-4.7
			c0-2.6,2.1-4.7,4.7-4.7V430.3h-1.3v-6.8h-3.1v-1.3c0-2.3-0.4-2.6-0.8-2.8c-0.9-0.7-1.7-1.5-1.7-4.2v-1.3h71.9v-58.5h-1v-6.8h-2.5
			v-1.3C79.7,347,79.6,346.6,79.6,346.3 M241.6,167.4v-10.9h-65.2v10.9H241.6z M237.6,151.1v-4.5h-57.1v4.5H237.6z M229.6,141.1
			V93.1h-41.2v48.1H229.6z"/>
	</defs>
	<clipPath id="SVGID_2_">
		<use xlink:href="#SVGID_1_"  style="overflow:visible;"/>
	</clipPath>
	<linearGradient id="SVGID_3_" gradientUnits="userSpaceOnUse" x1="0" y1="295.7" x2="418.9742" y2="295.7">
		<stop  offset="0" style="stop-color:#8934EA"/>
		<stop  offset="1" style="stop-color:#F62459"/>
	</linearGradient>
	<rect class="st0" width="419" height="591.4"/>
</g>
<g>
	<defs>
		<path id="SVGID_4_" d="M381.4,444v95.7c0,4.5-3.7,8.2-8.2,8.2s-8.2-3.7-8.2-8.2V444c0-4.5,3.7-8.2,8.2-8.2S381.4,439.5,381.4,444z
			 M378.8,539.7V444c0-3.1-2.5-5.6-5.6-5.6c-3.1,0-5.6,2.5-5.6,5.6v95.7c0,3.1,2.5,5.6,5.6,5.6C376.3,545.2,378.8,542.7,378.8,539.7
			z M351.6,445.3V541c0,4.5-3.7,8.2-8.2,8.2c-4.5,0-8.2-3.7-8.2-8.2v-95.7c0-4.5,3.7-8.2,8.2-8.2
			C347.9,437.1,351.6,440.8,351.6,445.3z M348.9,541v-95.7c0-3.1-2.5-5.6-5.6-5.6c-3.1,0-5.6,2.5-5.6,5.6V541c0,3.1,2.5,5.6,5.6,5.6
			C346.4,546.5,348.9,544,348.9,541z M322.6,365.3v38.9c0,3.2-2.6,5.8-5.8,5.8c-3.2,0-5.8-2.6-5.8-5.8v-38.9c0-3.2,2.6-5.8,5.8-5.8
			C320,359.5,322.6,362.1,322.6,365.3z M320,404.1v-38.9c0-1.8-1.4-3.2-3.2-3.2c-1.8,0-3.2,1.4-3.2,3.2v38.9c0,1.8,1.4,3.2,3.2,3.2
			C318.5,407.3,320,405.9,320,404.1z M321.7,445.3V541c0,4.5-3.7,8.2-8.2,8.2s-8.2-3.7-8.2-8.2v-95.7c0-4.5,3.7-8.2,8.2-8.2
			S321.7,440.8,321.7,445.3z M319.1,541v-95.7c0-3.1-2.5-5.6-5.6-5.6s-5.6,2.5-5.6,5.6V541c0,3.1,2.5,5.6,5.6,5.6
			S319.1,544,319.1,541z M309.2,293.1v28.3c0,2.7-2.2,4.8-4.8,4.8h-0.9c-2.7,0-4.8-2.2-4.8-4.8v-28.3c0-2.7,2.2-4.8,4.8-4.8h0.9
			C307,288.3,309.2,290.4,309.2,293.1z M306.6,321.4v-28.3c0-1.2-1-2.2-2.2-2.2h-0.9c-1.2,0-2.2,1-2.2,2.2v28.3c0,1.2,1,2.2,2.2,2.2
			h0.9C305.6,323.6,306.6,322.6,306.6,321.4z M303,365.3v38.9c0,3.2-2.6,5.8-5.8,5.8c-3.2,0-5.8-2.6-5.8-5.8v-38.9
			c0-3.2,2.6-5.8,5.8-5.8C300.4,359.5,303,362.1,303,365.3z M300.4,404.1v-38.9c0-1.8-1.4-3.2-3.2-3.2c-1.8,0-3.2,1.4-3.2,3.2v38.9
			c0,1.8,1.4,3.2,3.2,3.2C298.9,407.3,300.4,405.9,300.4,404.1z M291.9,293.5v28.3c0,2.7-2.2,4.8-4.8,4.8h-0.9
			c-2.7,0-4.8-2.2-4.8-4.8v-28.3c0-2.7,2.2-4.8,4.8-4.8h0.9C289.8,288.7,291.9,290.8,291.9,293.5z M289.3,321.8v-28.3
			c0-1.2-1-2.2-2.2-2.2h-0.9c-1.2,0-2.2,1-2.2,2.2v28.3c0,1.2,1,2.2,2.2,2.2h0.9C288.3,324,289.3,323,289.3,321.8z M291.9,445.3V541
			c0,4.5-3.7,8.2-8.2,8.2c-4.5,0-8.2-3.7-8.2-8.2v-95.7c0-4.5,3.7-8.2,8.2-8.2C288.2,437.1,291.9,440.8,291.9,445.3z M289.2,541
			v-95.7c0-3.1-2.5-5.6-5.6-5.6c-3.1,0-5.6,2.5-5.6,5.6V541c0,3.1,2.5,5.6,5.6,5.6C286.7,546.5,289.2,544,289.2,541z M283.4,365.3
			v38.9c0,3.2-2.6,5.8-5.8,5.8c-3.2,0-5.8-2.6-5.8-5.8v-38.9c0-3.2,2.6-5.8,5.8-5.8C280.8,359.5,283.4,362.1,283.4,365.3z
			 M280.8,404.1v-38.9c0-1.8-1.4-3.2-3.2-3.2c-1.8,0-3.2,1.4-3.2,3.2v38.9c0,1.8,1.4,3.2,3.2,3.2
			C279.4,407.3,280.8,405.9,280.8,404.1z M274.7,293.5v28.3c0,2.7-2.2,4.8-4.8,4.8h-0.9c-2.7,0-4.8-2.2-4.8-4.8v-28.3
			c0-2.7,2.2-4.8,4.8-4.8h0.9C272.5,288.7,274.7,290.8,274.7,293.5z M272.1,321.8v-28.3c0-1.2-1-2.2-2.2-2.2h-0.9
			c-1.2,0-2.2,1-2.2,2.2v28.3c0,1.2,1,2.2,2.2,2.2h0.9C271.1,324,272.1,323,272.1,321.8z M263.8,365.3v38.9c0,3.2-2.6,5.8-5.8,5.8
			c-3.2,0-5.8-2.6-5.8-5.8v-38.9c0-3.2,2.6-5.8,5.8-5.8C261.2,359.5,263.8,362.1,263.8,365.3z M261.2,404.1v-38.9
			c0-1.8-1.4-3.2-3.2-3.2c-1.8,0-3.2,1.4-3.2,3.2v38.9c0,1.8,1.4,3.2,3.2,3.2C259.8,407.3,261.2,405.9,261.2,404.1z M262,445.3V541
			c0,4.5-3.7,8.2-8.2,8.2s-8.2-3.7-8.2-8.2v-95.7c0-4.5,3.7-8.2,8.2-8.2S262,440.8,262,445.3z M259.4,541v-95.7
			c0-3.1-2.5-5.6-5.6-5.6c-3.1,0-5.6,2.5-5.6,5.6V541c0,3.1,2.5,5.6,5.6,5.6C256.9,546.5,259.4,544,259.4,541z M257.4,293.5v28.3
			c0,2.7-2.2,4.8-4.8,4.8h-0.9c-2.7,0-4.8-2.2-4.8-4.8v-28.3c0-2.7,2.2-4.8,4.8-4.8h0.9C255.3,288.7,257.4,290.8,257.4,293.5z
			 M254.8,321.8v-28.3c0-1.2-1-2.2-2.2-2.2h-0.9c-1.2,0-2.2,1-2.2,2.2v28.3c0,1.2,1,2.2,2.2,2.2h0.9
			C253.8,324,254.8,323,254.8,321.8z M244.2,365.3v38.9c0,3.2-2.6,5.8-5.8,5.8s-5.8-2.6-5.8-5.8v-38.9c0-3.2,2.6-5.8,5.8-5.8
			S244.2,362.1,244.2,365.3z M241.6,404.1v-38.9c0-1.8-1.4-3.2-3.2-3.2c-1.8,0-3.2,1.4-3.2,3.2v38.9c0,1.8,1.4,3.2,3.2,3.2
			C240.2,407.3,241.6,405.9,241.6,404.1z M240.2,293.5v28.3c0,2.7-2.2,4.8-4.8,4.8h-0.9c-2.7,0-4.8-2.2-4.8-4.8v-28.3
			c0-2.7,2.2-4.8,4.8-4.8h0.9C238,288.7,240.2,290.8,240.2,293.5z M237.6,321.8v-28.3c0-1.2-1-2.2-2.2-2.2h-0.9
			c-1.2,0-2.2,1-2.2,2.2v28.3c0,1.2,1,2.2,2.2,2.2h0.9C236.6,324,237.6,323,237.6,321.8z M232.1,445.3V541c0,4.5-3.7,8.2-8.2,8.2
			c-4.5,0-8.2-3.7-8.2-8.2v-95.7c0-4.5,3.7-8.2,8.2-8.2C228.5,437.1,232.1,440.8,232.1,445.3z M229.5,541v-95.7
			c0-3.1-2.5-5.6-5.6-5.6c-3.1,0-5.6,2.5-5.6,5.6V541c0,3.1,2.5,5.6,5.6,5.6C227,546.5,229.5,544,229.5,541z M227,95.3v44.4h-7.7
			V95.3H227z M224.3,137V97.9h-2.4V137H224.3z M224.6,365.3v38.9c0,3.2-2.6,5.8-5.8,5.8s-5.8-2.6-5.8-5.8v-38.9
			c0-3.2,2.6-5.8,5.8-5.8S224.6,362.1,224.6,365.3z M222,404.1v-38.9c0-1.8-1.4-3.2-3.2-3.2c-1.8,0-3.2,1.4-3.2,3.2v38.9
			c0,1.8,1.4,3.2,3.2,3.2C220.6,407.3,222,405.9,222,404.1z M222.9,293.5v28.3c0,2.7-2.2,4.8-4.8,4.8h-0.9c-2.7,0-4.8-2.2-4.8-4.8
			v-28.3c0-2.7,2.2-4.8,4.8-4.8h0.9C220.8,288.7,222.9,290.8,222.9,293.5z M220.3,321.8v-28.3c0-1.2-1-2.2-2.2-2.2h-0.9
			c-1.2,0-2.2,1-2.2,2.2v28.3c0,1.2,1,2.2,2.2,2.2h0.9C219.3,324,220.3,323,220.3,321.8z M217.6,95.3v44.4h-7.7V95.3H217.6z
			 M214.9,137V97.9h-2.4V137H214.9z M208.1,95.3v44.4h-7.7V95.3H208.1z M205.5,137V97.9h-2.4V137H205.5z M205.7,293.5v28.3
			c0,2.7-2.2,4.8-4.8,4.8h-0.9c-2.7,0-4.8-2.2-4.8-4.8v-28.3c0-2.7,2.2-4.8,4.8-4.8h0.9C203.5,288.7,205.7,290.8,205.7,293.5z
			 M203,321.8v-28.3c0-1.2-1-2.2-2.2-2.2h-0.9c-1.2,0-2.2,1-2.2,2.2v28.3c0,1.2,1,2.2,2.2,2.2h0.9C202.1,324,203,323,203,321.8z
			 M205.1,365.3v38.9c0,3.2-2.6,5.8-5.8,5.8s-5.8-2.6-5.8-5.8v-38.9c0-3.2,2.6-5.8,5.8-5.8S205.1,362.1,205.1,365.3z M202.4,404.1
			v-38.9c0-1.8-1.4-3.2-3.2-3.2c-1.8,0-3.2,1.4-3.2,3.2v38.9c0,1.8,1.4,3.2,3.2,3.2C201,407.3,202.4,405.9,202.4,404.1z
			 M202.3,445.3V541c0,4.5-3.7,8.2-8.2,8.2c-4.5,0-8.2-3.7-8.2-8.2v-95.7c0-4.5,3.7-8.2,8.2-8.2
			C198.6,437.1,202.3,440.8,202.3,445.3z M199.7,541v-95.7c0-3.1-2.5-5.6-5.6-5.6c-3.1,0-5.6,2.5-5.6,5.6V541c0,3.1,2.5,5.6,5.6,5.6
			C197.2,546.5,199.7,544,199.7,541z M198.7,95.3v44.4h-7.7V95.3H198.7z M196.1,137V97.9h-2.4V137H196.1z M188.4,293.5v28.3
			c0,2.7-2.2,4.8-4.8,4.8h-0.9c-2.7,0-4.8-2.2-4.8-4.8v-28.3c0-2.7,2.2-4.8,4.8-4.8h0.9C186.3,288.7,188.4,290.8,188.4,293.5z
			 M185.8,321.8v-28.3c0-1.2-1-2.2-2.2-2.2h-0.9c-1.2,0-2.2,1-2.2,2.2v28.3c0,1.2,1,2.2,2.2,2.2h0.9
			C184.8,324,185.8,323,185.8,321.8z M185.5,365.3v38.9c0,3.2-2.6,5.8-5.8,5.8c-3.2,0-5.8-2.6-5.8-5.8v-38.9c0-3.2,2.6-5.8,5.8-5.8
			C182.9,359.5,185.5,362.1,185.5,365.3z M182.8,404.1v-38.9c0-1.8-1.4-3.2-3.2-3.2c-1.8,0-3.2,1.4-3.2,3.2v38.9
			c0,1.8,1.4,3.2,3.2,3.2C181.4,407.3,182.8,405.9,182.8,404.1z M172.4,445.3V541c0,4.5-3.7,8.2-8.2,8.2c-4.5,0-8.2-3.7-8.2-8.2
			v-95.7c0-4.5,3.7-8.2,8.2-8.2C168.8,437.1,172.4,440.8,172.4,445.3z M169.8,541v-95.7c0-3.1-2.5-5.6-5.6-5.6
			c-3.1,0-5.6,2.5-5.6,5.6V541c0,3.1,2.5,5.6,5.6,5.6C167.3,546.5,169.8,544,169.8,541z M171.2,293.5v28.3c0,2.7-2.2,4.8-4.8,4.8
			h-0.9c-2.7,0-4.8-2.2-4.8-4.8v-28.3c0-2.7,2.2-4.8,4.8-4.8h0.9C169,288.7,171.2,290.8,171.2,293.5z M168.5,321.8v-28.3
			c0-1.2-1-2.2-2.2-2.2h-0.9c-1.2,0-2.2,1-2.2,2.2v28.3c0,1.2,1,2.2,2.2,2.2h0.9C167.6,324,168.5,323,168.5,321.8z M165.9,365.3
			v38.9c0,3.2-2.6,5.8-5.8,5.8c-3.2,0-5.8-2.6-5.8-5.8v-38.9c0-3.2,2.6-5.8,5.8-5.8C163.3,359.5,165.9,362.1,165.9,365.3z
			 M163.2,404.1v-38.9c0-1.8-1.4-3.2-3.2-3.2c-1.8,0-3.2,1.4-3.2,3.2v38.9c0,1.8,1.4,3.2,3.2,3.2
			C161.8,407.3,163.2,405.9,163.2,404.1z M153.9,293.5v28.3c0,2.7-2.2,4.8-4.8,4.8h-0.9c-2.7,0-4.8-2.2-4.8-4.8v-28.3
			c0-2.7,2.2-4.8,4.8-4.8h0.9C151.8,288.7,153.9,290.8,153.9,293.5z M151.3,321.8v-28.3c0-1.2-1-2.2-2.2-2.2h-0.9
			c-1.2,0-2.2,1-2.2,2.2v28.3c0,1.2,1,2.2,2.2,2.2h0.9C150.3,324,151.3,323,151.3,321.8z M146.3,365.3v38.9c0,3.2-2.6,5.8-5.8,5.8
			c-3.2,0-5.8-2.6-5.8-5.8v-38.9c0-3.2,2.6-5.8,5.8-5.8C143.7,359.5,146.3,362.1,146.3,365.3z M143.6,404.1v-38.9
			c0-1.8-1.4-3.2-3.2-3.2c-1.8,0-3.2,1.4-3.2,3.2v38.9c0,1.8,1.4,3.2,3.2,3.2C142.2,407.3,143.6,405.9,143.6,404.1z M142.6,445.3
			V541c0,4.5-3.7,8.2-8.2,8.2c-4.5,0-8.2-3.7-8.2-8.2v-95.7c0-4.5,3.7-8.2,8.2-8.2C138.9,437.1,142.6,440.8,142.6,445.3z M139.9,541
			v-95.7c0-3.1-2.5-5.6-5.6-5.6c-3.1,0-5.6,2.5-5.6,5.6V541c0,3.1,2.5,5.6,5.6,5.6C137.5,546.5,139.9,544,139.9,541z M136.7,293.5
			v28.3c0,2.7-2.2,4.8-4.8,4.8h-0.9c-2.7,0-4.8-2.2-4.8-4.8v-28.3c0-2.7,2.2-4.8,4.8-4.8h0.9C134.5,288.7,136.7,290.8,136.7,293.5z
			 M134,321.8v-28.3c0-1.2-1-2.2-2.2-2.2h-0.9c-1.2,0-2.2,1-2.2,2.2v28.3c0,1.2,1,2.2,2.2,2.2h0.9C133.1,324,134,323,134,321.8z
			 M126.7,365.3v38.9c0,3.2-2.6,5.8-5.8,5.8c-3.2,0-5.8-2.6-5.8-5.8v-38.9c0-3.2,2.6-5.8,5.8-5.8
			C124.1,359.5,126.7,362.1,126.7,365.3z M124.1,404.1v-38.9c0-1.8-1.4-3.2-3.2-3.2c-1.8,0-3.2,1.4-3.2,3.2v38.9
			c0,1.8,1.4,3.2,3.2,3.2C122.6,407.3,124.1,405.9,124.1,404.1z M119.4,293.3v28.3c0,2.7-2.2,4.8-4.8,4.8h-0.9
			c-2.7,0-4.8-2.2-4.8-4.8v-28.3c0-2.7,2.2-4.8,4.8-4.8h0.9C117.3,288.5,119.4,290.6,119.4,293.3z M116.8,321.6v-28.3
			c0-1.2-1-2.2-2.2-2.2h-0.9c-1.2,0-2.2,1-2.2,2.2v28.3c0,1.2,1,2.2,2.2,2.2h0.9C115.8,323.8,116.8,322.8,116.8,321.6z M112.7,445.3
			V541c0,4.5-3.7,8.2-8.2,8.2c-4.5,0-8.2-3.7-8.2-8.2v-95.7c0-4.5,3.7-8.2,8.2-8.2C109.1,437.1,112.7,440.8,112.7,445.3z M110.1,541
			v-95.7c0-3.1-2.5-5.6-5.6-5.6s-5.6,2.5-5.6,5.6V541c0,3.1,2.5,5.6,5.6,5.6S110.1,544,110.1,541z M107.1,365.3v38.9
			c0,3.2-2.6,5.8-5.8,5.8c-3.2,0-5.8-2.6-5.8-5.8v-38.9c0-3.2,2.6-5.8,5.8-5.8C104.5,359.5,107.1,362.1,107.1,365.3z M104.5,404.1
			v-38.9c0-1.8-1.4-3.2-3.2-3.2c-1.8,0-3.2,1.4-3.2,3.2v38.9c0,1.8,1.4,3.2,3.2,3.2C103,407.3,104.5,405.9,104.5,404.1z M82.9,445.3
			V541c0,4.5-3.7,8.2-8.2,8.2c-4.5,0-8.2-3.7-8.2-8.2v-95.7c0-4.5,3.7-8.2,8.2-8.2C79.2,437.1,82.9,440.8,82.9,445.3z M80.2,541
			v-95.7c0-3.1-2.5-5.6-5.6-5.6c-3.1,0-5.6,2.5-5.6,5.6V541c0,3.1,2.5,5.6,5.6,5.6C77.7,546.5,80.2,544,80.2,541z M53,444.6v95.7
			c0,4.5-3.7,8.2-8.2,8.2s-8.2-3.7-8.2-8.2v-95.7c0-4.5,3.7-8.2,8.2-8.2S53,440.1,53,444.6z M50.4,540.3v-95.7
			c0-3.1-2.5-5.6-5.6-5.6s-5.6,2.5-5.6,5.6v95.7c0,3.1,2.5,5.6,5.6,5.6S50.4,543.4,50.4,540.3z"/>
	</defs>
	<clipPath id="SVGID_5_">
		<use xlink:href="#SVGID_4_"  style="overflow:visible;"/>
	</clipPath>
	<linearGradient id="SVGID_6_" gradientUnits="userSpaceOnUse" x1="0" y1="295.7" x2="418.4871" y2="295.7">
		<stop  offset="0" style="stop-color:#8934EA"/>
		<stop  offset="1" style="stop-color:#F62459"/>
	</linearGradient>
	<rect class="st1" width="418.5" height="591.4"/>
</g>
</svg>
