<?xml version="1.0" encoding="utf-8"?>
<!-- Generator: Adobe Illustrator 21.0.0, SVG Export Plug-In . SVG Version: 6.00 Build 0)  -->
<svg version="1.1" id="Layer_1" xmlns="http://www.w3.org/2000/svg" xmlns:xlink="http://www.w3.org/1999/xlink" x="0px" y="0px"
	 viewBox="0 0 96.5 119.9" style="enable-background:new 0 0 96.5 119.9;" xml:space="preserve">
<style type="text/css">
	.st0{fill:none;stroke:#F64747;stroke-width:7;stroke-miterlimit:10;}
	.st1{fill:none;stroke:#01D6F9;stroke-width:7;stroke-miterlimit:10;}
	.st2{fill:#FFFFFF;stroke:#01D6F9;stroke-width:7;stroke-miterlimit:10;}
	.st3{fill:#FFFFFF;stroke:#F64747;stroke-width:7;stroke-miterlimit:10;}
	.st4{fill:#7657E5;}
</style>
<g>
	<path class="st0" d="M69.5,73.9c-6.1,4.1-13.4,6.5-21.3,6.5C27,80.3,9.9,63.1,9.9,42c0-10.6,4.3-20.2,11.2-27.1"/>
	<path class="st1" d="M27,9.9c6.1-4.1,13.4-6.4,21.3-6.4c21.2,0,38.4,17.2,38.4,38.4c0,10.6-4.3,20.2-11.2,27.1"/>
	<circle class="st2" cx="82.7" cy="61.7" r="10.3"/>
	<circle class="st3" cx="13.8" cy="22.1" r="10.3"/>
</g>
<g>
	<path class="st4" d="M11.7,107.4H9.1v5.3H6.3V98.9h6.1c1.6,0,2.8,0.4,3.7,1.1c0.9,0.7,1.3,1.8,1.3,3.2c0,1-0.2,1.8-0.7,2.5
		s-1.2,1.2-2.1,1.4l3.7,5.6H15L11.7,107.4z M9.1,105.2H12c0.8,0,1.5-0.2,1.9-0.5c0.4-0.3,0.6-0.8,0.6-1.5c0-0.7-0.2-1.2-0.6-1.5
		s-1-0.5-1.9-0.5H9.1V105.2z"/>
	<path class="st4" d="M28.7,108.6h-7.4c0.3,1.5,1.2,2.2,2.6,2.2c0.6,0,1.1-0.1,1.5-0.3c0.4-0.2,0.7-0.5,0.8-1l2.4,0.9
		c-0.3,0.8-0.9,1.5-1.7,1.9c-0.8,0.4-1.8,0.7-3,0.7c-1.7,0-3.1-0.5-4-1.4s-1.4-2.3-1.4-4s0.5-3.1,1.4-4c0.9-1,2.2-1.4,3.9-1.4
		c1.6,0,2.9,0.5,3.7,1.4c0.9,0.9,1.3,2.3,1.3,4C28.8,107.8,28.8,108.2,28.7,108.6z M22,104.8c-0.4,0.4-0.7,1-0.8,1.8h4.9
		c-0.1-0.8-0.4-1.4-0.8-1.8c-0.4-0.4-1-0.6-1.6-0.6C23,104.1,22.5,104.4,22,104.8z"/>
	<path class="st4" d="M40.5,100c0.9,0.8,1.3,1.9,1.3,3.3c0,1.4-0.4,2.4-1.3,3.2c-0.9,0.8-2.1,1.2-3.8,1.2h-2.9v5h-2.9V98.9h5.8
		C38.3,98.9,39.6,99.3,40.5,100z M38.2,104.9c0.4-0.4,0.6-0.9,0.6-1.6s-0.2-1.2-0.6-1.6c-0.4-0.3-1.1-0.5-2-0.5h-2.5v4.3h2.5
		C37.2,105.5,37.8,105.3,38.2,104.9z"/>
	<path class="st4" d="M53.6,102.2v10.5h-2.6l-0.1-1.8c-0.7,1.3-1.9,2-3.7,2c-1.1,0-2-0.3-2.7-0.9c-0.7-0.6-1-1.6-1-2.8v-7h2.9v6.2
		c0,0.8,0.2,1.4,0.5,1.7c0.3,0.3,0.8,0.5,1.4,0.5c0.7,0,1.3-0.2,1.8-0.7c0.5-0.5,0.7-1.2,0.7-2.1v-5.6H53.6z"/>
	<path class="st4" d="M65.9,103.5c0.8,1,1.2,2.3,1.2,4c0,1.7-0.4,3-1.2,4c-0.8,1-1.9,1.4-3.3,1.4c-0.8,0-1.5-0.2-2.2-0.6
		c-0.6-0.4-1.1-1-1.4-1.7l-0.1,2.1h-2.5V97.6h2.9v6.3c0.3-0.6,0.8-1.1,1.3-1.4s1.2-0.5,2-0.5C64,102,65.1,102.5,65.9,103.5z
		 M63.6,109.9c0.4-0.6,0.7-1.4,0.7-2.4s-0.2-1.9-0.7-2.4c-0.4-0.6-1-0.8-1.8-0.8c-0.7,0-1.3,0.2-1.7,0.7c-0.4,0.5-0.7,1.2-0.7,2.1
		v0.9c0.1,0.9,0.3,1.6,0.7,2.1c0.4,0.5,1,0.7,1.7,0.7C62.5,110.7,63.1,110.5,63.6,109.9z"/>
	<path class="st4" d="M72.3,109.4c0,0.5,0.1,0.9,0.2,1c0.1,0.2,0.4,0.3,0.8,0.3c0.2,0,0.4,0,0.6-0.1c0.2,0,0.4-0.1,0.6-0.2l-0.3,2
		c-0.2,0.1-0.5,0.2-0.9,0.3c-0.4,0.1-0.7,0.1-1.1,0.1c-1,0-1.8-0.2-2.2-0.7c-0.5-0.5-0.7-1.3-0.7-2.4V97.6h2.9V109.4z"/>
	<path class="st4" d="M75.6,99.2c0-1,0.6-1.6,1.8-1.6c1.2,0,1.8,0.5,1.8,1.6c0,1-0.6,1.5-1.8,1.5C76.2,100.7,75.6,100.2,75.6,99.2z
		 M78.8,112.7h-2.9v-10.5h2.9V112.7z"/>
	<path class="st4" d="M89.7,102.9c0.8,0.6,1.3,1.3,1.6,2.2l-2.7,1c-0.3-1.3-0.9-1.9-2-1.9c-0.8,0-1.5,0.3-1.9,0.9
		c-0.4,0.6-0.7,1.4-0.7,2.5c0,1.1,0.2,1.9,0.7,2.5c0.4,0.6,1.1,0.8,1.9,0.8c1.2,0,2-0.6,2.2-1.9l2.6,0.8c-0.2,1-0.7,1.7-1.6,2.3
		c-0.8,0.6-1.9,0.9-3.2,0.9c-1.7,0-3.1-0.5-4-1.4s-1.4-2.3-1.4-4s0.5-3.1,1.4-4c0.9-1,2.3-1.4,3.9-1.4
		C87.8,102,88.9,102.3,89.7,102.9z"/>
</g>
<g>
</g>
<g>
</g>
<g>
</g>
<g>
</g>
<g>
</g>
<g>
</g>
</svg>
