<?xml version="1.0" encoding="utf-8"?>
<!-- Generator: Adobe Illustrator 21.0.0, SVG Export Plug-In . SVG Version: 6.00 Build 0)  -->
<svg version="1.1" xmlns="http://www.w3.org/2000/svg" xmlns:xlink="http://www.w3.org/1999/xlink" x="0px" y="0px"
	 viewBox="0 0 94.6 284.5" style="enable-background:new 0 0 94.6 284.5;" xml:space="preserve">
<style type="text/css">
	.st0{fill:#FFFFFF;stroke:#000000;stroke-linecap:round;stroke-linejoin:round;}
	.st1{fill:none;stroke:#000000;stroke-linecap:round;stroke-linejoin:round;}
	.st2{fill:none;stroke:#000000;stroke-width:0.15;stroke-linecap:round;stroke-linejoin:round;}
</style>
<g id="Layer_3">
</g>
<g id="OUTER">
	<path class="st0" d="M93.9,100.9c-0.3-1.2-0.8-2.3-1.1-3.5c-0.2-0.8-0.4-1.6-0.6-2.4c-0.5-2.9-0.8-5.8-0.9-8.7
		c-0.1-1.2-0.1-2.3-0.5-3.4c-0.2-0.6-0.5-1.1-0.6-1.7c-0.2-1,0.1-2.1,0.2-3.2c0.4-4.1-1.4-7.9-2.3-11.8c-0.4-1.8-0.7-3.7-1.2-5.5
		c-0.4-1.3-0.8-2.5-1.6-3.5c-1.4-1.7-3.8-2.4-6-3.3c-2.7-1.1-5.2-2.5-7.5-4.2c-1-0.7-1.9-1.4-3.1-1.9c-0.9-0.3-1.9-0.6-2.3-1.3
		c-0.4-0.6-0.3-1.6-0.9-2.1c-0.5-0.4-1.3-0.4-1.8-0.7c-0.6-0.5-0.3-1.8-0.8-2.7c-0.2-0.4-0.5-0.7-0.5-1.1c0-0.2,0.1-0.4,0.3-0.6
		c0.5-0.7,1.1-1.1,1.5-1.7c0.5-0.7,0.6-1.4,0.6-2.6c0-0.6,0-1.3,0.3-1.3c0.2,0,0.4,0.2,0.6,0.2c0.4,0,0.7-0.3,0.9-0.7
		c0.2-0.5,0.1-1,0.1-1.5c0-1.3,0.5-2.7,1-3.9c0.4-0.9,0.7-1.6,0.9-2.8c0.1-0.6,0.2-1.4-0.2-1.5c-0.2-0.1-0.4,0-0.7,0.1
		c0.1-1.3,0.2-2.5,0.3-3.8c0.1-2.3,0-4.5-0.5-6.9c-0.4-1.8-1-3.8-2.3-4.9c-0.8-0.6-1.8-1-2.5-1.8c-0.1-0.1-0.2-0.3-0.3-0.4
		c-0.2-0.5,0.2-1,0.1-1.5c-0.1-0.5-0.8-0.9-1.3-1.1c-0.7-0.2-1.2-0.3-1.8-0.8c-0.8-0.7-1.7-2.2-1.7-1.8c0,0.1,0.1,0.5,0.1,0.8
		c0,0.3,0,0.5-0.1,0.6c-0.4,0.6-1.4,0.2-2.6-0.1c-1.5-0.5-3.5-0.9-3.2-0.6c0.3,0.2,2.1,1,2.3,1.3c0.3,0.4-1.3,0.3-2.9-0.1
		C49,2,46.7,1,47.4,1.3c0.5,0.3,2.5,1.2,2.2,1.8c-0.1,0.2-0.5,0.4-1,0.4c-1-0.1-2.3-1.1-2.1-0.9c0.1,0.1,0.8,0.7,1,1.1
		c0.3,0.7-1.1,0.7-2.6,0.8c-2.3,0.3-4.7,1.2-4,1.6c0.2,0.1,0.7,0.1,1.3,0.2c1.5,0.2,3.5,0.7,3.3,0.8c-0.2,0.1-1.1,0.1-1.9,0.2
		C41,7.8,39.6,9.3,39,11.2c-0.2,0.7-0.3,1.4-0.4,2.1c-0.2,1.2-0.6,2.3-1,3.4c-0.6,1.4-1.2,2.9-0.6,4.6c0.3,0.7,0.8,1.5,0.4,1.9
		c-0.2,0.2-0.6,0.3-0.9,0.4c-0.7,0.5-0.4,1.6-0.1,2.6c0.8,2.6,1.5,4.4,2.4,5.6c0.8,1,1.7,1.7,2.5,4.3c0.5,1.4,0.9,3.5,1.5,4
		c-0.4,0.6-1.1,0.9-1.6,1.3c-1.1,0.8-1.9,1.9-2.9,2.9c-1,1-2.2,1.8-3.4,2.4c-2.1,1-4.4,1.4-6.5,2.3c-1.7,0.7-3.3,1.7-5,2.2
		c-1.8,0.5-3.7,0.4-5.5,1c-2,0.7-3.8,2.4-4.9,4.3c-1.8,3.2-1.7,7.2-3.8,10.2c-0.6,0.9-1.5,1.8-1.6,2.9c-0.1,1.2,0.6,2.7-0.1,3.7
		C7,73.7,6.3,74,6.1,74.5c-0.4,0.6,0.2,1.6,0.8,2.4c0.8,1.2,1.5,2.4,1,3.3c-0.4,0.9-2,1.6-2.2,2.6c0,0.4,0.1,0.8,0.1,1.2
		c0,0.7-0.5,1.3-0.6,2c-0.1,0.7,0.1,1.6,0.1,2.3c-0.1,1.5-1.4,2.7-2,4.1c-0.8,1.8-0.6,4-1,5.9c-0.2,0.8-0.5,1.6-0.8,2.3
		c-0.5,1.3-1.1,2.6-0.7,4c0.4,1.1,1.4,2.2,1,3c-0.2,0.5-0.9,0.9-1.2,1.4c-0.3,0.5-0.1,1.1,0,1.7c0.3,1.6,0.4,3,0.4,4.5
		c0.1,1.7,0.2,3.6,1,5.1c0.4,0.7,0.9,1.4,1.4,2c-0.3,2.3-0.6,4.6-0.4,6.8c0.2,2.1,0.7,4.1,0.9,6.3c0.1,1.5,0.1,3.1,0.7,4.2
		c0.4,0.7,1,1.2,1.2,2.2c0.2,0.9,0.1,2.1,0.4,2.1c0.2,0,0.6-0.5,1-0.9c0.3,0.5,0.7,1,1,1.5c1.1,1.7,1.9,3.6,2.6,5.5c0.7,0,1.4,0,2,0
		c0,0,0,0,0,0c-1.2,7.3-1,8.8-0.8,10.3c0.2,2.1,0.2,4.2,0.1,6.3c-0.1,5.3-0.6,10.6-0.8,15.9c-0.2,5.9-0.1,11.8,0.7,17.8
		c0.2,1.5,0.4,3,0,4.5c-0.1,0.5-0.4,1-0.4,1.4c0,0.6,0.4,1.1,0.8,1.5c0.5,0.5,1.3,0.7,1.5,1.3c0.2,0.5-0.1,1.2-0.3,1.9
		c-0.5,1.5-0.8,2.8-1,4.2c-0.1,1-0.1,2.1-0.1,3.1c0,1.8-0.2,3.5-0.2,5.2c-0.1,3.1,0,6.2,0.2,9.4c0.2,4,0.6,8,0.2,12
		c-0.1,1-0.2,2-0.3,3c-0.2,4.4,1.2,8.8,2.7,13.1c-0.4,0.3-0.9,0.6-1.1,1c-0.8,1.2-0.2,3,0.4,4.7c0.2,0.6,0.4,1.3,0.3,1.8
		c0,0.1-0.1,0.2,0,4.2c0.3,0.2,0.6,0.2,0.9,0.2c-0.1,0.4-0.2,0.6-0.2,0.8c-0.6,1.8-1,3.5-1.4,5.6c-0.4,1.8-0.8,3.8,0.7,4.5
		c0.1,0,0.1,0,0.2,0.1c4.5,0,9.1,0,13.6,0c0.1,0,0.1-0.1,0.2-0.2c1.1-1.4,1.3-7.6,1.3-11.4c0-0.4,0-0.8,0-2.4
		c0.3-0.3,0.7-0.7,1.2-1.2c-1.2-4-1.3-4.8-0.9-5.4c0.1-0.2,0.3-0.3,0.4-0.5c0.4-0.8,0-1.7-0.2-2.7c-0.7-3,0.7-5.7,1.3-8.4
		c0.6-2.9,0.3-6,0.3-9c0-2,0.2-3.9,0-5.9c-0.1-1.1-0.3-2.1-0.3-3.2c0-1.4,0.3-2.7,0.4-4.1c0.1-0.6,0.1-1.2,0-1.9
		c-0.2-0.7-0.6-1.5-0.3-2.1c0.1-0.1,0.2-0.2,0.3-0.4c0.3-0.5,0.1-1.2,0-1.8c-0.3-2.4,0.9-4.3,1.4-6.5c0.4-1.6,0.5-3.4,0.7-5
		c0.2-1.5,0.7-3,1-4.6c0.4-2.5,0.4-5,0.4-7.5c0-2.2,0.1-4.4,0.6-6.5c0.2-1,0.6-2,0.9-3c1-3.1,1.8-6.2,2-9.5c0.1-1.8,0-3.6,0.3-5.3
		c0.4-1.6,1.1-3.1,1.5-4.7c0.3-1.5,0.3-3.1,0.4-4.7c0.1-0.9,0.2-1.9,0.5-2.7c0.2-0.6,0.5-1.1,0.8-1.7c0.1-0.2,0.2-0.4,0.2-0.8
		c0.1-0.1,0.3-0.3,0.5-0.3c0.1,0,0.2,0,0.4,0c0.2,0.1,0.3,0.3,0.4,0.5c0.3,0.6,0.5,1.1,0.7,1.6c0.4,1.4,0.4,3.1,0.9,4.5
		c0.4,1.2,1.2,2.3,1.5,3.6c0.4,1.8-0.2,3.8,0,5.6c0.2,1.3,0.8,2.5,1.1,3.8c0.4,2-0.2,4.2-0.3,6.3c-0.2,2.6,0.3,5.1,0.5,7.7
		c0.1,2.2,0,4.4,0.6,6.5c0.3,0.9,0.7,1.7,0.8,2.6c0.1,1.4-0.6,3.1,0.1,4.2c0.4,0.6,1.1,1,1.3,1.7c0.2,0.6-0.1,1.3,0.3,1.8
		c0.3,0.4,1,0.6,1.1,0.9c0.4,0.5-1.3,1.2-2.1,2c-0.8,0.8-0.8,1.9-0.8,2.9c0.1,5.1,0.2,10.1,0,15.2c-0.1,3.6-0.4,7.3-0.2,10.9
		c0.1,1.8,0.3,3.7,0.4,6c0,2.3-0.2,5.2,0.2,7.3c0.3,1.4,0.9,2.5,1,3.7c0.3,1.8-0.3,3.6-0.9,5.4c0,0,0,0,0.4,0.3
		c-0.1,0-0.3,0.1-0.4,0.1c-0.3,0.2-0.4,0.5-0.5,0.8c-0.3,1-0.2,1.9-0.3,2.8c-0.1,0.7-0.4,1.3-0.5,2c-0.2,1.6,0.6,3.4,0.5,5.1
		c0,0.4-0.1,0.9-0.2,1.3c-0.4,1.2-0.4,2.8-0.4,3.9c0,0.8,0.1,1.3,2,2.4c2.8,0,5.7,0,8.5,0c0.7-0.9,1.4-1.8,2.1-2.6
		c0.3,0.2,0.6,0.3,1,0.4c1.2,0.4,3.1,0.6,3.5,0.7c0.1,0,0,0.1,0.3,0.2c0.6,0.4,3.1,1.5,3.5,1.4c7.1,0,14.1,0,21.2,0
		c0.2-0.1,0.4-0.2,0.4-0.3c0-0.1-0.2-0.3-0.4-0.4c-0.2-0.1-0.3-0.2-0.5-0.2c0.1-0.4,0.1-0.9,0-1.2c-0.1-0.3-0.3-0.6-0.4-0.9
		c-5-2.6-7.7-3.5-9.6-4.3c-2.4-0.9-3.7-1.6-5.2-2.9c-1.1-0.9-2.4-2.1-3.6-3.2c-1.3-1.1-2.5-2.1-3.8-3.2c-0.5-0.3-1-0.7-1.2-1.1
		c-0.1-0.2-0.2-0.4-0.2-0.7c0-1.5,0.2-2.8,0-4c-0.2-1.2-0.8-2.5-0.8-4.2c0-1.5,0.4-3.3,0.7-4.9c0.4-2.1,0.4-3.7,0.5-5.3
		c0.3-2.5,0.9-5,1.8-7.4c0.6-1.8,1.3-3.5,1.6-5.3c0.3-2-0.1-4.2,0.2-6.2c0.3-2.1,1.4-4,1.8-6.1c0.2-1.2,0.2-2.3,0.1-3.5
		c-0.2-1.1-0.6-2.2-0.7-3.3c-0.1-1.3,0.2-2.6,0.4-4c0.3-1.9,0.6-3.7,0.7-5.5c0-1.2,0-2.4-0.1-3.6c-0.1-3.6,0.3-7.2,0.5-10.8
		c0.2-2.6,0.2-5.3,0.4-7.9c0.3-4.2,0.9-8.5,1-12.7c0.1-3.1-0.1-6.2-0.2-9.4c0-1-0.1-2.1,0.2-3c0.2-0.5,0.4-1,0.7-1.5
		c0.6-0.7,1.3-1.4,1.6-2.2c0.3-0.7,0.3-1.5,0.7-2.2c0.3-0.6,0.8-1.1,1.4-1.1c0.7,0,1.4,0.4,1.9,0.3c0.5-0.2,0.6-1.1,0.7-2
		c0.1-1.2,0.3-2.1,0.8-2.9c0.6-0.9,1.6-1.6,2.2-2.5c0.7-1,0.8-2.3,1.3-3.4c0.5-1.1,1.4-2.1,1.4-3.3c0-0.7-0.3-1.4-0.2-2
		c0.2-0.6,0.9-1.1,1.3-1.7c0.3-0.5,0.5-1.1,0.3-1.7c-0.2-0.6-0.6-1.2-0.5-1.6c0.2-0.5,1.5-0.7,1.9-1.3c0.2-0.2,0.2-0.6,0.2-0.9
		c0.1-0.9,0.1-1.7,0.1-2.6c0-1.9-0.2-4,0.3-5.8c0.1-0.3,0.2-0.7,0.3-1c0.2-0.5,0.6-1,0.7-1.6c0-0.5-0.3-1.2,0-1.6
		c0.1-0.2,0.4-0.3,0.5-0.5c0.8-0.7,1-1.9,1-2.9c0-1,0-1.9-0.1-2.9c0-0.4-0.1-0.8-0.1-1.3c0.1-1,0.6-2,0.9-3
		C94.1,103.8,94.2,102.3,93.9,100.9z M21.8,103.2c-0.2,4.9-1.1,9.7-2.7,14.4c-0.4,1.3-0.9,2.5-1.4,3.7c0-0.5,0-1,0-1.5
		c0-0.9-0.1-1.7-0.1-2.6c0-2.4,0.4-4.7,1-7c0.4-1.5,0.8-2.9,0.4-4.5c-0.2-0.9-0.6-1.8-0.2-2.4c0.2-0.4,0.7-0.7,1-1.1
		c0.8-0.9,0.9-2.2,0.9-3.5c0-1-0.1-2,0.4-2.9c0.1-0.2,0.2-0.4,0.4-0.5C21.7,97.9,21.8,100.6,21.8,103.2z M77.5,112.6
		c-0.5,1.6-1.3,2.9-1.2,4.3c0,0.9,0.4,1.8,0.5,2.7c0.1,1.5-0.6,2.9-1.1,4.3c-0.3,1.1-0.5,2.2-0.3,3.2c0.1,0.5,0.2,1,0.3,1.4
		c0,0.7-0.3,1.4-0.5,2.1c-0.2,0.7-0.4,1.5-0.5,2.2c-0.2-0.3-0.3-0.6-0.4-0.9c-0.2-0.9,0.1-1.8,0.2-2.8c0.2-2.4-0.8-4.7-1.2-7
		c-0.6-3-0.1-6.2-0.3-9.4c-0.2-2.2-0.6-4.3-0.1-6.4c0.3-1.1,0.9-2.1,1.2-3.1c0.3,0.2,0.5,0.4,0.7,0.7c0.4,0.6,0.4,1.3,0.4,2.1
		c-0.1,1.3-0.5,2.7,0.3,3.4c0.6,0.5,1.7,0.7,2.1,1.3C77.8,111.2,77.7,111.9,77.5,112.6z"/>
	<path class="st1" d="M66.2,264.4C66.2,264.4,66.2,264.4,66.2,264.4"/>
	<line class="st1" x1="76.8" y1="284" x2="69.7" y2="284"/>
</g>
<g id="INNER">
	<path class="st2" d="M48.3,55.8c0.5-2,0.6-3.6,0.6-5.8"/>
	<path class="st2" d="M56.4,45.9c0.4,0.4,0.6,0.8,0.8,1.5c0.3,0.8,0.4,2.1-0.2,2.2c-0.3,0-0.7-0.1-0.9,0c-0.2,0.1-0.1,0.6-0.1,1
		c0.2,1.5-0.2,2.5,0,3.6c0,0.2,0.1,0.5,0.2,0.7"/>
	<path class="st2" d="M47.1,58c0.9,0.2,1.8,0.4,2.7,0.5c1.3,0.1,2.8,0.2,3.7,0.9c0.4,0.4,0.7,1,0.8,1.8c0.2,1.1,0,2.6,0.2,2.7
		c0.2,0,0.7-1.3,1.1-2.3c0.9-2,1.7-3,2.7-4.2c0.8-0.9,1.7-1.8,2.3-2.9c0.7-1.4,0.8-3.1,1.1-4.7c0.2-1.4,0.7-2.6,0.9-4
		c0.2-1.4,0.2-2.9,0.2-4.2c0-0.4,0-0.8,0-1.2"/>
	<path class="st2" d="M50.4,34.7c0.7,0.7,1.3,1.5,2.1,1.9c1.3,0.8,3,0.8,4.5,0.6c0.9-0.1,1.7-0.3,2.6-0.9c0.5-0.3,0.9-0.7,1.1-1.2"
		/>
	<path class="st2" d="M58.7,28.7c0.1,0.2,0.2,0.3,0.3,0.5c0.1,0.3,0.2,0.6,0,0.8c-0.1,0.2-0.3,0.4-0.6,0.5"/>
	<path class="st2" d="M65.1,23.7c0-1-0.1-2-0.5-2.6c-0.7-0.9-2.4-1.1-3.9-0.8c-1,0.2-1.9,0.5-2.4,1.2c-0.4,0.5-0.6,1.2-0.6,1.9
		c0,0.4,0,0.7,0,1.1"/>
	<line class="st2" x1="59.9" y1="22.3" x2="59.1" y2="22.6"/>
	<path class="st2" d="M46.3,24c2-0.9,3.4-1.6,4.8-1.9c0.2,0,0.4-0.1,0.6,0.1c0.2,0.2,0.2,0.6,0.3,1"/>
	<path class="st2" d="M51.4,22.1c0.4-0.1,0.7,0,1.1,0.1c0.3,0.1,0.5,0.3,0.7,0.4"/>
	<path class="st2" d="M56.4,20.2c-0.1,0.5-0.1,1-0.1,1.5c0,0.2,0.1,0.5,0.1,0.7"/>
	<path class="st2" d="M45.8,22.7c1.8-1.9,3.9-2,5.9-1.9c0.8,0,1.6,0.1,2.2,0.7c0.5,0.5,0.9,1.4,1.3,2.4"/>
	<path class="st2" d="M46.2,159.4c3.1,0.7,6.1,1.4,8.8,2.9c0.9,0.5,1.7,1.1,2.6,1.7"/>
	<path class="st2" d="M42.6,38.5c0.1-1.3,0.2-2.6,0-5c-0.1-0.7-0.2-1.5-0.3-1.5c-0.1,0.1-0.2,1.2-0.6,1.6c-0.4,0.4-1,0-1.6-0.2"/>
	<path class="st2" d="M56.7,25.5c0,0.7,0.4,1.3,0.7,1.9c0.4,0.7,0.7,1.3,0.8,2.1c0.1,0.4,0.1,0.8-0.1,1.1c-0.2,0.4-0.7,0.5-1.2,0.6
		c-0.5,0.1-1,0.2-1.4-0.1c-0.2-0.1-0.3-0.4-0.5-0.5c-0.2-0.1-0.4,0-0.7-0.1c-0.2,0-0.3,0-0.4,0.1c0,0.1,0,0.2,0,0.3
		c0,0.1-0.3,0.1-0.5,0c-0.2-0.1-0.4-0.1-0.4-0.3C53,30.6,53,30.3,53,30.1c0-0.2,0-0.4,0.1-0.6c0.1-0.2,0.2-0.4,0.4-0.5"/>
	<path class="st2" d="M60,57.7c0.6,2.1,1.2,4.2,0.1,5.4c-0.4,0.5-1.2,0.8-1.8,1.1c-1.7,0.8-3.2,1.8-4.6,3c0,0,0,0-0.1,0.1"/>
	<line class="st2" x1="53.6" y1="67.2" x2="52" y2="89.7"/>
	<path class="st2" d="M15.6,273.1c1.6-0.1,3.2-2.5,4.9-3.4c0.9-0.5,1.8-0.5,2.8-0.3c2,0.5,4,2.3,5.4,1.6c0.4-0.2,0.7-0.5,1.2-1.1"/>
	<line class="st2" x1="29.3" y1="282.4" x2="13.7" y2="282.4"/>
	<path class="st2" d="M65.2,33.7c0.5-1.6,0.7-3,0.8-4"/>
	<path class="st2" d="M90.4,283.1c-0.4,0-0.8,0-1.2,0c-3-0.1-4.7-0.1-9.7-0.4c-3-0.2-7.1-0.4-11.3-0.6"/>
	<path class="st2" d="M61.5,281.3c-0.3-0.1-0.5-0.3-0.7-0.5c-0.7-0.6-1.3-1.4-1.5-1c-0.2,0.4,0,1.8,0.1,4.2"/>
	<path class="st2" d="M59.2,270.2c1.7,2,3.5,4,5.5,5.6c5.3,4.2,12.6,6,19.4,6c1.9,0,3.7-0.2,5.5-0.3"/>
	<path class="st2" d="M39.3,27.5c0.2-2.2-0.2-2.8-0.5-3.1c-0.3-0.3-0.5-0.4-0.7-0.4c-0.2,0-0.5,0.1-0.8,0.1
		c-0.2,0.1-0.4,0.1-0.5,0.2c-0.1,0.1-0.1,0.3-0.1,0.8c0,0.5,0.1,1.2,0.4,1.4"/>
	<path class="st2" d="M62.4,265.2c-0.1-0.4-0.4-0.8-0.7-1.1c-0.4-0.3-0.8-0.6-0.9-0.9c-0.1-0.5,1-1.1,1.3-1.9c0.2-0.5,0.1-1,0-1.6
		c-0.2-1.6-0.1-3.1-0.1-4.7c0.2-4.8-0.2-9.6,0.1-14.4c0.1-1.4,0.3-2.8,0.4-4.2c0.5-5.6,0.4-11.2,1.3-16.8c0.2-1.1,0.4-2.1,0.6-3.2"
		/>
	<path class="st2" d="M45.3,26.1c-0.7,0.5-1.5,1-2,1.7c-0.5,0.6-0.8,1.3-1.1,2"/>
	<path class="st2" d="M60.6,22.7c0,0.2,0,0.4,0.2,0.5c0.1,0.1,0.3,0,0.5-0.1c0.1-0.1,0.2-0.2,0.2-0.3c0-0.1-0.2-0.2-0.3-0.3"/>
	<path class="st2" d="M62.2,22.2c0,0.1,0.1,0.3,0.1,0.4c0,0.3,0,0.6-0.1,0.9"/>
	<path class="st2" d="M49.6,22.5c0,0.2-0.1,0.4,0,0.6c0.1,0.4,0.4,0.8,0.8,1.1"/>
	<path class="st2" d="M50.3,22.7c0,0.2,0.1,0.4,0.2,0.5c0.2,0.1,0.5,0.1,0.7-0.1c0.1-0.1,0.2-0.3,0.1-0.4c0-0.1-0.2-0.1-0.3-0.1"/>
	<path class="st2" d="M59,23.1c0.4,0.6,0.7,1.2,1.2,1.5c0.7,0.4,1.8,0.1,2.7-0.2c0.4-0.1,0.7-0.3,1.1-0.5"/>
	<path class="st2" d="M59.9,22.3c-0.1,0.2-0.3,0.5-0.2,0.7c0,0.3,0.5,0.6,1,0.7c0.8,0.2,1.5-0.2,2.2-0.6"/>
	<path class="st2" d="M59.9,22.3c0.4-0.1,0.8-0.1,1.3-0.2c0.5,0,1.1,0,1.5,0.1c0.5,0.2,1,0.6,1.4,1"/>
	<path class="st2" d="M50.4,34.7c1.2,0,2.4,0,3.5,0.5c0.4,0.2,0.8,0.4,1.2,0.5c0.8,0.2,1.7-0.2,2.6-0.4c0.5-0.1,1.1-0.1,1.6-0.1
		c0.5,0,1,0,1.5-0.1"/>
	<path class="st2" d="M64.4,216.6c0.7-2.7,0.7-3.6-0.1-4c-0.8-0.4-2.4-0.4-3.9-0.5c-1.5-0.1-3-0.2-3.5-0.5c-0.5-0.3-0.1-0.7,1.2-1
		c1.3-0.3,3.4-0.6,4.2-0.8"/>
	<path class="st2" d="M60.2,29.8c0.7,1,1.4,2.1,1.7,3.3c0.1,0.5,0.1,1,0.2,1.6"/>
	<path class="st2" d="M51,30.2c-0.8,0.8-1.7,1.5-2.5,2.4c-0.4,0.4-0.8,0.8-1,1.3c-0.3,0.8,0,1.7,0.2,2.6"/>
	<path class="st2" d="M52.1,23.2c-0.4,0.3-0.9,0.7-1.4,0.9c-0.6,0.2-1.3,0.1-2,0"/>
	<path class="st2" d="M53.4,23.6c-0.6,0.5-1.1,0.9-1.7,1.1c-1.1,0.4-2.3,0.1-3.5-0.1"/>
	<path class="st2" d="M43.6,36c1.5,2.2,3,4.4,5.1,5.8c2,1.3,4.5,1.7,7,1.9c1.1,0.1,2.2,0.1,3.1-0.2c1.1-0.4,2-1.4,2.8-2.4"/>
	<path class="st2" d="M65.9,12.9c0.2,0,0.4,0,0.5,0.1c0.4,0.1,0.7,0.4,1.1,0.7"/>
	<path class="st2" d="M65.4,8.5c0.3,0.9,0.6,1.8,0.5,2.6c-0.1,0.7-0.4,1.4-0.7,2"/>
	<line class="st2" x1="40.4" y1="19.9" x2="38.3" y2="21.2"/>
	<path class="st2" d="M41.7,15.3c-0.9,0.8-1.8,1.6-2.4,2.5c-0.5,0.7-0.9,1.4-1.3,2.2"/>
	<path class="st2" d="M37.9,16.8c0.7-0.4,1.5-0.8,1.6-1.5c0.1-0.5-0.1-1.2,0.1-1.6c0.2-0.4,0.8-0.6,1.3-1c0.6-0.4,1-1,1.3-1.6"/>
	<path class="st2" d="M40.4,10.2c1.2,0.2,2.3,0.5,3.3,0.1c0.6-0.2,1.1-0.6,1.6-1"/>
	<path class="st2" d="M45.9,7.9c-0.9,0.5-1.7,1-2.7,1c-0.4,0-0.8-0.1-1.2-0.2"/>
	<path class="st2" d="M54.3,3.4c1.6,0.4,3.2,0.9,3.3,2.6c0,0.8-0.3,1.9-0.1,2c0.2,0.1,1-0.9,1.2-1.8c0.4-1.4-0.7-2.2-1.7-3.1"/>
	<path class="st2" d="M52.2,6.3c-1.7,0.1-3.5,0.2-5.1,0.4c-0.8,0.1-1.5,0.2-2.2,0.3"/>
	<path class="st2" d="M55.2,7.8c-0.7-0.6-1.4-1.2-2.2-1.7c-1-0.6-2.1-1.1-3.3-1.2c-0.5,0-0.9,0-1.4,0"/>
	<path class="st2" d="M41.5,26.6c-0.4-1.1-0.8-2.3-0.8-3.4c0-1.5,0.8-3.1,1.1-4.6c0.2-1.2,0.2-2.3,1.4-3.3c0.8-0.6,2.2-1.2,2.1-1.2
		c-0.1,0-2.1,0.6-2.7,0.4c-0.7-0.2,0.9-1.7,1.8-2.9c0.7-1,1-1.8,1.6-2.3c1.1-0.8,3.1-0.7,4.8-0.7c1.2,0,2.3-0.2,3.5,0
		C55.1,8.7,55.8,9,56.4,9c0.8,0,1.4-0.4,2.3-1.2c0.6-0.5,1.3-1.2,1.4-0.9c0.1,0.2-0.2,0.9,0,1.3c0.1,0.3,0.5,0.5,0.9,0.6
		c2,0.9,2.8,2.9,3.5,4.9c0.7,2,1.4,3.9,1.8,5.7c0.3,1.5,0.4,2.8,0.1,5c-0.2,1.6-0.6,3.7-0.6,3.6c0,0,0.5-2.2,1.2-3.5
		c0.2-0.4,0.4-0.7,0.7-1"/>
	<path class="st2" d="M40.5,28c-0.1,0.3-0.2,0.6-0.1,0.9c0.1,0.5,0.6,1.1,0.5,1.2c-0.1,0.2-1.1-0.3-1.3-0.7
		c-0.2-0.4,0.2-0.8,0.4-1.3c0.4-0.7,0.5-1.3,0.4-2c-0.1-1-0.6-2-1.4-2.5c-0.4-0.3-0.9-0.4-1.4-0.5"/>
	<path class="st2" d="M47.5,125.5c0.7-0.2,1.5-0.5,2-0.2c0.4,0.3,0.7,0.9,0.7,1.5c0,0.6-0.1,1.1-0.5,1.6c-0.4,0.5-0.9,0.8-1.5,0.9
		c-0.6,0.1-1.3-0.1-1.7-0.5c-0.3-0.3-0.4-0.9-0.4-1.4c0-0.5,0.2-1,0.5-1.4C46.9,125.8,47.2,125.7,47.5,125.5z"/>
	<path class="st2" d="M49.3,132c0.8,0,1.7,0,2.5-0.1c1.1-0.1,2.2-0.1,3.2-0.3"/>
	<path class="st2" d="M20,63.5c-0.1-0.9-0.2-1.8-0.3-2.7c-0.4-2-1.1-3.8-1.9-5.7"/>
	<path class="st2" d="M15.7,86.8c-3.4-2.6-6.9-5.3-5.6-6.1c0.7-0.5,3.1-0.4,4.8,0.3c1.8,0.6,2.9,1.8,4,2.9"/>
	<path class="st2" d="M3.3,103.4c-0.4-0.6-0.8-1.2-0.7-1.5c0.1-0.6,1.9-0.2,3.2-0.2c1.2,0,2-0.4,2.9-0.1c1.1,0.3,2.4,1.4,2.5,2
		c0.2,0.9-2.4,0.6-5,0.4"/>
	<path class="st2" d="M7.4,106.7c-1.3-0.1-2.6-0.3-2.7-0.4c-0.1-0.2,2-0.5,3.7-0.5c3.5-0.2,5.3,0.3,7.5,1.3c0.7,0.3,1.5,0.7,2.2,1.1
		"/>
	<path class="st2" d="M78.3,124.4c1.6,1.5,3.1,3,4.7,3.2c1.8,0.1,3.7-1.5,5.6-3.1"/>
	<path class="st2" d="M77.3,108.7c1.1,0.5,2.3,1.1,4,0.7c1.7-0.3,3.9-1.6,3.9-0.6c0,0.3-0.2,0.9-0.6,1.3c-0.8,0.9-2.1,0.4-3.4,0"/>
	<path class="st2" d="M77,78.1c0.4-0.2,0.7-0.5,0.9-1c0.1-0.3,0.1-0.7,0.2-0.9c0.2-0.3,0.7,0.4,1.3,1"/>
	<path class="st2" d="M75.6,74.5c-0.4-0.1-0.8-0.1-1,0.1c-0.4,0.3-0.4,1-0.2,1.5c0.5,1.1,2.1,1.1,2.6,2c0.2,0.4,0.3,0.9,0.1,1.3
		c-0.1,0.5-0.5,0.8-0.8,1.1c-0.6,0.5-1.4,0.8-2.1,0.5c-0.6-0.2-1.1-0.7-1.6-0.8c-0.6-0.1-1.2,0.4-1.8,0.9"/>
	<path class="st2" d="M69.7,81.6c0.8-2.3,1.7-4.5,3.3-6.6c0.6-0.7,1.2-1.5,2-1.7c1.3-0.4,2.7,0.8,4,2c0.6,0.5,1.2,1.1,1.3,1.7
		c0.2,0.8-0.5,1.8-1.3,2.6c-1.3,1.2-2.9,1.9-4.1,2.2c-1,0.2-1.7,0.1-4.1,0C70.1,81.6,69.4,81.6,69.7,81.6
		C69.7,81.6,69.8,81.6,69.7,81.6"/>
	<path class="st2" d="M13.1,149.3c-0.4-0.4-0.7-0.7-0.9-1.2c-0.2-0.7,0-1.5,0.3-2.2c0.4-0.9,1.2-1.5,1.9-2.1c0.4-0.4,0.9-0.8,1.4-1
		c0.3-0.1,0.6-0.2,1-0.2"/>
	<path class="st2" d="M68.4,131.5c0.3,0.4,0.6,0.8,0.9,0.9c0.5,0.2,1.2-0.3,1.8-0.8c1.2-0.9,2.2-1.6,2.8-2.6
		c0.2-0.4,0.4-0.8,0.5-1.3"/>
	<line class="st2" x1="67.8" y1="124.4" x2="68.4" y2="131.5"/>
	<line class="st2" x1="73.1" y1="121.1" x2="67.8" y2="124.4"/>
	<path class="st2" d="M52.1,108.8c0.4-0.2,0.8-0.4,1.1-0.2c0.4,0.2,0.7,1,0.6,1.6c-0.1,0.4-0.3,0.7-0.5,1.1
		c-0.2,0.4-0.4,0.9-0.7,1.1c-0.4,0.2-1.1-0.2-1.3-0.7c-0.2-0.4-0.2-0.8,0-1.2C51.4,109.8,51.7,109.3,52.1,108.8z"/>
	<line class="st2" x1="18.6" y1="119" x2="31" y2="123.7"/>
	<path class="st2" d="M32.5,123c-0.5,1.7-1,3.3-1.8,5.2c-0.5,1-1,2.1-1.8,2.4c-1,0.4-2.3-0.3-3.6-0.9c-1.9-0.9-3.6-1.4-5.4-2
		c-0.5-0.2-1-0.3-1.4-0.5"/>
	<line class="st2" x1="19" y1="117.8" x2="32.5" y2="123"/>
	<path class="st2" d="M50.4,34.7c0.6-0.2,1.2-0.3,1.8-0.4c0.8-0.1,1.7-0.1,2.6,0c0.7,0.1,1.4,0.3,2.1,0.2c0.5,0,0.9-0.2,1.3-0.2
		c0.9-0.1,1.7,0.4,2.6,0.8"/>
	<path class="st2" d="M26.1,89.8C30,92.4,34,95,39,99c1.6,1.3,3.4,2.8,3.7,3.6c1.1,2.4-9.8-1-14.6-5.1c-2.3-2-3.1-4.1-4-6.2"/>
	<path class="st2" d="M53.5,109.1c3-2.3,6-4.5,8.7-7.1c2.7-2.6,5-5.6,8-7.7c1-0.7,2-1.3,3-1.9"/>
	<path class="st2" d="M75.1,61.9c-0.7,3.6-1.4,7.3-2.6,10.7c-1.6,4.9-4.2,9.4-6.5,14.1c-2.1,4.4-4,8.9-7.2,12.5
		c-1.4,1.6-3,2.9-4.6,4.3"/>
	<line class="st2" x1="70.4" y1="57.1" x2="75.1" y2="61.9"/>
	<line class="st2" x1="72.7" y1="55.7" x2="70.4" y2="57.1"/>
	<line class="st2" x1="69" y1="47.8" x2="72.7" y2="55.7"/>
	<path class="st2" d="M45.1,59.8c1.4,1.2,2.7,2.4,4.5,2.5c1,0.1,2.1-0.2,3,0.2c0.3,0.2,0.6,0.4,0.8,0.7"/>
	<path class="st2" d="M64.3,58.3c-0.3-1.2-0.6-2.4-1.3-3.8c-0.2-0.4-0.4-0.8-0.6-0.9c-0.5-0.3-0.8,1.4-1.3,2.5
		c-0.3,0.8-0.7,1.2-1.1,1.7"/>
	<path class="st2" d="M42.6,58.8c0.4-0.3,0.8-0.7,1.3-1c0.5-0.4,1.1-0.8,1.4-0.7c0.5,0.1,0.7,0.8,0.9,1.6"/>
	<path class="st2" d="M42.6,38.5c0.2,1.2,0.4,2.4,0.4,3.7c0,0.9-0.1,1.9-0.1,2.8c0.1,1.7,0.6,3.3,1.1,4.9c0.8,2.4,1.6,4.7,2.6,7
		c0.2,0.4,0.3,0.7,0.5,1.1"/>
	<path class="st2" d="M41.6,41.1c-0.2,1.2-0.4,2.4-0.4,3.6c0,1.7,0.2,3.3,0.5,5c0.3,1.9,0.5,3.8,0.7,5.7c0.3,3,0.4,6.1,0.7,9.2
		c0.3,3.1,0.7,6.1,1.2,9.1c0.8,4.3,1.9,8.5,2.9,12.8c0.8,3.6,1.5,7.2,2.4,10.8c0.7,3,1.6,5.9,2.5,8.8"/>
	<path class="st2" d="M27.8,52.5c0.4,2.9,0.8,5.8,1.5,8.6c1.4,5.5,4,10.7,6.5,15.9c2.1,4.5,4.2,9.1,6.5,13.5c1.8,3.6,3.8,7,6.1,10.3
		c1.3,1.9,2.7,3.8,4.1,5.7"/>
	<path class="st2" d="M40.8,41.7c-1.5,2.7-3.3,5.5-7.4,8.9c-1.2,1-2.7,2-2.2,2.5c0.2,0.2,0.9,0.3,1.5,0.5c1.8,0.5,3.6,1.6,4,2.1
		c0.9,0.9-4-1.1-8.9-3.1"/>
	<path class="st2" d="M21.4,95.3c0.2-0.2,0.3-0.5,0.4-0.7c0.4-0.9-0.1-2-0.1-3.1c0-1.1,0.6-2.1,1-3.2c0.8-2.4,0.2-5.1-0.4-7.6
		c-0.8-3.8-1.3-7.5-1.8-11.3c-0.2-2-0.4-4-0.6-5.9"/>
	<path class="st2" d="M18.7,134.6c-0.6-1.7-1.1-3.3-0.5-4.8c0.1-0.3,0.4-0.7,0.4-1c0.2-0.7-0.1-1.4-0.3-2.1
		c-0.5-1.8-0.6-3.5-0.6-5.3"/>
	<path class="st2" d="M7.4,143.5c0.3-0.2,0.5-0.4,0.8-0.6c0.5-0.3,1.1-0.4,1.4-0.8c0.4-0.4,0.6-1,0.9-1.5c0.6-0.9,1.6-1.4,2.6-1.9
		c1.2-0.6,2.4-1.2,3.7-1.6c0.3-0.1,0.7-0.1,1-0.2"/>
	<path class="st2" d="M15,218.8c3.8,2.7,5.2,2.3,5.6,1.9c0.5-0.4,0-0.8-0.9-1.7c-1-0.9-2.5-2.3-3.1-4.6"/>
	<path class="st2" d="M79.7,146.3c0.3,0.6,0.6,1.2,0.8,2c0.1,0.5,0.2,1.1-0.1,1.3c-0.2,0.3-0.8,0.2-1.3,0.2"/>
	<path class="st2" d="M79.5,143.6c0.7,0.5,1.3,1.1,1.9,1.7c0.3,0.3,0.6,0.7,0.9,1.1"/>
	<path class="st2" d="M74.1,103.2c0.1-0.2,0.1-0.3,0.1-0.5c0.3-1.2,0.2-2.5,0.3-3.8c0.1-1.9,0.6-3.8,1.2-5.7
		c0.6-2.1,1.4-4.2,2.1-6.4c0.9-2.8,1.8-5.6,2.8-8.3c0.8-2.1,1.6-4.2,2.1-6.4c0.6-2.4,0.8-4.8,1.5-7.2c0.4-1.4,1-2.8,1.3-4.3
		c0.2-0.9,0.3-1.9,0.3-2.9"/>
	<path class="st2" d="M78.6,151.2c0.3-1.2,0.6-2.5,0.8-3.7c0.3-2.5,0.3-5.1-0.4-7.5c-0.5-1.8-1.3-3.5-2.5-5
		c-0.6-0.7-1.3-1.5-1.8-2.2"/>
	<path class="st2" d="M16.2,144.3c0.5,1.3,1.1,2.5,1.8,3.7c1.1,1.8,2.4,3.4,4.2,4.5c1.7,1.1,3.8,1.8,5.7,1.6c2-0.1,3.8-1.1,5.6-2.2
		c2.6-1.5,5.1-3.2,7-5.4c1.9-2.1,3.3-4.5,4.8-7c1.3-2.1,2.5-4.1,3.5-6.3c1.3-3,1.9-6.3,2.4-9.6c0.3-1.5,0.5-3,0.7-4.6"/>
	<path class="st2" d="M16.2,144.3c0.3-0.9,0.7-1.9,0.8-2.9c0.2-1.3,0.1-2.7,0.6-3.9c0.3-0.7,0.9-1.3,1-2.1c0-0.3,0-0.5,0-0.8"/>
	<path class="st2" d="M12.9,150.1c0.2-0.7,0.4-1.5,0.7-2.2c0.3-0.9,0.7-1.8,1.3-2.5c0.4-0.5,0.9-0.9,1.4-1.3"/>
	<path class="st2" d="M77.3,152.4c-1.9-0.1-3.8-0.3-5.5-0.9c-3.6-1.2-6.6-4.2-9.2-7.3c-2.5-2.9-4.7-6-6.2-9.3
		c-1.5-3.4-2.4-7.1-3.2-10.7c-0.9-3.7-1.8-7.3-2.1-11.2c-0.1-1.2-0.2-2.5,0.1-3.7c0.4-1.5,1.5-2.9,2.3-4.3c0.7-1.2,1.2-2.6,1.8-3.9
		c1.1-2.5,2.5-4.9,3.6-7.4c1.2-2.7,2.1-5.6,2.9-8.5c1-3.1,1.9-6.2,2.3-9.3c0.3-2.6,0.3-5.2,0.4-7.9c0.2-3.4,0.6-6.8,0.7-10.3
		c0.1-2.7-0.1-5.3-0.3-8c-0.2-1.7-0.4-3.3-0.6-5c0-0.3-0.1-0.6-0.1-0.9"/>
	<path class="st2" d="M41.6,161.2c-1.9,1.2-3.8,2.4-5.9,3.1c-2.1,0.8-4.3,1.1-6.6,1.4"/>
	<path class="st2" d="M46.6,157.9c3-0.2,6.1-0.5,9.1-0.9c3-0.4,5.9-1,8.9-1.6"/>
	<path class="st2" d="M53.3,137.1c-0.2,1.7-0.3,3.4-0.9,4.9c-0.4,1-1,2-1.6,2.9"/>
	<path class="st2" d="M44,160.2c1-1.3,1.9-2.6,2.4-4c0.5-1.5,0.4-3.2,0.3-4.9c-0.2-3.1-0.6-6.2,0.1-9c0.2-0.9,0.6-1.7,0.9-2.6
		c0.4-1.2,0.7-2.5,1-3.8"/>
	<path class="st2" d="M63.3,240.3c2.1-0.9,4.1-1.9,4.7-4.1c0.1-0.4,0.2-0.9,0-1.2c-0.2-0.4-0.8-0.4-1.4-0.5"/>
	<path class="st2" d="M52.3,228.4c0.3,2.8,0.6,5.6,2.1,7.5c1.2,1.6,3.3,2.6,5.4,3.6"/>
	<line class="st2" x1="63.9" y1="205" x2="63" y2="166.7"/>
	<path class="st2" d="M58.2,268.4c0.9-0.2,1.8-0.4,2.6-0.8c1.2-0.6,2.3-1.8,3.8-1.6c0.5,0.1,1.1,0.3,1.5-0.1
		c0.1-0.1,0.2-0.3,0.3-0.5"/>
	<line class="st2" x1="64.2" y1="269.2" x2="68" y2="267.5"/>
	<line class="st2" x1="64.5" y1="270.2" x2="68.9" y2="268.3"/>
	<line class="st2" x1="65.7" y1="271" x2="69.8" y2="269.1"/>
	<line class="st2" x1="66.9" y1="271.4" x2="70.9" y2="269.9"/>
	<line class="st2" x1="67.6" y1="272.5" x2="72.2" y2="271.1"/>
	<line class="st2" x1="62.8" y1="267" x2="71.4" y2="274.7"/>
	<path class="st2" d="M50.5,266c-0.1,0.4-0.1,0.9,0,1.2c0.3,0.9,1.9,1.1,3.2,1.2c1.7,0.1,3.1,0,4.4,0"/>
	<path class="st2" d="M50.8,265.6c1.6,1.1,3.2,2.2,5,2.4c2,0.2,4.1-0.6,6.1-1.5c1.5-0.7,2.9-1.3,4.3-2"/>
	<path class="st2" d="M68.2,282c-7-2.5-9.4-2.5-12.1-2.6c-2-0.1-4.1-0.3-6.8-1.8"/>
	<line class="st2" x1="20.1" y1="271.7" x2="25" y2="271.4"/>
	<line class="st2" x1="19.7" y1="273" x2="25.1" y2="272.8"/>
	<line class="st2" x1="19.5" y1="274.7" x2="24.9" y2="274.4"/>
	<path class="st2" d="M23.6,274.6c0.4-0.7,0.7-1.3,0.7-2c0-0.7-0.2-1.3-0.5-2"/>
	<path class="st2" d="M21.1,276.9c0.2-2,0.3-4.1,0.4-6.1"/>
	<path class="st2" d="M13.9,262.7c0.6,0,1.3,0.1,1.9,0.2c1.4,0.2,2.8,0.8,4.1,1.4c1.1,0.5,2.3,1.1,3.4,1.3c1.9,0.4,3.9-0.2,5.9-0.7"
		/>
	<path class="st2" d="M22.8,222.9c0.5-0.4,1-0.8,1.3-1.3c0.4-1-0.5-2.3-0.8-3.6c-0.2-0.7-0.2-1.3-0.2-1.9c0.1-4.1,0.6-8.2,1.1-12.3
		c0.6-4.7,1.1-9.4,1.5-14.1c0.2-1.9,0.4-3.8,0.6-5.7"/>
	<path class="st2" d="M22.2,269.3c0.5-1.3,0.6-2.7,0.1-3.9c-0.5-1.1-1.6-2.3-1.5-3.4c0.1-0.7,0.7-1.4,0.9-2.1
		c0.3-0.9-0.2-1.9-0.4-2.9c-0.6-2.5-0.2-5,0-7.5c0.3-3.2,0.2-6.4,0.3-9.5c0.1-5.7,0.6-11.4,1.2-17"/>
</g>
</svg>
