<?xml version="1.0" encoding="utf-8"?>
<!-- Generator: Adobe Illustrator 21.0.0, SVG Export Plug-In . SVG Version: 6.00 Build 0)  -->
<svg version="1.1" xmlns="http://www.w3.org/2000/svg" xmlns:xlink="http://www.w3.org/1999/xlink" x="0px" y="0px"
	 viewBox="0 0 201.9 284.5" style="enable-background:new 0 0 201.9 284.5;" xml:space="preserve">
<style type="text/css">
	.st0{fill:#FFFFFF;stroke:#000000;stroke-linecap:round;stroke-linejoin:round;}
	.st1{fill:none;stroke:#000000;stroke-width:0.15;stroke-linecap:round;stroke-linejoin:round;}
</style>
<g id="Layer_3">
</g>
<g id="OUTER">
	<path class="st0" d="M201.1,255c-0.3-0.9-0.9-1.6-1.8-1.8c-0.8-0.3-1.9-0.1-2.9,0.2c-1.1,0.3-2.1,0.9-3.1,1.4
		c-1,0.5-1.8,0.9-2.8,1.1c-1,0.3-2.1,0.4-3.6,0.5c-1.5,0.1-3.5,0.1-4.9,0.2c-1.4,0.1-2.2,0.3-2.7,0.1c-0.5-0.2-0.8-0.7-1.3-1.1
		c-0.5-0.4-1.3-0.8-2.1-1c-0.9-0.2-1.8-0.1-2.4-0.2c-0.6-0.1-0.9-0.3-1.3-0.6c-0.3-0.3-0.6-0.5-1-0.9c-0.3-0.4-0.7-0.9-1.1-1.7
		c-0.4-0.8-0.9-1.7-1.3-2.8c-0.4-1.1-0.9-2.3-1.4-3.7c-0.5-1.4-1.2-3.1-1.9-4.9c-0.7-1.8-1.3-3.6-1.8-5.5c-0.5-1.9-0.8-3.9-1.2-5.8
		c-0.4-2-1-3.9-1.4-5.7c-0.4-1.8-0.7-3.5-1.1-4.7c-0.4-1.3-1-2.2-1.3-3.4c-0.2-1.2-0.1-2.7,0-4.3c0.1-1.6,0.1-3.3,0.1-4.6
		c0.1-1.3,0.2-2.2,0.3-3.3c0.1-1.1,0.2-2.4,0-3.8c-0.2-1.3-0.8-2.7-1.5-4.1c-0.8-1.4-1.7-2.9-2.7-4.7c-1-1.8-2.1-4-3-5.9
		c-0.9-1.9-1.6-3.6-2.1-5.1c-0.5-1.5-0.9-2.9-1.5-4.5c-0.6-1.7-1.4-3.7-2.2-5.6c-0.8-1.8-1.5-3.5-2.2-5.1c-0.7-1.6-1.3-3.3-1.9-4.6
		c-0.7-1.4-1.4-2.5-2.4-3.7c-1-1.2-2.2-2.6-3.1-3.6c-0.9-1-1.6-1.5-2-2c-0.3-0.5-0.3-1,0.1-2c0.5-0.9,1.4-2.3,1.9-3.6
		c0.5-1.3,0.5-2.5,0.6-3.9c0.1-1.5,0.3-3.2,0.3-4.8c0-1.6-0.1-3.1-0.1-5.1c0-2,0.3-4.6,0.5-6.8c0.2-2.2,0.3-4,0.5-5.4
		c0.2-1.4,0.6-2.3,1.1-3.4c0.5-1,1.2-2.2,1.6-2.9c0.4-0.7,0.5-1.1,0.6-1.3c0.2-0.3,0.4-0.4,0.6-0.6c0.2-0.1,0.3-0.2,0.4-0.3
		c0.1-0.1,0.2-0.1,0.4-0.1c0.2,0,0.4,0,0.7,0.1c0.3,0.1,0.5,0.2,0.7,0.4c0.2,0.1,0.3,0.3,0.6,0.4c0.3,0.1,0.7,0.2,1.4,0.2
		c0.7,0,1.6-0.1,2.6-0.2c0.9-0.1,1.9-0.2,3-0.4c1.1-0.2,2.5-0.5,3.7-0.9c1.3-0.4,2.6-0.9,3.9-1.4c1.3-0.4,2.7-0.8,4.2-1.3
		c1.4-0.5,2.9-1.1,4.4-1.6c1.5-0.5,3-0.8,4.4-1.1c1.4-0.3,2.7-0.6,3.7-1c1-0.4,1.8-0.8,2.3-1.1c0.5-0.3,0.8-0.4,1.1-0.5
		c0.3-0.1,0.6-0.2,0.8-0.3c0.2-0.1,0.4-0.3,0.6-0.5c0.2-0.2,0.4-0.3,0.5-0.5c0.1-0.2,0.1-0.4,0-0.6c-0.1-0.2-0.1-0.5-0.2-0.7
		c0-0.2,0-0.4,0-0.5c0.1-0.1,0.2-0.2,0.4-0.3c0.2-0.1,0.4-0.2,0.6-0.4c0.1-0.2,0.2-0.4,0.3-0.6c0-0.2,0.1-0.5,0-0.8
		c-0.1-0.3-0.2-0.5-0.3-0.9c-0.1-0.3-0.1-0.7,0-0.9c0.1-0.2,0.2-0.3,0.4-0.3c0.1-0.1,0.3-0.2,0.3-0.4c0-0.2-0.1-0.5-0.2-0.8
		c-0.1-0.3-0.3-0.5-0.5-0.7c-0.1-0.2-0.2-0.4-0.3-0.6c-0.1-0.2-0.1-0.4,0-0.5c0.1-0.1,0.2-0.2,0.4-0.4c0.2-0.1,0.6-0.3,0.8-0.5
		c0.2-0.2,0.3-0.5,0.3-0.8c0-0.3-0.1-0.7-0.3-1c-0.2-0.3-0.4-0.7-0.7-0.8c-0.3-0.2-0.6-0.2-0.9-0.1c-0.3,0-0.6,0.1-0.8,0.1
		c-0.2,0-0.4-0.1-0.6-0.2c-0.2-0.1-0.3-0.1-0.4-0.3c-0.1-0.1-0.2-0.3-0.3-0.4c-0.2-0.1-0.4-0.2-0.5-0.1c-0.2,0.1-0.3,0.3-0.4,0.4
		c-0.1,0.2-0.1,0.3-0.3,0.4c-0.2,0.1-0.5,0-0.8,0.1c-0.4,0-0.8,0.1-1,0.2c-0.3,0.1-0.5,0.4-0.7,0.6c-0.2,0.2-0.5,0.5-0.7,0.7
		c-0.3,0.3-0.6,0.5-0.9,0.8c-0.3,0.2-0.5,0.4-0.7,0.5c-0.2,0.2-0.3,0.3-0.5,0.5c-0.2,0.2-0.3,0.3-0.5,0.5c-0.2,0.2-0.4,0.5-0.5,0.9
		c-0.2,0.4-0.3,0.8-0.6,1.2c-0.2,0.4-0.5,0.8-0.7,1.1c-0.2,0.3-0.3,0.7-0.4,1c-0.2,0.3-0.4,0.6-0.8,0.8c-0.4,0.2-0.9,0.4-1.3,0.6
		c-0.5,0.2-0.9,0.3-1.4,0.4c-0.5,0.1-1.2,0.2-1.9,0.2c-0.7,0-1.5,0-2.3,0c-0.8,0.1-1.7,0.2-2.5,0.2c-0.7,0-1.3-0.2-1.9-0.4
		c-0.6-0.2-1.1-0.4-1.6-0.6c-0.5-0.2-1-0.3-1.3-0.4c-0.3-0.1-0.5-0.2-0.6-0.3c-0.1-0.2-0.1-0.4-0.1-0.7c0-0.3,0-0.5,0.2-0.9
		c0.2-0.3,0.5-0.7,0.9-1.2c0.4-0.5,1-1.1,1.4-1.8c0.4-0.7,0.7-1.5,0.8-2.4c0.1-0.9,0-1.9-0.3-2.7c-0.2-0.9-0.5-1.6-0.7-2.5
		c-0.2-0.8-0.5-1.7-0.6-2.6c-0.2-0.8-0.4-1.6-0.5-2.2c-0.1-0.6-0.1-1.1-0.1-1.9c0-0.8,0.1-1.9,0.1-3.1c0-1.1,0-2.3,0-3.4
		c0-1.1,0.1-2.2,0.2-3.1c0.1-0.8,0.1-1.3,0-1.9c-0.1-0.6-0.4-1.4-0.8-2c-0.4-0.6-0.9-1.1-1.5-1.6c-0.6-0.6-1.3-1.3-2-1.9
		c-0.7-0.6-1.4-1.2-2.1-1.6c-0.7-0.4-1.5-0.7-2.2-0.9c-0.7-0.3-1.4-0.5-1.8-0.7c-0.4-0.2-0.6-0.2-0.9-0.3c-0.3-0.1-0.8-0.3-1.2-0.4
		c-0.3-0.1-0.6-0.1-0.9-0.2c-0.3-0.1-0.6-0.2-0.9-0.3c-0.2-0.1-0.3-0.2-0.4-0.3c-0.1-0.2-0.1-0.4-0.1-0.7c0-0.3,0-0.7,0.2-1
		c0.2-0.4,0.6-0.8,0.9-1.1c0.3-0.3,0.6-0.6,1-0.8c0.4-0.3,0.8-0.5,1.2-0.7c0.3-0.2,0.6-0.3,1-0.3c0.4,0,1.1,0.1,1.6,0.2
		c0.5,0.1,1,0.2,1.4,0.3c0.4,0.1,0.7,0.2,1,0.4c0.3,0.1,0.4,0.3,0.6,0.4c0.2,0.1,0.3,0.2,0.7,0.3c0.3,0.1,0.8,0.2,1.1,0.2
		c0.4,0.1,0.7,0.2,0.9,0.2c0.3,0.1,0.5,0.1,0.8,0c0.3-0.1,0.5-0.2,0.7-0.4c0.1-0.2,0.2-0.3,0.2-0.5c0-0.2,0-0.3,0-0.5
		c0-0.2,0-0.4,0-0.7c0-0.2,0-0.5,0-0.7c0-0.2,0.1-0.4,0.2-0.5c0.1-0.1,0.3-0.2,0.4-0.3c0.1-0.1,0.3-0.2,0.4-0.3
		c0.1-0.1,0.3-0.2,0.4-0.2c0.1-0.1,0.2-0.1,0.3-0.2c0.1-0.1,0.1-0.2,0.1-0.3c0-0.2,0-0.4,0-0.5c0-0.2-0.1-0.3-0.2-0.4
		c-0.1-0.1-0.4-0.2-0.6-0.4c-0.2-0.1-0.3-0.3-0.3-0.4c-0.1-0.2-0.1-0.4,0-0.6c0.1-0.2,0.2-0.3,0.5-0.3c0.3,0,0.8,0.2,1.2,0.2
		c0.4,0,0.6-0.2,0.8-0.4c0.2-0.2,0.3-0.4,0.4-0.6c0.1-0.2,0.1-0.3,0.2-0.5c0.1-0.2,0.1-0.4,0.2-0.6c0.1-0.2,0.2-0.5,0.3-0.7
		c0.1-0.2,0.1-0.5,0.1-0.6c0-0.1,0.1-0.2,0.4-0.2c0.3,0,0.8,0,1.1,0c0.4,0,0.6-0.1,0.8-0.1c0.2-0.1,0.3-0.1,0.4-0.2
		c0.1-0.1,0.2-0.2,0.2-0.4c0-0.2-0.1-0.4-0.2-0.6c-0.1-0.2-0.2-0.3-0.3-0.6c-0.1-0.3-0.3-0.7-0.4-1c-0.1-0.3-0.2-0.5-0.4-1
		c-0.1-0.5-0.2-1.1-0.3-1.7c-0.1-0.5-0.1-0.9-0.1-1.3c-0.1-0.4-0.1-0.7-0.1-1.1c0.1-0.4,0.3-0.8,0.5-1c0.2-0.2,0.5-0.3,0.7-0.5
		c0.2-0.2,0.3-0.6,0.3-1c0-0.5,0-1,0-1.6c0-0.6,0-1.2,0-1.7c0-0.5-0.1-1-0.1-1.7c-0.1-0.6-0.2-1.5-0.4-2.1c-0.1-0.6-0.3-1.1-0.5-1.7
		c-0.2-0.6-0.5-1.3-0.9-1.9c-0.4-0.6-0.9-1.2-1.4-1.8c-0.5-0.6-0.9-1.3-1.5-2c-0.6-0.7-1.5-1.4-2.3-2c-0.8-0.6-1.6-1-2.5-1.4
		c-0.9-0.4-2-0.8-3-1.1c-1-0.3-2-0.4-2.8-0.6c-0.8-0.1-1.4-0.3-2.1-0.2c-0.7,0-1.6,0.2-2.3,0.4c-0.7,0.2-1.1,0.3-1.6,0.4
		c-0.5,0.1-1,0.2-1.5,0.3c-0.5,0.1-0.9,0.2-1.3,0.2c-0.4,0-0.7,0-0.9,0c-0.2,0-0.3-0.1-0.4-0.2c-0.1-0.1-0.1-0.3-0.2-0.4
		c-0.1-0.1-0.2-0.2-0.4-0.2c-0.2,0-0.3,0-0.5,0c-0.2,0-0.3,0-0.4,0c-0.1,0-0.1,0-0.2,0c-0.1,0-0.2-0.1-0.4-0.2
		c-0.2-0.2-0.4-0.5-0.8-1c-0.4-0.5-0.8-1.2-1.4-1.8c-0.6-0.6-1.2-1.2-1.6-1.5c-0.4-0.3-0.7-0.5-1-0.7c-0.3-0.3-0.8-0.7-1.2-1
		c-0.5-0.3-0.9-0.6-1.3-0.9c-0.3-0.3-0.5-0.6-0.8-1.1c-0.3-0.5-0.9-1.3-1.3-1.8c-0.4-0.5-0.8-0.7-1.1-0.8c-0.3-0.1-0.5-0.2-0.6-0.3
		c-0.1,0-0.1,0-0.1,0.1c0.1,0.1,0.3,0.4,0.5,0.6c0.2,0.2,0.4,0.4,0.5,0.5c0.1,0.1,0.2,0.2,0.3,0.4c0.1,0.2,0.4,0.5,0.5,0.7
		c0.2,0.2,0.2,0.4,0.2,0.4s-0.1-0.2-0.5-0.4c-0.4-0.2-1.1-0.5-1.4-0.5c-0.3,0-0.4,0.1-0.3,0.3c0.1,0.2,0.3,0.3,0.5,0.5
		c0.2,0.2,0.5,0.5,0.8,0.8c0.4,0.3,0.8,0.6,1.3,1c0.4,0.3,0.9,0.7,0.7,0.8c-0.1,0.1-0.8-0.2-1.3-0.5c-0.5-0.2-0.8-0.5-1.1-0.8
		c-0.4-0.3-0.8-0.6-1.2-0.8c-0.4-0.2-0.8-0.4-1.3-0.5c-0.5-0.1-1,0-1.4,0c-0.5,0-1,0.1-1.2,0.1c-0.3,0-0.3,0.1-0.2,0.2
		c0.1,0.1,0.5,0.2,0.7,0.3c0.3,0.1,0.4,0.2,0.8,0.3c0.4,0.1,0.9,0.3,1.4,0.5c0.5,0.2,0.8,0.3,1,0.4c0.2,0.1,0.1,0.1-0.4,0.1
		c-0.5,0-1.4,0-1.9,0.1c-0.6,0.1-0.8,0.2-1.3,0.3c-0.5,0.2-1.3,0.5-1.8,0.8c-0.5,0.3-0.8,0.6-0.9,0.9c-0.1,0.3-0.1,0.5-0.5,0.6
		c-0.4,0.1-1.2-0.1-1.8-0.2c-0.6-0.2-1-0.4-1.6-0.7c-0.6-0.3-1.3-0.6-1.9-0.8c-0.6-0.2-0.9-0.3-1.2-0.4c-0.3-0.1-0.5-0.1-0.4,0
		c0.1,0.1,0.4,0.4,0.9,0.7c0.5,0.4,1.1,0.9,1.7,1.2c0.6,0.3,1.2,0.5,1.7,0.6c0.6,0.2,1.1,0.4,1.6,0.6c0.4,0.2,0.8,0.4,0.9,0.5
		c0.2,0.1,0.1,0.2,0,0.4c-0.1,0.2-0.3,0.4-0.3,0.5c0,0.2,0.3,0.3,0.5,0.4c0.2,0.1,0.3,0.3,0.4,0.4c0.1,0.2,0.2,0.4,0.1,0.5
		c-0.1,0.1-0.5,0.2-0.7,0.4c-0.1,0.2,0,0.4,0.2,0.7c0.2,0.3,0.6,0.6,0.9,1c0.3,0.4,0.7,0.9,1.1,1.5c0.4,0.6,0.9,1.5,1.1,1.9
		c0.2,0.4,0.1,0.5-0.2,0.5c-0.3,0-0.8-0.1-1.2-0.1c-0.4-0.1-0.8-0.1-0.9,0c-0.1,0.2,0.2,0.5,0.6,0.8c0.4,0.3,0.8,0.4,0.8,0.5
		c-0.1,0.1-0.7,0.2-1.1,0.4c-0.5,0.2-0.7,0.4-0.2,0.5c0.5,0.1,1.8,0.2,2.6,0.3c0.8,0.1,1.1,0.1,0.8,0.4c-0.3,0.3-1.1,0.8-1.6,1.5
		c-0.5,0.6-0.7,1.4-0.8,2c-0.1,0.6-0.2,1-0.2,1.4c-0.1,0.4-0.2,0.7-0.5,1c-0.3,0.3-0.8,0.6-1.2,0.8c-0.4,0.2-0.7,0.4-1.2,0.4
		c-0.5,0-1.1,0-1.7,0c-0.5,0-0.9,0.1-1.2,0.3c-0.2,0.2-0.2,0.4-0.2,0.5c0.1,0.1,0.2,0.2,0.2,0.3c0,0.1-0.3,0.4-0.3,0.6
		c0,0.2,0.2,0.4,0.6,0.3c0.4-0.1,1.1-0.6,1.7-0.8c0.5-0.2,0.9,0,0.7,0.3c-0.2,0.3-1,0.7-1.8,1.2c-0.8,0.5-1.6,1.1-2.3,1.6
		c-0.7,0.5-1.2,0.8-1.8,1c-0.6,0.2-1.3,0.2-2,0.4c-0.7,0.1-1.4,0.4-1.8,0.6c-0.3,0.2-0.2,0.5,0,0.7c0.2,0.2,0.5,0.2,0.9,0.3
		c0.4,0.1,0.8,0.1,0.7,0.4c-0.1,0.2-0.6,0.7-1.2,1.1c-0.5,0.4-1.1,0.8-1.4,1.1c-0.3,0.3-0.5,0.5-0.2,0.7c0.3,0.1,0.9,0.2,1.4,0.1
		c0.5,0,0.9-0.1,1.2-0.3c0.4-0.2,0.7-0.6,0.9-0.7c0.2-0.1,0.2,0-0.1,0.4c-0.3,0.4-0.9,1-1.1,1.3c-0.2,0.3,0,0.3,0.6-0.1
		c0.6-0.4,1.5-1.1,2.4-1.7c0.9-0.6,1.8-1.2,2.4-1.5c0.6-0.3,0.8-0.4,1-0.3c0.2,0.1,0.4,0.5-0.2,1c-0.5,0.5-1.8,1.2-2.7,1.9
		c-0.9,0.7-1.5,1.3-2.3,2.1c-0.7,0.7-1.6,1.5-2.1,2.1c-0.5,0.6-0.6,0.9-0.3,1.1c0.2,0.2,0.8,0.2,1.5,0c0.7-0.2,1.6-0.7,2.2-1.2
		c0.6-0.5,0.8-1,1.4-1.7c0.6-0.6,1.7-1.4,2.6-2c0.9-0.6,1.7-1.2,2.4-1.9c0.7-0.7,1.2-1.6,1.8-2.2c0.6-0.5,1.2-0.7,1.4-0.6
		c0.2,0.1,0.1,0.5-0.3,1.3c-0.4,0.8-1.2,2.1-1.7,3c-0.5,0.9-0.7,1.5-1,2c-0.3,0.5-0.5,0.8-0.9,1.2c-0.4,0.4-0.8,0.9-1.1,1.3
		c-0.3,0.4-0.4,0.7-0.5,1.1c-0.1,0.3-0.3,0.7-0.3,0.9c0.1,0.2,0.3,0.3,0.5,0.4c0.2,0.1,0.4,0.1,0.2,0.4c-0.2,0.3-0.7,0.9-1.1,1.3
		c-0.4,0.4-0.7,0.6-0.7,0.7c0,0.1,0.2,0.2,0.9,0c0.7-0.1,1.7-0.4,2.5-0.8c0.8-0.4,1.3-0.8,1.9-1.1c0.6-0.2,1.2-0.3,2-0.7
		c0.7-0.4,1.5-1.2,2.2-1.8c0.6-0.6,1.1-1,1.5-1.4c0.4-0.4,0.7-0.7,0.9-0.9c0.2-0.2,0.4-0.3,0.6-0.3c0.1,0,0.1,0.2,0,0.7
		c-0.2,0.4-0.5,1.2-0.8,1.8c-0.3,0.7-0.7,1.3-0.9,1.7c-0.2,0.5-0.4,0.8-0.3,0.9c0.1,0.1,0.5,0,0.9-0.4c0.3-0.4,0.5-1,0.8-1.6
		c0.3-0.6,0.7-1.3,1-1.9c0.3-0.6,0.5-1.2,0.7-1.8c0.2-0.6,0.2-1.3,0.4-1.9c0.2-0.6,0.4-1.1,0.7-1.5c0.3-0.5,0.5-0.9,0.6-1.3
		c0.1-0.4-0.1-0.8-0.1-1.2c0-0.4,0.1-0.7,0.3-0.8c0.2-0.1,0.4,0,0.7,0.2c0.2,0.2,0.5,0.5,0.6,0.7c0.1,0.3,0.2,0.6,0.3,1
		c0.1,0.4,0.3,0.8,0.5,1.1c0.2,0.3,0.4,0.5,0.7,0.7c0.2,0.2,0.5,0.5,0.7,0.8c0.2,0.3,0.3,0.7,0.3,1c0,0.3-0.1,0.6-0.3,1.6
		c-0.2,1-0.6,2.8-1.1,4.3c-0.5,1.5-1.1,2.7-1.7,3.7c-0.6,1-1.3,1.6-2,2.3c-0.7,0.7-1.4,1.3-2.3,1.9c-0.9,0.6-2,1.1-2.9,1.7
		c-0.8,0.6-1.4,1.1-2,1.6c-0.6,0.5-1.1,0.9-1.7,1.3c-0.6,0.4-1.4,0.8-2.2,0.9c-0.8,0.2-1.7,0.1-2.8,0c-1.1-0.1-2.4-0.3-3.6-0.1
		c-1.1,0.2-2.1,0.6-3,1.2c-0.9,0.6-1.7,1.3-2.5,2.1c-0.8,0.8-1.6,1.8-2.3,2.7c-0.7,0.9-1.4,1.7-2.2,2.6c-0.8,0.8-1.8,1.6-2.8,2.3
		c-1,0.7-2.1,1.2-3.1,1.7c-1.1,0.5-2.2,0.9-3.3,1.4c-1.1,0.5-2.1,1.2-3.4,2.1c-1.2,1-2.7,2.3-3.9,3.3c-1.2,1-2.2,1.7-3.5,2.9
		c-1.2,1.2-2.7,2.8-3.6,4.2c-0.9,1.4-1.3,2.6-1.6,3.5c-0.3,0.8-0.6,1.3-0.6,1.9c0,0.6,0.3,1.3,0.9,2.3c0.6,1,1.5,2.2,2.3,3.3
		c0.9,1.1,1.7,2.2,2.4,3.2c0.6,1,1.1,1.9,1.7,2.8c0.6,0.9,1.4,1.8,2.3,2.7c0.9,0.9,2,1.9,2.9,2.8c0.9,0.9,1.7,1.7,2.6,2.5
		c0.8,0.9,1.7,1.8,2.6,2.6c0.9,0.8,1.8,1.6,2.6,2.2c0.8,0.6,1.4,1.1,2.2,1.9c0.8,0.8,1.7,1.9,2.5,2.8c0.8,1,1.6,1.8,2.1,2.7
		c0.5,0.8,0.8,1.6,1.1,2.2c0.3,0.6,0.6,0.9,0.9,1.2c0.3,0.3,0.7,0.5,1,0.8c0.3,0.3,0.5,0.5,0.7,0.8c0.2,0.3,0.4,0.5,0.6,0.7
		c0.2,0.2,0.4,0.4,0.4,0.7c0,0.2-0.1,0.5-0.3,0.8c-0.1,0.3-0.3,0.7-0.5,1.2c-0.2,0.5-0.6,1.2-1,1.8c-0.4,0.6-0.8,1.1-1.2,1.6
		c-0.4,0.5-0.9,1.1-1.3,1.6c-0.4,0.5-0.7,1.1-0.9,1.6c-0.2,0.6-0.3,1.2-0.6,2c-0.3,0.8-0.7,1.9-1,2.9c-0.3,1-0.5,2.1-0.7,3.1
		c-0.2,1-0.3,2.1-0.3,3.3c0,1.2,0.1,2.4,0.2,3.5c0.1,1.1,0.1,2.1,0.4,3c0.3,0.9,0.7,1.7,1.1,2.4c0.4,0.7,0.7,1.5,0.9,2
		c0.2,0.6,0.3,1,0.4,1.4c0.1,0.3,0.2,0.5,0.3,0.7c0,0.3,0,0.6-0.3,1.1c-0.3,0.5-0.9,1.2-1.4,2.4c-0.6,1.2-1.2,3.1-2,5.3
		c-0.8,2.3-1.8,5-2.5,7c-0.7,2-1.1,3.1-1.7,4.7c-0.5,1.5-1.1,3.4-1.5,4.9c-0.4,1.5-0.6,2.6-0.7,3.5c-0.2,0.9-0.4,1.6-0.6,2.1
		c-0.2,0.5-0.4,0.7-0.7,0.7c-0.3,0-0.6-0.1-1.3-0.4c-0.7-0.3-1.6-0.7-2.6-1.2c-0.9-0.6-1.8-1.3-2.8-2c-1.1-0.7-2.3-1.5-3.8-2.2
		c-1.4-0.6-3.1-1.1-4.6-1.7c-1.5-0.6-2.9-1.2-4.2-1.7c-1.3-0.4-2.4-0.7-4-0.9c-1.6-0.2-3.5-0.3-5.6-0.4c-2-0.1-4.1-0.3-6-0.6
		c-1.9-0.2-3.6-0.5-5.2-0.7c-1.6-0.2-3-0.4-4.4-0.8c-1.5-0.3-3-0.8-3.9-1.2c-0.9-0.3-1.2-0.5-1.5-0.9c-0.3-0.4-0.5-0.9-0.9-1.7
		c-0.4-0.7-0.9-1.7-1.6-2.5c-0.6-0.8-1.4-1.5-2.1-2.3c-0.7-0.7-1.4-1.5-1.9-2.1c-0.5-0.6-0.8-1-1.1-1.5c-0.3-0.5-0.5-1.2-0.7-1.7
		c-0.2-0.5-0.4-1-0.5-1.3c-0.1-0.3-0.2-0.6-0.5-0.9c-0.3-0.3-0.8-0.6-1.4-0.5c-0.6,0-1.2,0.4-2.1,1c-0.9,0.5-2,1.2-2.9,2
		c-1,0.9-1.8,2-2.8,3c-1,1.1-2.1,2.2-3.1,3.6c-1,1.4-2,3.1-2.9,4.6c-0.8,1.4-1.5,2.5-2.1,3.5c-0.7,1-1.4,1.8-2.2,2.8
		c-0.8,1-1.7,2-2.5,3c-0.8,1-1.4,1.8-2.1,2.8c-0.6,1-1.2,2-1.7,3.1c-0.5,1.1-1,2.2-1.3,3.3c-0.3,1.1-0.5,2.1-0.4,3
		c0,0.9,0.2,1.8,0.4,2.6c0.2,0.8,0.4,1.5,0.8,2.2c0.3,0.6,0.8,1.2,1.3,1.4c0.5,0.2,1.1,0.2,1.6-0.1c0.5-0.3,1-0.7,1.5-1.3
		c0.5-0.6,1.1-1.4,1.9-2.3c0.8-0.9,1.7-1.9,2.4-2.8c0.7-0.9,1.1-1.6,2-2.1c0.9-0.5,2.2-0.8,3.4-1.1c1.1-0.3,2-0.5,2.9-0.8
		c0.9-0.3,1.7-0.6,2.3-1c0.6-0.3,1.1-0.6,1.6-0.7c0.6,0,1.3,0.2,1.9,0.4c0.6,0.2,1.2,0.4,1.8,0.4c0.6,0.1,1.4,0.1,2,0.1
		c0.7-0.1,1.2-0.2,1.6-0.4c0.3-0.3,0.4-0.6,0.5-1c0-0.4-0.1-0.9-0.1-1.2c0-0.3,0-0.6,0.7-0.6c0.7,0,1.9,0.1,3.8,0.5
		c1.8,0.4,4.2,1,6.5,1.6c2.3,0.6,4.5,1.3,6,1.9c1.5,0.7,2.3,1.3,3.4,2.1c1.1,0.8,2.5,1.6,4.5,2.4c2,0.8,4.5,1.5,6.4,2.1
		c1.9,0.6,3,1.2,4.8,1.9c1.8,0.7,4.2,1.6,5.7,2.1c1.5,0.5,2,0.7,2.5,1c0.5,0.3,1.1,0.6,1.4,1c0.3,0.4,0.4,0.9,0.6,1.2
		c0.2,0.3,0.6,0.5,1.3,0.6c0.6,0.2,1.5,0.4,2.4,0.8c0.9,0.4,1.9,0.9,2.9,1.4c1,0.5,2,1,3.1,1.4c1.1,0.4,2.3,0.8,3.5,1
		c1.2,0.2,2.5,0.2,3.7,0c1.2-0.2,2.2-0.7,3.4-1.5c1.2-0.8,2.5-2,3.8-3.3c1.3-1.3,2.7-2.7,3.8-3.9c1.1-1.2,2-2.3,2.9-3.2
		c0.8-1,1.6-1.8,2.5-2.9c0.9-1,2-2.2,2.8-3.2c0.8-1,1.5-1.9,2.1-2.8c0.6-0.9,1.2-1.7,1.8-2.5c0.6-0.8,1.1-1.5,1.6-2.1
		c0.5-0.6,1.1-1.1,1.4-1.4c0.3-0.3,0.5-0.4,0.6-0.4c0.1,0,0.2,0,0.4,0.1c0.1,0.1,0.3,0.3,0.5,0.5c0.2,0.2,0.3,0.5,0.9,1.1
		c0.6,0.6,1.5,1.5,2.3,2.4c0.9,0.9,1.6,1.7,2.4,2.5c0.7,0.8,1.4,1.4,2.2,2.2c0.8,0.8,1.7,1.6,2.3,2.3c0.7,0.6,1.1,1,1.8,1.7
		c0.6,0.6,1.5,1.5,2,2.1c0.6,0.6,0.9,0.9,1.1,1.2c0.2,0.3,0.4,0.6,0.6,0.9c0.2,0.3,0.3,0.6,0.4,0.9c0.1,0.3,0.2,0.5,0.3,0.7
		c0.2,0.2,0.4,0.4,0.7,0.5c0.3,0.1,0.5,0.3,0.6,0.4c0.1,0.1,0.1,0.2,0,0.4c-0.1,0.2-0.3,0.5-0.4,0.7c-0.1,0.2,0,0.3,0.1,0.5
		c0.2,0.2,0.5,0.6,0.6,0.8c0.2,0.3,0.2,0.4,0.2,0.7c0,0.3,0.1,0.7,0,0.9c-0.1,0.3-0.2,0.4-0.4,0.6c-0.2,0.2-0.4,0.4-0.4,0.7
		c0,0.3,0.2,0.6,0.4,1c0.2,0.4,0.5,0.8,0.7,1.3c0.2,0.5,0.3,1.2,0.4,2c0.1,0.8,0.2,1.8,0.2,2.5c0,0.8,0,1.3,0.1,1.9
		c0,0.6,0.2,1.1,0.3,1.7c0.1,0.6,0.3,1.2,0.5,2c0.2,0.8,0.3,1.7,0.7,2.9c0.4,1.2,1,2.6,1.7,4.2c0.7,1.7,1.4,3.6,2.1,5.2
		c0.7,1.6,1.3,2.9,2.2,4.3c0.8,1.4,1.9,3,2.8,4.6c1,1.6,1.9,3.1,2.8,4.6c0.9,1.5,1.8,3,2.7,4.7c1,1.6,2,3.4,2.9,4.7
		c0.9,1.3,1.6,2.1,2,2.9c0.4,0.8,0.6,1.5,0.6,2.3c0,0.8-0.1,1.6-0.3,2.1c-0.1,0.5-0.2,0.8-0.1,1.2c0.1,0.4,0.2,0.8,0.2,1.3
		c0,0.4-0.2,0.9-0.3,1.3c-0.1,0.4-0.3,0.8-0.2,1.3c0.1,0.5,0.4,1,0.8,1.7c0.4,0.7,0.9,1.4,1.3,2.2c0.4,0.8,0.7,1.6,1.1,2.3
		c0.4,0.8,0.9,1.5,1.4,2.3c0.4,0.8,0.7,1.6,0.9,2.2c0.2,0.7,0.4,1.2,0.7,1.5c0.3,0.3,0.8,0.5,1.4,0.6c0.6,0.1,1.5,0.1,2.2,0.1
		c0.7-0.1,1.3-0.3,1.9-0.6c0.5-0.3,1-0.8,1.5-1.2c0.6-0.4,1.3-0.8,1.9-1.4c0.7-0.6,1.3-1.3,1.9-1.8c0.6-0.5,1.1-0.9,1.8-1.4
		c0.8-0.4,1.8-1,2.8-1.5c1-0.5,2-0.9,3.1-1.4c1.1-0.5,2.3-1.1,3.6-1.7c1.3-0.6,2.5-1.3,3.5-2c1-0.7,1.6-1.5,2.4-2.7
		c0.8-1.1,1.6-2.6,2.4-3.8c0.8-1.2,1.5-2.2,2-3.2c0.6-1,1-2.1,1.2-3.2C201.4,257,201.4,255.9,201.1,255z M106.6,112.2
		c0,0.7,0.1,1.4,0.1,1.8c0,0.4-0.1,0.7-0.3,0.8c-0.1,0.1-0.2,0.2-0.4,0.2c-0.1,0-0.3,0.1-0.5,0c-0.2-0.1-0.4-0.2-0.7-0.5
		c-0.3-0.2-0.6-0.6-1-0.9c-0.4-0.4-0.8-0.8-1.2-1.3c-0.5-0.5-1-1-1.6-1.7c-0.6-0.6-1.2-1.3-1.8-1.9c-0.5-0.6-1-1.2-1.5-1.8
		c-0.5-0.6-0.9-1.1-1.4-1.7c-0.4-0.6-0.8-1.1-1.3-1.7c-0.5-0.6-1-1.2-1.4-1.8c-0.4-0.5-0.7-0.9-1-1.5c-0.3-0.6-0.6-1.2-0.8-1.9
		c-0.2-0.7-0.4-1.3-0.7-2c-0.3-0.7-0.8-1.4-1.2-2.1c-0.4-0.6-0.7-1.2-0.9-1.7c-0.3-0.5-0.6-1.1-0.9-1.6c-0.3-0.5-0.5-1-0.5-1.4
		c0-0.4,0.2-0.7,0.5-0.9c0.3-0.2,0.6-0.4,1-0.6c0.4-0.2,0.8-0.5,1.3-0.7c0.5-0.2,1.2-0.4,1.9-0.7c0.7-0.3,1.5-0.6,2.2-0.9
		c0.7-0.3,1.3-0.6,2.1-0.9c0.7-0.3,1.6-0.8,2.4-1.2c0.8-0.4,1.7-0.9,2.3-1.2c0.6-0.4,1-0.6,1.6-0.9c0.5-0.3,1.1-0.6,1.5-0.8
		c0.4-0.2,0.6-0.3,0.8-0.2c0.3,0,0.6,0.2,0.8,0.5c0.2,0.3,0.2,0.7,0.2,1.2c0,0.5-0.1,1.1-0.1,1.8c0,0.7,0,1.6,0,2.6c0,1,0,2,0,2.9
		c0,0.9-0.1,1.7-0.1,2.4c0,0.7,0.1,1.3,0.2,1.9c0.1,0.6,0.1,1,0.2,1.6c0,0.6,0,1.2,0,1.7c0,0.5-0.1,0.8,0,1.6c0,0.7,0.1,1.9,0.1,2.9
		c0,1,0,1.7,0.1,2.5c0.1,0.8,0.2,1.7,0.2,2.7c0,1-0.1,2.3-0.1,3.2C106.5,110.7,106.5,111.4,106.6,112.2z"/>
</g>
<g id="INNER">
	<path class="st1" d="M127.1,33.6c-0.6-3.3-0.4-4.9-0.3-6.3c0.2-1.4,0.4-2.7,0.8-3.8c0.4-1.1,0.9-2.1,1.5-2.9c0.5-0.8,1-1.5,1.5-2
		c0.5-0.5,0.9-0.9,1.3-1.2c0.4-0.3,0.6-0.5,0.8-0.7c0.2-0.2,0.2-0.3,0.2-0.5c0-0.2-0.1-0.4-0.1-0.5c0-0.1,0-0.2,0-0.4
		c0-0.1,0-0.3,0-0.4c0-0.1,0.1-0.3,0.2-0.4c0.1-0.1,0.2-0.3,0.3-0.4c0.1-0.1,0.3-0.2,0.4-0.3c0.1-0.1,0.3-0.2,0.4-0.4
		c0.1-0.1,0.2-0.3,0.4-0.4c0.1-0.1,0.3-0.2,0.5-0.3c0.2-0.1,0.4-0.2,0.8-0.4"/>
	<path class="st1" d="M132.7,15.2c-0.5-0.1-0.6-0.1-0.7-0.1c-0.1,0-0.1-0.1-0.1-0.2c0-0.1,0-0.2,0.1-0.3c0-0.2,0.1-0.4,0.2-0.6
		c0.1-0.2,0.2-0.4,0.3-0.6c0.1-0.2,0.2-0.4,0.4-0.5c0.2-0.1,0.4-0.2,0.6-0.3c0.2-0.1,0.4-0.2,1.2-0.8"/>
	<path class="st1" d="M142.1,30.6c-0.6-0.7-0.7-0.8-0.9-1c-0.1-0.1-0.2-0.2-0.3-0.3c-0.1-0.1-0.3-0.1-0.5-0.2c-0.2,0-0.4,0-0.6-0.1
		c-0.2,0-0.4,0-0.7,0.1c-0.3,0.1-0.6,0.2-1,0.4c-0.3,0.2-0.6,0.4-0.7,0.7c-0.2,0.3-0.3,0.6-0.4,0.9c-0.1,0.4-0.2,0.7-0.3,1.1
		c-0.1,0.3-0.1,0.6-0.1,0.8c0,0.2-0.1,0.4-0.1,0.7c0,0.2,0,0.5,0.2,0.8c0.1,0.3,0.3,0.6,0.6,0.9c0.2,0.3,0.5,0.6,0.8,0.9
		c0.3,0.3,0.7,0.7,1,1c0.3,0.3,0.5,0.6,0.7,0.8c0.2,0.2,0.4,0.4,0.6,0.4c0.2,0.1,0.4,0,0.6-0.1c0.2-0.1,0.4-0.3,0.5-0.5
		c0.1-0.2,0.2-0.4,0.3-0.6c0.1-0.2,0.1-0.5,0.1-1"/>
	<path class="st1" d="M140.4,30.3c-1.6,0-1.9,0.2-2.1,0.5c-0.2,0.2-0.2,0.6-0.3,0.9c-0.1,0.3-0.2,0.7-0.3,1.1
		c-0.1,0.4-0.1,0.7-0.1,1c0,0.3,0.1,0.6,0.3,0.8c0.2,0.2,0.4,0.4,0.6,0.6c0.2,0.2,0.4,0.3,0.7,0.5c0.2,0.2,0.5,0.4,0.8,0.5"/>
	<path class="st1" d="M160.2,22.1c-2.3-1.1-2.7-1.3-3.2-1.4c-0.5-0.1-1-0.1-1.5-0.1c-0.4,0-0.7,0-0.9,0c-0.2,0-0.3,0-0.7,0
		c-0.4,0-1,0-1.6-0.1c-0.5-0.1-0.9-0.2-1.3-0.3c-0.4-0.1-0.7-0.1-1,0c-0.3,0-0.7,0.1-1,0.2c-0.3,0.1-0.6,0.2-0.7,0.3
		c-0.1,0.2,0.1,0.5,0.4,1c0.2,0.5,0.5,1.3,0.8,1.8c0.3,0.5,0.5,0.7,0.6,0.9c0.2,0.3,0.3,0.6,0.3,1.1c0,0.4-0.2,0.9-0.4,1.4
		c-0.2,0.5-0.6,1.1-0.8,1.6c-0.3,0.5-0.4,0.8-0.6,1.1c-0.2,0.3-0.3,0.5-0.5,0.7c-0.2,0.2-0.3,0.3-0.8,0.3c-0.5,0-1.4-0.2-2-0.3
		c-0.6-0.2-1-0.4-1.4-0.5c-0.3-0.1-0.6-0.1-0.9-0.2c-0.2-0.1-0.4-0.2-0.6-0.3c-0.2-0.1-0.6-0.2-0.8-0.3c-0.2-0.1-0.4-0.1-0.5-0.1
		c-0.1-0.1-0.3-0.1-0.4-0.2c-0.1,0-0.2,0-0.4-0.1c-0.2,0-0.6,0-0.9,0c-0.3,0-0.6,0.1-0.9,0.1c-0.2,0-0.3,0.1-0.5,0.1
		c-0.1,0-0.3,0.1-0.6,0.2c-0.2,0.1-0.5,0.3-0.7,0.6c-0.2,0.2-0.3,0.5-0.4,0.7c-0.1,0.2-0.3,0.5-0.4,0.7c-0.1,0.2-0.2,0.4-0.2,0.6
		c-0.1,0.1-0.2,0.2-0.3,0.5c-0.1,0.3-0.2,0.7-0.2,1.1c0,0.4,0.1,0.6,0.1,0.9c0,0.3,0,0.5,0,0.9c0,0.4,0.1,0.9,0,1.4
		c-0.1,0.5-0.3,0.9-0.6,1.3c-0.3,0.4-0.8,0.6-1.1,0.8c-0.3,0.2-0.5,0.3-0.8,0.5c-0.3,0.2-0.7,0.5-1.1,0.7c-0.4,0.2-0.7,0.4-1,0.5
		c-0.4,0.1-0.8,0.2-1.7,0"/>
	<path class="st1" d="M155.5,32.6c-0.6,0.5-0.8,0.5-1,0.5c-0.2,0-0.3,0-0.4,0c-0.1,0,0-0.1,0-0.2c0-0.1,0.1-0.2,0.3-0.3
		c0.2-0.1,0.5-0.2,0.6-0.3c0.2-0.1,0.3-0.2,0.5-0.4c0.2-0.1,0.4-0.2,0.7-0.3c0.2-0.1,0.5-0.1,0.8-0.2c0.3-0.1,0.6-0.1,1-0.2
		c0.4-0.1,0.7-0.1,1-0.1c0.3,0,0.4,0,0.6,0c0.2,0,0.5,0.1,0.6,0.1c0.2,0,0.3,0.1,0.4,0.1c0.1,0,0.2,0.1,0,0.7"/>
	<path class="st1" d="M155.5,32.6c0.3-0.3,0.8-0.3,1.1-0.4c0.3-0.1,0.5-0.1,0.7-0.2c0.3-0.1,0.7-0.2,1-0.2c0.4,0,0.8,0,1.1,0.1
		c0.3,0,0.5,0,0.6,0.1c0.1,0,0.2,0,0.3,0.1c0.1,0,0.1,0,0.3,0.1"/>
	<path class="st1" d="M155.7,33.2c0,0,0.1,0,0.2-0.1c0.1-0.1,0.3-0.3,0.5-0.4c0.2-0.1,0.5-0.1,0.7-0.2c0.2,0,0.3-0.1,0.5-0.1
		c0.2,0,0.3,0,0.4,0c0.1,0,0.1,0,0.2,0.1c0,0,0,0.1,0.1,0.2c0,0.1,0,0.2,0.1,0.4c0,0.1,0,0.3,0,0.4c0,0.1,0,0.1,0,0.2
		c0,0.1-0.1,0.1-0.3,0.1c-0.2,0-0.5-0.1-0.7-0.2c-0.2-0.1-0.3-0.1-0.5-0.1c-0.1,0-0.3,0-0.4-0.1c-0.2-0.1-0.4-0.2-0.5-0.2
		C155.7,33.2,155.7,33.2,155.7,33.2z"/>
	<path class="st1" d="M158.8,41.9c-0.8-0.1-0.8-0.1-0.9-0.1c-0.1,0-0.2,0-0.2,0c-0.1,0-0.1,0-0.2-0.1c0-0.1-0.1-0.2-0.1-0.3
		c0-0.1,0-0.2,0-0.4c0-0.1,0-0.3,0.1-0.5c0-0.2,0.1-0.4,0.2-0.6c0.1-0.2,0.2-0.3,0.3-0.3c0.1-0.1,0.2-0.1,0.4,0
		c0.2,0.1,0.5,0.2,0.9,0.4"/>
	<path class="st1" d="M157.8,44.2c0,0-0.5-0.1-0.9-0.1c-0.4,0-0.8,0.1-1,0.2c-0.2,0.1-0.3,0.1-0.5,0.1c-0.2,0-0.4,0-0.6,0
		c-0.2,0-0.3,0-0.4,0.1c-0.1,0-0.2,0-0.3,0.1c-0.1,0.1-0.3,0.1-0.3,0.2c-0.1,0.1,0,0.2,0.1,0.3c0.1,0.1,0.2,0.4,0.3,0.5
		c0.1,0.2,0.1,0.3,0.2,0.4c0,0.1,0.1,0.3,0.1,0.4c0,0.1,0.1,0.3,0.1,0.4c0,0.1,0.1,0.3,0.1,0.4c0,0.1,0.1,0.2,0.1,0.2
		c0,0.1,0.1,0.1,0.1,0.2c0,0.1,0.1,0.2,0.1,0.2c0.1,0.1,0.1,0.2,0.2,0.2c0.1,0.1,0.1,0.1,0.6,0.3"/>
	<path class="st1" d="M141.6,35.5c-0.6-0.6-1-0.8-1.4-0.9c-0.3-0.1-0.5-0.2-0.7-0.3c-0.2-0.1-0.3-0.2-0.5-0.4
		c-0.1-0.2-0.2-0.3-0.2-0.5c0-0.2,0.2-0.5,0.3-0.7c0.1-0.2,0.3-0.3,0.5-0.3c0.2-0.1,0.4-0.1,0.6,0c0.2,0.1,0.2,0.2,0.3,0.4
		c0,0.2,0.1,0.4,0.4,0.7"/>
	<path class="st1" d="M158.2,32.6c-0.3,0-0.4,0.1-0.5,0.2c-0.1,0.1-0.1,0.2-0.1,0.2c0,0.1,0,0.2,0,0.3c0.1,0.1,0.2,0.2,0.7,0.3"/>
	<path class="st1" d="M158.2,32.9c-0.2,0-0.2,0.1-0.2,0.2c0,0.1,0.1,0.2,0.3,0.1"/>
	<path class="st1" d="M155.4,33.7c0.3,0.4,0.6,0.7,0.8,0.8c0.3,0.1,0.5,0.1,0.7,0.1c0.2,0,0.4,0,0.7,0c0.3,0,0.7,0,1.2,0.1"/>
	<path class="st1" d="M149.6,51.4c-2.3-2.4-2.5-2.6-3-2.9c-0.5-0.3-1.2-0.9-2-1.3c-0.7-0.4-1.4-0.8-1.9-1c-0.5-0.3-0.8-0.4-1.1-0.6
		c-0.3-0.2-0.7-0.4-1-0.7c-0.3-0.3-0.6-0.6-0.7-1.2c-0.1-0.6-0.1-1.5,0.3-3.4"/>
	<path class="st1" d="M154.4,95.7c-1.3,1-1.8,1.6-2.4,2c-0.5,0.4-1,0.6-1.6,0.9c-0.5,0.3-1,0.7-1.5,1c-0.5,0.4-0.9,0.7-1.3,1
		c-0.3,0.3-0.6,0.5-2.8,1.7"/>
	<path class="st1" d="M154.4,94.2c-1.3,0.6-1.9,0.9-2.5,1.1c-0.6,0.2-1.3,0.4-1.9,0.6c-0.6,0.2-1.2,0.5-1.7,0.7
		c-0.5,0.2-0.8,0.2-1.2,0.2c-0.4,0.1-0.7,0.1-1.1,0.2c-0.4,0.1-0.7,0.2-1.2,0.2c-0.5,0.1-1.3,0.1-2,0.2c-0.7,0.1-1.4,0.2-2,0.3
		c-0.6,0.1-1.1,0.2-1.6,0.3c-0.5,0.1-0.9,0.2-1.3,0.2c-0.4,0.1-0.9,0.1-2,0.2c-1,0-2.6,0.1-4.1,0.1c-1.5,0-3,0-4.1-0.2
		c-1.1-0.2-2-0.6-2.6-1c-0.6-0.4-1.1-0.8-1.4-1.1c-0.3-0.3-0.5-0.6-0.8-0.9c-0.3-0.3-0.7-0.7-0.9-1.4"/>
	<path class="st1" d="M145.1,97.3c-0.3,1.8-0.3,2.3-0.3,3c0,0.6,0,1.3,0,2c0,0.6,0,1.2,0,1.7c0,0.5,0,0.8,0,1.2
		c0,0.4-0.1,0.7-0.1,1.1c0,0.3-0.1,0.6-0.2,0.9c-0.1,0.3-0.3,0.6-1,2.2"/>
	<path class="st1" d="M144.9,100.9c-2.9-0.1-4.2-0.1-5.2-0.2c-1,0-1.7,0-2.4,0c-0.7,0-1.4,0-2.8,0.1c-1.3,0-3.3,0.1-4.8,0.2
		c-1.5,0.1-2.6,0.4-3.9,0.4c-1.3,0-3-0.2-4.7-0.5c-1.7-0.4-3.6-1-5.9-1.6c-2.3-0.6-5.1-1.3-8.8-2"/>
	<path class="st1" d="M104.8,80.4c3.5-1.3,3.9-1.4,4.7-1.8c0.7-0.3,1.7-0.9,2.4-1.3c0.8-0.3,1.4-0.4,2.3-0.6c1-0.2,2.3-0.4,5.1-1.8"
		/>
	<path class="st1" d="M111.9,63.6c-1.8,3.1-2.5,4.6-3.2,5.6c-0.7,1-1.5,1.5-2.4,2c-0.9,0.5-1.9,1-3.5,1.4c-1.6,0.3-3.7,0.5-5.2,0.6"
		/>
	<path class="st1" d="M87.8,89.3c-0.2-1.9-0.9-3.5-2.4-5.4"/>
	<path class="st1" d="M105.5,115c1,0.3,1.5,0.3,2,0.3c0.5,0,1,0,1.5,0c0.5,0,0.8-0.1,1.2-0.2c0.4,0,0.8,0,1.1,0c0.3,0,0.6,0,0.9,0
		c0.4,0,0.9-0.2,1.4-0.2c0.5,0,1,0.1,1.5,0.4c0.5,0.3,0.9,0.9,1.4,1.4c0.5,0.4,1,0.7,1.5,1.1c0.5,0.4,1,0.8,1.4,1.2
		c0.4,0.3,0.7,0.5,0.9,0.7c0.2,0.2,0.4,0.4,0.6,0.5c0.1,0.1,0.3,0.3,0.4,0.4c0.1,0.1,0.2,0.2,0.4,0.3c0.1,0.1,0.3,0.3,0.3,0.5
		c0.1,0.2,0.1,0.3,0,0.5c0,0.2-0.1,0.3-0.3,0.4c-0.2,0.1-0.5,0.1-0.7,0.1c-0.2-0.1-0.3-0.3-0.5-0.5c-0.3-0.3-0.7-0.7-1-1
		c-0.3-0.3-0.6-0.6-0.9-0.9c-0.3-0.3-0.7-0.6-1.1-0.9c-0.3-0.3-0.5-0.5-0.8-0.7c-0.2-0.2-0.5-0.5-1.4-1"/>
	<path class="st1" d="M120.6,122.1c-0.7,1.1-0.8,1.3-1,1.5c-0.2,0.2-0.4,0.3-0.8,0.4c-0.3,0.1-0.8,0.1-1.2,0
		c-0.4-0.1-0.9-0.3-1.3-0.6c-0.4-0.3-0.7-0.8-1-1.1c-0.3-0.4-0.4-0.6-0.8-0.9c-0.3-0.3-0.7-0.7-1.2-1c-0.4-0.3-0.8-0.7-1.2-1.3"/>
	<path class="st1" d="M116,123.1c0.9,1.4,1.2,1.7,1.4,1.9c0.1,0.2,0.1,0.4,0.1,0.6c-0.1,0.2-0.2,0.5-0.5,0.7
		c-0.3,0.2-0.9,0.4-1.3,0.4c-0.4,0-0.6-0.1-0.8-0.2c-0.2-0.1-0.3-0.2-0.4-0.3c-0.1-0.1-0.3-0.2-0.6-0.5c-0.3-0.2-0.7-0.6-1.1-1
		c-0.4-0.4-0.8-0.7-1.1-0.9c-0.3-0.2-0.4-0.3-0.6-0.4c-0.2-0.1-0.5-0.2-0.8-0.4c-0.3-0.1-0.6-0.3-1.3-0.6"/>
	<path class="st1" d="M114.9,126.6c0.4,0.7,0.4,1.1,0.4,1.4c0,0.3-0.1,0.5-0.3,0.8c-0.2,0.2-0.4,0.5-0.7,0.6
		c-0.3,0.1-0.6,0.2-0.9,0.1c-0.3-0.1-0.7-0.3-1-0.5c-0.3-0.2-0.6-0.4-0.9-0.6c-0.3-0.2-0.5-0.3-0.8-0.5c-0.3-0.2-0.6-0.4-0.9-0.6
		c-0.2-0.2-0.4-0.3-0.6-0.4c-0.2-0.1-0.4-0.3-0.7-0.5c-0.3-0.2-0.7-0.6-1.4-1.3"/>
	<path class="st1" d="M111.8,128.7c-0.1,1.3-0.3,1.7-0.5,1.9c-0.2,0.2-0.5,0.3-0.9,0.3c-0.4,0-0.9-0.2-1.6-0.4
		c-0.6-0.2-1.4-0.5-1.8-0.8c-0.5-0.2-0.6-0.4-0.7-0.5c-0.1-0.1-0.1-0.1-0.3-0.2c-0.2-0.1-0.5-0.2-0.7-0.3c-0.2-0.1-0.3-0.1-0.5-0.2
		c-0.2,0-0.6-0.1-1.7-0.5"/>
	<path class="st1" d="M98,115.6c0.7,0.4,0.8,0.9,0.8,1.3c0,0.4,0,0.6-0.1,1c-0.1,0.4-0.3,0.8-1.1,1"/>
	<path class="st1" d="M110.1,118.8c-0.8,0-1,0.2-1.1,0.3c-0.1,0.2-0.2,0.3-0.2,0.5c-0.1,0.2-0.1,0.5-0.2,1.1"/>
	<path class="st1" d="M108.1,122.4c-0.6,0.2-0.7,0.5-0.8,0.8c-0.1,0.2-0.1,0.4-0.1,0.6c0,0.2,0,0.4,0.1,0.9"/>
	<path class="st1" d="M106.3,125.8c-1,0.4-1.2,1.3-1,2"/>
	<path class="st1" d="M112.8,115.9c-0.9,0.2-1,0.3-1.1,0.5c-0.1,0.2-0.1,0.4,0,1.1"/>
	<path class="st1" d="M115.2,127.6c2.7-0.1,4.1,0.4,5.2,0.7c1.1,0.3,2,0.5,2.8,0.8c0.8,0.2,1.5,0.5,2.2,0.8c0.7,0.4,1.5,0.8,2.4,1.2
		c0.8,0.4,1.7,0.8,2.6,1.3c0.9,0.5,1.9,1.1,3,1.8c1.1,0.7,2.4,1.4,4,1.4"/>
	<path class="st1" d="M121.4,52.7c2.1,1.2,2.8,2,3.4,2.6c0.6,0.6,1.1,1,1.5,1.4c0.4,0.4,0.6,0.8,0.9,1.2c0.3,0.5,0.6,1,0.9,1.5
		c0.3,0.5,0.5,1,0.6,1.5c0.2,0.5,0.2,1.1,0.3,1.8c0.1,0.6,0.2,1.3,0.4,2c0.2,0.8,0.4,1.7,0.6,2.4c0.2,0.8,0.4,1.4,0.6,2.2
		c0.2,0.8,0.4,1.7,0.3,2.6c-0.1,0.9-0.7,1.6-1.2,2.3c-0.5,0.6-1.1,1.1-2.1,2c-1,0.9-2.6,2.1-3.9,3c-1.4,0.9-2.6,1.5-4.1,1.9
		c-1.5,0.4-3.4,0.7-5,0.9c-1.6,0.2-3,0.2-4.3,0.2c-1.3,0-2.5-0.1-4.2-0.1"/>
	<path class="st1" d="M123,51.6c1.7,1.7,2.9,2.9,3.8,3.9c0.9,1.1,1.6,2,2.2,3c0.6,1,1.1,2,1.5,3.1c0.5,1.1,0.8,2.4,1.1,3.7
		c0.3,1.2,0.4,2.4,0.7,3.7c0.3,1.3,0.7,2.7,1.2,3.6c0.5,0.9,1.1,1.4,1.9,2.2c0.9,0.8,2,1.8,3.3,2.8c1.2,1,2.6,2,3.7,2.7
		c1.1,0.8,2,1.4,3.1,1.6c1.1,0.3,2.4,0.3,3.4,0.2c1-0.1,1.6-0.4,2.2-0.8c0.6-0.4,1.2-1,1.5-2c0.3-1,0.5-2.5,0.2-3.9
		c-0.3-1.3-0.9-2.4-1.8-4c-0.9-1.6-2-3.7-2.9-5.5c-1-1.8-1.8-3.3-2.8-4.8c-1-1.5-2.2-2.9-3.9-5.9"/>
	<path class="st1" d="M143.2,55.9c2.1,3.2,3,4.6,3.9,6.2c1,1.6,2,3.5,3.3,5.7c1.3,2.2,2.9,4.8,4.9,8.7"/>
	<path class="st1" d="M147.3,70.9c-1.8,2.2-2.2,3.9-2.5,5c-0.3,1.2-0.4,1.9-0.4,2.6c-0.1,0.8-0.1,1.6,0.8,3.4"/>
	<path class="st1" d="M98.6,160.6c2.3,4.5,3.8,5.8,5.1,7c1.3,1.3,2.5,2.5,3.8,3.8c1.3,1.3,2.7,2.8,3.9,4c1.2,1.2,2.1,2.2,3.5,3.9
		c1.4,1.7,3.3,4.1,5.6,6.7"/>
	<path class="st1" d="M37.1,177.3c-1.3,2.1-1.8,2.6-2.3,3c-0.5,0.4-0.9,0.7-1.3,1c-0.4,0.3-0.7,0.7-1,1c-0.4,0.3-0.7,0.7-1.1,1.1
		c-0.4,0.4-0.7,1-0.9,1.6c-0.2,0.5-0.2,1-0.3,1.8c0,0.7-0.1,1.7,0.3,3.8"/>
	<path class="st1" d="M35.6,174.6c-0.2,2.6-1.1,3-2,3.2c-0.8,0.2-1.6,0.2-2.3,0.3c-0.7,0.1-1.3,0.2-1.8,0.4c-0.5,0.2-1,0.6-1.4,1.2
		c-0.4,0.6-0.9,1.4-1.1,2c-0.2,0.6-0.3,1.1-0.4,1.6c-0.1,0.5-0.1,1.2-0.2,1.8c0,0.6,0,1.2,0.1,1.8c0.1,0.6,0.2,1.3,0.6,2.1
		c0.4,0.8,1,1.6,3.3,2.8"/>
	<path class="st1" d="M29.3,166.6c-2.7,2.3-4.8,4.2-6.1,5.7c-1.2,1.5-1.6,2.6-2.2,3.7c-0.7,1.1-1.6,2.1-2.4,3
		c-0.8,1-1.4,1.9-2.1,2.6c-0.7,0.8-1.6,1.4-2.6,2c-0.9,0.7-2,1.4-3,2.4c-1.1,1-2.2,2.2-2.9,3.4c-0.7,1.1-1,2.1-1.6,3.5
		c-0.6,1.4-1.5,3.1-2.2,5c-0.7,1.9-1.2,4-1.3,6.8"/>
	<path class="st1" d="M24.9,193.2c-0.8-0.2-0.5-1-0.2-1.7c0.4-0.7,1-1.3,2.5-2.2"/>
	<path class="st1" d="M161.6,269c2.2,0.8,4,1.5,5.3,1.8c1.3,0.3,2.3,0.2,3-0.4c0.7-0.6,1.3-1.8,1.6-2.8c0.3-1,0.4-1.8,0.5-2.5
		c0.1-0.6,0.4-1.1,0.9-1.4c0.5-0.3,1.4-0.5,2.2-0.8c0.8-0.2,1.6-0.5,2.8-0.6c1.2-0.1,2.8,0,4.4,0c1.6,0,3.4,0,4.3-0.1
		c0.9-0.1,1.1-0.1,1.4-0.3c0.3-0.2,0.7-0.7,1-1.2c0.3-0.5,0.4-1.2,0.4-1.7c-0.1-0.5-0.4-0.9-0.5-1.5c-0.2-0.6-0.3-1.4-3.5-1.2"/>
	<path class="st1" d="M200.8,254.4c-1.4,3.8-2.1,5.1-3,6.4c-0.9,1.3-2,2.6-3,4c-1.1,1.4-2.1,3.1-3.4,4.1c-1.3,1.1-3,1.6-4.6,2.3
		c-1.6,0.6-3.3,1.4-5,2.2c-1.7,0.8-3.4,1.8-4.9,2.8c-1.5,1-2.9,2.1-4.2,3.1c-1.4,1.1-2.7,2.2-6.2,1.7"/>
	<path class="st1" d="M175.5,262.9c0.2-2,0.6-3,0.7-4.1c0.1-1.2-0.1-2.5,0.4-4"/>
	<path class="st1" d="M140.6,219.8c2.8,0.2,4.3,0,5.9-0.2c1.6-0.2,3.4-0.5,5.3-1.1c1.9-0.6,4-1.5,7.2-2.8"/>
	<path class="st1" d="M80.4,188.6c-1.5,3.3-2,5-2.3,6.8c-0.3,1.7-0.5,3.4-0.8,5.4c-0.3,2.1-0.6,4.5-0.6,7.5"/>
	<path class="st1" d="M86.2,191.9c-0.3,2.7-1,3.5-1.1,4.8c-0.1,1.3,0.3,3,2,6"/>
	<path class="st1" d="M87.3,192.1c0.2,2.3,0.5,3.6,0.8,4.5c0.3,0.9,0.5,1.5,0.9,2.3c0.5,0.8,1.2,1.9,4.3,2.1"/>
	<path class="st1" d="M88,190.8c3.2,5.2,4.3,7.1,5.7,7.9"/>
	<path class="st1" d="M139.1,212.1c2.3-1.5,4-2,5.7-2.4c1.7-0.3,3.5-0.4,4.7-0.7c1.3-0.2,2-0.6,3.8-2.8"/>
	<path class="st1" d="M139.4,209.9c4.8-1,5.6-1.3,6.5-1.6c0.8-0.3,1.7-0.7,2.7-0.9c1-0.3,2.1-0.5,2.7-1.7"/>
	<path class="st1" d="M138.8,207.6c2.3-1,3.5-1.1,4.4-1.3s1.7-0.3,2.7-0.7c1-0.4,2.2-1,3.5-2.3"/>
	<path class="st1" d="M137.4,204.7c3.2-1.5,4.7-2,5.8-2.1c1.2-0.1,2,0.1,2.8,0c0.9-0.1,1.8-0.4,3.5-1.1"/>
	<path class="st1" d="M134.3,149.2c-3.7-2.7-5-3.6-6-4.7c-1-1.1-1.8-2.3-2.4-3.5c-0.7-1.2-1.2-2.4-1.3-3.1"/>
	<path class="st1" d="M179.8,86.7c-0.5,0.9-1.1,1-1.5,1.1c-0.4,0.1-0.6,0.3-0.9,0.5c-0.3,0.2-0.5,0.3-0.8,0.4
		c-0.3,0.1-0.5,0.2-0.8,0.4c-0.2,0.1-0.4,0.3-0.5,0.5c-0.1,0.2-0.2,0.4-0.1,0.6c0,0.2,0.2,0.4,0.5,0.5c0.2,0.1,0.5,0.1,0.8,0.2
		c0.3,0,0.6,0.1,0.8,0c0.3,0,0.5-0.1,0.7-0.2c0.1-0.1,0.2-0.2,0.3-0.3c0.2-0.1,0.5-0.2,0.7-0.4"/>
	<path class="st1" d="M182,91.2c-1.7-0.6-2.7-0.5-3.6-0.3c-0.8,0.2-1.4,0.5-1.8,0.7c-0.4,0.2-0.7,0.2-1.3,0.3
		c-0.6,0.1-1.5,0.3-2.1,0.4c-0.5,0.2-0.7,0.3-0.8,0.6c-0.1,0.2-0.1,0.5,0,0.8c0.1,0.2,0.3,0.3,0.6,0.4c0.3,0.1,0.7,0.1,1,0.1
		c0.3,0,0.5,0,0.9-0.1c0.4-0.1,0.9-0.1,1.4-0.2c0.4,0,0.8,0,1.1-0.1c0.3,0,0.5-0.1,0.7-0.1c0.2,0,0.4,0,0.6-0.1
		c0.2,0,0.4-0.1,0.8-0.2c0.4-0.1,1-0.3,1.5-0.3c0.5,0,0.9,0.1,1.5,0.8"/>
	<path class="st1" d="M181.4,97.8c0.1-0.1-0.5-0.6-0.9-1c-0.4-0.3-0.7-0.4-1-0.5c-0.3,0-0.7,0-1.2,0c-0.4,0-0.9,0-1.3,0.1
		c-0.4,0-0.8,0.1-1.2,0.1c-0.3,0-0.6,0.1-0.9,0.1c-0.3,0-0.6,0.1-0.9,0.2c-0.3,0-0.7,0.1-0.9,0c-0.2,0-0.3-0.1-0.4-0.2
		c-0.1-0.1-0.3-0.3-0.2-0.6c0-0.3,0.2-0.7,0.5-0.9c0.3-0.2,0.6-0.3,1.1-0.4c0.4-0.1,1-0.1,1.6-0.3c0.6-0.2,1.2-0.4,1.7-0.7"/>
	<path class="st1" d="M180.3,100.7c-1.4-0.8-1.9-0.9-2.2-1c-0.4-0.1-0.6-0.1-1-0.1c-0.3,0-0.7,0-1.1,0c-0.4,0-0.7,0-0.9-0.2
		c-0.3-0.1-0.5-0.4-0.7-0.6c-0.1-0.2-0.1-0.3-0.1-0.4c0.1-0.2,0.2-0.3,0.3-0.5c0.2-0.2,0.4-0.3,0.8-0.4c0.4-0.2,1-0.3,1.4-0.4
		c0.4-0.1,0.5-0.1,0.7-0.1c0.2,0,0.3,0,0.7,0c0.3,0,0.8,0.1,3.2,0.8"/>
	<line class="st1" x1="188.1" y1="256.7" x2="184.3" y2="262.4"/>
	<line class="st1" x1="185" y1="262.4" x2="188.6" y2="257.1"/>
	<line class="st1" x1="188.4" y1="261.7" x2="184.6" y2="256.5"/>
	<line class="st1" x1="188.9" y1="261.1" x2="185.4" y2="256.5"/>
	<line class="st1" x1="183.6" y1="262.4" x2="183.4" y2="256.5"/>
	<line class="st1" x1="183.1" y1="262.4" x2="182.8" y2="256.6"/>
	<line class="st1" x1="178.8" y1="262.4" x2="178.5" y2="256"/>
	<line class="st1" x1="178.2" y1="262.4" x2="177.9" y2="255.4"/>
	<line class="st1" x1="182" y1="262.4" x2="181.8" y2="256.6"/>
	<line class="st1" x1="181.5" y1="262.4" x2="181.2" y2="256.7"/>
	<line class="st1" x1="180.1" y1="262.4" x2="179.9" y2="256.8"/>
	<line class="st1" x1="179.6" y1="262.4" x2="179.3" y2="256.7"/>
	<path class="st1" d="M146.5,36.6c0.9,0.9,1.3,1.3,1.6,1.6c0.3,0.3,0.5,0.6,0.7,0.8c0.2,0.2,0.4,0.5,0.6,0.7
		c0.2,0.3,0.5,0.6,0.7,0.9c0.2,0.3,0.5,0.6,0.7,0.7c0.2,0.2,0.4,0.2,0.5,0.2c0.1,0,0.3,0,0.5,0c0.2,0,0.5-0.1,0.8-0.3"/>
	<path class="st1" d="M141,54.2c-0.3,1.9,0,3.7,0.5,4.4"/>
	<path class="st1" d="M133,12.7c-1.5-1.2-2.9-2-3.8-2.5c-0.9-0.6-1.3-0.9-1.9-1.3c-0.6-0.4-1.5-0.8-1.9-1.2
		c-0.4-0.4-0.4-0.8-0.7-2.3"/>
	<path class="st1" d="M132.5,13.3c-3.3-0.6-4.5-1.1-5.4-1.6c-0.9-0.5-1.6-0.8-2.2-1.1c-0.7-0.3-1.4-0.5-1.9-0.5
		c-0.5,0-0.9,0.1-1.2,0c-0.3-0.2-0.5-0.6-0.6-1c-0.1-0.4-0.1-0.7-0.3-1c-0.2-0.3-0.7-0.7-1.3-0.9c-0.6-0.2-1.3-0.3-4.2,0.4"/>
	<path class="st1" d="M132,14.9c-0.7-0.5-2.6-0.7-3.9-0.7c-1.3,0-1.9,0.1-2.4,0.3c-0.5,0.2-0.9,0.4-1.4,0.4c-0.5,0.1-1.1,0-1.6,0
		c-0.5,0-1,0-1.4,0.1c-0.4,0.1-0.7,0.2-1.1,0.3c-0.3,0.1-0.6,0.1-1.2,0.1c-0.7,0-1.8,0-1.6-0.3"/>
	<path class="st1" d="M115.6,11.6c1.9,0.4,2.6,0.7,3.2,0.8c0.5,0.2,0.9,0.2,1.4,0.2c0.5,0,1.2,0,2,0.5"/>
	<path class="st1" d="M114.9,9.7c1.9,0.4,2.7,0.8,3.2,1c0.6,0.2,0.9,0.4,1.4,0.5c0.5,0.1,1.3,0.2,3.2,0.6"/>
	<path class="st1" d="M132,14.9c-0.8,1-1.2,1.5-1.6,2c-0.4,0.5-0.7,0.9-1,1.4c-0.3,0.4-0.7,0.8-1,1.2c-0.3,0.4-0.6,0.7-0.8,1.2
		c-0.2,0.5-0.2,1.1-0.2,3.8"/>
	<path class="st1" d="M118.3,17.3c1.6,0.2,3.3,0.4,4.6,0.4c1.2,0,2.1-0.3,2.8-0.5c0.7-0.2,1.3-0.4,3-0.7"/>
	<path class="st1" d="M119.5,20.2c2-0.6,3.6-0.3,6.1-0.7"/>
	<path class="st1" d="M113.8,28.9c2.5-0.9,3.6-1.5,4.6-2.4c0.9-0.9,1.7-2.1,2.8-4.4"/>
	<path class="st1" d="M111.5,35.1c2-2.3,2.9-2.6,3.6-3c0.8-0.4,1.5-0.9,2.6-1.8c1.1-0.9,2.6-2.1,4.2-3.8"/>
	<path class="st1" d="M117.3,34.3c1-1,2.5-2.2,3.4-2.9c0.9-0.7,1.1-0.9,1.3-1.3c0.2-0.4,0.3-0.9,0.6-1.6c0.3-0.7,0.8-1.4,1.2-2.2
		c0.4-0.8,0.9-1.5,2.3-5.4"/>
	<path class="st1" d="M112.3,45c2.1-1.7,3.9-2.4,4.8-3.1c1-0.7,1.2-1.4,1.7-2.4c0.4-1,1-2.4,1.8-3.4c0.8-1,1.7-1.6,3-4.3"/>
	<path class="st1" d="M122.8,40.2c0.6-3,0.7-4.6,1-6.3"/>
	<path class="st1" d="M156.9,20.7c-2.8-3.1-3.8-4-5.1-4.7c-1.3-0.7-2.7-1.2-4.1-1.6c-1.3-0.4-2.5-0.8-3.6-0.8
		c-1.1,0-2.2,0.3-3.2,0.5c-0.9,0.2-1.7,0.2-4.4-1.6"/>
	<path class="st1" d="M148.4,20.6c-3-1.9-4.5-2.3-5.5-2.5c-1-0.2-1.5-0.3-2.2-0.5c-0.6-0.2-1.4-0.5-2.3-1c-0.9-0.5-2.1-1.2-4.4-3.2"
		/>
	<path class="st1" d="M150.4,25.8c-3.7,0.3-5-0.3-6-0.8c-1-0.6-1.7-1.1-2.5-1.8c-0.8-0.6-1.7-1.4-2.3-1.9c-0.7-0.5-1.1-0.7-1.6-0.9
		c-0.5-0.3-0.9-0.6-1.6-1.2c-0.7-0.7-1.5-1.6-3.7-4"/>
	<path class="st1" d="M140.8,28.7c-2.5-2.1-3.8-3.2-4.7-4.1c-0.9-0.9-1.4-1.8-1.9-2.7c-0.5-0.9-1-1.8-1.5-6.8"/>
	<path class="st1" d="M136.2,31.2c-2.7-0.9-3.4-1.7-3.9-2.6c-0.6-0.9-0.9-2-1.3-3.4c-0.3-1.4-0.6-3.2,0.2-7.2"/>
	<path class="st1" d="M135.6,36.5c0,0.2-1.5-0.5-2.5-1.2c-1-0.7-1.5-1.4-2-2.1c-0.5-0.7-0.9-1.4-1.3-3.4c-0.4-2-0.8-5.4-0.5-9.5"/>
	<path class="st1" d="M161.6,265.8c2.4,1.4,3.4,1.4,4.4,1.3c1-0.2,1.9-0.5,2.5-1c0.6-0.4,0.8-1,1-1.4c0.2-0.5,0.3-0.8,0.5-1.1
		c0.2-0.2,0.5-0.3,0.7-0.2c0.2,0.1,0.2,0.5,0.4,0.7c0.2,0.1,0.7,0.1,1.2,0.4"/>
	<path class="st1" d="M170.6,263.3c-0.4-1-0.5-1.4-0.6-1.9c-0.1-0.4-0.1-0.8,0-1.2c0.1-0.4,0.4-0.9,0.6-1.3c0.2-0.4,0.4-0.8,0.7-1.3
		c0.2-0.4,0.5-1,0.6-1.5c0.1-0.5,0.2-1,0.3-1.3c0.1-0.3,0.4-0.4,1.1-0.5"/>
</g>
</svg>
