<?xml version="1.0" encoding="utf-8"?>
<!-- Generator: Adobe Illustrator 21.0.0, SVG Export Plug-In . SVG Version: 6.00 Build 0)  -->
<svg version="1.1" xmlns="http://www.w3.org/2000/svg" xmlns:xlink="http://www.w3.org/1999/xlink" x="0px" y="0px"
	 viewBox="0 0 163.2 272.2" style="enable-background:new 0 0 163.2 272.2;" xml:space="preserve">
<style type="text/css">
	.st0{fill:#FFFFFF;stroke:#000000;stroke-linecap:round;stroke-linejoin:round;}
	.st1{fill:none;stroke:#000000;stroke-width:0.15;stroke-linecap:round;stroke-linejoin:round;}
</style>
<g id="Layer_3">
</g>
<g id="Outer">
	<path class="st0" d="M162.5,182.3c-0.3-1.4-1.1-3.7-2.1-6.2c-1-2.4-2.2-4.9-3.5-7.6c-1.2-2.7-2.4-5.7-3.7-9.4
		c-1.2-3.8-2.5-8.3-3.5-11.5c-1-3.1-1.7-4.8-2.5-6.5c-0.8-1.7-1.6-3.3-2.8-4.7c-1.2-1.4-2.7-2.5-4.5-4.9c-1.8-2.5-4-6.3-6.3-10
		c-2.3-3.7-4.6-7.4-6.6-9.6c-2-2.2-3.6-3-4.9-3.7c-1.3-0.7-2.3-1.2-3.2-1.5c-0.8-0.3-1.4-0.4-1.9-0.7c-0.5-0.3-0.9-0.7-1.3-1.1
		c-0.4-0.5-0.7-1-1-1.6c-0.2-0.6-0.4-1.3-0.2-2.1c0.1-0.8,0.6-1.8,0.7-2.7c0.1-1,0-1.9-0.1-3.1c-0.1-1.1-0.2-2.4-0.3-3.7
		c-0.1-1.3-0.3-2.5-0.2-3.6c0.1-1.1,0.4-2,0.7-2.8c0.3-0.8,0.6-1.5,1-2.2c0.4-0.6,1.1-1.2,1.4-2.1c0.3-0.9,0.3-2,0.4-3.1
		c0.1-1,0.4-1.9,0.5-3.2c0.1-1.3,0-3-0.1-4.5c-0.1-1.5-0.3-2.9-0.8-4.2c-0.6-1.2-1.5-2.4-2.5-3.3c-1-0.9-2.2-1.7-3.3-2.2
		c-1.2-0.6-2.3-1-3.5-1.4c-1.2-0.4-2.3-0.9-3.6-1.8c-1.3-0.9-2.8-2.3-3.8-3.3c-1.1-1-1.7-1.7-2.2-2.3c-0.5-0.6-0.9-1.2-1.1-1.9
		c-0.2-0.8-0.2-1.7,0.1-2.3c0.2-0.6,0.7-1,1.2-1.2c0.4-0.2,0.9-0.3,1.2-0.7c0.4-0.3,0.7-0.9,1.3-1.4c0.6-0.5,1.5-1,1.8-1.6
		c0.3-0.6,0.1-1.3,0.2-1.8c0.1-0.5,0.5-0.7,1.1-0.9c0.6-0.2,1.3-0.3,1.7-0.8c0.4-0.5,0.6-1.4,0.8-2.1c0.2-0.8,0.5-1.4,0.8-1.8
		c0.3-0.4,0.6-0.5,0.7-0.9c0.1-0.4,0.1-1,0.1-1.5c0-0.5-0.1-1,0.3-1.5c0.3-0.5,1-1,1.5-1.8c0.4-0.8,0.5-1.9,0.4-2.8
		c-0.1-0.9-0.6-1.7-0.7-2.7c-0.2-1.1-0.1-2.4,0-3.4c0.1-1,0.2-1.7-0.1-2.6c-0.3-1-1-2.3-2.2-3.4c-1.1-1.1-2.7-1.9-4-2.5
		c-1.3-0.6-2.3-1-3.6-1.7c-1.3-0.8-2.9-1.9-3.9-2.5c-1-0.6-1.5-0.6-2.2-0.5c-0.8,0-1.9,0.1-2.8,0.1c-0.9,0-1.6-0.1-2.3,0
		c-0.7,0.1-1.3,0.3-1.9,0.7c-0.5,0.4-1,1-1.3,1.3c-0.3,0.3-0.6,0.3-0.8,0.6c-0.2,0.3-0.3,0.8-0.7,0.9c-0.4,0.2-1-0.1-1.6-0.3
		c-0.6-0.3-1.3-0.6-1.9-0.8c-0.6-0.3-1.1-0.5-1.8-0.4c-0.7,0.1-1.5,0.5-2.5,1.4c-1,0.9-2.1,2.3-2.7,3.5c-0.7,1.2-0.9,2.2-1.4,2.8
		c-0.6,0.6-1.5,0.9-2,1.3c-0.5,0.4-0.5,0.9-0.3,1.4c0.2,0.6,0.7,1.2,0.7,1.8c0,0.6-0.4,1.1-0.7,1.7c-0.2,0.6-0.2,1.2,0,1.9
		c0.3,0.6,0.8,1.3,1.2,1.8c0.4,0.5,0.7,1,1,1.2c0.2,0.2,0.4,0.2,0.6,0.3c0.2,0.1,0.3,0.3,0.3,0.5c0,0.2-0.1,0.5-0.1,0.8
		c0.1,0.3,0.3,0.6,0.5,0.9c0.2,0.3,0.3,0.7,0.4,1.3c0.1,0.6,0.2,1.4,0.3,1.9c0.1,0.5,0.3,0.7,0.4,0.9c0,0.2-0.1,0.3-0.3,0.4
		c-0.3,0-0.8,0-1.1,0.1c-0.4,0.1-0.6,0.3-1,0.6c-0.4,0.3-0.8,0.7-1.3,1.1c-0.4,0.4-0.8,0.7-1,0.9c-0.2,0.2-0.3,0.2-0.3,0.2
		c0,0-0.1,0-7.9-5.9c-7.8-5.9-23.3-17.6-31.4-23.6c-8.1-6-8.8-6.4-9.5-6.8c-0.7-0.4-1.4-0.9-2.3-1.1c-1-0.2-2.2-0.3-3.2-0.2
		c-1,0.1-1.8,0.2-2.7,0.8c-0.9,0.6-2.1,1.5-3.4,3.2c-1.4,1.6-3,3.9-4.2,5.9c-1.2,2-2,3.7-2.6,6.2c-0.7,2.5-1.2,5.9-1.5,8
		c-0.3,2.1-0.4,3-0.4,4.1c0,1,0.1,2.2,0.2,3.3c0.1,1.1,0.1,2.2,0.5,3.3c0.4,1.1,1.2,2.2,1.9,3.2c0.8,1,1.6,1.9,2.5,2.5
		c0.8,0.6,1.7,0.8,6.2,0.9C16.2,42,24.4,42,28.6,42c4.2,0,4.4,0,4.5,0c0.2,0,0.3,0.2,0.4,0.3c0.1,0.1,0.1,0.3,0.1,0.8
		c-0.1,0.5-0.3,1.3-0.5,1.8c-0.2,0.4-0.5,0.5-0.8,0.5c-0.3,0.1-0.5,0.2-0.8,0.6c-0.2,0.4-0.4,1.2-0.3,1.8c0.2,0.6,0.7,1.1,1.5,1.3
		c0.8,0.2,1.8,0.2,2.5,0.4c0.7,0.2,1,0.6,1,1c0.1,0.4-0.1,0.7-0.2,1.2c-0.1,0.4,0,1,0.4,1.4c0.4,0.4,1,0.7,1.2,1
		c0.2,0.3,0,0.8,0.2,1.3c0.2,0.6,0.8,1.3,1.2,1.7c0.4,0.4,0.7,0.6,1,0.9c0.3,0.3,0.6,0.8,0.8,1.7c0.2,0.9,0.1,2.3,0,3.4
		c-0.2,1.2-0.5,2.2-0.9,3.5c-0.4,1.3-1,3-1.6,4.2c-0.5,1.2-1,1.8-1.2,2.6c-0.2,0.7-0.1,1.6,0,2.2c0.1,0.6,0.2,0.9,0.3,1.7
		c0,0.7,0,1.8,0,2.9c0,1.1,0,2.3,0.2,3.7c0.2,1.4,0.6,3,1.1,4.2c0.5,1.2,1,2.1,1.4,2.6c0.4,0.5,0.7,0.7,1.1,0.8
		c0.4,0.1,0.9,0.1,1.6,0c0.8-0.1,1.8-0.2,3-0.6c1.2-0.3,2.6-0.8,3.8-1.4c1.2-0.6,2.3-1.5,3.6-2.2c1.2-0.7,2.6-1.3,3.8-1.9
		c1.2-0.5,2.1-1,3-1.5c0.9-0.5,1.8-1,2.6-1.4c0.8-0.4,1.4-0.9,1.8-1.2c0.4-0.3,0.7-0.6,1-0.8c0.3-0.1,0.6-0.1,0.8-0.1
		c0.2,0.1,0.4,0.2,0.7,0.4c0.3,0.2,0.6,0.5,1.3,0.9c0.7,0.4,1.7,1,2.3,1.4c0.6,0.4,0.9,0.5,1,0.8c0.2,0.3,0.3,0.8,0.3,1.5
		c0,0.7,0,1.7,0.1,2.5c0.1,0.8,0.3,1.4,0.8,2.1c0.5,0.7,1.1,1.5,1.6,2.7c0.5,1.2,0.9,2.8,1.2,4c0.3,1.2,0.5,1.9,1,2.8
		c0.5,0.9,1.1,1.9,1.6,2.9c0.5,1,0.7,2,0.8,2.8c0.1,0.8-0.1,1.4-0.1,2.2c0,0.8,0,1.8-0.2,2.6c-0.2,0.9-0.6,1.7-1.2,2.4
		c-0.6,0.7-1.3,1.3-2.3,2.4c-1,1.1-2.3,2.8-3.5,4.8c-1.2,2-2.4,4.3-3.5,6.8c-1.1,2.5-2.1,5.1-2.8,8.3c-0.7,3.2-1.2,6.9-1.7,10.2
		c-0.4,3.3-0.7,6.1-1.5,11.6c-0.8,5.5-2.1,13.8-2.9,19.8c-0.7,6-0.9,9.9-1,12.2c-0.2,2.4-0.3,3.2-0.5,3.9c-0.2,0.6-0.4,1-0.5,1.2
		c-0.1,0.3-0.3,0.4,0,0.7c0.2,0.3,0.8,0.6,1.6,1c0.7,0.4,1.6,0.8,2.6,1.4c1,0.6,2.1,1.4,3.4,2.1c1.2,0.7,2.6,1.4,4.1,2.1
		c1.5,0.7,3,1.4,3.9,1.7c0.9,0.4,1,0.4,1.1,2.8c0,2.4,0,7.2-0.2,12.2c-0.2,5-0.5,10.4-0.7,15.9c-0.1,1.4-0.1,2.8-0.2,4.2
		c-1.7,0-2.1,0-2.4,0.2c-0.2,0.2-0.2,0.7-0.2,1.3c0,0.6,0,1.2-0.1,1.5c-0.1,0.3-0.3,0.3-0.4,0c-0.1-0.3-0.3-0.8-0.4-1.3
		c-0.2-0.5-0.4-1-0.9-1.4c-0.5-0.5-1.3-1-1.9-1c-0.7,0-1.2,0.4-1.1,1c0.1,0.5,1,1.2,1.5,1.7c0.6,0.5,0.9,0.7,1.2,1
		c0.3,0.3,0.6,0.6,0.9,0.8c0.4,0.2,0.8,0.2,0.8,0.2s-0.4-0.1-0.8,0c-0.3,0.1-0.5,0.3-0.5,0.5c0,0.2,0.2,0.5,0.4,0.7
		c0.2,0.2,0.3,0.4,0.4,0.6c0.1,0.2,0.1,0.5-0.1,0.7c-0.2,0.2-0.5,0.2-0.7,0.2c-0.2,0.1-0.2,0.3-0.1,0.4c0.1,0.1,0.3,0.1,0.4,0.3
		c0.1,0.2,0.1,0.6,0.1,0.9c0,0.3,0,0.5-0.2,0.6c-0.2,0.1-0.5,0.1-0.7,0.4c-0.2,0.3-0.2,0.8-0.2,1.2c0,0.3-0.1,0.5-0.3,0.6
		c-0.2,0.1-0.5,0.2-0.8,0.4c-0.2,0.2-0.4,0.5-0.3,0.8c0,0.2,0.2,0.4,0.3,0.6c0,0.2-0.2,0.3-0.4,0.4c-0.2,0.1-0.5,0.1-0.7,0.2
		c-0.2,0.1-0.3,0.1-0.4,0.3c-0.1,0.2-0.1,0.4-0.1,0.7c0,0.2,0,0.5-0.1,0.6c-0.1,0.1-0.4,0.2-0.6,0.3c-0.3,0.1-0.5,0.1-0.7,0.3
		c-0.2,0.2-0.3,0.5-0.3,0.7c0,0.3,0.2,0.5,0.1,0.7c-0.1,0.2-0.5,0.3-0.9,0.7c-0.5,0.4-1.1,1-1.6,1.5c-0.5,0.5-0.9,0.8-1.3,1.4
		c-0.4,0.6-0.8,1.5-1.1,2.1c-0.3,0.6-0.6,0.8-1,1.1c-0.5,0.3-1.1,0.5-1.8,0.7c-0.7,0.2-1.3,0.3-1.8,0.4c-0.5,0.1-1,0.2-1.5,0.5
		c-0.6,0.4-1.2,1-1.6,1.5c-0.4,0.5-0.5,1-0.6,1.3c-0.1,0.3-0.1,0.5-0.2,0.6c-0.1,0.1-0.2,0.2-0.4,0.2c-0.2,0-0.4,0-0.6,0.1
		c-0.2,0.1-0.3,0.3-0.3,0.8c0,0.5,0,1.2,0,1.8c0,0.6,0,0.9,0,1.2c0,0.3,0.1,0.5,0.3,0.7c0.2,0.1,0.5,0.2,4.3,0.2
		c3.9,0,11.4,0,15.2,0c3.8-0.1,4-0.2,4-0.3c0.1-0.1,0.1-0.3,0.2-0.5c0-0.1,0.1-0.2,0.2-0.3c0.1-0.1,0.3-0.1,0.8-0.2
		c0.4-0.1,1.1-0.3,1.6-0.3c0.5-0.1,0.7-0.1,1,0c0.2,0.1,0.5,0.2,0.5,0.5c0.1,0.2,0,0.5-0.1,0.7c0,0.2,0,0.4,0.1,0.5
		c0.1,0.1,0.2,0.1,1.4,0.1c1.2,0,3.5,0,4.7,0c1.2,0,1.4,0,1.4-0.1c0.1-0.1,0.1-0.3,0.1-0.5c0-0.3,0-0.7,0-1.2c0-0.5,0.1-1.2,0.1-1.7
		c0-0.5,0-0.7-0.2-0.9c-0.2-0.2-0.5-0.2-0.7-0.4c-0.2-0.2-0.3-0.5-0.3-0.8c0-0.4,0.1-0.7,0.2-1.2c0.1-0.4,0.3-0.9,0.4-1.6
		c0.1-0.7,0.1-1.7,0-2.7c-0.1-0.9-0.2-1.9-0.4-2.7c-0.2-0.9-0.4-1.7-0.6-2.7c-0.2-1-0.3-2.3-0.4-3.7c-0.1-1.3-0.1-2.7,0-4.5
		c0.1-1.8,0.3-4,0.6-5.3c0.2-1.3,0.4-1.8,0.6-2.3c0.1-0.5,0.2-1,0.2-1.2c0-0.3,0-0.3-0.5-0.6c0.3-1.6,0.7-3.1,1.2-4.7
		c0.6-1.7,1.4-3.5,2.1-5.4c0.8-1.8,1.5-3.7,1.8-7c0.3-3.3,0.3-8.1,0.4-10.7c0-2.6,0.2-2.9,0.5-3.1c0.3-0.2,0.8-0.3,2.1-0.3
		c1.3,0,3.3,0,5.6-0.1c2.3,0,4.8-0.1,6.9-0.3c2.1-0.1,3.8-0.3,5.6-0.5c1.7-0.2,3.5-0.5,4.5-0.7c1-0.2,1.3-0.3,1.6-0.5
		c0.3-0.2,0.7-0.6,0.8,1.1c0.1,1.7,0.1,5.5,1,9.5c0.9,3.9,2.8,8,3.4,12.2c0.1,0.6,0.1,1.3,0.4,4.5c0.2,1.9-0.2,2.5-0.4,2.9
		c-0.5,0.7-0.8,0.4-0.6,1.5c0.1,0.8,0.5,2.4,0.6,3.7c0.1,1.3-0.1,2.2-0.3,3.4c-0.2,1.3-0.4,2.9-0.6,4.4c-0.2,1.5-0.5,3-1,5
		c-0.4,2-1,4.4-1.5,6c-0.5,1.6-0.8,2.4-1,3c-0.2,0.7-0.1,1.2,0,1.8c0.1,0.6,0.3,1.3,0.4,1.7c0,0.4-0.1,0.4-0.3,0.6
		c-0.2,0.2-0.5,0.5-0.6,1c-0.2,0.5-0.2,1-0.2,1.8c0,0.7,0,1.6,0,2.2c0,0.6,0,0.9,0.3,1c0.3,0.1,0.9,0.1,3.2,0.1c2.4,0,6.5,0,9.1,0
		c2.6,0,3.6,0,4.3-0.1c0.7-0.1,1.1-0.4,1.4-0.8c0.3-0.3,0.4-0.7,0.5-1.1c0.1-0.4,0.3-0.8,0.5-1.3c0.1-0.4,0.2-0.8,0.3-1.2
		c0-0.4,0-0.8,0-1.4c0-0.6,0-1.5-0.1-2.3c-0.1-0.7-0.4-1.3-0.6-1.5c-0.2-0.2-0.4-0.1-0.4-0.1s0.2-0.2,0.2-0.6c0-0.4-0.3-1.2-0.5-2.2
		c-0.2-1-0.3-2.3-0.3-3.3c0-0.9,0.1-1.4,0-1.9c0-0.5-0.1-0.8-0.2-1.2c-0.1-0.4-0.2-0.8-0.3-1.3s-0.2-0.8-0.2-1.2
		c0-0.4,0.2-0.8,0.3-1.1c0.1-0.3,0.1-0.6,0.1-1.4c0-0.9,0.1-2.4,0.1-3.8c0.1-1.4,0.1-2.7,0.2-4.1c0.1-1.4,0.1-3,0.2-4.2
		c0.3-1,0.5-1.4,0.5-1.7c0-0.3-0.1-0.6-1.5-0.8c-1.2-6.5-0.3-10.6-0.1-15.5c0.3-5.1-0.1-11-0.4-14c-0.3-3-0.5-3.2-0.4-3.4
		c0.1-0.2,0.5-0.5,0.9-0.7c0.5-0.2,1-0.3,2.6-0.9c1.6-0.6,4.4-1.6,6.8-2.8c2.4-1.3,4.5-2.8,6.3-4c1.8-1.1,3.4-1.8,4.9-2.5
		c1.5-0.7,3.1-1.4,4.3-2c1.2-0.6,2.2-1.2,3-1.6c0.8-0.4,1.4-0.8,1.7-1.2C162.8,184.2,162.9,183.7,162.5,182.3z M55.7,72.4
		c0,0.1-0.2,0.2-0.3,0.3c-0.1,0.1-0.3,0.1-0.4,0.2c-0.1,0.1-0.3,0.2-0.6,0.4c-0.3,0.2-0.7,0.6-1.1,1c-0.4,0.3-0.8,0.7-1.2,0.9
		c-0.3,0.2-0.6,0.4-0.8,0.5c-0.2,0.1-0.5,0.2-0.7,0.1c-0.2,0-0.5-0.2-0.6-0.5c-0.2-0.3-0.2-0.7-0.4-1c-0.2-0.3-0.5-0.6-0.8-0.9
		c-0.3-0.3-0.6-0.6-0.9-0.8c-0.3-0.2-0.5-0.4-0.6-0.5c-0.1-0.1-0.2-0.2-0.2-0.4c0-0.1,0-0.3,0-0.7c0-0.3-0.1-0.8-0.1-1.3
		c0-0.6,0-1.2,0.1-1.8c0-0.6,0.1-1.1,0.1-1.7c0-0.6,0-1.1,0-1.5c0-0.3,0-0.4,0-0.4c0,0,0.1-0.1,0.2,0c0.1,0.1,0.2,0.2,1.3,1.2
		c1.2,1.1,3.4,3.1,4.7,4.3c1.3,1.2,1.8,1.6,2.1,1.9c0.3,0.2,0.4,0.3,0.4,0.4C55.7,72.2,55.7,72.3,55.7,72.4z M85,52
		c-0.1,0.3-0.1,0.6-0.1,1.1c0,0.5,0,1.1-0.1,1.6c-0.1,0.5-0.2,0.9-0.4,1.2c-0.2,0.3-0.6,0.6-1.2,1.1c-0.6,0.5-1.5,1.2-2.1,1.8
		c-0.6,0.5-0.9,0.9-1.3,1.3c-0.4,0.4-0.8,0.9-1.3,1.3c-0.5,0.5-1,0.9-1.9,1.2c-0.9,0.2-2.2,0.2-3.3,0.2c-1.1,0-2.1,0-2.8,0.1
		c-0.7,0.1-1.3,0.2-2,0.4c-0.7,0.2-1.5,0.5-2.3,0.8c-0.7,0.3-1.4,0.7-1.9,1c-0.5,0.3-0.8,0.5-1.1,0.6c-0.4,0.1-0.8,0.1-1.2,0
		c-0.4-0.1-0.7-0.3-1.4-0.7c-0.7-0.4-1.8-1.1-2.9-1.9c-1.2-0.8-2.5-1.7-3.5-2.4c-1-0.7-1.6-1.3-2.1-1.8c-0.5-0.5-0.7-0.8-0.8-1
		c-0.1-0.2-0.1-0.4-0.1-0.6c0-0.1,0-0.2-0.1-0.9c-0.1-0.6-0.4-1.8-0.6-2.7c-0.2-0.9-0.5-1.5-0.7-2c-0.2-0.4-0.3-0.7-0.2-0.9
		c0.1-0.2,0.3-0.5,0.6-0.8c0.4-0.2,0.8-0.5,1.9-1.6c1-1.1,2.6-3.1,3.4-4.1c0.8-1,0.8-1.2,1.4-1.2c0.5,0,1.6,0.1,2.7,0.1
		c1.1,0,2.3,0,3.7,0.1c1.3,0,2.8,0.1,3.7,0.1c0.9,0,1.2-0.1,1.4-0.1c0.2,0,0.3,0,0.4,0c0.1,0.1,0.2,0.2,0.2,0.5
		c0.1,0.3,0.2,0.6,0.3,1.2c0.2,0.6,0.4,1.4,0.7,2c0.3,0.7,0.8,1.2,1.2,1.5c0.5,0.3,1,0.3,1.4,0.3c0.5,0,0.9,0,1.4-0.4
		c0.5-0.4,1-1.1,1.4-1.8c0.4-0.8,0.5-1.5,0.7-2.2c0.1-0.6,0.2-1.1,0.2-1.6c0-0.5,0.1-0.9,0.2-1.1c0.1-0.2,0.2-0.3,0.4-0.3
		c0.1,0,0.3,0,0.3,0.1c0,0.1-0.1,0.3-0.1,0.5c0,0.2,0.2,0.4,0.3,0.5c0.1,0.2,0.2,0.3,0.5,0.5c0.3,0.2,0.7,0.3,1,0.5
		c0.2,0.2,0.2,0.4,0.2,0.6c0,0.2,0,0.5-0.1,0.8c-0.1,0.3-0.4,0.6-0.6,0.8c-0.2,0.2-0.3,0.4-0.4,0.6c-0.1,0.2-0.1,0.4,0,0.8
		c0.1,0.3,0.2,0.8,0.3,1.3c0.1,0.4,0.1,0.9,0.1,1.2c0.1,0.4,0.2,0.7,0.5,0.9c0.3,0.3,0.7,0.5,1,0.6c0.3,0.1,0.5,0.2,0.9,0.2
		c0.4,0,1,0,1.6-0.1c0.7-0.1,1.4-0.2,1.9-0.2c0.5,0,0.7,0,0.8,0.2C85.1,51.6,85.1,51.7,85,52z"/>
</g>
<g id="Inner">
	<path class="st1" d="M80.2,37.2c1.6,0.5,3.7,2.9,3.9,4"/>
	<path class="st1" d="M80.2,37.2c0.8,1.3,0.5,1.5,0.2,1.6C80.2,39,80,39,79.7,39c-0.3,0-0.6,0-0.8,0c-0.2,0-0.3-0.1-0.3-0.2
		c0-0.1,0-0.3-0.1-0.4c-0.1-0.1-0.2-0.2-0.4-0.2c-0.1,0-0.2,0.1-0.2,0.6"/>
	<path class="st1" d="M23.5,3.5c2.8,4.3,3.4,6.9,3.5,9.1c0.2,2.1,0,3.8-0.3,5.9c-0.3,2.1-0.6,4.7-1.2,7c-0.6,2.3-1.6,4.3-2.7,6.2
		c-1.1,1.9-2.4,3.5-3.8,5.4c-1.5,1.9-3.2,3.9-5.3,4.8"/>
	<path class="st1" d="M120.7,254.7c-0.7-0.1-1.1,0.3-1.2,0.5c-0.1,0.3,0,0.5,0.3,0.6c0.3,0.1,0.7,0.2,1.2-0.6"/>
	<path class="st1" d="M128.5,254.7c0.9,0.3,0.8,0.7,0.6,0.9c-0.2,0.2-0.5,0.2-0.7,0.2c-0.2-0.1-0.3-0.3-0.2-0.6"/>
	<path class="st1" d="M129.3,252.4c0.6,0.6,0.4,0.9,0,1c-0.4,0.1-0.9,0-0.7-0.8"/>
	<path class="st1" d="M129.7,250.1c0.6,0.4,0.7,0.8,0.6,1c-0.1,0.2-0.5,0.3-0.8,0.2c-0.3-0.1-0.6-0.3-0.4-0.8"/>
	<path class="st1" d="M129.6,247.9c0.9,0.4,0.7,0.7,0.4,0.9c-0.3,0.2-0.7,0.2-1-0.1"/>
	<path class="st1" d="M130,245c0.6,0.2,0.6,0.5,0.5,0.7c-0.1,0.2-0.2,0.3-0.5,0.3c-0.2,0-0.6-0.1-0.4-0.7"/>
	<path class="st1" d="M120.8,252c-0.7,0.4-0.8,0.8-0.6,1.1c0.2,0.3,0.6,0.6,0.8,0.6c0.2,0,0.3-0.1,0.4-1"/>
	<path class="st1" d="M121.6,249.6c-0.6,0.3-0.6,0.7-0.6,0.9c0,0.3,0.1,0.4,0.2,0.5c0.1,0.1,0.2,0.1,0.4,0.1
		c0.2-0.1,0.5-0.2,0.5-0.4"/>
	<path class="st1" d="M122.2,247c-0.5,0.4-0.6,0.7-0.5,1c0,0.2,0.1,0.3,0.3,0.4c0.2,0.1,0.4,0,0.5-0.6"/>
	<path class="st1" d="M123.1,244.4c-0.4-0.1-0.6,0.2-0.6,0.4c-0.1,0.2-0.1,0.4,0,0.6c0.1,0.2,0.2,0.3,0.4,0.4
		c0.2,0.1,0.4,0.1,0.6-0.3"/>
	<path class="st1" d="M124,241.7c-0.6,0-0.8,0.3-0.8,0.5c0,0.2,0,0.4,0.3,0.5c0.2,0.1,0.6,0.2,0.7-0.1"/>
	<path class="st1" d="M127.9,234.4c0.4,0.6,0.8,1.2,1,1.8"/>
	<line class="st1" x1="129.3" y1="234.1" x2="128.6" y2="235.4"/>
	<path class="st1" d="M120,235.3c3.2,0.1,4.8-0.2,6.1-0.4c1.3-0.3,2.4-0.6,6.5-1.7"/>
	<path class="st1" d="M120.3,259.4c2.8-1.2,3.6-1.1,4.5-0.7c0.9,0.3,1.9,0.8,3.1,1"/>
	<path class="st1" d="M117.5,260c2.8-1.7,4.8-3.5,5.5-5.3"/>
	<path class="st1" d="M126.4,254.2c-0.4,1.2,0.6,2.5,1.4,3.4c0.8,0.9,1.3,1.3,1.7,1.7c0.4,0.4,0.6,0.8,0.8,1.2
		c0.2,0.4,0.5,0.7,0.9,0.3c0.4-0.4,0.8-1.4,2.3-1.8"/>
	<path class="st1" d="M132.8,252c-0.8,1.6-1.3,2.2-1.8,3.2c-0.4,0.9-0.8,2.1-0.7,3.6"/>
	<path class="st1" d="M120.7,254.7c-0.5,0.8-0.1,0.7,0.3,0.6c0.4-0.1,0.6-0.4,1-0.5c0.4-0.2,1-0.3,1.7-0.3c0.8-0.1,1.7-0.1,2.4,0
		c0.7,0.1,1.2,0.4,1.6,0.6c0.4,0.2,0.8,0.2,0.9,0s-0.2-0.5-0.6-0.8c-0.4-0.3-0.8-0.4-1.3-0.5c-0.5-0.1-1.2,0-2,0
		c-0.8,0-1.7,0-2.9,0.1"/>
	<path class="st1" d="M121.9,251.7c-0.5,0.2-0.8,0.5-1,0.7c-0.2,0.2-0.1,0.3,0.1,0.4c0.2,0,0.5-0.1,0.8-0.3c0.3-0.2,0.5-0.4,0.8-0.6
		c0.3-0.2,0.8-0.3,1.3-0.4c0.5-0.1,1-0.2,1.4-0.4c0.5-0.2,1-0.4,1.4-0.5c0.4-0.1,0.6,0.1,0.9,0.4c0.2,0.3,0.5,0.7,0.7,1
		c0.2,0.3,0.4,0.5,0.6,0.6c0.2,0.1,0.4,0.1,0.5-0.1c0.1-0.2,0-0.5-0.3-0.8c-0.3-0.3-0.8-0.6-1.2-0.9c-0.4-0.3-0.6-0.5-0.9-0.6
		c-0.3-0.1-0.6-0.1-0.9,0c-0.3,0.1-0.7,0.2-1.1,0.4c-0.4,0.2-0.9,0.3-1.4,0.4C122.9,251.4,122.4,251.5,121.9,251.7z"/>
	<path class="st1" d="M121.8,250.1c-0.1,0.2-0.3,0.5-0.1,0.5c0.2,0,0.6-0.1,1-0.4c0.5-0.3,1-0.7,1.5-0.9c0.5-0.2,1-0.2,1.7-0.2
		c0.6,0.1,1.4,0.2,2,0.4c0.6,0.3,0.9,0.7,1.2,0.9c0.3,0.3,0.5,0.4,0.7,0.2c0.1-0.1,0.2-0.5,0-0.8c-0.2-0.3-0.6-0.7-1.3-0.9
		c-0.6-0.3-1.5-0.4-2.4-0.5c-0.9-0.1-1.8,0-2.4,0.2c-0.6,0.2-0.9,0.5-1.2,0.7C122.1,249.6,121.9,249.8,121.8,250.1z"/>
	<path class="st1" d="M123.3,246.8c-0.6,0.3-1,0.6-1.2,0.8c-0.2,0.2,0,0.3,0.2,0.3c0.3-0.1,0.7-0.3,1.2-0.6c0.5-0.3,1.2-0.6,1.9-0.8
		c0.7-0.1,1.5-0.1,2.1,0.2c0.6,0.3,1,0.7,1.3,1.1c0.3,0.4,0.6,0.8,0.8,0.8c0.1,0,0.1-0.3-0.1-0.7c-0.3-0.4-0.8-0.9-1.5-1.3
		c-0.7-0.4-1.6-0.6-2.5-0.5C124.7,246,123.9,246.4,123.3,246.8z"/>
	<path class="st1" d="M123.8,244.2c-0.5,0.3-0.8,0.8-0.7,1c0.1,0.2,0.5,0.2,0.9,0c0.5-0.2,1-0.5,1.8-0.6c0.8-0.1,1.8-0.1,2.5,0.1
		c0.7,0.2,1,0.5,1.2,0.7c0.3,0.2,0.5,0.3,0.6,0.2c0.1-0.1,0-0.5-0.4-0.8c-0.4-0.3-1.1-0.7-1.8-0.8c-0.7-0.1-1.5-0.1-2.2-0.1
		C124.9,243.8,124.3,243.9,123.8,244.2z"/>
	<path class="st1" d="M124.7,241.7c-1.4,0.7-0.6,0.8,0.5,0.5c1.1-0.3,2.4-1.1,2.8-0.8"/>
	<path class="st1" d="M126.5,235.9c-0.8,1,0.1,1.3,0.7,1.5c0.6,0.2,0.7,0.2,0.8,0.3c0.1,0.1,0,0.2,0,0.4c-0.1,0.2-0.1,0.5,0,0.8
		c0.1,0.3,0.4,0.6,0.5,1c0.1,0.4,0.1,0.9,0.2,1.5c0.1,0.6,0.3,1.3,0.5,1.9c0.2,0.6,0.4,1,0.7,1.3c0.4,0.3,0.9,0.4,1.2,0.1
		c0.3-0.3,0.4-1.1,0.2-1.8c-0.2-0.8-0.7-1.5-1.1-2.5c-0.4-0.9-0.6-2-0.9-2.5c-0.2-0.5-0.5-0.4-0.5,0c0,0.4,0.3,1.2,0.6,2
		c0.3,0.8,0.6,1.6,0.9,2.3c0.3,0.6,0.5,1.1,0.5,1.3c0,0.3-0.2,0.3-0.5-0.1c-0.3-0.4-0.8-1.3-1.4-2.2"/>
	<path class="st1" d="M126.5,235.9c2.3,0.5,3.6,0.3,4.3,0.2c0.8-0.2,1.1-0.3,1.3-0.1c0.2,0.2,0.3,0.5,0.2,0.8
		c-0.1,0.2-0.5,0.3-1.1,0.3c-0.6,0-1.3,0-3.9-0.4"/>
	<path class="st1" d="M76.5,38.7c0.7,0.4,1.2,0.5,1.5,0.1"/>
	<path class="st1" d="M116,204.2c4.3-0.9,9.7-2.4,16.1-4.3"/>
	<path class="st1" d="M73,239.8c0.7-0.4,0.9-0.3,1-0.1c0.1,0.2,0.2,0.3,0.3,0.5c0,0.2-0.1,0.4-0.2,0.6c-0.2,0.2-0.4,0.2-1,0"/>
	<path class="st1" d="M73.5,242.8c0.7-0.1,1,0.2,1.1,0.4c0.2,0.3,0.2,0.5,0,0.7c-0.2,0.2-0.5,0.3-0.8,0.3c-0.3,0-0.7-0.1-0.8-0.7"/>
	<path class="st1" d="M71.3,240.9c1.6,1.6,1.8,1.8,2,2c0.2,0.2,0.4,0.4,0.5,0.5c0.1,0.1,0.1,0.2,0.1,0.2c0,0-0.2,0.1-0.3,0
		c-0.1-0.1-0.2-0.2-0.4-0.4c-0.2-0.1-0.4-0.2-0.7-0.4c-0.2-0.2-0.4-0.4-0.6-0.6c-0.2-0.2-0.3-0.4-0.5-0.6c-0.2-0.2-0.4-0.5-0.8-0.9"
		/>
	<path class="st1" d="M72.7,249.7c0.1,0.8,0.4,0.9,0.6,1c0.3,0.1,0.5,0,0.7-0.1c0.2-0.1,0.2-0.3,0.3-0.5c0.1-0.2,0.1-0.4,0.1-0.6
		c0-0.2-0.1-0.4-0.2-0.5c-0.1-0.1-0.2-0.2-0.2-0.2"/>
	<path class="st1" d="M71.6,252.5c0,0.4,0.2,0.7,0.5,0.8c0.3,0.2,0.6,0.2,0.8,0.2c0.2-0.1,0.3-0.3,0.4-0.5c0-0.2,0-0.5,0-0.7
		c-0.1-0.2-0.2-0.3-0.3-0.4c-0.1-0.1-0.2-0.1-0.3-0.1"/>
	<path class="st1" d="M70.1,254.8c-0.1,0.6,0.1,0.8,0.4,1c0.3,0.2,0.6,0.3,0.9,0.2c0.3-0.1,0.4-0.3,0.5-0.6c0-0.2,0-0.5-0.2-0.7
		c-0.1-0.2-0.3-0.3-0.5-0.3"/>
	<path class="st1" d="M68.1,256.9c0,0.7,0.2,0.9,0.5,0.9c0.3,0.1,0.6,0,0.8-0.1c0.2-0.1,0.2-0.2,0.3-0.4c0-0.2,0-0.5-0.4-0.8"/>
	<path class="st1" d="M66.4,258.6c-0.3,0.6,0,0.8,0.3,0.9c0.3,0.1,0.5,0,0.7-0.1c0.2-0.1,0.3-0.3,0.3-0.5c0-0.2-0.1-0.4-0.3-0.5"/>
	<path class="st1" d="M72.5,237.9c2.5,0.5,4.2,0.7,5.7,0.7c1.5,0,2.9-0.3,5.1-1"/>
	<path class="st1" d="M69,244.3c0.5,1,1.1,1.2,1.5,0.8c0.4-0.4,0.8-1.2,0.8-1.9c0-0.6-0.3-1-0.6-1.2c-0.2-0.2-0.4-0.4-0.4-0.4
		c-0.1-0.1,0-0.1,0.2,0c0.2,0.1,0.5,0.3,0.8,1c0.3,0.7,0.7,1.8,1.2,3c0.6,1.2,1.4,2.4,2,3.3c0.6,0.8,1.1,1.2,1.3,1.1
		c0.2,0,0.2-0.5,0-0.8c-0.2-0.2-0.5-0.3-0.8-0.5c-0.3-0.2-0.5-0.7-0.7-1.1c-0.2-0.5-0.4-0.9-0.6-1.4c-0.2-0.5-0.5-0.9-0.7-1.4
		c-0.3-0.4-0.5-0.9-0.8-1.3c-0.2-0.4-0.4-0.9-0.7-1.3c-0.2-0.4-0.5-0.6-0.7-0.7c-0.2-0.1-0.4-0.1-0.5-0.2c-0.1-0.1-0.1-0.4,0.1-0.6
		c0.2-0.2,0.5-0.3,0.9-0.4c0.3-0.1,0.7,0,1,0c0.3,0.1,0.6,0.2,0.8,0.2c0.2,0,0.3,0,0.3-0.2c-0.1-0.2-0.3-0.4-0.7-0.5
		c-0.4-0.1-0.8-0.1-1.2-0.2c-0.3-0.1-0.5-0.3-0.8-0.5s-0.4-0.3-1,0.1"/>
	<path class="st1" d="M67.5,248c0.8-0.7,1.2-0.8,1.7-0.7c0.6,0.1,1.3,0.5,1.9,0.9c0.6,0.4,1.2,0.9,1.7,1.2c0.5,0.4,0.9,0.6,1,0.5
		c0.1-0.1,0-0.7-0.2-1.1c-0.3-0.4-0.7-0.8-1.3-1.1c-0.6-0.4-1.3-0.7-1.9-0.9c-0.7-0.2-1.3-0.2-2-0.1"/>
	<path class="st1" d="M66.2,250.4c0.2-1.1,0.8-1.1,1.3-1.1c0.5,0,0.9,0.1,1.3,0.3c0.4,0.2,0.9,0.6,1.3,1c0.4,0.4,0.9,0.9,1.2,1.3
		c0.4,0.4,0.7,0.7,0.9,0.7c0.2,0,0.3-0.3,0.1-0.7c-0.3-0.4-0.9-0.9-1.4-1.4c-0.5-0.5-1-0.9-1.6-1.2c-0.6-0.3-1.4-0.5-2-0.3"/>
	<path class="st1" d="M64.8,251.9c0.9,0.2,1.2,0,1.5,0c0.4,0,0.8,0.1,1.4,0.3c0.6,0.3,1.2,0.8,1.6,1.1c0.4,0.4,0.5,0.6,0.7,0.9
		c0.1,0.3,0.3,0.6,0.4,0.7c0.1,0.2,0.3,0.2,0.3,0c0-0.2,0-0.8-0.3-1.3c-0.3-0.5-0.8-1-1.3-1.4c-0.5-0.4-1.1-0.7-1.5-0.9
		c-0.4-0.2-0.6-0.2-0.9-0.2c-0.3-0.1-0.8-0.2-1.1,0"/>
	<path class="st1" d="M63.3,254.6c0.3-0.3,0.3-0.5,0.3-0.6c0.1-0.1,0.2-0.2,0.6-0.2c0.4,0,1,0,1.5,0.1c0.5,0.1,1,0.4,1.4,0.7
		c0.3,0.3,0.5,0.6,0.7,0.9c0.2,0.3,0.3,0.6,0.5,0.9c0.2,0.2,0.4,0.4,0.6,0.5c0.2,0,0.3-0.1,0.3-0.3c0-0.2-0.1-0.6-0.3-1
		c-0.2-0.4-0.5-0.8-0.8-1.1c-0.3-0.3-0.6-0.5-0.9-0.7c-0.3-0.2-0.6-0.3-1-0.4c-0.4-0.1-0.8-0.2-1.3-0.5"/>
	<path class="st1" d="M67.2,258.6c-1.8-1.8-3.6-2.7-5.3-2.7"/>
	<path class="st1" d="M58.1,260.8c1.9-1.5,2.9-1.6,3.7-1.6c0.8,0,1.6,0.2,2.6,1.2"/>
	<path class="st1" d="M74.2,266.7c-0.6-3.1-1.5-3.2-2.5-3.1c-1,0-2.1,0.2-3,0.3c-0.9,0.2-1.6,0.4-2,0.3c-0.4-0.1-0.4-0.4-0.6-0.8
		c-0.2-0.4-0.4-0.9-0.7-1.4c-0.3-0.5-0.6-0.9-0.8-1.2c-0.2-0.3-0.3-0.6-0.3-0.9c0-0.3,0.1-0.7,0.3-1c0.2-0.3,0.6-0.7,1-1"/>
	<path class="st1" d="M49.6,266.8c1.9,0.9,3.6,1.3,5,1.6c1.5,0.3,2.8,0.4,4.5,0.5c1.7,0.1,3.7,0.2,5.4,0.1c1.7,0,3.1-0.1,4-0.3
		c0.9-0.2,1.3-0.5,1.8-0.9c0.5-0.4,1.2-0.8,1.9-1c0.6-0.2,1.1-0.2,1.8-0.1c0.6,0,1.4,0.1,2.9,0.1c1.5,0,3.7-0.1,6.5-0.3"/>
	<path class="st1" d="M89,18c-1.3-4.8-0.3-5.1,0.6-4.8c0.9,0.3,1.7,1.2,2.4,1.6c0.7,0.4,1.4,0.2,1.7-0.4c0.2-0.5,0.1-1.4,0.6-1.9
		c0.5-0.5,1.8-0.5,3.2,0c1.4,0.5,2.9,1.6,4.2,2.2c1.2,0.6,2.2,0.6,2.7,1.3c0.6,0.7,0.9,1.9,0.1,2.3c-0.7,0.4-2.5-0.1-3.9-0.2
		c-1.4-0.1-2.6,0.3-3.3,0.6c-0.7,0.3-1.1,0.6-1.5,0.5c-0.4-0.1-0.9-0.7,0.2-2.7"/>
	<path class="st1" d="M79.4,14.4c-1.6-0.1-1.5,1.2-1.4,2.3c0.1,1.1,0.1,2-0.2,2.5c-0.3,0.4-0.8,0.3-1.3-0.1
		c-0.5-0.4-0.8-1.1-0.9-0.7c-0.1,0.4,0.1,1.9-0.2,2.8c-0.3,0.9-1.1,1.1-1.8,0.7c-0.7-0.4-1.2-1.5-0.5-2.6"/>
	<path class="st1" d="M94.1,17c-3.1,0.7-2.6,1.6-2,2.2c0.6,0.6,1.3,0.9,1.7,1.4c0.4,0.5,0.5,1.2,0.8,2c0.3,0.8,0.8,1.6,1.7,1.7
		c0.8,0.1,2-0.4,2.9-0.9c0.8-0.5,1.4-1.1,1.8-1c0.4,0.1,0.7,0.9,0.5,1.7c-0.2,0.7-0.8,1.4-0.9,1.9c-0.2,0.5,0.2,1,1.1,1.3
		c1,0.3,2.6,0.5,3.3,2.3"/>
	<path class="st1" d="M74.5,31.6c-0.2,0.4-0.1,0.7,0,0.8c0.1,0.2,0.3,0.2,0.5,0.3c0.2,0,0.5,0,0.7,0c0.2-0.1,0.3-0.3,0.3-0.4
		c0-0.2,0-0.3,0-0.4c0-0.1-0.1-0.2-0.3-0.5"/>
	<path class="st1" d="M77,31.8c-0.7-0.4-1.3-0.5-1.7-0.4c-0.4,0-0.6,0.1-1.3,0.6"/>
	<path class="st1" d="M81.9,31.8c-0.4,0.6-0.2,0.9,0.2,1.1c0.3,0.2,0.8,0.2,1.1,0.1c0.3-0.1,0.4-0.2,0.5-0.4c0.1-0.1,0.1-0.3,0-0.4
		c0-0.2-0.1-0.3-0.5-0.7"/>
	<path class="st1" d="M85.3,32.4c0.6-0.1,1.4-0.2,1.5-0.6"/>
	<path class="st1" d="M84.1,31.2c0.8,0.2,1.4,0.4,1.9,0.8"/>
	<path class="st1" d="M80.7,32.5c1.1-1,1.9-1.3,2.7-1.4"/>
	<path class="st1" d="M80.7,32.5c0.8-0.6,1.7-0.8,2.4-0.9c0.7-0.1,1.2,0,2.8,0.5"/>
	<path class="st1" d="M74.8,30.2c1.6-0.1,2.3,0.1,2.8,0.4c0.4,0.3,0.5,0.5,0.6,0.7c0,0.2-0.1,0.4-0.3,0.8c-0.2,0.3-0.5,0.7-0.8,1.1
		c-0.3,0.4-0.5,0.7-0.7,1.1c-0.2,0.3-0.4,0.7-0.8,1.1c-0.1,0.1-0.2,0.3-0.4,0.4"/>
	<path class="st1" d="M74.3,35.3c1,0.4,1.3,0.7,1.6,1.2c0.2,0.4,0.4,1,0.6,1.7c0.1,0.7,0.2,1.6,0,3.8"/>
	<path class="st1" d="M116.2,265.9c1.2,1.4,3.4,1.6,5.2,1.7c1.8,0.1,3.2,0.1,4.5,0.1c1.4,0,2.7,0,3.7,0c1,0,1.6,0,2.2-0.3
		c0.6-0.3,1.1-0.8,1.6-1.2c0.4-0.4,0.7-0.8,0.9-1.6c0.3-0.8,0.6-2-0.2-2.6"/>
	<path class="st1" d="M78,46.2c1.1-0.2,1.7-0.5,2.3-0.9c0.6-0.4,1.2-1,1.6-1.4c0.4-0.4,0.7-0.6,0.9-0.6c0.2-0.1,0.3-0.1,0.4-0.1
		c0,0,0,0-0.2,0c-0.2,0-0.6,0-1.2,0c-0.6,0-1.3,0-1.9-0.1c-0.5,0-0.8-0.1-1.1-0.1c-0.3,0-0.5,0-0.8,0c-0.3,0-0.5,0.1-0.8-0.3"/>
	<path class="st1" d="M77.9,47.4c0.4,0.5,0.7,0.4,1,0.3c0.3-0.1,0.7-0.2,1-0.4c0.3-0.2,0.5-0.5,0.7-0.8c0.2-0.3,0.5-0.7,0.8-1.1
		c0.3-0.4,0.6-0.8,1-1.2c0.4-0.4,0.9-0.7,1.1-0.9c0.2-0.2,0.1-0.2-0.1-0.2c-0.2-0.1-0.6-0.2-0.9-0.3c-0.3-0.1-0.7-0.2-1-0.4
		c-0.3-0.1-0.7-0.3-1-0.5c-0.4-0.2-0.7-0.4-1.3-0.5c-0.6-0.1-1.4-0.2-2,0.2"/>
	<path class="st1" d="M95.8,36.9c0.3,1.4,0.6,1.3,0.8,1.1c0.2-0.2,0.3-0.5,0.6-0.7c0.3-0.2,0.6-0.4,0.9-0.7c0.2-0.3,0.3-0.6,0.2-0.8
		c-0.2-0.2-0.6-0.2-0.9,0.1"/>
	<path class="st1" d="M90.3,72.1c5,2.6,7.8,8.9,5.8,13"/>
	<path class="st1" d="M55.7,72.3c3.7,3.2,7.4,6.3,10.2,8.2"/>
	<path class="st1" d="M53.2,74.3c3,1.6,5.7,6.1,4.8,10.6"/>
	<path class="st1" d="M20.7,1.7c4.4,5.9,4.7,7.2,4.8,9.5c0.2,2.3,0.2,5.5,0,8.6c-0.3,3-0.9,5.9-2,8.3c-1.1,2.5-2.6,4.6-4.1,6.4
		c-1.4,1.8-2.7,3.4-3.5,4.4c-0.8,1-1,1.4-1.8,1.9c-0.8,0.5-2.2,1.1-4.3,1"/>
	<path class="st1" d="M77.5,28c-0.2,0.8-0.8,0.6-1.3,0.4c-0.4-0.2-0.6-0.4-2.1,0"/>
	<path class="st1" d="M80.4,28c-0.8,0.9-0.1,1,0.6,0.7c0.7-0.2,1.2-0.8,2.2-0.9c1-0.1,2.6,0.2,3.9,1.6"/>
	<path class="st1" d="M97.2,33.6c-0.5,1.1-1.1,1.4-1.7,1.4c-0.6,0-1.2-0.1-1.5-0.4c-0.3-0.3-0.1-0.7-0.1-1.1c0-0.4,0-0.9,0-1.3
		c-0.1-0.4-0.1-0.8-0.3-1.2c-0.1-0.4-0.3-0.8-0.8-1.2c-0.4-0.3-1.1-0.6-1.8-0.7c-0.7-0.2-1.4-0.3-1.5-0.6c-0.1-0.3,0.3-0.7,0.1-1
		c-0.1-0.4-0.8-0.7-1.3-0.7c-0.5,0-0.9,0.3-1.2,0.2c-0.3,0-0.5-0.4-0.6-0.8c-0.2-0.4-0.3-0.7-0.2-1.1c0.1-0.4,0.5-0.9,0.2-1.3
		c-0.2-0.4-1-0.6-1.6-0.9c-0.6-0.4-0.9-0.9-1.1-1.4c-0.2-0.6-0.2-1.3-0.4-1.1c-0.2,0.2-0.8,1.2-0.9,2c-0.1,0.9,0.2,1.7,0,2.2
		c-0.2,0.5-1,0.7-1.6,0.6c-0.6-0.1-1.1-0.6-1.5-0.6c-0.4,0-0.8,0.6-1,1.1c-0.3,0.5-0.4,1-0.9,1.1c-0.5,0.1-1.4-0.1-2-0.4
		c-0.5-0.3-0.7-0.6-0.7-0.3c0,0.2,0.2,1,0,1.6c-0.1,0.6-0.6,0.9-2.1,0.8"/>
	<path class="st1" d="M94.4,39.8c-0.8,1.6,0.2,1.8,0.9,1.8c0.7,0,1,0,1.5-0.3c0.5-0.2,1.1-0.7,1.8-1.2c0.7-0.5,1.5-1.2,2.1-1.9
		c0.6-0.7,1.1-1.5,1.4-2.3c0.3-0.7,0.6-1.4,0.4-2c-0.1-0.6-0.6-1-1.1-1.3c-0.5-0.3-1.1-0.5-1.6-0.5c-0.4-0.1-0.7,0-1.2,0.2
		c-0.4,0.2-1,0.5-1.6,1.1"/>
	<path class="st1" d="M98,47.3c-0.2-1.2-0.5-1.3-0.9-1.4c-0.4-0.1-0.8-0.1-1.1-0.1c-0.3-0.1-0.5-0.3-0.7-0.4
		c-0.3-0.2-0.6-0.4-0.6-0.6c-0.1-0.2,0.1-0.5,0.5-0.7c0.3-0.2,0.8-0.5,1.2-0.9c0.4-0.4,0.6-1,0.4-1.6"/>
	<path class="st1" d="M86.8,50.7c3-0.9,5.3-2.6,6.9-5"/>
	<path class="st1" d="M62.3,65.7c7.3,3.5,10.9,4.8,13.5,6.1c2.6,1.2,4.2,2.3,5.4,2.9c1.2,0.6,2,0.8,2.8,0.7c0.7-0.1,1.3-0.6,2.5-1.2
		c1.2-0.7,2.9-1.5,4.8-2.4c2-0.9,4.2-1.8,5.8-2.5c1.6-0.7,2.6-1.2,4.1-1.8c1.5-0.6,3.5-1.3,5.9-2.8"/>
	<path class="st1" d="M82,58c1.8,3.5,2.4,4,3.1,4.2c0.7,0.2,1.6,0.3,2.5,0.4c0.9,0.1,2,0.2,2.9,0.2c0.9,0,1.7-0.2,2.3-0.4
		c0.6-0.2,1.1-0.6,1.7-1c0.6-0.4,1.2-0.9,1.9-1.5c0.7-0.6,1.4-1.2,2.2-1.9c0.8-0.7,1.5-1.4,3.1-3.5"/>
	<path class="st1" d="M49.7,50.5c-0.3-1.1-1.1-1.5-1.9-1.6c-0.8-0.2-1.5-0.1-2.1-0.1c-0.6,0.1-1.2,0.2-1.7,0.2
		c-0.5,0.1-0.9,0.1-1.3,0.1c-0.3,0-0.5,0-0.7,0.2c-0.2,0.2-0.5,0.6-0.7,0.9c-0.2,0.3-0.4,0.5-0.7,0.8c-0.2,0.2-0.5,0.5-0.9,0.8
		c-0.4,0.3-1,0.5-1.5,1c-0.5,0.5-0.9,1.3-0.7,1.5"/>
	<path class="st1" d="M52.1,42.5c-0.4-0.2-1-0.3-1.4-0.2c-0.4,0.1-0.6,0.2-0.7,0.4c-0.1,0.2-0.1,0.4,0,0.7c0.1,0.3,0.4,0.6,0.6,0.8
		c0.2,0.2,0.4,0.4,0.7,0.4c0.3,0,0.7-0.1,0.9-0.3c0.2-0.2,0.4-0.5,0.3-0.8C52.7,43.2,52.5,42.7,52.1,42.5z"/>
	<path class="st1" d="M36.8,42.5c0,0.5,0,1.5,0,2.1c0,0.6,0,0.8,0.2,1c0.2,0.2,0.5,0.2,1,0.3c0.4,0,1,0,1.7,0c0.7,0,1.5,0.1,2,0
		c0.6-0.1,0.9-0.2,1.5-0.6c0.6-0.4,1.5-1,2.1-1.5c0.6-0.5,0.9-0.9,1.1-1.2c0.1-0.3,0.1-0.5-0.1-0.6c-0.2-0.1-0.5-0.2-1.3-0.2
		c-0.8,0-2,0-3.5,0c-1.4,0-3.1,0-3.9,0.1C36.8,41.9,36.8,42,36.8,42.5z"/>
	<path class="st1" d="M37.2,76.2c1.5,1.5,3.7,1.6,5.1,1.4c1.5-0.2,2.2-0.6,3.1-1.3c0.9-0.7,2-1.7,3-3.1"/>
	<path class="st1" d="M37.8,72.1c0.8,2.2,1.4,2.6,2.3,2.8c0.9,0.3,2.2,0.4,3.4-0.1c1.2-0.5,2.4-1.6,3.4-3"/>
	<path class="st1" d="M40,58.1c2.2,1.9,5.5,5,7.2,6.3"/>
	<path class="st1" d="M77.1,41.6c0.5-0.8,0.4-1.9,0.3-2"/>
	<path class="st1" d="M83.5,56.8c1.6,2.8,2.4,3.4,3.4,3.8c1,0.4,2.3,0.5,3.6,0.4c1.2-0.1,2.5-0.5,3.3-1c0.9-0.5,1.4-1.1,2-1.8
		c0.7-0.7,1.5-1.5,4.6-4.8"/>
	<path class="st1" d="M71.3,84c3.6,2.5,4.2,3.2,5.1,3.5c0.8,0.4,1.9,0.4,2.8,0.4c0.9,0,1.7-0.2,4.3-0.6c2.6-0.4,6.9-1.1,10.1-1.8
		c3.2-0.6,5.3-1.2,7.9-2c2.6-0.8,5.6-1.8,8.1-3.2c2.5-1.4,4.3-3.2,5.8-6.7"/>
	<path class="st1" d="M78.3,110.7c8.2,2.9,14.5,2.4,20.4,1.6c5.9-0.9,11.3-2.2,18.1-6.5"/>
	<path class="st1" d="M78.6,106.8c10,3,13.8,2.9,18.8,2.2c5-0.7,11.1-2.1,17.2-6.6"/>
	<path class="st1" d="M73.2,203.3c4.7,1.9,9.7,3.3,16.4,3.3"/>
</g>
</svg>
