<?xml version="1.0" encoding="utf-8"?>
<!-- Generator: Adobe Illustrator 21.0.0, SVG Export Plug-In . SVG Version: 6.00 Build 0)  -->
<svg version="1.1" xmlns="http://www.w3.org/2000/svg" xmlns:xlink="http://www.w3.org/1999/xlink" x="0px" y="0px"
	 viewBox="0 0 78 284.5" style="enable-background:new 0 0 78 284.5;" xml:space="preserve">
<style type="text/css">
	.st0{fill:#FFFFFF;stroke:#000000;stroke-linecap:round;stroke-linejoin:round;}
	.st1{fill:none;stroke:#000000;stroke-width:0.15;stroke-linecap:round;stroke-linejoin:round;}
</style>
<g id="OUTER">
	<path class="st0" d="M55.4,284c-7.6,0-15.2,0-22.9,0c-0.8-0.1-1.4-0.2-2-0.4c-0.5-0.2-0.9-0.5-1.4-0.8c-1.1-0.7-2.5-1.5-3.8-1.8
		c-0.6-0.2-1.2-0.3-1.6-0.3c-0.5,0-0.7,0-0.8,0.6c0,0.2,0,0.5,0.2,2.7c-5.9,0-11.8,0-17.7,0c-0.1,0-0.2,0-0.3,0
		c-0.8-9.2-0.8-11.2-0.7-13.2c-0.3-0.7-0.7-1.4-0.9-2.2c-0.7-2.2-0.8-4.9,0.3-6.9c0.5-0.9,1.3-1.7,1.9-2.6c1.2-1.7,2-3.7,2.3-5.7
		c0.3-1.9,0.2-3.9,0.2-5.8c0-4,0.2-8,0-12c-0.2-5-0.9-10-0.6-15c0.2-2.7,0.7-5.5,1-8.2c0.2-1.9,0.4-3.8,1-5.7
		c0.6-2.2,1.8-4.3,2.1-6.5c0.3-2-0.1-4.1-0.5-6.1c-0.8-4.7-1.3-9.4-1.3-14.1c0-6,0.8-12.1-0.1-18c-0.2-1.6-0.6-3.2-1-4.8
		c-1.7-7.6-3.5-15.2-4.9-22.9c-2-10.7-3.1-21.6-3.3-32.5C0.4,91.4,1.1,81,1.6,70.4c0.1-2.5,0.2-4.9,0.9-7.3c0.7-2.4,2-4.7,3.5-6.7
		c1.7-2.3,3.7-4.4,5.6-6.5c1.7-1.8,3.3-3.5,5-5.3c-0.1-0.6-0.1-1.3,0.1-1.8c0.4-0.9,1.6-1.4,2.1-2.2c0.4-0.7,0.4-1.6,0.4-2.5
		c-0.5,0-0.9-0.1-1.1-0.3c-0.2-0.3-0.1-0.8,0.1-1.3c0.2-0.7,0.6-1.4,0.3-1.5c-0.1-0.1-0.4,0-0.6,0c-0.2,0-0.4,0-0.5-0.1
		c-0.2-0.2,0-0.6,0-0.9c0.2-1-0.3-1.5-0.1-2.6c0.1-0.5,0.3-1.2,0-1.3c-0.2,0-0.5,0.1-0.7,0.1c-0.3-0.1-0.3-0.6-0.2-1.1
		c0.2-0.8,0.6-1.7,0.1-1.8c-0.2,0-0.7,0.1-0.9,0.1c-0.3-0.1-0.1-0.7,0-1.2c0.1-0.3,0.1-0.5,0-0.6c-0.2-0.2-0.7,0-0.9-0.1
		c-0.2-0.1-0.1-0.5,0-0.9c0.1-0.3,0.1-0.7,0-0.8c-0.2-0.1-0.6,0-0.8-0.1c-0.3-0.2-0.2-0.7-0.2-1.2c0.1-0.7,0-1.2,0-1.8
		c0-1.1,0-2.3,0.1-3.5c0.2,0,0.3,0,0.6,0c0.1,0,0.3,0,0.4-0.1c0.1-0.2-0.1-0.6,0-0.8c0.1-0.2,0.8,0,1-0.2c0.1-0.1,0.1-0.3,0-0.6
		c-0.2-0.9-0.6-1.9-0.1-2c0.3-0.1,0.7,0,0.9-0.1c0.2-0.2,0.1-0.6,0-0.9c-0.2-1.1-0.1-1.9,0-2.8c0.4,0.1,0.9,0.1,1-0.1
		c0.1-0.1,0.1-0.3,0-0.5c-0.1-0.6-0.3-1.3,0-1.3c0.2,0,0.6,0.2,0.8,0.1c0.1-0.1,0.1-0.2,0.1-0.4c0-0.2-0.1-0.5,0-0.5
		c0.1-0.1,0.7,0,0.9-0.1c0.2-0.1-0.1-0.6,0-0.8c0.1-0.4,1.2,0,1.5-0.4c0.1-0.2,0-0.7,0.1-0.9c0.1-0.3,0.7,0.1,1.3,0.1
		c0.7,0,1.3-0.4,1.2-0.9c0-0.3-0.2-0.5-0.2-0.7c0.1-0.2,0.5-0.3,1-0.3c2.3,0.1,4.4,1.4,5,0.1c0.1-0.3,0.2-0.6,0.3-0.9
		c0.5-1.4,2.7-1.1,4.4-0.9c4,0.6,6,1.2,10.2,0c1.5-0.4,3.2-1.1,3.6,0c0.1,0.2,0.1,0.6,0.3,0.8C48.1,2.2,49,2,49.4,2.4
		c0.5,0.4,0.3,1.6,0.9,1.7c0.4,0.1,1-0.3,1.2-0.1c0.2,0.2-0.2,1.1,0,1.4c0.2,0.3,1.1-0.2,1.5,0.1c0.6,0.3-0.2,2.3,0.1,2.3
		c0.2,0,0.7-0.7,1.1-0.8c0.6-0.2,0.8,0.9,0.9,1.8c0.1,1,0.2,1.7,0.3,2.3c0.3,1,0.9,1.9,0.4,3.2c-0.2,0.5-0.5,0.9-0.7,1.4
		c-0.5,0.9-0.5,1.4-0.5,1.7c0,0.5,0.1,0.4-0.8,1c-0.4,0.3-1.1,0.8-1.2,1.2c-0.1,0.3,0,0.6,0.1,1c0.3,1.3,0.2,3.6,0,4.9
		c0,0.4-0.1,0.6-0.1,0.9c-0.1,1.2,0.2,3.1,1.5,5.3c1,1.7,2.6,3.7,1.4,4.2c-0.5,0.2-1.5,0.1-2.1,0.3c-0.9,0.3-0.4,1.3-0.1,2.1
		c0.1,0.3,0.2,0.5,0.3,0.8c0,0.4-0.1,1,0,1.4c0,0.1,0.1,0.3,0.1,0.4c0.1,0.5-0.5,0.9-0.9,1.6c-0.4,0.8-0.3,2-0.9,2.8
		c-0.4,0.6-1.1,1-1.8,1c-0.7,0-1.4-0.2-2,0c-0.6,0.2-1,0.8-1.4,1.4c-1,1.2-2.2,2-3.5,2.8c1.2,0.5,2.3,1,3.1,1.9
		c0.6,0.7,0.9,1.5,1,2.3c0.1,0.8-0.1,1.5,0,2.4c0,1.1,0.3,2.5-0.3,3c-0.3,0.2-0.8,0.3-1.3,0.3c0.1,3,0.2,6.1,1.2,8.8
		c1.7,4.6,5.8,8.3,6,13.8c0.1,1.6-0.2,3.3,0.6,4.3c0.7,0.8,2.2,1,3.4,1.6c2.2,1.1,3.5,3.4,3.8,5.7c0.2,1.6,0.1,3.1-0.2,4.7
		c-0.3,1.4-0.6,2.8-0.4,4.1c0.2,0.9,0.6,1.8,0.9,2.7c0.9,2.2,1.4,4.4,2.5,6.5c1.2,2.4,3.2,4.7,4.9,6.4c1,1,1.9,1.8,3.1,3.6
		c1,1.5,2.2,3.7,0.8,4c-0.4,0.1-1,0-1.2,0.2c-0.2,0.2,0.3,0.7,0.6,1.2c0.7,1,0.8,1.9,0.9,2.7c0.5,2.7,1.6,5.5,3,8.4
		c0.8,1.5,1.6,3.1,1.2,4.5c-0.3,0.9-1,1.7-1.9,2.3c-1.9,1.4-4.2,1.8-6.2,2.8c-3.8,2-6.8,6.4-11,6.7c-0.4,0-0.9,0-1.4,0
		c-0.4,12.8-0.9,25.6-0.4,38.3c0.3,8.5,1,17,2,25.4c1.5,13.3,3.6,26.5,5,39.8c0.8,7.5,1.3,15.1,1.6,19.7c0.7,0,1.3,0.1,2,0.1
		c0.3,0.3,0.5,0.7,0.7,1c0.5,1.1,0.3,2.4,0.2,4.2c-2.5,0-5.1,0-7.6,0c-0.3-0.9-0.5-1.5-0.6-2c-0.1-1.1,0.2-2.2,0.5-3.4
		c0.6,0,1.2,0,1.8-0.1c-2-14.7-4.3-32.4-6.6-50.1c-1.9,0.3-3.8,0.6-5.8,0.6c-1.6,0-3.1-0.1-4.7-0.2c-0.2-0.1-0.4-0.1-0.6-0.2
		c-2.8,5.7-5.6,11.5-7.9,17.4c-1,2.6-2,5.1-2.7,7.8c-0.5,2.1-0.9,4.3-0.8,6.4c0.1,1.9,0.7,3.7,1.4,5c0.4,0.8,0.8,1.4,1.6,2
		c2.7,2.4,9.6,5.7,12,7.2c0.3,0.2,0.5,0.3,0.8,0.4c0.6,0.1,1.7-0.5,2.7-0.2c1.1,0.3,2.2,1.8,2.9,2.7c0.2,0.2,0.3,0.5,0.4,0.7
		C54.9,278.9,54.8,279.8,55.4,284"/>
</g>
<g id="INNER">
	<path class="st1" d="M29.1,30.8c0.9,2,2.2,2.9,3.2,2.6c1-0.3,1.7-1.8,1.7-3.2c0-0.9-0.3-1.6-0.6-2.4"/>
	<path class="st1" d="M20.7,35.2c0.4,1.4,1.2,1.4,1.7,1.5c0.5,0,0.6,0,0.7,0.2c0.1,0.1,0.1,0.3-0.1,0.6c-0.2,0.3-0.6,0.7-1,1.2
		c-0.4,0.4-0.9,0.9-0.4,1.1c0.5,0.2,1.8,0.3,1.7-0.6"/>
	<path class="st1" d="M46.3,31.3c0.7,1,1.5,2,1.3,2.8c-0.3,1.1-2.4,1.8-3,3c-0.6,1.1,0.3,2.7,1.1,4c0.4,0.6,0.7,1.1,1.1,1.5"/>
	<path class="st1" d="M52.2,36c-1.2-0.3-1.6-0.6-1.9-0.7c-0.3-0.1-0.5-0.1-0.6,0c-0.1,0.1-0.2,0.3-0.1,0.4c0.1,0.1,0.3,0.2,0.6,0.2"
		/>
	<path class="st1" d="M50.2,25.1c-2.8-0.4-3.7-0.3-4.3,0.1c-0.7,0.3-1.1,0.9-2.1,1.2"/>
	<path class="st1" d="M44.9,149.7c-0.3,1.3,0.6,2.1,2.1,1.9"/>
	<path class="st1" d="M39.2,144.2c-0.1,1.7,0.3,1.9,0.6,2c0.3,0.1,0.6,0.1,0.9,0c0.3-0.1,0.6-0.2,0.8-0.2c0.2,0,0.2,0.1,0.1,0.2
		c0,0.1-0.1,0.3-0.2,0.6c-0.1,0.3-0.1,0.6,0.1,0.8c0.1,0.2,0.4,0.3,0.6,0.5c0.2,0.1,0.3,0.2,0.5,0.3c0.2,0,0.5,0,0.6,0.1
		c0.1,0,0.1,0.1,0.1,0.2c0,0.1-0.1,0.1-0.2,0.3c-0.1,0.1-0.1,0.2-0.1,0.4c0,0.2,0.1,0.4,0.4,0.6"/>
	<path class="st1" d="M35.7,95.4c3.1-2.5,6.2-4.9,6.9-10.2c0.2-1.3,0.2-2.8,0.6-3c0.7-0.3,2.3,2.5,2.2,4.2c-0.1,0.8-0.5,1.4-0.9,1.9
		c-0.7,0.8-1.5,1.6-2.3,2.4"/>
	<line class="st1" x1="55.3" y1="228.5" x2="47" y2="151.6"/>
	<path class="st1" d="M43.8,230.1c-0.7-0.4-1.4-0.8-2.1-1c-2-0.7-4.2-0.8-6.2-1.1c-2.3-0.4-4.3-1-6.7-2c-1.5-0.6-3-1.4-4.2-0.8
		c-0.5,0.3-1,0.8-1.6,1.1c-0.3,0.2-0.7,0.4-1.1,0.4c-0.7,0-1.2-0.8-1.7-1.3c-1.6-1.5-3.7-1.7-5.8-2.1c-1.7-0.4-3.3-0.9-5-1.1
		c-0.6,0-1.2,0-1.8,0"/>
	<path class="st1" d="M23.3,54.3c-4.1,0.4-6.8,3.4-8.3,5.7c-1.5,2.3-1.7,3.9-1.6,4.9c0.1,1,0.6,1.5,1.2,3.1c0.6,1.5,1.5,4.1,0,10.5"
		/>
	<path class="st1" d="M20.1,225.2c-1.2-3-1.3-5.7-0.9-7.9c0.4-2.3,1.2-4.1,1.6-6.8c0.4-2.8,0.4-6.5,0.6-9.8
		c0.2-3.3,0.6-6.2-0.2-12.8"/>
	<path class="st1" d="M7.7,94.6c0-8.7-0.7-11.9,0.6-17c0.6-2.4,1.7-5.3,1.1-5.4"/>
	<path class="st1" d="M29.4,128.4c-2.1-2.1-4.2-4.2-6.4-6.2c-3.6-3.2-7.6-6-10.7-9.6c-0.9-1.1-1.7-2.2-2.5-3.5
		c-2.5-4.3-4-10-2.2-14.5"/>
	<path class="st1" d="M32.4,101.2c-6.5,0.2-13,0.4-13.2-2.6c-0.1-1.8,1.9-4.7,3.5-7.2c3.2-5.2,4.1-8.6,6.8-15.3
		c0.3-0.9,0.7-1.8,1-1.9c0.4-0.2,0.4,1.6,0.4,3.5"/>
	<path class="st1" d="M15.7,87.5c-1.2,6.5-2.3,9.2-2.9,11c-0.5,1.8-0.4,2.8,0,3.5c0.4,0.7,1.2,1.1,3.3,2.3c2.1,1.2,5.4,3.1,7.1,5.1
		c1.7,2,1.8,3.9,1.4,5c-0.4,1.1-1.4,1.4-2.3,0.6c-0.9-0.8-1.7-2.5-2.8-3.8c-1.1-1.3-2.4-2-4.6-2.2"/>
	<path class="st1" d="M11.1,58.2c-2.1,4.3-2.1,10.3-1.8,14"/>
	<path class="st1" d="M49.9,10c1.4,0.1,1.8,0.5,1.7,1c-0.1,0.5-0.8,1.1-1.1,1.3c-0.3,0.2-0.3-0.1-0.4,0.1c0,0.2-0.1,0.9-0.1,1.3
		c0,0.4,0.1,0.4,0.2,0.4c0.1,0,0.3,0.1,0.3,0.1c0.1,0.1,0.1,0.2-0.1,0.4c-0.2,0.2-0.6,0.6-0.8,0.8c-0.2,0.1-0.3,0-0.4-0.1
		c-0.1-0.1-0.2-0.3-0.3-0.4c-0.1-0.1-0.2-0.1-0.3-0.1c-0.1,0-0.3,0-0.4,0"/>
	<path class="st1" d="M46,7.1c-1.3-2.5-1.8-1.5-2.2-1c-0.4,0.5-0.6,0.5-0.8,0.4c-0.1-0.1-0.1-0.3-0.2-0.4c0-0.1-0.1-0.1-0.5-0.1
		c-0.4,0-1.1,0-1.4,0.3c-0.3,0.3-0.3,0.8-0.2,1.2c0,0.3,0.1,0.4-0.1,0.6c-0.2,0.2-0.6,0.5-0.9,0.6c-0.3,0.2-0.5,0.2-0.7,0.1
		c-0.2,0-0.3-0.1-0.6,0c-0.3,0-0.8,0.1-1,0.2c-0.3,0.1-0.3,0.2-0.3,0.3c0,0.1,0,0.1,0,0.2c0,0.1,0,0.2,0.1,0.4
		c0.1,0.3,0.3,0.7,0.3,1c0.1,0.3,0.1,0.3,0,0.4c-0.1,0-0.4,0-0.8,0c-0.4,0-0.8,0-1.1,0c-0.3,0-0.4,0-0.4,0.3"/>
	<path class="st1" d="M46.7,27c0.6-0.5,1.5-0.7,2.2-0.7c0.7-0.1,1.1,0,1.4,0c0.3,0.1,0.6,0.2,0.8,0.4c0.2,0.2,0.3,0.4,0.5,0.6
		c0.2,0.3,0.5,0.6,0.5,0.9c0,0.4-0.3,0.9-0.5,1.2c-0.2,0.3-0.3,0.5-0.5,0.7c-0.2,0.1-0.4,0.2-0.9,0.3c-0.5,0-1.2,0-2-0.1
		c-0.9-0.1-1.9-0.2-2.4-0.8"/>
	<path class="st1" d="M43.4,52.1c3.1,0.1,2.1,3.6,2.6,8.2"/>
	<line class="st1" x1="62.2" y1="278.5" x2="65.1" y2="278.6"/>
	<path class="st1" d="M51.7,155.3c0.8,0.6,1.7,1.2,2.7,1.5c0.8,0.3,1.6,0.4,2.5,0.5"/>
	<path class="st1" d="M57.1,155.4c-0.2-2.8-0.4-5.6-0.8-8.4c-0.8-6.7-2.1-13.3-2.9-20c-0.5-3.7-0.8-7.5-1.3-11.2
		c-0.2-1.8-0.5-3.5-0.8-5.3"/>
	<path class="st1" d="M54.8,122.8c-0.2,1.9-0.4,3.9-0.3,5.8c0.2,5,2.4,9.5,3.7,14.9c0.4,1.8,0.8,3.8,2.1,4.7c0.8,0.6,1.9,0.8,3,0.7
		c1.3-0.1,2.4-0.9,3.5-1.3c2.4-1,5.1-0.9,7.6-1.5c0.5-0.1,1.1-0.3,1.6-0.5"/>
	<path class="st1" d="M48.5,34.9c0.1-0.6,0.2-1.1,0.5-1.5c0.3-0.4,0.9-0.5,1.4-0.7"/>
	<path class="st1" d="M43.6,28.6c1.9-0.1,2.2-0.8,2.4-1.3c0.3-0.5,0.6-0.9,1.1-1.2c0.6-0.2,1.4-0.2,2.1-0.2c0.7,0,1.4,0,1.8,0.2
		c0.4,0.2,0.7,0.6,0.9,1c0.2,0.5,0.5,1,0.4,1.5c-0.1,0.6-0.4,1.2-0.6,1.6c-0.2,0.4-0.3,0.6-0.8,0.7c-0.5,0.1-1.6,0-2.5,0
		c-0.9-0.1-1.8-0.1-2.4-0.3c-0.6-0.2-0.9-0.5-1.1-0.8c-0.3-0.3-0.6-0.5-1.5-0.3"/>
	<path class="st1" d="M32.6,38.7c0.2,0.9,0.4,1.7,0.8,2.3c1.1,1.5,3.8,1.5,5.6,2.7c1.4,0.9,2.2,2.6,3.6,3c1.2,0.3,2.7-0.2,3.8,0.1
		c0.3,0.1,0.5,0.2,0.8,0.4"/>
	<path class="st1" d="M53,38.5c0.2,0.1,0.4,0.3,0.6,0.3c0,0,0,0,0,0"/>
	<path class="st1" d="M46.5,38.9c0.7,0.1,1.4,0.3,2,0.4c0.9,0.1,1.7,0.2,2.6,0.1c0.3,0,0.6-0.1,0.8,0c0.3,0.1,0.5,0.4,0.8,0.5
		c0.2,0.1,0.5,0.1,0.7,0"/>
	<line class="st1" x1="51.2" y1="41.7" x2="52.6" y2="42"/>
	<line class="st1" x1="49" y1="40.8" x2="51.2" y2="41.7"/>
	<line class="st1" x1="46.5" y1="38.9" x2="49" y2="40.8"/>
	<path class="st1" d="M46.5,38.9c1.7-0.1,3.4-0.3,5.1-0.4c0.5,0,1-0.1,1.4-0.1"/>
	<path class="st1" d="M29.4,20.8c0.5,1.3,1,2.5,0.8,3.9c-0.2,1.1-0.7,2.2-1.6,2.6c-0.6,0.3-1.2,0.2-2.1-0.2
		c-0.7-0.3-1.4-0.7-1.5-0.9c0-0.2,2,0.4,2.9-0.1c0.5-0.3,0.6-0.9,0.5-1.4c-0.2-1-1.1-1.8-1-2.6c0.1-0.4,0.4-0.9,0.8-1.3"/>
	<path class="st1" d="M24.9,29c0.2-0.3,0.4-0.7,0.6-0.7c0.2,0,0.4,0.5,0.6,1"/>
	<line class="st1" x1="36.7" y1="29.2" x2="43.3" y2="29.4"/>
	<line class="st1" x1="36.4" y1="28.3" x2="43.6" y2="28.6"/>
	<line class="st1" x1="47" y1="151.6" x2="51.2" y2="150.6"/>
	<path class="st1" d="M43.3,150c2.1-0.4,4.2-0.8,5.6-2.2c0.6-0.6,1-1.4,1.6-2.1c0.6-0.6,1.3-1,2.1-1.4"/>
	<path class="st1" d="M43.3,148.4c1.2-0.8,2.4-1.5,3.7-2.3c1.7-1.1,3.6-2.2,4.1-4.1c0.1-0.4,0.1-0.7,0.2-1.1"/>
	<path class="st1" d="M41.7,145.9c1.4-0.8,2.8-1.6,4-2.5c0.9-0.7,1.8-1.5,2.7-2.2"/>
	<path class="st1" d="M39.2,144.2c1.5-0.5,3.1-1.1,3.6-2.4c0.2-0.6,0.2-1.5-0.1-2.1c-0.5-0.9-1.5-1.5-2.5-1.6
		c-0.7-0.1-1.3,0.1-2,0.3"/>
	<path class="st1" d="M29.3,39.4c0.7,0.3,1.4,0.5,2,0.3c0.5-0.2,0.9-0.7,1.3-1.2"/>
	<path class="st1" d="M26.1,29.3c0.5,1.6,0.9,3.3,1.8,4.3c1,1.2,2.6,1.7,4.8,2.4c1.2,0.4,2.5,0.8,2.9,0.4c0.4-0.5-0.4-2-0.4-3.1
		c0-1.3,1.1-2.1,1.4-3.2c0.3-1.4-0.5-3.2-2.1-3.7c-0.7-0.2-1.5-0.1-1.8-0.3c-0.8-0.5,0.7-2.4,0.7-4.1c0-1-0.5-1.9-0.5-2.5
		c0.1-1.2,2.7-0.8,4.9-2.1c2.4-1.4,4.1-4.9,4.5-3.8c0.2,0.5,0.2,2,0.7,2.7c0.8,1.1,3.1-0.2,4.5,0.2c0.9,0.2,1.4,1,2.1,1.6
		c0.9,0.7,2.1,0.9,3.3,1"/>
	<path class="st1" d="M26.3,43c2-0.6,3.4-1.5,3.3-2.8c-0.1-0.6-0.4-1.3-0.9-1.9c-1.2-1.6-3-2.6-3.7-4.2c-0.6-1.4-0.4-3.2-0.1-5.1"/>
	<path class="st1" d="M18,43.3c2.2-0.6,4.3-1.2,6.4-0.9c1.8,0.3,3.4,1.3,5.1,2.2c3.5,1.9,6.7,3.3,9.8,6.4c0.8,0.8,1.5,1.7,2.4,1.7
		c0.6,0,1.2-0.3,1.8-0.6"/>
	<path class="st1" d="M27.6,124.8c0.3-0.2,0.6-0.5,1-0.6c0.5-0.2,1-0.1,1.4,0.2c0.4,0.3,0.6,0.8,0.5,1.3c-0.1,0.4-0.4,0.8-0.9,1
		c-0.6,0.3-1.5,0.3-1.9-0.2c-0.2-0.2-0.3-0.5-0.3-0.8C27.5,125.2,27.6,125,27.6,124.8z"/>
	<path class="st1" d="M37.5,122.4c-1.3,1.3-2.5,2.7-4.2,2.9c-0.3,0-0.6,0-1,0"/>
	<path class="st1" d="M29.4,128.4c0.5-0.2,0.9-0.3,1.4-0.5c1.4-0.3,3,0,4.3-0.3c1.8-0.4,3.2-1.9,4.6-3.5"/>
	<path class="st1" d="M16.7,119.4c-3.1,2.2-6.2,4.3-7.7,7.3c-1.4,2.7-1.5,6.1-1.5,9.5"/>
	<path class="st1" d="M50.7,120.2c-0.1,2.5-0.2,5.1,0,7.6c0.3,3.2,1.1,6.3,2,9.4"/>
	<path class="st1" d="M51.2,150.6c0.5-1.2,1.1-2.5,1.6-3.8c0.7-1.6,1.3-3.4,1-4.9c-0.4-1.8-2.4-3.2-4-4.7c-2-1.9-3.3-4.1-5-6.1
		c-1.7-2-3.8-3.8-4.8-6.2c-0.7-1.6-0.9-3.4-1.1-5.1c-0.7-5.5-1.9-10.8-2.9-16.1c-0.9-4.5-1.6-8.9-1.9-13.6c-0.2-4.3,0-8.8-0.3-12.5
		c-0.3-3.9-1.3-7-1.1-13.1c0.1-3.2,0.5-7.2,1-6.7c0.4,0.3,0.8,2.6,0.9,4.5c0.1,2.5-0.5,4.2-0.6,6.1c-0.1,1.2,0.1,2.5,0.1,3.7
		c0,0.6,0,1.2-0.1,1.8"/>
	<path class="st1" d="M54.8,122.8c1.2,2,2.4,4,4.1,5.7c0.7,0.8,1.6,1.5,2.5,1.7c1.3,0.3,2.7-0.4,4-0.9c1.6-0.7,3.1-1.2,4.6-1.1
		c0.7,0,1.5,0.2,2.2,0.4"/>
	<path class="st1" d="M62,147.4c0-1.5,0-2.9-0.1-4.2c-0.3-3.4-1.4-5.9-3.2-10.4c-0.7-1.7-1.4-3.7-1.6-3.8c-0.1-0.2,0.9,3,1.5,5.3
		c0.7,2.6,0.8,4.1,1.6,5.9c0.4,1.1,1.1,2.2,0.9,3.4c-0.1,0.7-0.5,1.5-0.3,2.1C61,146.3,61.7,146.8,62,147.4c0,0,0,0.1,0.1,0.1"/>
	<line class="st1" x1="67.6" y1="119.6" x2="54.8" y2="122.8"/>
	<path class="st1" d="M52.2,108.7c0.5-0.4,1-0.7,1.6-1c1.8-1,3.8-1.5,5.7-2.1c0.3-0.1,0.6-0.2,0.9-0.2"/>
	<path class="st1" d="M50.5,102.4c1-0.2,1.9-0.4,2.8-0.7c0.8-0.3,1.5-0.7,2.3-1.1"/>
	<path class="st1" d="M51.1,105.3c0.8-0.3,1.6-0.6,2.4-0.9c0.9-0.3,1.9-0.6,2.9-0.9"/>
	<path class="st1" d="M51.3,110.5c0.6-0.9,1.1-1.7,1-2.6c-0.1-0.7-0.6-1.5-1-2.2c-0.8-1.6-0.8-3.4-1-5.2c-0.2-2.2-0.7-4.3-1.3-6.4
		c-0.2-0.8-0.5-1.6-0.8-2.4"/>
	<path class="st1" d="M48.2,91.8c-0.1-1.6-0.3-3.2-0.7-4.7c-1-3-3.2-5.7-4.5-8.7c-1.5-3.5-1.7-7.4-2.6-11.1c-0.8-3.6-2.3-6.9-4.4-10
		c-1.6-2.3-3.5-4.4-6-5.5c-2.9-1.3-6.4-1.1-9.5-0.6c-2.2,0.4-4.1,0.9-6.1,2.9c-1.5,1.6-3.1,4.1-3.3,4.1c-0.2,0,1.3-3.3,3-5.3
		c2.2-2.6,4.5-3.1,7-3.3c3-0.2,6.3,0,9.1,1.3c1.6,0.8,3.1,1.9,4.4,3.1c3.1,3.2,4.8,7.4,6.6,11.5c2,4.4,4.3,8.7,6.2,13.1
		c2.1,4.8,3.8,9.7,5.5,14.7c0.9,2.4,1.7,4.9,2.5,7.3c0.6,1.9,1.1,3.8,1.6,5.7"/>
	<path class="st1" d="M51.2,150.6c0.6,5.6,1.3,11.3,1.9,16.9c1.2,10.8,2.4,21.7,3.6,32.5"/>
	<path class="st1" d="M38.1,138.4c-0.6-0.9-1.2-1.7-1.9-2.5c-1.6-2-3.7-3.6-5.3-5.6c-0.5-0.6-1-1.2-1.5-1.9"/>
	<path class="st1" d="M36.9,157.5c-0.4,0.5-0.8,0.9-1.3,1.2c-1.1,0.6-2.8,0.5-3.5-0.2c-0.7-0.7-0.3-2.1-0.2-3.5
		c0.4-3.2-0.3-5.8,0.3-8.5c0.4-1.9,1.6-3.9,3-5.4c0.9-1,1.9-1.9,3-2.8"/>
	<path class="st1" d="M39.2,144.2c-0.5,0.6-0.9,1.3-1.2,2c-0.7,1.6-0.8,3.5-0.8,5.3c-0.1,2-0.2,4-0.2,6"/>
	<path class="st1" d="M36.4,211.5c-0.1,1.2-0.3,2.4-0.8,3.9c-1,3-3.5,7.2-3.1,7.2c0.3,0,2.6-2.7,3.8-5c1.3-2.3,1.6-4.1,1.9-6"/>
	<path class="st1" d="M35.5,229.6c-2.5,5.7-5.1,11.3-8.1,16.8c-1.2,2.2-2.5,4.4-3.7,6.5"/>
	<path class="st1" d="M31,260c-1.4,1.7-2.9,3.4-4.8,4c-0.8,0.2-1.8,0.3-2.7,0.3"/>
	<path class="st1" d="M47.3,277.3c-2.2-0.4-4.4-0.8-7.3-2.9c-1-0.7-2.1-1.7-2.2-1.7c-0.1-0.1,1.9,1.8,2.3,3.4c0.2,0.9,0,1.7-0.5,2.1
		c-1,0.9-3.1,0.1-4.5-0.9c-1-0.8-1.6-1.7-2.2-2.6"/>
	<path class="st1" d="M4.3,272.4c0.4,0.1,0.8,0.2,1.2,0.3c0.7,0.1,1.4,0.2,3.4,0.5"/>
	<path class="st1" d="M8.9,272.6c3.9,2.2,5.6,3.1,7.6,3.7c3.2,1,7.1,1,10.2,2.6c1.6,0.8,3.1,2.1,4.7,2.7c2.2,0.9,4.8,0.7,7.4,0.6
		c2.9-0.2,5.8-0.2,16.4-0.5"/>
	<path class="st1" d="M12.8,263c0.9,2,1.7,4,3.1,5.6c3.1,3.5,8.5,4.9,13.3,5.3c0.6,0.1,1.2,0.1,1.8,0.1"/>
	<path class="st1" d="M4.7,260.3c1.5,2.4,2.5,3.1,3.5,3.6c0.7,0.4,1.5,0.8,2.2,1"/>
	<line class="st1" x1="34.8" y1="267.8" x2="31" y2="274"/>
	<path class="st1" d="M9.4,284c0-5.9-0.2-8.9-0.5-11.2c-0.2-1.6-0.4-2.8-0.4-3.9c0-2,0.9-3.3,1.9-4.1c1.1-1,2.2-1.4,3.6-3
		c2.3-2.8,5.2-9.4,6.5-15c1-4.4,0.9-8.2,1.2-11.9c0.2-3,0.7-5.9,1.3-8.8"/>
</g>
</svg>
