<?xml version="1.0" encoding="utf-8"?>
<!-- Generator: Adobe Illustrator 21.0.0, SVG Export Plug-In . SVG Version: 6.00 Build 0)  -->
<svg version="1.1" xmlns="http://www.w3.org/2000/svg" xmlns:xlink="http://www.w3.org/1999/xlink" x="0px" y="0px"
	 viewBox="0 0 83.7 284.5" style="enable-background:new 0 0 83.7 284.5;" xml:space="preserve">
<style type="text/css">
	.st0{fill:#FFFFFF;stroke:#000000;stroke-linecap:round;stroke-linejoin:round;}
	.st1{fill:none;stroke:#000000;stroke-width:0.15;stroke-linecap:round;stroke-linejoin:round;}
</style>
<g id="OUTER">
	<path class="st0" d="M76.8,56.7C76.8,56.7,76.9,56.7,76.8,56.7"/>
	<path class="st0" d="M73.3,56.5c0.7-0.2,1-0.5,1.3-0.6c0.4-0.2,0.9-0.2,1.2-0.2c0.3,0,0.5,0,0.6,0.1c0.1,0.1,0.2,0.4,0.3,0.6
		c0.1,0.2,0.1,0.2,0.2,0.2c0.1,0,0.1,0,0.3,0c0.1,0,0.3-0.1,0.5-0.2c0.2,0,0.4,0,0.6,0c0.2,0,0.5,0.1,0.7,0.2
		c0.2,0.1,0.4,0.3,0.5,0.5c0.1,0.2,0.1,0.4,0.1,0.5c0,0.1,0.1,0.1,0.2,0.1c0.1,0,0.3-0.1,0.6,0c0.3,0,0.6,0.1,0.9,0.2
		c0.3,0.1,0.5,0.4,0.7,0.7c0.2,0.3,0.5,0.8,0.6,1.7c0.2,0.4,0.5,0.8,0.6,1.2c0.3,1.1-0.1,2.2-0.8,2.6c-0.3,0.2-0.8,0.3-1.1,0.7
		c-0.4,0.5-0.7,1.4-1.2,2.1c-0.7,1-1.6,1.8-2.1,2.7c-0.8,1.4-0.2,3.2,0.1,5.5c0.3,1.9,0.4,4.2,0.6,6.1c0,1.3-0.1,2.6-0.1,3.9
		c0.5-0.1,0.9-0.2,1.4-0.3c0.5,0,1.1,0,1.4,0.3c0.2,0.1,0.3,0.4,0.4,0.6c0.1,0.4,0.1,0.8,0,1.2c0,0.1,0,0.2,0,0.3
		c0,0.2,0,0.3-0.1,0.5c-0.9,0.7-1.7,0.9-2.5,1c-0.2,0-0.5,0.1-0.7,0.1c0,0.2,0,0.5,0,0.7c0.1,0,0.2,0,0.3,0c1,0,1.9,0.1,2.9,0.2
		c0.2,0.4,0.5,0.8,0.5,1.2c0.1,0.5-0.2,1.1-0.5,1.7c-0.8,0.3-1.2,0.3-1.6,0.3c-0.6,0-1.1,0.1-1.7,0.1c0,0.4,0,0.8,0,1.2
		c0.1,0,0.2,0,0.3,0c0.9,0,1.9,0.1,2.4,0.1c0.2,0,0.4-0.1,0.7-0.1c0.2,0.6,0.5,1.1,0.4,1.7c0,0.5-0.3,1-0.5,1.5
		c-2.3,0.1-2.7,0.1-3.1,0.1c-0.1,0-0.2,0-0.2,0c-0.1,0-0.1,0-0.1,0c0.2,0.1,0.4,0.3,0.6,0.5c0.1,0.3,0.2,0.5,0.3,0.8
		c0,0.4-0.1,0.7-0.3,1.1c-1.8-0.1-3.3-0.1-4.5,0.2c-0.4,0.1-0.8,0.3-1.3,0.4c-1.7,0.5-5.3,0.7-9,1.8c0.1,0.5,0.3,0.9,0.4,1.4
		c-0.3,0.6-0.1,1.8,0.1,2.9c0.7,3.7,1.3,6.5,1.6,9.5c0.5,7.2-1.3,15.4-0.2,23.1c0.8,5.5,3,10.6,4.2,16c1.7,7.2,1.5,14.8,1.5,22.1
		c0,6.9,0,13.6,0,21c0,2.4,0,4.8-1,6.7c-1.2,2.4-4,3.9-6.2,5.7c-2.7,2.3-4.6,5.1-6.7,7.7c-2,2.6-4.3,5.1-6.4,7.6
		c-0.4,0.5-0.8,0.9-1.2,1.4c0.1,2.8,0.2,5.7-0.2,8.7c-0.5,3.6-1.6,7.5-0.1,10.6c0.6,1.2,1.5,2.3,2.1,3.5c0.5,1.1,0.7,2.4,1.4,3.5
		c0.5,0.7,1.2,1.2,1.4,2c0.3,1.1-0.5,2.7,0,3.7c0.3,0.7,1.1,1.1,1.6,1.8c0.5,0.7,0.7,1.6,1.1,2.5c0.8,1.7,2.2,3.2,3.8,4.5
		c3.6,3,7.6,5,9.4,6.1c1,0.6,1.4,1,6.8,2.8c2.8,1.4,4.1,2.4,4.7,3.2c1,1.5-0.3,2.5-1.4,3.1c-0.6,0.3-1.1,0.5-1.7,0.6
		c-0.5,0.1-1.1,0.3-1.9,0.2c-13.1,0-26.2,0-39.3,0c-0.3,0-0.6,0-0.9,0c-0.2-0.4-0.5-0.7-0.7-1.1c-1.1-2.1-0.2-4.8,0.3-7.9
		c0.6-3.5,0.6-7.5-0.2-10.6c-0.6-2.2-1.6-4-2.1-5.7c-0.7-2.4-0.4-4.5-1.3-8.1c-0.3-1.3-0.9-2.8-1.2-2.8c-0.3,0.1-0.4,1.6-0.5,2.9
		c-0.1,2.2-0.1,3.8-1.1,4.8c-0.7,0.7-1.9,1.1-2.9,1.7c-3.1,1.7-4.8,4.8-6.8,7.4c-1.4,1.8-3.1,3.5-4.5,5.5c-0.6,0.8-1.1,1.6-1.3,2.5
		c-0.4,1.6,0.3,3.3,0.4,4.9c0.1,1.2-0.1,2.4,0.1,3.6c0.1,0.5,0.2,1,0,1.5c-0.3,0.7-1.4,1.2-2,1.4c-0.1,0-0.2,0-0.3,0.1
		c-2.1-0.9-4.1-1.8-5.6-3.2c-3.2-3-3.8-8.3-3.6-13.1c0.1-2.1,0.3-4.1-0.3-5.9c-0.3-0.9-0.9-1.8-1.3-2.7c-1.7-3.7-1.9-9.3,0.9-11.4
		c1.2-0.9,3-1.1,4.9-1.2c2.4,0,4.9,0.3,6.1-2c0.9-1.7,1-4.9,2-4.2c0.3,0.2,0.7,0.8,1,1c1.1,0.8,1.8-2.1,2.3-4.3
		c0.7-3.2,1.2-4.9,2.6-6.5c1.8-2,5.2-3.7,6.4-6.5c0.3-0.7,0.5-1.5,0.6-2.3c0.4-2.4,0.5-4.8,0.7-7.2c0.4-4.2,1.2-8.3,1.7-12.5
		c0.4-2.8,0.7-5.6,0.7-8.4c0.1-3.8-0.3-7.6-1.2-11.2c-0.7-3-1.8-6-2.2-9c-0.4-2.8-0.2-5.7,0-8.7c-2.7-0.2-5.4-0.3-7.9-1.2
		c-2.1-0.7-4.1-1.9-5.7-3.5c-1.2-1.2-2.3-2.6-2.8-4.2c-0.5-1.6-0.6-3.3-0.7-5c0-0.5-0.1-1.1-0.1-1.6c0.1-1.6,1.2-3,1.7-4.5
		c0.5-1.5,0.5-3.1,0.9-4.7c0.5-1.9,1.5-3.8,3.1-4.6c0.4-0.2,0.8-0.3,1.1-0.6c0.6-0.3,1-0.9,1.2-1.5c0.3-0.8-0.1-1.8,0.1-2.8
		c0.4-1.8,3-4,1.8-4.8c-0.3-0.2-0.9-0.3-1.2-0.6c-0.7-0.6,0.5-2,1.4-3.1c1.8-2.4,1.9-3.8,3.6-6.2c0.3-0.4,0.6-0.7,0.6-0.9
		c0-0.4-1.1-0.1-2,0.2c-1.8,0.5-2.9,1.1-3.9,0.7c-1.1-0.4-1.9-2.2-2.9-3.5c-0.9-1.2-1.9-2-2.4-3.1c-0.6-1.4-0.5-3.2-0.7-4.8
		c-0.1-0.9-0.2-1.7-0.3-2.6c-0.4-3.6,0-7.3-0.7-10.9c-0.3-1.7-0.8-3.3-1-5c-0.2-2.1,0.2-4.2,0.3-6.4c0.1-1.3,0.1-2.6,0-3.9
		c-0.1-2-0.3-4.1-0.4-6.1c-0.1-2.1-0.1-4.2,0.9-6.3c0.5-1,1.3-2.1,0.9-2.2c-0.1,0-0.2,0-0.4,0c-1.7,0.2-2.4-0.3-3.1-0.8
		c-0.8-0.7-1.6-1.5,1.3-2.6c1.2-1,2.4-2,3.1-3.3c0.9-1.8,0.8-4.1,2.4-5.5c0.7-0.6,1.8-1.1,1.9-2.1c0-0.7-0.5-1.7,0-2.1
		c0.2-0.2,0.7-0.1,0.9-0.3c0.6-0.3,0.3-1.3,0.2-2.2c-0.2-1.7,0.6-2.9,1.2-4.2c1.5-3.3,1.5-7.2,2.4-10.8c0.5-2.1,1.3-4.1,2-6.1
		c0.4-1.1,0.7-2.2,1-3.3c0.8-2.5,2-5.1,4.1-6.5c1.5-1,3.5-1.3,5-2.4c0.4-0.3,0.8-0.7,1.1-1.1c0.7-1,1.1-2.1,1.9-3.1
		c1.8-2.4,5.6-3.4,8.6-3.9c2.4-0.4,4.4-0.3,6.5,0.1c1.8,0.4,3.7,1.1,5.4,2.2c2.2,1.4,4,3.5,5.3,5.7c1.6,2.8,2.3,5.9,2.6,9.9
		C67,23,67,28.3,66,30.4c-0.5,1.1-1.3,1.4-1.4,2.7c-0.1,0.6,0,1.4-0.1,2.1c-0.1,1.2-0.5,2.4-1,3.5c-0.6,1.3-1.5,2.6-2.3,3.9
		c-1,1.4-1.9,2.9-2.9,4.5c-0.3,0.5-0.7,1-0.7,1.5c0,0.6,0.4,1.1,0.8,1.7c1.4,2.2,1.9,4.6,3.1,6.7c0.8,1.5,1.8,2.8,1.7,4.8
		c0,0.6-0.1,1.1,0,1.4c0.3,0.7,2.2-0.4,3.3-1.3c1-0.8,1.4-1.6,1.9-2.3c1.1-1.4,2.8-2.6,4.6-3.1C73,56.6,73.1,56.5,73.3,56.5z"/>
</g>
<g id="INNER">
	<path class="st1" d="M53.2,8.5c1.2-1.1,2-1.6,3.1-1.9c1.1-0.3,2.6-0.4,5.3,0"/>
	<path class="st1" d="M54.6,18.1c1.5-0.2,2-0.6,2.5-0.8c0.4-0.2,0.7-0.2,1.3-0.4c0.6-0.1,1.4-0.3,2.3-0.3c0.8-0.1,1.7,0,2.3,0.2
		c0.6,0.2,0.9,0.4,1.3,0.7c0.4,0.3,0.9,0.5,2.4,0.2"/>
	<path class="st1" d="M53.8,18.2c-0.1-1.2-0.1-2.5-0.3-3.7c-0.2-1.8-0.6-3.6-1.1-5.4C52.1,8,51.7,6.8,50.9,6c-0.6-0.6-1.5-1-2.3-1.4
		"/>
	<path class="st1" d="M40.4,28.9c0.3-1.7,0.9-3.1,2.1-3.2c1.1-0.1,2.7,0.8,3.8,0.2c0.6-0.3,1-1,1-1.7c0-0.6-0.4-1-0.7-1.7
		c-0.9-2-0.5-5.7,1-5.6c0.5,0,1.1,0.4,1.8,0.7c1.3,0.5,2.6,0.3,3.9,0.4c0.2,0,0.4,0.1,0.6,0.1"/>
	<path class="st1" d="M50.1,7.9c-2.4-1.3-5.7-1.3-8.5-0.5"/>
	<path class="st1" d="M33.2,9.9c-0.4,3,1.4,5.4,1.3,5.4"/>
	<path class="st1" d="M53.4,33.4c2.6-0.9,1.8-1.8,1.2-2.1c-0.1-0.1-0.2-0.1-0.5-0.2c-0.2,0-0.5-0.1-0.7,0c-0.5,0-1,0.2-1.4,0.3
		c-0.8,0.2-1.5,0.1-2.5-0.1c-0.5-0.1-1.1-0.2-1.3-0.1c-0.3,0.2,0.8,1.1,1.6,1.4c0.8,0.3,1.3,0.2,1.9,0.3c0.2,0,0.3,0.1,0.5,0.1
		c0.2,0.1,0.4,0.2,0.6,0.3"/>
	<path class="st1" d="M56.9,33.2c-0.3,0.8-0.5,1.5-0.3,2.6c0.1,0.7,0.4,1.5,0.3,1.6c-0.1,0.1-0.7-0.5-1.2-1.1"/>
	<path class="st1" d="M59.4,37.5c0.5,0.7,0.3,1.1,0,1.3c-0.3,0.2-0.6,0.3-0.9,0.4c-0.3,0-0.7,0-1-0.1c-0.3-0.1-0.5-0.4-0.7-0.6
		c-0.2-0.2-0.5-0.3-0.7-0.2c-0.2,0-0.3,0.1-0.2,0.5"/>
	<path class="st1" d="M55.1,36.8c-0.9,0.2-0.9,0.7-0.8,1.1c0.1,0.4,0.4,0.7,1.2,0.8"/>
	<path class="st1" d="M79.3,59.9c-0.5,0.8-1,1.7-2.1,2.2c-0.8,0.4-1.8,0.7-1.8,1.2c0,0.5,0.7,1.1,1.3,1.3c1.1,0.4,1.8-0.4,2.9-1.2
		c0.6-0.5,1.4-0.9,1.4-0.6c0,0.2-0.2,0.6-0.4,1c-0.3,0.4-0.6,0.7-0.6,1c0,0.2,0.1,0.4,0.9,0.5"/>
	<path class="st1" d="M50.3,9.7C47.4,8.5,45,8.4,43,9c-2.1,0.6-3.8,2-5.7,3.8"/>
	<path class="st1" d="M56.7,29.4C56.7,29.4,56.7,29.4,56.7,29.4c-0.4-0.4-0.9-0.6-1.5-0.8c-0.6-0.2-1.4-0.3-2.4-0.4
		c-1,0-2.2,0-3,0.4"/>
	<path class="st1" d="M56.7,29.4c0.1,0.9,0,1-0.2,1.1c-0.2,0.1-0.4,0-0.6-0.1c-0.2-0.1-0.5-0.4-0.8-0.6c-0.3-0.2-0.7-0.3-1.2-0.5
		c-0.6-0.1-1.3-0.2-2-0.2c-0.7,0.1-1.3,0.3-2,0.4c-0.7,0.1-1.4,0.1-1.4-0.6"/>
	<path class="st1" d="M36.4,7.8c-0.3,0.6-0.5,1.2-0.7,1.9c-0.7,2.1-0.9,4.2-1.2,6.5c-0.2,1.8-0.4,3.7,0.3,5.2c0.4,0.8,1.2,1.5,2,2.2
		"/>
	<path class="st1" d="M31.5,12.5c-2,2.1-3.1,4.6-3.7,6.7c-0.6,2.1-0.7,3.8-1.1,4.9c-0.4,1-1.1,1.4-2.3,8.8"/>
	<path class="st1" d="M72.4,98c-0.6,0.7-0.6,1.6-0.2,2"/>
	<path class="st1" d="M78.1,97.6c-1,0.1-1.8,0.1-2.4,0.1c-0.7-0.1-1.3-0.2-2.5-0.5"/>
	<path class="st1" d="M60.3,90c0.7-0.4,1.4-0.9,2.1-1.2c0.6-0.3,1.3-0.6,1.7-1c0.4-0.5,0.6-1.2,0.8-1.7c0.2-0.7,0.4-0.8,1-1.4
		c0.3-0.3,0.8-0.7,1.2-0.8c0.2-0.1,0.3-0.1,0.5-0.1c0.2,0,0.3-0.1,0.5-0.1"/>
	<path class="st1" d="M73,94.3c-0.7,1-0.7,1.7-0.1,1.9"/>
	<path class="st1" d="M72.9,90.4c-0.7,1.1-0.6,1.5-0.1,1.9"/>
	<path class="st1" d="M72.3,86.9c-0.5,0.7-0.4,1.7,0.2,2"/>
	<path class="st1" d="M55.5,117.7c3.9,1.7,7.4,2.2,10.6,1.4"/>
	<path class="st1" d="M58.9,31.6c0.5-0.6,1.4-0.5,1.6-0.4"/>
	<path class="st1" d="M59.4,37.5c-1-1.9-0.9-4.6-0.5-6"/>
	<path class="st1" d="M60.8,32.3c-0.5,0.1-0.4,0.3-0.3,0.4c0.1,0.1,0.4,0.1,0.6,0.1c0.3,0,0.6,0.1,1.1,0.2c0.5,0.1,1.2,0.1,1.9-0.8"
		/>
	<path class="st1" d="M62,32.3c0,0.2,0.1,0.3,0.2,0.4c0.1,0.1,0.3,0,0.5-0.1c0.1-0.1,0.2-0.2,0.2-0.3c0-0.2-0.2-0.3-0.4-0.4"/>
	<path class="st1" d="M60.7,32c0.3-0.3,0.3-0.4,0.3-0.5c0-0.1,0-0.1,0.1-0.1c0.1,0,0.3,0,0.7,0.1c0.4,0,1,0.1,1.5,0.1
		c0.5,0,1,0,1.6-0.2"/>
	<path class="st1" d="M64.7,31.4c-0.4-0.2-0.5-0.3-0.4-0.4"/>
	<path class="st1" d="M63.5,31.5c0.2,0.3,0.2,0.4,0.2,0.6c0,0.3,0,0.5-0.5,0.9"/>
	<path class="st1" d="M61.9,29.6c-0.6,0.2-1.1,0.4-1.5,0.5c-0.4,0.1-0.7,0.1-0.8-0.1c-0.1-0.2-0.1-0.6,0.1-0.8
		c0.2-0.2,0.6-0.3,1-0.4c0.4-0.1,0.7-0.3,1.2-0.4c0.5-0.1,1.3-0.2,2,0c0.7,0.2,1.3,0.7,1.5,1.1"/>
	<path class="st1" d="M43.6,52.2c3.2,2.2,4.3,2.4,5.1,2.4c0.8,0,1.4-0.1,2.1-0.3c0.7-0.2,1.5-0.4,3.7-1.4"/>
	<path class="st1" d="M42.1,49.1c3.7,3.7,5.3,3.9,6.7,4c1.4,0.1,2.7,0.1,5-1.3"/>
	<path class="st1" d="M53.8,56.2c1.8,3.8,2.8,6.1,3.9,6.9"/>
	<path class="st1" d="M57.6,48.5c-0.5,0.2-1,0.4-1.5,0.6c-1.5,0.5-3,0.6-5.1-0.3c-1.2-0.6-2.6-1.5-3.2-1.7"/>
	<path class="st1" d="M52.5,259.5c-2,1.5-4,3.1-6.1,3.5c-1.8,0.4-3.6,0.1-5.9,0.9c-0.9,0.3-1.8,0.8-2,1.1c-0.3,0.5,1.9,0.3,4.2,0.1"
		/>
	<path class="st1" d="M43.1,43.6c-0.2-0.2-0.4-0.3-0.5-0.5c-1.8-1.9-3.4-4.3-3.4-6.6c0-1,0.2-2,0.5-3.2"/>
	<path class="st1" d="M47.9,47c-0.7-0.5-1.5-0.9-2.2-1.4"/>
	<path class="st1" d="M33.3,97.4c-1.4,0.6-2.7,1.1-3.9,2c-0.8,0.6-1.4,1.4-2.2,1.9c-1.2,0.8-2.6,1.3-3.9,1.8c-2.7,1.1-5,2.8-7.3,4.4
		"/>
	<path class="st1" d="M49.3,93.3c-0.7-0.1-1.4-0.1-2.1,0c-0.8,0.1-1.5,0.4-2.3,0.3c-0.7-0.1-1.3-0.6-1.9-0.4c-0.6,0.1-1.1,1-1.6,1.2
		c-0.8,0.4-1.7-0.3-2.9-0.2c-2.2,0.2-5.3,3.2-5.1,1.8c0-0.3,0.2-0.7,0.1-1.1c-0.1-0.4-0.4-0.8-0.4-1.1c0-0.6,0.9-1,1.3-1.6
		c0.4-0.7-0.1-1.6-0.2-2.5c-0.2-1.4,0.5-2.6,0.9-3.9c1-2.9,0.8-5.9,0.9-8.9c0.1-2.4,0.3-4.7,0.8-7c0.3-1.4,0.7-2.9,0.8-4.4
		c0.2-3.2-1.1-6.7-3.4-8.7c-1.9-1.6-4.5-2.3-7-2.6c-1.6-0.2-3.2-0.2-4.7,0.3c-2.2,0.7-4.1,2.3-6,3.8c-1,0.8-2,1.6-3,2.9"/>
	<path class="st1" d="M81.1,62.9c0.5-0.4,0.9-0.8,1.2-1.3c0.2-0.4,0.2-0.8,0.2-1.2"/>
	<path class="st1" d="M79.3,59.9c0.2-0.3,0.4-0.7,0.4-1c0-0.3,0-0.7-0.1-1"/>
	<path class="st1" d="M77.1,57.1C77,57,77,56.9,76.9,56.9c-0.1-0.1-0.2-0.2-0.2-0.2"/>
	<path class="st1" d="M69.6,63.8c0.4-1.3,0.9-2.6,1.8-3.1c0.6-0.4,1.4-0.4,2.3-0.6c1.2-0.3,2.5-0.8,3-1.8c0.2-0.4,0.3-0.8,0.4-1.3"
		/>
	<path class="st1" d="M69.4,82.1c1.1,0.4,2.1,0.7,3.3,0.8c1.4,0.1,2.8-0.1,4-0.6c0.3-0.1,0.6-0.3,0.9-0.4"/>
	<path class="st1" d="M74.5,64.6c0,2.8,0.1,5.6,0.1,8.5c0,2.4,0.1,4.9-0.2,7.3c-0.1,0.9-0.2,1.7-0.4,2.5"/>
	<path class="st1" d="M75.4,63.4c-0.1-0.6-0.1-1.2-0.1-2.1c0-0.4,0-0.9-0.2-1c-0.2-0.1-0.5,0.2-0.8,0.2c-0.3,0-0.5-0.4-0.8-0.5
		c-0.3-0.1-0.7,0-1,0.2c-0.3,0.2-0.5,0.6-0.6,0.9c-0.1,0.4-0.1,0.8-0.1,1.3c0,0.4,0,0.7,0,1.1"/>
	<path class="st1" d="M71.7,63.6c0.7,0.2,1.3,0.4,2,0.4c0.6,0,1.2-0.3,1.7-0.6"/>
	<path class="st1" d="M73.8,93.4c0.4,0.2,0.7,0.4,1.1,0.6c0.8,0.4,2,0.3,3.4,0.4"/>
	<path class="st1" d="M73.6,89.8c1.6-0.1,3.1-0.1,4.7-0.1"/>
	<path class="st1" d="M68.3,85.1c1.1,0,2.2,0,3.3,0c1.4,0,2.8,0,4.2,0c1.1,0,2.2,0.1,2.6,0.1"/>
	<line class="st1" x1="68.5" y1="81.3" x2="68.2" y2="87.8"/>
	<path class="st1" d="M68.5,81.5c-0.2,1.4-0.4,2.8-0.6,4.5c-0.1,0.7-0.1,1.4,0,1.7c0.3,0.4,1.4-0.8,2.5-1.3c1-0.5,1.9-0.4,2.8-0.5
		c1.6,0,3.4-0.3,5.1-0.6"/>
	<path class="st1" d="M52.3,31.9c0.1,0.2,0.1,0.4,0.3,0.4c0.2,0.1,0.4,0,0.6-0.2c0.1-0.1,0.2-0.3,0.1-0.4c0-0.1-0.1-0.2-0.2-0.2"/>
	<path class="st1" d="M50.5,31.4c0,0.1,0,0.1,0,0.2c0,0.4,0.1,0.8,0.4,1.2"/>
	<path class="st1" d="M54.2,31.1c0.1,0.2,0.2,0.4,0.2,0.7c0,0.6-0.8,1.1-1.6,1.5"/>
	<path class="st1" d="M59.7,43c-0.7-0.1-1.3-0.2-1.9,0c-0.4,0.2-0.8,0.5-1.3,0.6c-0.4,0.2-0.9,0.2-1.3,0c-0.4-0.2-0.7-0.5-1.1-0.6
		c-0.4-0.1-0.7,0-1.1,0c-1.1,0.1-2.1-0.3-3.1-0.7"/>
	<path class="st1" d="M60.4,42.7c-1,0.6-2.1,1.3-3.2,1.6c-1,0.3-2.2,0.4-3.3,0.2c-0.5-0.1-1-0.3-1.4-0.6c-0.2-0.2-0.4-0.5-0.7-0.7
		c-0.7-0.5-1.9-0.7-2-0.7c-0.1,0,1.5,0.2,2.6,0c0.9-0.1,1.5-0.5,2.1-0.4c0.5,0.1,1,0.4,1.6,0.4c0.6,0,1.2-0.3,1.7-0.3
		c0.5,0,0.9,0.4,1.4,0.5C59.7,42.8,60.1,42.8,60.4,42.7z"/>
	<path class="st1" d="M34.9,30.7c-0.1,0.4-0.3,0.8-0.5,1.1c-0.3,0.5-0.8,0.9-1.3,1.3c-0.5,0.4-0.9,0.9-1.4,1.4"/>
	<path class="st1" d="M36.8,24.7c-0.7-0.2-1.3-0.4-1.6-0.1c-0.2,0.2-0.1,0.8,0,1.4c0.1,0.7,0,1.3-0.1,2"/>
	<path class="st1" d="M37.8,26.1c-0.5-0.1-1-0.2-1.2,0.1c-0.2,0.2-0.2,0.6-0.3,1.1c0,0.4,0,0.8,0.3,1c0.3,0.3,0.9,0.2,1.3,0
		c0.2-0.1,0.4-0.3,0.6-0.5"/>
	<path class="st1" d="M36.8,23.6c0.5,0.1,1,0.2,1.3,0.6c0.3,0.5-0.1,1.5,0.3,2c0.2,0.4,0.8,0.5,1.1,0.9c0.4,0.5,0.1,1.4-0.4,2
		c-0.3,0.3-0.6,0.5-0.6,0.8c0,0.3,0.2,0.6,0.5,0.7c0.3,0.1,0.5,0.1,0.8,0.1"/>
	<path class="st1" d="M36.7,23.6c-0.7,0-1.5,0.1-2,0.4c-0.6,0.5-0.8,1.5-0.8,2.4c-0.1,2.3,0.7,4.5,2.4,5.7c0.6,0.4,1.4,0.7,2.2,0.8
		c0.4,0,0.7,0.1,1,0.2c0,0,0.1,0,0.1,0"/>
	<path class="st1" d="M45.7,23.8c-2.9-0.6-5.7-1.1-7.8-2.9c-0.6-0.5-1.1-1.1-1.7-1.8"/>
	<path class="st1" d="M78.2,93.2c-1.6,0.1-3.1,0.2-4.5,0.2"/>
	<path class="st1" d="M78.3,89c-1.5,0.3-3.1,0.5-4.7,0.8"/>
	<path class="st1" d="M67.2,66.4c-0.7,0.8-1.3,1.5-1.3,2.3c0,0.5,0.3,1.1,0.4,1.7c0.2,1.3-0.4,2.7,0.1,3.7c0.3,0.5,0.9,0.9,1.4,1.3"
		/>
	<path class="st1" d="M52.9,49.7c0.2,0.7,0.3,1.4,0.8,2.1c0.4,0.6,1.1,1.2,0.9,1.7c-0.2,0.4-0.9,0.7-1.2,1.1c-0.2,0.4,0.1,1,0.4,1.6
		"/>
	<path class="st1" d="M70.5,70c-0.9-0.8-1.7-1.7-2.3-2.7c-0.8-1.4-1.1-3-1.4-5.5"/>
	<path class="st1" d="M79.9,67.2c-0.2-0.1-0.4-0.2-0.6-0.2c-0.4,0.1-0.8,0.7-1.2,1.2c-0.3,0.3-0.6,0.5-0.9,0.7
		c-0.2,0.1-0.3,0.2-0.5,0.3"/>
	<path class="st1" d="M75.4,63.4c0,0,1,4.2,1.6,7.5c0.4,2.1,0.5,3.8,0.7,5.6"/>
	<path class="st1" d="M68.5,81.5c0.1-1.7,0.3-3.5,0.6-5.2c0.3-1.5,0.8-3,1.1-4.6c0.4-1.7,0.6-3.4,0.9-5c0.2-1.1,0.4-2.1,0.7-3.2"/>
	<path class="st1" d="M57.7,63.1c1.2,0.7,2.4,1.4,3.5,2.3c1.4,1.2,2.6,2.8,3.1,4.6c0.7,2.3,0.3,4.8,0.1,7.2c-0.2,2.6-0.1,5.2,0,7.8
		c0,0.7,0.1,1.4,0.1,2.1"/>
	<path class="st1" d="M57.7,63.1c0,0.8-0.1,1.7-0.2,2.5c-0.1,0.7-0.2,1.4-0.3,2.1"/>
	<path class="st1" d="M53.5,71.2c-0.7-1.3-1.4-2.7-3.1-4.3c-0.6-0.6-1.4-1.3-1.6-1.1c-0.3,0.2-0.1,1.2,0.1,2
		c0.5,1.9,1.3,2.9,1.9,4.1c0.7,1.4,1.2,3.1,1.8,5.2c0.8,2.7,1.7,6.1,0.1,7.1c-0.7,0.5-2,0.4-3.3,0.4"/>
	<path class="st1" d="M50.8,58.1c-1.6,0.6-3.3,1-4.9,0.9c-1.4-0.1-2.9-0.5-4.2-1.2c-1.3-0.6-2.5-1.5-3.7-2.3c-1.7-1.2-3.4-2.4-4.7-4
		c-1.6-1.9-2.7-4.3-3.7-6.6c-0.8-2-1.6-3.9-2.4-5.8"/>
	<path class="st1" d="M13.3,60.6c1.9-2.5,3.7-5.1,5.1-8.1c1.7-3.8,2.5-8.4,5.7-10.6c1-0.7,2.2-1.1,2.9-2.2c1.6-2.5,0.6-8.4,1.8-8.3
		c0.7,0,2.1,1.9,3.3,3.5c1.9,2.5,3.2,4.2,4.6,6c2.2,2.9,4.5,6.2,6.4,10.1c1.2,2.5,2.2,5.2,4.4,6.1c1,0.5,2.3,0.5,3.4,1
		c2.3,1,3.5,3.6,4.7,6c1.2,2.5,2.4,4.7,3.3,7.2c1.1,3.3,1.6,6.9,1.6,10.5c0,2.6-0.3,5.2-0.6,7.8"/>
	<path class="st1" d="M19.8,58.3c1.5,0.4,3,0.8,3.9,1.8c0.5,0.5,0.8,1.2,1.1,1.9"/>
	<path class="st1" d="M19.8,58.3c1.7-0.8,3.5-1.6,5.2-1.6c1.6,0,3.2,0.7,4.8,1.4"/>
	<path class="st1" d="M30.3,96.9c-1.2-0.3-2.5-0.6-3.6-0.5c-1.5,0.1-2.7,0.9-4.8,1.7c-2,0.7-4.7,1.4-4.4,1.9
		c0.2,0.5,2.8,0.9,4.3,0.4c0.6-0.2,1-0.5,1.4-0.9"/>
	<path class="st1" d="M32.5,102.6c-0.3,1.2-0.6,2.4-1.1,3.6c-0.9,2-2.4,3.7-4,5.3"/>
	<path class="st1" d="M55.7,115.3c2,0.4,4,0.9,6.1,1.2c0.9,0.2,1.9,0.3,2.8,0.3c0.5,0,0.9-0.1,1.4-0.2"/>
	<path class="st1" d="M57,104c-0.5,1.4-1.1,2.9-1.6,4.3c-0.7,2-1.4,3.9-2.7,5.6c-0.9,1.3-2.2,2.4-2.9,3.6c-0.8,1.3-1.2,2.7-1.6,4.7
		c-0.2,0.7-0.3,1.4-0.8,1.5c-0.4,0.1-1-0.2-1.3-0.7c-0.2-0.3-0.3-0.6-0.4-0.8c-0.7-1.2-2.8-0.9-4.3-1.5c-1.1-0.4-1.9-1.4-2.8-2
		c-1.5-0.9-3.4-1-5.2-1.2c-1.7-0.3-3.3-0.7-4.8-1.4c-0.8-0.4-1.6-0.9-2.3-1.4"/>
	<path class="st1" d="M54.1,106.1c-0.3,0.8-0.6,1.7-1.2,2.2c-0.8,0.8-2,1.1-3.2,1.3c-2.3,0.3-4.5-0.2-6.5,0.4
		c-1.5,0.4-3,1.4-4.5,2.1c-2.8,1.3-6,1.7-9.1,2c-1.5,0.2-3,0.4-4.5,0.6"/>
	<path class="st1" d="M54.1,106.1c0.6-0.5,1.1-1.1,1.8-1.5c1.1-0.7,2.3-1.1,3.6-1.4c0.3-0.1,0.6-0.2,0.9-0.2"/>
	<path class="st1" d="M63.9,102.4c0-1.6-0.1-3.2-0.4-4.6c-0.4-2.1-1.4-3.9-2.5-6.4c-0.4-0.9-0.8-1.9-1.4-2c-0.7-0.2-1.7,0.6-2.5,1.2
		c-1.4,1-2.5,1.4-4.5,1.7c-1.4,0.2-3.1,0.3-3.2,1c-0.1,0.5,0.8,1.3,1.4,2.2c2.1,2.5,2.3,4.9,2.8,7.5c0.2,1.1,0.4,2.2,0.6,3.3"/>
	<path class="st1" d="M56,133.2c0-2.6,0-5.1-0.2-7.7c-0.2-3.4-0.6-6.8-0.2-10c0.4-2.6,1.3-5.2,1.2-7.9c0-0.8-0.1-1.6,0.1-2.3
		c0.3-0.8,1.2-1.5,2.1-1.9c1.1-0.5,2.3-0.5,3.4-0.7c0.5-0.1,1-0.2,1.4-0.3"/>
	<path class="st1" d="M62.6,147.4c0.7-1.6,1.3-3.3,1.8-5c0.3-1.2,0.5-2.4,0.4-3.6c-0.2-1.7-0.9-3.4-1.1-5.1
		c-0.2-1.8,0.4-3.7,0.9-5.5"/>
	<path class="st1" d="M63.4,139.2c-1.9-1.3-3.8-2.6-5.9-3.3c-3.7-1.2-7.8-0.5-11.9,0.1"/>
	<path class="st1" d="M52.6,209c1.4,0.3,2.7,0.5,4.1,0.5c2.8-0.1,5.4-1.5,8-3"/>
	<path class="st1" d="M54.4,205.4c1.1,0.1,2.2,0.3,3.3,0.2c3.1-0.1,6-1.6,8.9-3.2"/>
	<path class="st1" d="M33.1,191c1.3-0.1,2.6-0.2,3.8-0.1c2.6,0.2,4.5,1.4,8,2.1c2.6,0.5,6,0.7,6,1.5c0,0.7-2.7,1.8-4.8,2.4
		c-2.5,0.8-4.3,0.9-6.3,0.7c-1.8-0.1-3.8-0.5-5.8-0.9"/>
	<path class="st1" d="M36.2,245.5c1.4,2.7,2.7,5.5,6.4,6.8c2.6,0.9,6.3,1.2,6.3,2c0,0.8-3.4,2.2-5.8,2.3c-2,0.1-3.3-0.7-4.7-1.5"/>
	<path class="st1" d="M13,246.4c0.7,1.5,1.5,2.9,3.7,4.2c1.6,1,4,1.9,3.5,2.1c-0.2,0.1-1.2,0.1-2,0.2c-1.3,0.1-2.3,0.6-3.2,1"/>
	<path class="st1" d="M16.8,243.3c1.5,0.1,2.9,0.3,4,0.9c0.9,0.5,1.5,1.2,2.6,2c1.7,1.4,4.5,3.1,4.1,3.5c-0.3,0.3-2.5-0.1-4.2-0.8
		c-2.1-0.8-3.2-1.8-4.4-2.9"/>
	<path class="st1" d="M14.7,282.6c-0.7-1.9-1.4-3.9-2-5.8c-1.1-3.3-2.2-6.5-4.2-9.4c-1.3-1.8-2.9-3.4-3.4-5.4
		c-0.6-1.9-0.1-4.2-0.2-6.3c0-2-0.5-4-0.4-5.9c0-1,0.2-2,0.4-3.1"/>
	<path class="st1" d="M8.8,246.5c0.7,1.2,1.4,2.4,2.3,3.6c1.3,1.7,3,3.4,3.2,5.4c0.1,1-0.3,2.1-0.6,3.2c-0.5,2.2-0.6,4.4-0.6,6.6
		c0,1.2,0,2.4,0.3,3.6c0.2,1,0.7,2,1.2,2.9"/>
	<path class="st1" d="M37.3,280.7c4.7,0.5,9.4,1.1,14.1,1.3c3.3,0.1,6.6,0.1,10,0.2c4.5,0,9.1,0.1,13.5-0.9c1.4-0.3,2.7-0.8,4-1.3
		c0.4-0.2,0.8-0.4,1.2-0.6"/>
	<path class="st1" d="M48.9,271.4c1.6,2.8,3.3,3.5,5,3.9c3.2,0.8,6.5,0.7,9.8,0.5c1.6-0.1,3.2-0.2,4.8-0.7c0.6-0.2,1.1-0.4,1.5-0.8
		c0.1-0.1,0.2-0.2,0.3-0.3"/>
	<path class="st1" d="M56.8,262.3c-1,1.8-2.1,3.5-3.5,5.1c-2.2,2.5-5.1,4.9-8.1,6.1c-2,0.8-3.9,1.1-5.9,1.1c-1,0-1.9,0-2.9-0.1"/>
	<path class="st1" d="M21.1,147.9c-0.2-0.1-0.4-0.1-0.7-0.1c-0.3,0-0.6,0.1-0.9,0.3c-0.1,0.1-0.2,0.2-0.2,0.3"/>
	<path class="st1" d="M21.1,147.9c0.2,0.2,0.4,0.5,0.5,0.8c0.1,0.4,0.2,0.8,0,1.1c-0.2,0.3-0.5,0.5-0.9,0.6
		c-0.4,0.1-0.9,0.1-1.1-0.2c-0.1-0.1-0.1-0.2-0.2-0.4"/>
	<path class="st1" d="M19.2,150.6c0.4,0.4,0.9,0.8,1.4,1c0.6,0.2,1.3-0.1,1.9-0.4c0.6-0.3,1.1-0.7,1.2-1.3c0.3-0.8-0.1-2-0.8-2.5
		c-0.5-0.3-1.1-0.3-1.7-0.2c-0.5,0.1-1.1,0.1-1.4,0.4c-0.2,0.2-0.4,0.4-0.5,0.7c-0.1,0.2-0.2,0.5-0.3,0.7c-0.1,0.5-0.2,1,0.1,1.3
		C19,150.4,19.1,150.5,19.2,150.6z"/>
	<path class="st1" d="M15.3,158.4c1.6,1.2,3.3,2.5,5.2,3.3c2.6,1.1,5.8,1.3,8.3,0.2c1.5-0.7,2.7-1.9,3.7-3.3
		c1.4-1.9,2.3-4.1,2.9-6.3c0.4-1.7,0.6-3.3,0.9-5"/>
	<path class="st1" d="M17,135.2c1.9,0.3,3.7,0.6,5.6,1c3.3,0.7,6.6,1.7,10,2.6c1.4,0.4,2.7,0.8,3.9,1.5"/>
	<path class="st1" d="M13.1,143.7c0,1.3,0.1,2.6,0.4,3.9c0.6,2.6,2,5.4,4.2,6.4c1.4,0.7,3.2,0.6,4.9,0.4c1.2-0.1,2.4-0.2,3.5-0.7
		c1.1-0.5,2-1.5,2.8-2.5c1-1.1,1.8-2.3,2.5-3.6c0.5-1,0.8-2,1.3-2.9c0.6-1.1,1.6-1.9,2.4-2.9c0.4-0.5,0.9-1,1.2-1.5
		c0.9-1.3,1.5-2.8,2-4.3c0.6-1.7,1.1-3.4,1.8-5c0.3-0.5,0.5-1,0.8-1.5"/>
	<path class="st1" d="M43.3,130.6c-0.3,1-0.6,1.9-1,2.9c-0.9,2.2-2.1,4.3-3.2,6.5c-0.4,0.9-0.8,1.8-1,2.7c-0.4,1.8-0.1,3.8-0.1,5.7
		c0,1.9-0.1,3.8-0.4,5.7c-0.2,1.5-0.6,3-0.9,4.5c-0.2,0.9-0.4,1.8-0.9,2.5c-0.8,1.2-2.2,1.9-3.6,2.5c-1,0.4-1.9,0.7-2.9,0.9
		c-0.3,0.1-0.7,0.1-1,0.2"/>
	<path class="st1" d="M56,133.2c-3.6,0.2-7.1,0.4-10.1-1.1c-1.5-0.7-2.9-1.9-4.5-2.5c-1.7-0.7-3.7-0.7-5.6-1
		c-3.6-0.6-6.9-2.6-10.4-3c-1.4-0.2-2.9-0.1-4.4,0.1"/>
	<path class="st1" d="M62.3,149.8c1.2,0,2.3,0,3.4,0.3c0.6,0.2,1.1,0.5,1.7,0.7"/>
	<path class="st1" d="M49.9,227.5c-0.1-2.9-0.1-5.8,0.1-8.6c0.2-1.9,0.5-3.8,0.4-5.9c-0.1-1.2-0.3-2.5,0.3-3.6
		c0.4-0.7,1.3-1.3,1.5-2.1c0.2-0.9-0.3-2,0-2.7c0.4-0.9,2.2-1.2,2.7-2.1c0.5-0.8-0.4-2.2-0.4-3.4c-0.1-1.2,0.7-2.2,1.3-3.3
		c1.2-2.4,1.1-5.1,1.4-7.8c0.2-2,0.6-4,1-6c0.8-4,1.6-8.1,2.1-12.2c0.5-3.8,0.8-7.6,1.4-11.2c0.5-3.1,1.2-6-0.1-9.7
		c-0.4-1.2-1-2.5-0.2-3.2c0.2-0.2,0.6-0.3,0.8-0.6c0.3-0.4,0.1-1.1-0.1-1.6c-0.6-1.2-1.5-2-2.5-2.6c-1.4-0.8-3-1.4-4.6-1.6
		c-2.3-0.4-4.5-0.3-6.8-0.1"/>
	<path class="st1" d="M31.4,247.8c-0.6-3.9-1.1-7.9-1.7-11.8c-0.5-3.4-1-6.9-1.2-10.3c-0.1-1-0.1-2-0.2-3"/>
</g>
</svg>
