<?xml version="1.0" encoding="utf-8"?>
<!-- Generator: Adobe Illustrator 21.0.0, SVG Export Plug-In . SVG Version: 6.00 Build 0)  -->
<svg version="1.1" xmlns="http://www.w3.org/2000/svg" xmlns:xlink="http://www.w3.org/1999/xlink" x="0px" y="0px"
	 viewBox="0 0 250 286" style="enable-background:new 0 0 250 286;" xml:space="preserve">
<style type="text/css">
	.st0{fill:#FFFFFF;stroke:#000000;stroke-width:1.0998;stroke-linecap:round;stroke-linejoin:round;}
	.st1{fill:none;stroke:#000000;stroke-width:0.165;stroke-linecap:round;stroke-linejoin:round;}
</style>
<g id="Outer">
	<path class="st0" d="M249.2,263.5c-0.2-0.7-0.6-1.3-0.9-1.6c-0.4-0.3-0.8-0.5-1.2-1c-0.5-0.5-1.1-1.3-1.6-2
		c-0.5-0.7-0.8-1.2-1.6-1.9c-0.7-0.7-1.8-1.6-2.7-2.7c-0.9-1-1.7-2.2-2.3-3c-0.7-0.8-1.3-1.1-1.6-1.5c-0.4-0.3-0.5-0.7-0.4-1.3
		c0-0.6,0.2-1.3,0.1-1.9c-0.1-0.5-0.5-0.8-0.9-1.3c-0.4-0.5-0.8-1.3-1.3-2.3c-0.4-1-0.9-2.1-1.3-2.9c-0.4-0.8-0.8-1.3-1-2
		c-0.2-0.6-0.3-1.3-0.9-2.1c-0.5-0.8-1.5-1.7-2.5-2.3c-1-0.6-2-1-3-1.3c-1-0.3-2.1-0.6-3.1-0.8c-1-0.2-1.9-0.3-2.8-0.4
		c-0.9-0.1-1.9-0.3-2.7-0.5c-0.9-0.2-1.6-0.3-2.4-0.4c-0.8-0.1-1.7-0.2-2.8-0.3c-1-0.1-2.2-0.3-2.9-0.5c-0.7-0.1-0.9-0.2-1.3-0.2
		c-0.4,0-1.2,0.1-1.7,0c-0.5-0.1-0.8-0.4-6.3-9.5c-5.4-9-16-26.7-21.5-36.4c-5.6-9.6-6.3-11.2-6.8-12.7c-0.6-1.5-1.1-2.9-1.2-3.6
		c-0.2-0.7,0-0.7,0.2-0.8c0.2-0.1,0.3-0.4,0.5-1.3c0.1-0.9,0.2-2.5,0.2-3.4c0-0.9-0.1-1.2-0.2-1.5c-0.1-0.3-0.1-0.7-0.1-1
		c0.1-0.4,0.3-0.8,0.3-1.1c0-0.4-0.1-0.7-0.2-1.3c-0.2-0.6-0.4-1.4-0.4-2.2c-0.1-0.9,0-1.8-0.1-2.7c-0.1-0.9-0.5-1.7-1.1-2.9
		c-0.6-1.2-1.4-2.9-2.2-4.6c-0.8-1.7-1.5-3.5-2.2-5.9c-0.8-2.4-1.7-5.6-2.5-8.5c-0.8-2.9-1.7-5.6-2.5-7.7c-0.9-2.1-1.8-3.7-2.8-5.3
		c-1-1.6-1.9-3.2-2.5-4.2c-0.6-1-0.8-1.4-1-1.8c-0.2-0.3-0.4-0.5-0.5-0.8c-0.1-0.2-0.1-0.5-0.1-0.9c0-0.4-0.1-0.8-0.2-1.3
		c-0.1-0.5-0.1-0.9,0-1.3c0.1-0.4,0.3-0.7,0.4-1.2c0.1-0.5,0.1-1.1,0-1.6c-0.1-0.5-0.3-1-0.4-1.4c-0.1-0.4-0.1-0.7-0.2-1
		c-0.1-0.3-0.2-0.6-0.5-1c-0.3-0.4-0.7-0.9-0.7-1.2c-0.1-0.4,0.2-0.6,0.2-0.9c0-0.3-0.2-0.8-0.5-1.2c-0.4-0.5-1-1-1.2-1.4
		c-0.2-0.4-0.2-0.8-0.1-1.4c0.1-0.6,0.1-1.4-0.1-2.4c-0.3-1-0.9-2.1-1.8-4.7c-1-2.6-2.4-6.5-3.1-8.8c-0.8-2.3-0.9-3-1.2-3.6
		c-0.3-0.6-0.7-1.2-1-1.7c-0.3-0.5-0.4-0.9-0.4-1.2s0.1-0.4,0.2-0.9c0.1-0.5,0-1.2-0.1-1.8c-0.1-0.5-0.2-0.8-0.4-1.6
		c-0.2-0.7-0.4-1.9-0.7-3.1c-0.4-1.2-0.9-2.4-1.3-3.2c-0.5-0.9-0.9-1.4-1.4-2c-0.4-0.6-0.8-1.2-1.5-1.9c-0.6-0.7-1.5-1.5-2.1-2.1
		c-0.6-0.6-1-1.1-1.6-1.6c-0.6-0.4-1.5-0.8-2.3-0.9c-0.8-0.1-1.6,0-2.5,0.4c-0.9,0.3-1.9,0.8-2.6,1.3c-0.7,0.5-1,1.1-1.2,1.9
		c-0.3,0.8-0.4,1.7-0.6,2.3c-0.1,0.6-0.1,1-0.4,1.1c-0.2,0.1-0.6,0.1-1-0.1c-0.4-0.1-0.6-0.3-1.2-0.5c-0.6-0.3-1.5-0.7-2.6-1.1
		c-1.1-0.4-2.4-0.8-3.2-1c-0.9-0.2-1.4-0.4-1.9-0.4c-0.5-0.1-0.9-0.1-1.2-0.2c-0.4-0.1-0.7-0.2-1.1-0.6c-0.4-0.4-1-0.9-1.3-1.3
		c-0.4-0.4-0.5-0.6-0.8-0.8c-0.2-0.3-0.5-0.6-0.6-0.8c-0.2-0.2-0.3-0.3-0.5-0.4c-0.2-0.1-0.6-0.2-0.8-0.3c-0.2-0.1-0.2-0.3-0.2-0.5
		c0-0.2,0-0.3,0-0.5c0-0.2,0-0.5,0-0.8c0-0.3,0.1-0.6,0.2-0.8c0.1-0.2,0.3-0.2,0.5-0.2c0.2,0,0.3,0,0.4,0c0.1,0,0.2,0,0.3,0
		c0.1,0,0.4,0,0.5-0.5c0.1-0.5,0.1-1.4,0.2-2.3c0.1-0.9,0.2-1.7,0.5-2.3c0.2-0.7,0.5-1.3,0.8-1.8c0.2-0.5,0.3-1,0.4-1.6
		c0.1-0.5,0.2-1.2,0.4-1.8c0.1-0.7,0.2-1.5,0.2-2.3c0-0.9,0-1.9-0.1-2.8c-0.1-1-0.3-1.9-0.6-2.9c-0.3-1.1-0.8-2.2-1.3-3.3
		c-0.4-1-0.8-2-1.3-2.6c-0.5-0.7-1-1-1.6-1.2c-0.6-0.2-1.2-0.1-1.5-0.2c-0.4-0.1-0.5-0.2-1-0.5c-0.5-0.3-1.3-0.7-2.2-1
		c-0.8-0.2-1.6-0.3-2.5-0.4c-0.9-0.1-1.8-0.4-2.6-0.5c-0.7-0.1-1.2-0.1-1.6,0c-0.4,0-0.7,0-1.2-0.1c-0.5-0.1-1.2-0.4-1.7-0.5
		c-0.5-0.1-0.8,0-1.3,0.1c-0.4,0.2-0.9,0.4-1.5,0.7c-0.6,0.3-1.4,0.5-2.1,0.6c-0.6,0.1-1,0.1-1.3,0.3c-0.3,0.2-0.5,0.8-0.6,1.2
		c-0.1,0.4,0,0.6,0,0.9c0.1,0.2,0.1,0.4,0,0.6c-0.1,0.2-0.3,0.4-0.4,0.6c-0.1,0.2-0.1,0.4-0.2,0.7c-0.1,0.3-0.2,0.6-0.4,0.9
		c-0.1,0.4-0.2,0.8-0.4,1.2c-0.2,0.5-0.5,1-0.8,1.5c-0.2,0.5-0.4,0.9-0.6,1.3c-0.1,0.4-0.3,0.7-0.5,1c-0.2,0.3-0.4,0.7-0.6,1
		c-0.2,0.3-0.2,0.4-0.3,0.7c0,0.3,0,0.7,0.1,1.1c0.1,0.4,0.2,0.7,0.2,0.9c0.1,0.2,0.1,0.4,0.2,0.5c0.1,0.1,0.2,0.2,0.2,0.6
		c0,0.4,0,1,0,1.5c0,0.5-0.1,0.9-0.3,1.3c-0.2,0.4-0.4,0.9-0.6,1.3c-0.1,0.3-0.1,0.6-0.1,0.8c0,0.2,0.1,0.5,0.2,0.7
		c0.1,0.2,0.2,0.5,0.3,0.7c0.1,0.2,0.1,0.3,0.1,0.4c0,0.1,0,0.2,0,0.3c0,0.2,0,0.4,0,0.7c0,0.2,0,0.5-0.1,0.7c0,0.2-0.1,0.4,0,0.7
		c0,0.2,0.1,0.5,0.2,0.6c0.1,0.2,0.2,0.3,0.2,0.4c0,0.1-0.1,0.1-0.2,0.1c-0.1,0-0.3-0.1-0.4-0.1c-0.1,0-0.2,0-0.3-0.1
		c-0.1,0-0.3-0.1-0.7-0.2c-0.4-0.1-1-0.2-1.4-0.3c-0.5-0.1-0.8-0.2-1.3-0.2c-0.5-0.1-1.1-0.1-1.6-0.2c-0.4-0.1-0.6-0.2-0.8-0.3
		c-0.1-0.1-0.2-0.2-0.4-0.3c-0.1-0.1-0.4-0.2-0.6-0.2c-0.2,0-0.4,0.1-0.7,0.1c-0.3,0-0.6,0-0.8,0c-0.2,0-0.2-0.1-0.2-0.2
		c0-0.1,0.1-0.2,0.1-0.4c0-0.2,0-0.4,0-0.6c0-0.2-0.1-0.4-0.2-0.5c-0.1-0.1-0.1-0.2-0.2-0.4c-0.1-0.1-0.2-0.3-0.2-0.5
		c0-0.2,0-0.3,0.1-0.4c0-0.1,0.1-0.1,0.2-0.2c0.1-0.1,0.1-0.1,0.2-0.2c0.1-0.1,0.2-0.1,0.3-0.1c0.1,0,0.2-0.1,0.2-0.2
		c0-0.1,0.1-0.3,0.1-0.4c0-0.1,0.1-0.3,0.1-0.4c0-0.1,0.1-0.3,0.1-0.4c0-0.1,0-0.2-0.1-0.4c-0.1-0.2-0.2-0.4-0.3-0.6
		c-0.1-0.2-0.2-0.2-0.2-0.3c-0.1-0.1-0.2-0.3-0.3-0.5c-0.1-0.2-0.2-0.3-0.3-0.4c-0.1-0.1-0.2-0.2-0.3-0.2c-0.1,0,0,0,0,0
		c0.1,0,0.1,0.1,0.3,0.1c0.2,0,0.5,0.1,0.8,0.1c0.3,0,0.7,0,0.9,0c0.3,0,0.5,0,0.6,0c0.1,0,0.2,0,0.3-0.1c0-0.1,0-0.2,0-0.3
		c0-0.1,0-0.2,0-0.4c0-0.1,0-0.3,0-0.5c0-0.2,0-0.3,0.1-0.4c0-0.1,0.1-0.2,0.1-0.2c0.1,0,0.2,0,0.3,0c0.1,0,0.2,0,0.3,0
		c0.1,0,0.2,0,0.4,0c0.1,0,0.3,0.1,0.5,0.1c0.2,0,0.4,0,0.6,0c0.2,0,0.4-0.1,0.5-0.1c0.2,0,0.3-0.1,0.5-0.1c0.2-0.1,0.4-0.1,0.6-0.3
		c0.2-0.2,0.3-0.5,0.3-0.9c0-0.3-0.1-0.7-0.3-1.4c-0.2-0.7-0.4-1.7-0.6-2.5c-0.3-0.8-0.6-1.3-0.6-1.7c-0.1-0.4,0.1-0.8,0.3-1.1
		c0.2-0.4,0.6-0.8,0.8-1.2c0.2-0.3,0.4-0.5,0.6-0.8c0.2-0.3,0.4-0.8,0.6-1.3c0.1-0.6,0.2-1.2,0.1-1.9c0-0.7-0.1-1.4-0.1-2.2
		c0-0.8,0-1.6,0.1-2.4c0.1-0.8,0.1-1.5,0.2-2.1c0-0.6,0-1,0.1-1.3c0.1-0.3,0.2-0.5,0.5-0.7c0.3-0.1,0.9-0.2,1.2-0.3
		c0.4-0.1,0.6-0.3,0.7-0.5c0-0.2-0.1-0.5-0.1-0.8c0-0.2,0.2-0.5,0.2-0.6c0.1-0.2,0.1-0.3,0.1-0.5c-0.1-0.2-0.2-0.6-0.4-1
		c-0.2-0.4-0.4-0.9-1.1-1.3c-0.6-0.4-1.7-0.7-2.4-1.1c-0.7-0.4-1.1-0.8-1.4-1.2C77.4,7.4,77,7,76.5,6.6c-0.5-0.4-1.2-0.9-1.7-1.2
		c-0.5-0.3-0.8-0.3-1.2-0.4c-0.4-0.2-0.7-0.5-1.3-0.9c-0.6-0.4-1.6-0.8-2.3-1.2c-0.8-0.4-1.4-0.9-2.1-1.3c-0.7-0.4-1.3-0.8-2.2-1
		c-0.9-0.2-2-0.2-3.4,0c-1.3,0.1-2.9,0.4-4.1,0.9c-1.2,0.5-2.2,1.3-2.9,1.8c-0.7,0.5-1.3,0.8-2,1.2C52.4,5,51.4,5.4,50.7,6
		c-0.7,0.6-1,1.3-1.2,1.9c-0.3,0.6-0.4,1-0.6,1.6c-0.2,0.5-0.3,1.1-0.8,1.8c-0.4,0.7-1.1,1.4-1.5,2C46.2,14,46.1,14.6,46,16
		c-0.1,1.4-0.1,3.5,0,5.4c0.1,1.9,0.2,3.4,0.4,4.3c0.1,0.9,0.2,1.1,0.4,1.4c0.1,0.3,0.3,0.8,0.6,1.2c0.3,0.4,0.8,0.8,1.1,1.2
		c0.3,0.4,0.4,0.7,0.5,1.2c0.1,0.5,0.1,1,0.1,1.5c0,0.5-0.2,0.9-0.2,1.6c-0.1,0.6,0,1.5,0,2.2c0,0.7,0.1,1.3,0.1,1.7
		c0,0.4,0,0.7-0.2,0.8c-0.2,0.1-0.6,0.1-0.9,0.1c-0.3,0-0.5,0-0.7,0.2c-0.2,0.1-0.3,0.3-0.4,0.6c-0.1,0.2-0.1,0.5-0.3,0.8
		c-0.1,0.3-0.3,0.5-0.4,0.6c-0.1,0.1-0.3,0-0.3-0.2c-0.1-0.2-0.1-0.4-0.2-0.6c-0.1-0.2-0.3-0.3-0.6-0.4c-0.2-0.1-0.5-0.2-0.9-0.3
		c-0.4-0.1-1-0.2-1.5-0.3c-0.5,0-0.9,0-1.2,0.1c-0.4,0.1-0.8,0.3-1,0.4c-0.3,0.2-0.5,0.3-0.7,0.4c-0.2,0.1-0.5,0-0.8-0.1
		c-0.2-0.1-0.5-0.2-0.7-0.2c-0.2-0.1-0.4-0.1-0.7-0.2c-0.3,0-0.5-0.1-0.9,0c-0.4,0.1-0.8,0.2-1.1,0.5c-0.3,0.2-0.4,0.6-0.7,0.8
		c-0.2,0.3-0.5,0.5-0.9,0.7c-0.4,0.1-0.9,0.2-1.2,0.3c-0.3,0.1-0.4,0.3-0.6,0.5c-0.1,0.2-0.2,0.4-0.4,0.6c-0.2,0.1-0.4,0.2-0.6,0.3
		c-0.2,0.1-0.5,0.2-0.7,0.6c-0.2,0.4-0.4,1.1-0.7,1.5c-0.2,0.4-0.5,0.5-0.7,0.6c-0.2,0.1-0.4,0.2-0.5,0.3c-0.2,0.1-0.4,0.2-0.5,0.5
		c-0.1,0.2-0.2,0.6-0.1,0.8c0.1,0.3,0.2,0.5,0.3,0.9c0.1,0.4,0.1,0.9-0.2,1.2c-0.3,0.3-0.9,0.3-2.4,0.9c-1.5,0.6-4,1.8-5.6,2.5
		c-1.6,0.7-2.3,1-3,1.6c-0.7,0.6-1.4,1.5-2.1,2.9c-0.7,1.4-1.5,3.1-2.1,4.5c-0.7,1.4-1.3,2.4-1.9,4.1c-0.6,1.6-1.1,3.9-1.6,5.4
		c-0.4,1.5-0.7,2.4-0.9,3.2C8,75.5,7.9,76.4,7.6,78c-0.3,1.7-0.9,4.1-1.6,7c-0.6,2.9-1.3,6.2-1.7,8.1c-0.4,1.9-0.4,2.3-0.6,3
		c-0.1,0.7-0.4,1.5-0.6,2.5c-0.2,1-0.4,2.1-0.5,3.2c-0.1,1.1-0.2,2-0.4,2.9c-0.3,0.9-0.7,1.6-1.1,2.2c-0.4,0.6-0.6,1.1-0.6,1.8
		c0.1,0.7,0.5,1.6,0.9,2.3c0.4,0.7,0.9,1.3,1.1,2.3c0.2,1,0.1,2.4,0.5,4.3c0.4,1.9,1.2,4.4,1.8,6.6c0.6,2.2,0.9,4.1,1.5,6.2
		c0.6,2.1,1.5,4.5,2.4,6.5c0.9,2,1.6,3.7,2.2,4.7c0.5,1,0.9,1.5,1.2,2.5c0.3,1,0.6,2.7,0.8,3.7c0.2,1,0.2,1.4,0.2,1.8
		c0.1,0.4,0.2,0.9,0.6,1.4c0.4,0.5,1.2,1,1.9,1.4c0.8,0.5,1.6,0.9,2.3,1.2c0.7,0.3,1.4,0.6,1.8,1c0.4,0.4,0.4,1,0.5,1.6
		c0.1,0.5,0.1,1,0.3,2.1c0.2,1.1,0.4,2.8,0.8,4.4c0.4,1.6,0.9,3.1,1.3,5.1c0.4,2,0.8,4.4,1.4,7.4c0.6,2.9,1.4,6.3,1.8,9
		c0.4,2.7,0.4,4.6,0.3,6.1c-0.1,1.4-0.2,2.3,0.2,4.1c0.3,1.7,1.1,4.3,1.5,5.8c0.4,1.5,0.3,2,0,2.7c-0.3,0.7-1,1.5-1.2,2.2
		c-0.2,0.7-0.1,1.2,0.1,2.1c0.1,0.9,0.3,2.3,0.1,3.4c-0.2,1.1-0.7,2-0.9,2.9c-0.2,0.9,0,2,0.4,4.3c0.4,2.4,1.2,6.1,2.1,10.7
		c0.9,4.6,1.9,10.1,2.4,13.5c0.5,3.4,0.6,4.7,0.7,5.9c0.1,1.2,0.3,2.4,0.6,3.5c0.3,1.2,0.7,2.3,1.1,3.3c0.4,1,0.7,1.8,1,2.4
		c0.3,0.6,0.6,1,0.7,1.4c0.1,0.4,0.1,0.7-0.1,1.1c-0.2,0.3-0.5,0.7-0.5,1.3c-0.1,0.6,0,1.5,0.1,2.4c0.1,0.9,0.2,1.8,0.3,2.5
		c0.1,0.6,0,0.9,0.2,1.1c0.2,0.2,0.5,0.2,0.8,0.4c0.3,0.1,0.4,0.4,0.3,0.9c-0.1,0.5-0.5,1.2-0.9,1.8c-0.4,0.6-0.7,1.2-1.2,1.9
		c-0.5,0.7-1.2,1.5-1.6,2.1c-0.4,0.5-0.6,0.8-0.7,1.2c-0.1,0.4,0,0.9-0.1,1.4c-0.1,0.5-0.3,0.9-0.6,1.2c-0.4,0.4-0.9,0.8-1.3,1.1
		c-0.4,0.3-0.5,0.6-0.7,0.8c-0.1,0.2-0.3,0.5-0.4,0.9c-0.2,0.4-0.4,0.9-0.6,1.3c-0.2,0.4-0.2,0.7-0.3,1c-0.1,0.3-0.1,0.5-0.2,0.9
		c0,0.3,0,0.7,0,1c0,0.3,0.1,0.6,3,0.7c2.9,0.1,8.6,0.1,11.5,0.1c2.9,0,3-0.1,3.1-0.2c0.1-0.1,0.3-0.3,0.5-0.5
		c0.2-0.2,0.3-0.3,0.4-0.4c0.1-0.1,0.3-0.3,0.4-0.4c0.1-0.1,0.3-0.2,0.4-0.4c0.1-0.1,0.2-0.3,0.3-0.3c0.1,0,0.2,0.1,0.4,0.2
		c0.2,0.1,0.6,0.3,0.9,0.4c0.3,0.1,0.6,0.2,1,0.3c0.4,0.1,0.8,0.3,1.3,0.4c0.4,0.1,0.8,0.2,1.1,0.4c0.2,0.1,0.2,0.3,0.3,0.4
		c0.1,0.1,0.2,0.1,1.6,0.1c1.4,0,3.9,0,5.3,0c1.4,0,1.7,0,1.9,0c0.2,0,0.3-0.1,0.4-0.2c0.1-0.1,0.2-0.4,0.3-0.7
		c0.1-0.3,0.2-0.6,0.4-1c0.2-0.4,0.4-0.7,0.6-1c0.3-0.2,0.6-0.3,1-0.4c0.4-0.1,0.9-0.3,1.6-0.2c0.7,0.1,1.6,0.4,2.8,0.3
		c1.1,0,2.5-0.3,3.3-1.3c0.9-0.9,1.3-2.5,1.3-4.2c0-1.7-0.4-3.4-0.8-4.7c-0.4-1.3-0.9-2.3-1.5-3.4c-0.6-1.1-1.5-2.4-2.1-3.1
		c-0.6-0.8-1-1-1.5-1.2c-0.5-0.2-1.1-0.2-1.5-0.4c-0.4-0.2-0.6-0.5-0.7-1c-0.1-0.5,0-1.2,0-2c0-0.8,0.1-1.6,0.2-2.7
		c0.1-1.1,0.4-2.6,0.8-4c0.4-1.5,1-3,1.3-5.1c0.3-2.1,0.5-4.7,0.5-7.5c0-2.8,0-5.6,0-7.9c0.1-2.2,0.2-3.8,0.6-5.9
		c0.3-2.1,0.8-4.7,0.9-6.8c0.1-2.1-0.2-3.6-0.2-5.7c0.1-2.1,0.5-4.8,0.7-6.4c0.2-1.6,0.1-2.3-0.1-2.9c-0.2-0.6-0.5-1.3-0.7-2
		c-0.2-0.6-0.3-1.3-0.5-2c-0.1-0.8-0.2-1.8-0.4-2.7c-0.1-0.9-0.2-1.8-0.1-2.4c0.2-0.7,0.7-1.2,0.9-1.7c0.2-0.6,0.2-1.3,0.2-1.9
		c0-0.6,0-1.3,0.1-1.8c0.1-0.5,0.2-1,0.5-1.9c0.4-0.9,1-2.2,1.3-4.3c0.4-2.1,0.5-5.2,0.8-8.4c0.3-3.2,0.8-6.7,1.2-9.8
		c0.4-3.2,0.5-6.1,0.8-9.5c0.3-3.4,0.6-7.2,0.8-9.9c0.2-2.7,0.3-4.2,0.4-5.4c0.1-1.3,0.2-2.4,0.2-3.3c0-0.9-0.1-1.7-0.3-2.4
		c-0.2-0.6-0.4-1-0.3-1.4c0.2-0.3,0.8-0.5,1.2-0.8c0.4-0.3,0.5-0.6,0.5-1.1c0-0.5-0.2-1.1-0.3-1.7c-0.1-0.6-0.1-1.1-0.1-2
		c0.1-0.9,0.3-2,0.5-2.6c0.2-0.6,0.5-0.6,0.8-0.7c0.3-0.1,0.6-0.3,0.9-0.6c0.3-0.3,0.5-0.7,0.7-1.6c0.3-0.9,0.6-2.2,0.6-3.9
		c0-1.6-0.3-3.5-0.6-5.2c-0.3-1.7-0.6-3.4-0.7-5.2c-0.1-1.8,0.1-3.8,0.2-4.7c0.1-0.9,0.3-0.8,0.5-0.2c0.2,0.6,0.4,1.7,0.6,2.9
		c0.3,1.2,0.6,2.5,1.2,3.9c0.6,1.4,1.4,2.9,2,5.8c0.6,2.9,1,7.2,1.3,11.6c0.3,4.3,0.5,8.6,0.5,11.3c0,2.7-0.1,3.8-0.3,4.8
		c-0.1,1-0.2,1.8-0.1,2.9c0.1,1.1,0.4,2.5,0.8,3.3c0.4,0.7,1,0.8,1.3,1.6c0.3,0.8,0.3,2.5,0.8,4c0.5,1.5,1.6,2.7,2.1,4.5
		c0.6,1.7,0.7,3.8,1.2,5.5c0.5,1.7,1.3,3,1.8,4.4c0.6,1.4,0.9,3,1.2,5.2c0.2,2.2,0.3,4.9,1.3,9.2c1,4.3,3,10.3,4.2,14.2
		c1.3,3.9,1.9,5.8,2.3,7.8c0.4,2,0.6,4.1,0.7,5.4c0.2,1.2,0.3,1.6,0.6,1.9c0.3,0.3,0.7,0.5,1,1.1c0.3,0.5,0.4,1.4,0.3,2
		c-0.1,0.6-0.4,1.1-0.6,1.5c-0.2,0.4-0.2,0.9,0.1,1.5c0.3,0.6,1,1.5,1.1,2.5c0.1,1-0.4,2.1-0.8,3.4c-0.4,1.3-0.7,2.7-0.2,5
		c0.5,2.2,1.9,5.3,2.9,7.7c1,2.4,1.7,4.3,2.1,6.6c0.4,2.4,0.5,5.2,0.7,7.6c0.2,2.3,0.3,4.2,0.6,5.4c0.2,1.3,0.5,1.9,1,2.6
		c0.5,0.7,1.2,1.3,2.1,1.7c0.9,0.4,2.1,0.6,2.6,1.3c0.6,0.8,0.6,2.1,0.4,3.2c-0.2,1.1-0.5,1.8-0.6,2.3c-0.1,0.5,0,0.7,0.2,1
		c0.2,0.3,0.4,0.7,0.4,1c-0.1,0.3-0.4,0.6-0.7,0.9c-0.3,0.3-0.6,0.7-0.9,1.2c-0.3,0.5-0.6,1-1,1.7c-0.3,0.7-0.7,1.6-1,2.1
		c-0.3,0.5-0.6,0.7-0.8,1c-0.2,0.3-0.3,0.7-0.4,1.2c-0.1,0.5-0.2,1.2-0.2,1.7c0,0.5,0.2,0.9,0.4,1.4c0.3,0.4,0.6,0.9,0.8,1.2
		c0.2,0.3,0.2,0.4,0.2,0.4c0,0,0.1,0,2.6,0c2.5,0,7.4,0,10-0.1c2.6-0.1,3-0.4,3.3-0.8c0.3-0.4,0.7-0.8,1.1-1.4c0.4-0.6,0.8-1.3,1-2
		c0.2-0.8,0.2-1.6,0-2.6c-0.1-1-0.4-2.1-0.4-2.8c0-0.8,0.3-1.2,0.7-2c0.4-0.8,0.8-1.9,1.3-2.6c0.5-0.7,1-1.1,1.2-0.5
		c0.3,0.5,0.3,1.9,0.4,3.1c0.1,1.2,0.2,2.1,0.6,3.2c0.3,1.1,0.8,2.5,1.4,3.5c0.5,1,1.1,1.6,1.8,2.2c0.6,0.6,1.3,1.1,2.1,1.4
		c0.8,0.3,1.9,0.3,3.3,0.2c1.4-0.2,3.1-0.6,4.2-0.9c1.1-0.4,1.5-0.7,1.9-1.5c0.4-0.8,0.9-2.1,1.2-3.5c0.2-1.4,0.2-2.9,0.2-4.2
		c-0.1-1.4-0.2-2.6-0.6-3.7c-0.4-1.1-1.1-2-2.4-3.7c-1.3-1.8-3.1-4.4-3.9-6.1c-0.9-1.7-0.8-2.4-0.5-3.2c0.3-0.7,0.9-1.4,1.8-2.2
		s2-1.7,2.6-3.4c0.6-1.7,0.7-4.2,0.6-6.4c-0.1-2.3-0.4-4.3-0.4-5.9c0-1.6,0.4-2.6,0.8-3.7c0.4-1,0.9-2,1.4-4c0.5-2,1-5.1,1.1-8
		c0.1-2.9-0.3-5.5-0.2-7.7c0-2.2,0.4-3.8,0.5-5c0.1-1.2-0.1-1.9-0.2-2.7c-0.1-0.7-0.3-1.5-0.2-2.2c0.1-0.6,0.3-1.2,0.5-1.7
		c0.2-0.5,0.4-0.9,0.4-1.5c0-0.6-0.3-1.3-0.4-2.2c0-0.8,0.2-1.8,0.7-2.6c0.5-0.8,1.2-1.4,1.6-2.3c0.4-0.8,0.6-1.8,0.5-2.7
		c0-0.9-0.3-1.7-0.5-2.4c-0.2-0.8-0.4-1.5-0.4-2.9c0-1.4,0.3-3.3,0.5-4.5c0.2-1.1,0.3-1.5,0.5-1.7c0.2-0.3,0.6-0.5,0.5-0.9
		c-0.1-0.4-0.5-0.9-1-1.4c-0.5-0.5-1-1.1-1.3-1.6c-0.3-0.5-0.4-0.8-0.3-1.1c0.1-0.2,0.2-0.3,0.6-0.3c0.4,0,1,0.2,2.4,0.3
		c1.3,0,3.3,0,4.6-0.3c1.3-0.2,2-0.6,2.6-1.1c0.6-0.5,1.2-1.1,1.7-1.6c0.5-0.5,0.8-0.9,1.1-1.4c0.3-0.5,0.5-1.1,0.7-1.6
		c0.1-0.5,0.2-1,0.2-1.6c0.1-0.6,0.1-1.2,0.3-1.5c0.2-0.3,0.4-0.3,0.8-0.3c0.3,0,0.8,0,1.1-0.1c0.3-0.1,0.4-0.2,0.5-0.5
		c0.1-0.3,0.1-0.7,0.1-1.3c0-0.7-0.2-1.5-0.2-2c0-0.4,0.1-0.4,0.2-0.2c0.1,0.1,0.3,0.4,0.4,0.8c0.1,0.4,0.2,0.9,0.3,1.6
		c0,0.6,0,1.3,0.1,1.8c0,0.5,0,0.8,0,1.3c0,0.5,0,1.2,0.2,2.3c0.2,1.1,0.6,2.6,1,3.6c0.4,1,0.8,1.5,1.1,1.9c0.4,0.4,0.8,0.6,1,0.9
		c0.3,0.3,0.5,0.5,5.4,8.9c4.9,8.4,14.5,25,19.4,33.3c4.9,8.3,5.1,8.5,5.2,8.6c0.1,0.1,0.2,0.2,0.2,0.2c0,0.1,0,0.1-0.3,0.2
		c-0.3,0-1,0.1-2.2,0.1c-1.2,0.1-2.9,0.1-4.4,0.3c-1.5,0.1-2.8,0.3-3.9,0.7c-1.1,0.4-2.1,0.9-3.7,1.6c-1.6,0.6-3.9,1.3-5.5,1.9
		c-1.6,0.6-2.7,1.2-4,1.3c-1.3,0.1-2.9-0.1-4.5-0.6c-1.6-0.5-3.2-1.1-4.4-1.8c-1.2-0.7-2.1-1.6-2.6-4.7c-0.6-3.1-0.8-8.4-1.2-11.8
		c-0.3-3.3-0.8-4.6-1.3-5.4c-0.6-0.8-1.2-1.1-1.2-0.4c0.1,0.7,0.9,2.4,0.6,4.4c-0.3,2-1.8,4.4-2.5,7c-0.7,2.5-0.7,5.2-0.3,7.7
		c0.4,2.5,1.1,4.8,1.9,6.6c0.9,1.8,1.9,3.2,4,4.1c2.1,0.9,5.2,1.3,7.1,1.6c1.9,0.3,2.5,0.5,2.6,1.6c0,1.1-0.5,3-0.9,4.6
		c-0.4,1.6-0.8,2.9-0.6,4.1c0.1,1.3,0.7,2.5,2.2,4.6c1.4,2.2,3.7,5.3,5,7.4c1.3,2.1,1.6,3.2,2,4.3c0.4,1.1,0.9,2.2,1.1,3.1
		c0.2,0.9,0,1.5-0.1,2.1c-0.1,0.6-0.1,1.2,0.2,1.7c0.2,0.4,0.7,0.7,1.2,1.2c0.5,0.5,0.9,1.2,1.1,2c0.3,0.9,0.4,1.9,0.6,2.8
		c0.2,0.9,0.5,1.5,0.7,2.1c0.1,0.6,0.1,1.1,0.1,1.5c0,0.4,0,0.7,0.1,0.9c0.1,0.1,0.2,0.1,1.4,0.1c1.2,0,3.5,0,4.8,0
		c1.3,0,1.6,0,1.7-0.2c0.2-0.2,0.2-0.7,0.2-1c0-0.4,0-0.6-0.1-0.9c0-0.3-0.1-0.5-0.1-0.8c-0.1-0.2-0.2-0.3-0.5-0.6
		c-0.3-0.2-0.9-0.5-1.5-0.7c-0.5-0.2-1-0.5-1.4-0.7c-0.4-0.3-0.6-0.6-0.9-1.1c-0.3-0.5-0.5-1.1-1-1.8c-0.4-0.7-1-1.5-1.4-2.3
		c-0.4-0.8-0.5-1.5-0.7-2.5c-0.1-1-0.3-2.2-0.4-3.2c-0.1-0.9-0.1-1.5,0-1.8c0.1-0.3,0.3-0.2,0.6-0.1c0.3,0.1,0.7,0.3,1.1,1
		c0.4,0.7,0.9,1.8,1.3,2.6c0.4,0.7,0.6,1.1,0.9,1.6c0.3,0.5,0.5,1.3,0.6,2c0.1,0.8,0,1.6,0,2.1c0.1,0.6,0.3,0.9,0.7,1.2
		c0.3,0.3,0.8,0.6,1.2,1c0.4,0.4,0.9,0.9,1.2,1.2c0.3,0.3,0.4,0.4,0.5,0.5c0.1,0.1,0.2,0.1,0.3,0.1c0.1,0,0.2,0,1-0.1
		c0.8-0.1,2.4-0.3,3.2-0.4c0.8-0.1,0.9-0.1,0.9-0.1c0.1,0,0.1-0.1,0.2-0.2c0.1-0.1,0.1-0.4,0.1-0.7c0-0.3-0.2-0.7-0.5-1
		c-0.4-0.3-1-0.6-1.6-1c-0.6-0.4-1.1-0.9-1.6-1.3c-0.5-0.4-1-0.6-1.3-1.1c-0.4-0.5-0.7-1.3-0.9-2.3c-0.3-1-0.4-2.2-0.6-3.3
		c-0.1-1.1-0.2-2-0.2-2.8c0-0.8,0.1-1.6,0.3-2.2c0.2-0.5,0.5-0.8,0.7-1.3c0.3-0.4,0.6-0.9,0.8-1.5c0.2-0.6,0.3-1.2,0.4-1.7
		c0.1-0.4,0.1-0.6,0.2-0.8c0.1-0.1,0.3-0.2,0.7,0c0.4,0.2,1.1,0.7,1.7,1.1c0.6,0.4,1.2,0.7,2.1,0.9c0.9,0.2,2.1,0.4,2.8,0.4
		c0.7,0,0.9,0,1.1,0c0.1,0,0.2,0,0.4,0.5c0.2,0.5,0.6,1.5,0.9,2.2c0.4,0.8,0.7,1.4,1.1,2.2c0.3,0.7,0.6,1.6,1.2,2.5
		c0.6,0.9,1.5,1.8,2.2,2.6c0.7,0.8,1.3,1.4,1.7,2.2c0.4,0.8,0.5,1.7,0.5,2.2c0,0.5,0,0.6,0,0.8c0,0.2,0.1,0.4,0.2,0.6
		c0.1,0.2,0.2,0.3,0.3,0.5c0.1,0.2,0.1,0.4,0.2,0.6c0.1,0.1,0.2,0.1,0.2,0.2c0.1,0,0.1,0.2,0.1,0.2c0,0,0.1,0,1.1-0.1
		c1-0.1,2.9-0.4,3.9-0.6c1-0.2,1-0.3,1.1-0.4c0.1-0.1,0.2-0.2,0.2-0.7c0-0.4-0.2-1.2-0.5-1.8c-0.3-0.6-0.7-1-1.3-1.6
		c-0.6-0.6-1.3-1.5-1.7-2.3c-0.5-0.8-0.6-1.6-0.9-2.3c-0.3-0.7-0.7-1.3-0.8-1.8c-0.2-0.5-0.1-0.8,0.2-0.9c0.3-0.1,0.7-0.1,1.1-0.1
		c0.5,0.1,0.9,0.2,1.5,0.4c0.6,0.2,1.2,0.6,1.6,0.9c0.4,0.3,0.5,0.5,0.6,1.2c0.1,0.7,0.3,1.9,0.6,2.6c0.3,0.7,0.7,1,1.1,1.2
		c0.5,0.2,1,0.3,1.3,0.5c0.3,0.2,0.3,0.5,0.3,0.8c-0.1,0.3-0.2,0.6-0.5,1.3c-0.3,0.7-0.7,1.9-0.9,2.9c-0.2,1-0.2,1.8-0.1,2.5
		c0.1,0.6,0.3,1.1,0.4,1.5c0.1,0.4,0.2,0.6,0.3,1.1c0.1,0.4,0.1,1,0.2,1.3c0.1,0.3,0.1,0.3,1.2,0.3c1.1,0,3.2,0,4.3,0
		c1.1,0,1.2,0,1.3-0.4c0.1-0.4,0.3-1.2,0.4-1.8c0.1-0.5,0.2-0.8,0.1-1c-0.1-0.2-0.4-0.5-0.7-0.7c-0.3-0.3-0.5-0.5-0.7-0.8
		c-0.2-0.3-0.4-0.7-0.5-1c-0.1-0.4-0.2-0.8-0.2-1.3c0-0.6-0.1-1.3-0.1-1.8c0-0.5,0.1-0.7,0.1-1c0-0.3,0-0.7,0-1.1
		c-0.1-0.5-0.1-1-0.2-1.4c-0.1-0.4-0.1-0.6-0.1-0.7c0.1-0.1,0.2,0,0.3,0.1c0.1,0.1,0.3,0.3,0.4,0.4c0.1,0.1,0.3,0.1,0.7,0.4
		c0.3,0.3,0.9,0.8,1.2,1.4c0.3,0.6,0.4,1.1,0.4,1.4c0.1,0.3,0.1,0.4,0.5,0.7c0.4,0.3,1.1,0.8,1.6,1.2c0.5,0.4,0.9,0.6,1.1,1
		c0.2,0.5,0.3,1.2,0.4,1.8c0.1,0.6,0.3,1,0.7,1.5c0.4,0.4,1.1,0.9,1.5,1.3c0.5,0.4,0.8,0.7,1.1,0.9c0.4,0.3,0.8,0.5,1.2,0.7
		c0.4,0.2,0.8,0.2,1.3,0.2c0.5,0,1.2-0.2,1.6-0.3c0.4-0.1,0.6-0.3,0.8-0.5c0.2-0.2,0.5-0.5,0.7-0.7c0.2-0.2,0.5-0.3,0.8-0.5
		c0.3-0.2,0.7-0.5,1-0.8c0.2-0.3,0.2-0.5,0.2-0.8c-0.1-0.3-0.2-0.6-0.3-0.9c-0.1-0.3-0.1-0.7-0.2-1.1c-0.1-0.4-0.4-0.8-0.5-1
		c-0.2-0.2-0.3-0.2-0.5-0.7c-0.2-0.5-0.4-1.6-0.4-2.1c-0.1-0.5,0-0.4,0.1-0.5c0.1-0.2,0.1-0.6,0.3-0.8c0.1-0.3,0.3-0.4,0.6-0.8
		c0.3-0.4,0.8-1,1.2-1.6c0.4-0.6,0.6-1.3,0.7-1.7c0.1-0.4,0.1-0.6,0.1-0.8c0.1-0.2,0.2-0.5,0.3-0.6c0.2-0.2,0.3-0.3,0.5-0.5
		c0.2-0.2,0.5-0.6,0.7-1c0.2-0.4,0.4-0.8,0.5-1.5C249.5,265.1,249.4,264.2,249.2,263.5z M22.8,95.1c-0.2,0.8-0.4,1.9-0.4,2.8
		c0,0.9,0.1,1.5,0.2,2.3c0.1,0.8,0.1,1.9-0.1,2.9c-0.2,1-0.5,1.8-0.7,2.6c-0.2,0.8-0.2,1.6,0,2.4c0.1,0.8,0.4,1.5,0.5,2.5
		c0.2,1.1,0.2,2.5-0.1,3.7c-0.3,1.2-1,2-1.4,2.8c-0.4,0.8-0.7,1.5-0.9,2.5c-0.2,0.9-0.5,2.1-0.8,1.8c-0.3-0.3-0.6-2-0.9-3.1
		c-0.3-1.1-0.4-1.6-0.6-2.2c-0.1-0.6-0.2-1.3-0.2-2.1c0-0.8,0.1-1.7,0.1-2.4c0-0.7-0.2-1.3-0.4-1.7c-0.2-0.4-0.4-0.7-0.4-1
		c-0.1-0.3-0.1-0.5,0.1-0.7c0.2-0.2,0.4-0.4,0.5-0.9c0.1-0.5,0-1.5,0.1-2.2c0.1-0.8,0.3-1.4,0.9-2.6c0.6-1.2,1.5-3.1,1.9-4.6
		c0.4-1.5,0.2-2.5,0.1-3.1c-0.1-0.6,0.1-0.9,0.2-1.1c0.2-0.2,0.4-0.3,0.9-0.3c0.5,0,1.1,0.2,1.4,0.4C23.1,93.9,23,94.3,22.8,95.1z
		 M49.4,210.7c0,3.4-0.2,6.5-0.3,9.9c-0.2,3.4-0.3,7.2-0.5,9.9c-0.1,2.7-0.2,4.5-0.4,5.6c-0.2,1.2-0.4,1.8-0.6,2.2
		c-0.2,0.4-0.3,0.6-0.4,0.6c-0.1,0-0.1-0.1-0.4-1.1c-0.2-1.1-0.7-3.2-1-6.3c-0.3-3.2-0.5-7.4-1-10.8c-0.5-3.4-1.2-5.8-1.3-7.9
		c-0.1-2.1,0.4-3.7,0.7-4.7c0.3-1,0.3-1.3,0.5-2c0.1-0.6,0.4-1.5,0.4-2.2c0-0.7-0.1-1.2-0.1-1.8c0.1-0.6,0.3-1.4,0.7-3.8
		c0.4-2.5,0.9-6.7,1.3-8.7c0.3-2,0.5-1.7,0.7-0.8c0.2,1,0.6,2.7,0.8,4.6c0.2,2,0.4,4.2,0.5,7.2C49.3,203.7,49.4,207.3,49.4,210.7z
		 M129.1,222.4c-0.3,2-0.3,3.6-0.3,5c-0.1,1.4-0.2,2.6-0.5,4.3c-0.3,1.7-0.6,3.9-0.7,5.8c0,1.9,0.3,3.5,0.2,5.4
		c-0.1,1.9-0.5,4.1-1.4,3.2c-0.8-0.9-2-4.8-2.7-7.7c-0.6-2.9-0.7-4.7-0.4-7.3c0.3-2.6,1-6,1.1-8.3c0.1-2.3-0.3-3.5-0.7-4.4
		c-0.4-0.9-0.7-1.5-0.7-4c0-2.5,0.3-6.9,0.1-10.5c-0.1-3.7-0.8-6.6-1.1-9.5c-0.3-2.9-0.3-5.8-0.4-8.8c-0.1-3-0.3-6.3-0.1-6.8
		c0.3-0.5,1,1.8,1.8,4.5c0.8,2.7,1.7,5.9,2.2,8.1c0.5,2.3,0.5,3.6,0.2,5c-0.3,1.4-0.8,2.9-0.5,4.5c0.3,1.6,1.3,3.2,1.8,5
		c0.5,1.8,0.4,3.7,0.5,4.9c0.1,1.2,0.4,1.8,0.9,2.5c0.5,0.7,1.2,1.4,1.2,3C129.9,218,129.4,220.4,129.1,222.4z M149.1,154
		c0-0.8,0-1.8-0.4-2.9c-0.4-1.1-1.1-2.3-1.5-3.8c-0.4-1.5-0.5-3.3-0.5-5c0-1.7,0-3.3-0.2-5.3c-0.3-2-0.9-4.2-1.5-6.2
		c-0.6-1.9-1.2-3.5-1.8-4.9c-0.6-1.4-1.3-2.6-1.7-4c-0.4-1.4-0.4-3.1-0.3-4.1c0.1-1,0.3-1.3,0.5-1.3c0.2-0.1,0.3,0.1,0.6,1
		c0.4,0.8,1,2.3,1.8,3.8c0.8,1.5,1.8,3.1,3.8,5.9c2.1,2.8,5.2,6.8,7.2,9.7c2,2.8,2.7,4.5,3.5,5.8c0.8,1.3,1.5,2.2,1.9,2.8
		c0.4,0.7,0.6,1.1,0.6,1.7c0.1,0.6,0.1,1.5,0,1.9c-0.1,0.4-0.3,0.4-0.8,0.4c-0.5,0-1.4-0.1-2.2,0c-0.9,0.2-1.8,0.5-2.8,1.1
		c-1,0.5-2,1.2-2.8,1.9c-0.8,0.7-1.3,1.4-1.8,2.2c-0.5,0.7-1,1.4-1.2,1.6c-0.2,0.2-0.2,0-0.3-0.5C149.2,155.4,149.1,154.8,149.1,154
		z M162.5,167.6c-0.8,1.5-2.1,3.5-3.3,4.9c-1.2,1.3-2.2,2-3.3,2.2c-1.1,0.3-2.2,0.1-3,0c-0.8-0.2-1.3-0.4-1.6-0.6
		c-0.3-0.1-0.4-0.2-0.7-0.1c-0.2,0-0.5,0.1-0.7-0.4c-0.2-0.6-0.4-1.8-0.6-2.9c-0.2-1.1-0.3-2.2-0.2-3.4c0.1-1.2,0.5-2.6,0.6-3.6
		c0.1-1-0.2-1.7-0.3-2.3c-0.1-0.6,0-1.1,0.1-1.3c0.1-0.3,0.4-0.4,0.8-0.7c0.4-0.3,1-0.9,1.5-1.5c0.6-0.6,1.1-1.3,1.8-2.2
		c0.7-0.8,1.7-1.8,2.4-2.4c0.7-0.7,1.2-1,1.8-1.2c0.6-0.2,1.3-0.2,1.6,0.2c0.3,0.3,0.3,0.9,0.4,1.6c0.1,0.7,0.2,1.4,0.3,2.3
		s0.2,1.8,0.2,2.5c0,0.7,0,1.1,0.2,1.4c0.2,0.3,0.5,0.5,0.9,0.6c0.4,0.2,0.9,0.3,1.3,0.9c0.4,0.6,0.7,1.5,0.8,2.5
		C163.6,164.9,163.3,166,162.5,167.6z"/>
</g>
<g id="Inner">
	<path class="st1" d="M28,49c4.6,5.7,5.5,6.3,6,6.5c0.5,0.3,0.7,0.2,0.9,0c0.2-0.2,0.5-0.5,0.6-0.8c0.1-0.3,0.2-0.5,0.1-0.7
		c-0.1-0.3-0.4-0.6-0.8-1.2c-0.4-0.6-1-1.5-1.6-2.3c-0.6-0.8-1.1-1.4-1.5-2.1c-0.4-0.7-0.8-1.4-0.8-1.9"/>
	<path class="st1" d="M35.6,54c2.9,3.6,3.3,3.9,3.7,4c0.4,0.1,0.8,0,1.1-0.1c0.3-0.1,0.4-0.3,0.5-0.5c0.1-0.2,0.1-0.5,0.1-0.6
		c0-0.1,0-0.1,0.3,0c0.3,0.1,0.9,0.4,1.2,0.5c0.3,0.1,0.4,0.1,0.6,0.1c0.2,0,0.6-0.1,0.8-0.4c0.2-0.3,0.3-0.7,0.2-1
		c0-0.3-0.2-0.4-0.3-0.6c-0.1-0.2-0.1-0.4,0-0.5c0.1-0.1,0.3-0.1,0.5,0.1c0.2,0.1,0.4,0.4,0.8,0.2c0.4-0.1,0.9-0.6,1.1-1.1
		c0.2-0.4,0.2-0.8-0.1-1.4c-0.2-0.6-0.7-1.3-1.3-2.3c-0.6-1-1.3-2.4-1.9-3.4c-0.6-1-1.1-1.7-1.7-2.6c-0.5-1-1-2.2-0.8-2.4"/>
	<path class="st1" d="M33.7,46.2c3.3,3.3,3.7,4.4,4.2,5.4c0.5,1,1.2,1.9,3,5.1"/>
	<path class="st1" d="M37.4,45.1c2.3,3.6,5.5,8.2,6.4,9.9"/>
	<path class="st1" d="M41.5,44.8c0.1-1.6,0.2-2.2,0.4-2.5c0.2-0.3,0.4-0.3,0.6-0.3"/>
	<path class="st1" d="M42,40.9c0.5,1.2,0.7,1.8,0.9,2.2c0.2,0.4,0.3,0.7,0.5,0.8c0.2,0.2,0.5,0.3,0.8,0.4c0.3,0.1,0.5,0.1,0.8,0
		c0.2-0.1,0.4-0.2,0.5-0.4c0.1-0.2,0.2-0.4,0.3-0.9c0-0.4,0-1,0-2.4"/>
	<path class="st1" d="M43.7,44.2c2.3,5.5,4.4,7.8,6.2,9.6c1.8,1.8,3.4,3.1,4.5,4c1.1,0.9,1.7,1.3,2.3,1.5c0.6,0.2,1.2,0,1.7-0.4
		c0.5-0.4,0.8-1.2,2.1-3.2c1.3-1.9,3.7-5,4.9-7.9"/>
	<path class="st1" d="M40.1,57.9c3.2,4.4,4.2,5.5,4.9,6.4c0.6,0.8,0.8,1.3,0.9,2.1c0.1,0.8,0.1,2-0.1,3.3c-0.2,1.3-0.6,2.9-1,3.9
		c-0.4,1-0.9,1.5-1.2,2.3c-0.4,0.8-0.7,1.8-0.5,3c0.1,1.2,0.6,2.6,1,3.6c0.4,1.1,0.7,1.9,1.1,2.5c0.4,0.6,0.9,1,2,1.3
		c1.1,0.3,2.7,0.5,4.1,0.9c1.4,0.4,2.6,1.1,3.4,2c0.8,0.9,1.2,2.1,1.4,3.4c0.2,1.2,0.1,2.5,0.1,3.6c0,1.1-0.1,2.1,0.1,3
		c0.1,0.8,0.4,1.5,0.6,1.8c0.2,0.3,0.4,0.3,0.5,0.3c0.1,0,0.2-0.1,0.2-0.7c0-0.6,0-1.6,0.2-2.9c0.2-1.3,0.8-2.8,1.2-3.6
		c0.4-0.8,0.5-1,1-1.4c0.5-0.3,1.2-0.8,2.7-2.5c1.5-1.7,3.6-4.7,5.5-6.5c1.9-1.8,3.5-2.6,4.5-3.4c0.9-0.8,1.2-1.7,1.3-2.7
		c0.1-1-0.1-2.1-0.5-3.7c-0.4-1.7-1-3.9-1.5-5.6c-0.5-1.7-0.8-2.9-1.1-4c-0.3-1-0.5-1.9-0.5-2.9c0-1.1,0.1-2.4,0.1-3.7
		c0-1.3-0.1-2.6-0.5-3.6c-0.4-1-1.1-1.8-1.3-2.5c-0.2-0.7-0.1-1.3,0.5-3.6"/>
	<path class="st1" d="M59.3,46.3c4.3,0.2,5.2,0.9,5.9,1.2c0.8,0.3,1.4,0.3,2,0.3c0.6,0,1.2,0.1,1.9,0c0.7-0.1,1.6-0.3,2.2-0.5
		c0.6-0.2,0.8-0.3,1-0.4c0.2-0.2,0.3-0.4,0.6-1"/>
	<path class="st1" d="M49,31.8c1.8-2.3,3.2-3.3,3.6-4.3"/>
	<path class="st1" d="M58.1,32.8c-0.8,0.6-1.7,0.6-2.3,0.4c-0.6-0.2-0.9-0.6-1.3-1c-0.4-0.4-0.7-0.9-1.1-1.7
		c-0.3-0.8-0.7-1.9-0.8-2.6c-0.2-0.8-0.2-1.3-0.2-1.8c0-0.5,0-1.1,0.3-1.7c0.3-0.5,0.8-1,1.3-1.3c0.5-0.2,1.1-0.2,1.6-0.2
		c0.5,0.1,0.8,0.3,1.2,0.5c0.4,0.2,0.7,0.5,1,0.9c0.3,0.4,0.5,0.8,0.7,1.1c0.2,0.2,0.5,0.2,0.8,0.4c0.3,0.2,0.7,0.5,0.9,0.9
		c0.2,0.4,0.3,0.9,0.4,1.3c0.1,0.4,0.2,0.8,0.4,0.9c0.2,0.2,0.5,0.1,0.8,0.1c0.2,0,0.4,0,0.7,0c0.4,0,1,0,1.3-0.1
		c0.3-0.1,0.3-0.2,0.2-0.5c-0.1-0.3-0.2-0.7-0.2-1.1c0-0.4,0.2-0.8,0.4-1.3c0.2-0.5,0.6-0.9,0.9-1.3c0.3-0.3,0.7-0.5,1-0.7
		c0.3-0.2,0.5-0.6,0.5-1c0.1-0.5,0-1.1-0.1-1.6c-0.1-0.5-0.3-1-0.3-1.5c0-0.5,0.2-1,0.5-1.5c0.2-0.4,0.5-0.8,0.7-1.5
		c0.2-0.7,0.4-1.6,0.2-2.6"/>
	<path class="st1" d="M67.6,14.4c1.7,0.5,2.7,0.7,3.5,0.7c0.8-0.1,1.4-0.4,2-0.4c0.7,0,1.5,0.3,1.9,0.6c0.5,0.3,0.6,0.5,0.9,0.7
		c0.3,0.3,0.7,0.5,1,0.7c0.3,0.1,0.5,0.1,0.7,0c0.2-0.1,0.5-0.3,0.8-0.6c0.3-0.2,0.6-0.4,2.3-1.1"/>
	<path class="st1" d="M61.7,48.1c0,1.7-0.3,2.2-0.6,2.5c-0.3,0.3-0.4,0.6-0.6,0.7c-0.2,0.2-0.4,0.3-0.7,0.4
		c-0.2,0.1-0.5,0.1-0.8,0.3c-0.3,0.2-0.5,0.6-1.2,1.9"/>
	<path class="st1" d="M33,54.8c-1.2,3.1-2.1,3.6-2.5,4c-0.4,0.4-0.3,0.8,0.5,1.1c0.9,0.3,2.5,0.5,3.8,0.7c1.3,0.2,2.3,0.2,3.1,0.4
		c0.8,0.2,1.5,0.5,2.2,0.9c0.7,0.4,1.3,1,2.5,1.8c1.2,0.8,2.9,1.8,3.2,4.2"/>
	<path class="st1" d="M46.3,53.9c2.9,2.9,6,5.4,9.4,7.7"/>
	<path class="st1" d="M60.5,60.3c3.4-5.6,4.1-6.8,5-8.3c0.9-1.4,2.1-3.1,2.4-4.2"/>
	<path class="st1" d="M218.2,249.5c-0.6,0.9-0.6,1.3-0.4,1.8c0.2,0.5,0.5,1,0.5,5.7"/>
	<path class="st1" d="M201.4,228.6c11.5,16.6,13,18.1,13.8,19.1c0.8,1,0.9,1.4,0.9,1.8c0,0.4,0,0.6,0,1.1c0,0.5-0.1,1.2,0,2.1
		c0.1,0.9,0.2,1.9,0.6,3.2c0.4,1.3,1,2.8-1.3,5.1"/>
	<path class="st1" d="M19,121.4c1.7,5.9,2.5,7.4,3,8.4c0.6,1,0.9,1.6,1.2,2.1c0.3,0.5,0.6,1,0.9,1.6c0.3,0.6,0.7,1.4,1.1,2.2
		c0.4,0.7,0.8,1.4,1.2,1.9c0.4,0.6,0.9,1,1.3,1.5c0.4,0.5,0.8,1.1,1,1.8c0.2,0.7,0.1,1.6,0.1,2.6c0,1,0.2,2.1,0.3,3
		c0.1,0.9,0.2,1.6,0.3,2.2c0.1,0.6,0.3,1.1,0.4,1.4c0.1,0.4,0.1,0.7,0,0.9c-0.1,0.2-0.2,0.3-0.4,0.3c-0.2,0-0.6-0.1-0.9-0.2
		c-0.3-0.1-0.6-0.3-0.9-0.6c-0.3-0.3-0.7-0.7-1-1.4c-0.3-0.7-0.6-1.5-0.7-2.5c-0.1-1-0.1-2-0.2-2.6c-0.1-0.7-0.3-0.9-0.6-0.9
		c-0.2,0.1-0.4,0.5-0.5,1.1c-0.1,0.6-0.2,1.5-0.2,2.3c0,0.8,0.1,1.6,0.3,2.8c0.2,1.2,0.6,2.7,1,3.7c0.4,1,0.9,1.6,1.3,2.1
		c0.4,0.6,0.9,1.1,0.9,1.5c0,0.4-0.4,0.5-1,0.6c-0.6,0.1-1.3,0.1-2.1,0c-0.8-0.1-1.7-0.4-2.7-0.6c-1-0.2-2.2-0.5-2.9-1.9"/>
	<path class="st1" d="M12.4,145.8c0.6-4.1,1.3-5.3,2.1-6.2c0.8-0.9,1.7-1.6,2.6-2c0.9-0.4,1.8-0.6,2.8-0.6c1-0.1,2-0.1,3.2-0.2
		c1.2-0.1,2.5-0.4,3.3,0.8"/>
	<path class="st1" d="M19.3,144.1c-0.1,1.3,0.3,1.7,0.6,2c0.3,0.3,0.5,0.6,0.7,1c0.1,0.4,0.1,0.9,0.2,1.3c0.1,0.4,0.3,0.8,0.5,1.5
		c0.2,0.7,0.4,1.6,0.7,2.3c0.2,0.7,0.5,1.3,0.7,1.8c0.3,0.5,0.5,1,2.4,3.2"/>
	<path class="st1" d="M16,145.2c0.6,3.5,0.9,4.2,1.2,4.6c0.3,0.4,0.5,0.7,0.7,1c0.2,0.3,0.3,0.7,0.3,1.4c0,0.7-0.2,1.8,1.2,2.5"/>
	<path class="st1" d="M14.5,146.8c0.3,2.1,0.6,2.8,0.9,3.4c0.3,0.6,0.5,1.2,0.8,1.9c0.4,0.7,0.9,1.5,1.7,1.8"/>
	<path class="st1" d="M24.4,134.1c10.9,2.7,17.1,4.1,22.2,4.6c5.1,0.5,8.9,0.2,12.8-0.1c3.9-0.2,7.7-0.3,15.1-0.2"/>
	<path class="st1" d="M73.9,135.3c-12.2,0.8-17.7,0.5-21.6,0.1c-4-0.4-6.5-0.9-10.4-1.6c-3.9-0.8-9.2-1.8-20-4.1"/>
	<path class="st1" d="M21.5,128.6c5,0.5,11.7,0.2,16,0.1c4.3-0.1,6.2-0.1,7.7-0.1c1.5,0.1,2.8,0.2,4.6,0.2c1.8,0,4.3-0.2,7.2-0.5
		c2.9-0.4,6.2-0.9,9.5-1.1c3.3-0.2,6.6,0,9.6-0.6"/>
	<path class="st1" d="M57,101.2c0.2,4.6-0.2,5.7-0.6,6.5c-0.4,0.8-0.8,1.5-1.1,2.3c-0.3,0.8-0.6,1.7-0.7,2.7c-0.1,1,0,2,0,3.1
		c0,1.1,0.1,2.3,0,3.4c-0.1,1.1-0.3,2.1-0.4,3.4c-0.1,1.3-0.1,3.1,0.6,5.9"/>
	<path class="st1" d="M56.5,100.6c0.4,4.2-0.4,5.2-1.1,6.5c-0.7,1.4-1.5,3.2-1.8,5c-0.3,1.9-0.2,3.9-0.3,6.6
		c-0.1,2.7-0.5,6.2,0.5,9.9"/>
	<path class="st1" d="M54.4,121.3c13.8-1.2,21.8-2.1,24.1-2.7"/>
	<path class="st1" d="M54.2,123.3c6.4-0.2,9.8-0.5,13.2-0.9c3.4-0.4,6.8-0.8,11.2-1.6"/>
	<path class="st1" d="M54.3,125.3c9-0.4,13.7-0.7,17.4-0.9c3.7-0.2,6.3-0.1,6.7-1.6"/>
	<path class="st1" d="M19,121.4c7.1,0.8,9.9,0.7,12.8,0.5c2.9-0.2,5.8-0.5,8-0.6c2.2-0.1,3.5-0.1,5.7,0c2.1,0.1,5,0.3,7.7,0.2"/>
	<path class="st1" d="M19.8,123.9c6.2,0.5,9.5,0.5,11.7,0.4c2.2-0.1,3.4-0.3,4.8-0.3c1.4-0.1,2.9-0.1,4.2,0c1.3,0.1,2.5,0.2,4.5,0.1
		c2-0.1,4.9-0.4,8.1-0.6"/>
	<path class="st1" d="M20.3,125.4c9.7,1,14,0.6,16.9,0.4c2.9-0.2,4.5-0.3,6.1-0.3c1.6,0,3.1,0,10,0.1"/>
	<path class="st1" d="M57.4,25c-1.2-1.2-1.9-1.2-2.2-1c-0.4,0.1-0.5,0.3-0.7,0.5c-0.2,0.2-0.4,0.5-0.6,0.8c-0.2,0.4-0.2,0.9-0.1,1.3
		c0.1,0.4,0.4,0.8,0.6,1.1c0.2,0.3,0.2,0.6,0.2,0.9c0,0.3-0.1,0.5,0.1,0.9c0.2,0.3,0.6,0.7,0.8,0.9c0.2,0.2,0.3,0.2,0.4,0.2
		c0.1,0.1,0.3,0.2,0.6,0.1c0.3,0,0.7-0.2,1-0.6c0.3-0.4,0.4-0.9,0.3-1.3c-0.1-0.4-0.3-0.6-0.7-0.9c-0.4-0.2-0.8-0.4-0.8-0.5
		c0-0.1,0.6-0.1,1,0c0.4,0.1,0.6,0.3,0.7,0.2c0.1,0,0.1-0.3,0-0.6c-0.1-0.3-0.5-0.8-0.5-0.8"/>
	<path class="st1" d="M74.5,34.3c-0.7,0.9-0.6,1.1-0.5,1.2c0.1,0.2,0.3,0.3,0.5,0.4c0.2,0.1,0.5,0.2,0.8,0.2c0.3,0,0.5,0,0.7,0
		c0.2,0,0.4,0.1,0.9,0.7"/>
	<path class="st1" d="M73.5,40.3c-0.1,0.8-0.3,1-0.4,1.1c-0.1,0.1-0.3,0.1-0.4,0.1c-0.2,0-0.4-0.1-0.5-0.2c-0.2-0.1-0.3-0.3-0.4-0.4
		c-0.1-0.2-0.2-0.4-0.4-0.5c-0.1-0.2-0.2-0.3-0.3-0.5c-0.1-0.2-0.2-0.4-0.3-0.6c-0.1-0.2-0.2-0.3-0.5-0.5c-0.2-0.2-0.5-0.5-0.7-0.7
		c-0.2-0.2-0.2-0.3-0.2-0.4c0-0.1,0-0.1,0.1,0c0.1,0,0.2,0.1,0.4,0.1c0.1,0.1,0.3,0.1,0.6,0.3c0.3,0.1,0.8,0.3,1.7,0.6"/>
	<path class="st1" d="M69.2,37.2c0.4-0.7,1-0.8,1.5-1"/>
	<path class="st1" d="M71.3,28.2c1.8,1,2,1.1,2.1,1.3c0.1,0.2,0.3,0.3,0.5,0.4c0.2,0.1,0.4,0,0.6-0.1c0.2-0.1,0.4-0.3,0.6-0.5
		c0.1-0.2,0.2-0.4,0.2-0.9"/>
	<path class="st1" d="M76.9,26.9c-0.2,0.7-0.5,0.8-0.8,0.8c-0.2,0-0.5,0-0.8,0c-0.3,0-0.8,0-1.2,0c-0.4,0-0.7,0-1.3,0.1
		c-0.6,0.1-1.4,0.4-2.4,0.7"/>
	<path class="st1" d="M83.5,32.9c1.6-0.1,1.7,0.3,1.7,0.8c0,0.5-0.1,0.9-0.3,1.3c-0.2,0.4-0.5,0.8-0.8,1.2c-0.3,0.4-0.6,0.9-0.8,1.3
		c-0.3,0.4-0.6,0.8-0.7,1.2c-0.2,0.4-0.2,0.7-0.1,0.9c0.1,0.2,0.3,0.4,0.6,0.6c0.3,0.2,0.6,0.4,0.9,0.5c0.2,0.1,0.4,0.1,0.6,0
		c0.1-0.1,0.3-0.2,0.5-0.4c0.2-0.2,0.5-0.4,0.7-0.5c0.2-0.1,0.3-0.1,0.5,0c0.2,0.1,0.5,0.2,0.7,0.3c0.2,0.1,0.3,0.2,0.4,0.2
		c0.1,0,0.2,0,0.4,0c0.1,0,0.3,0,0.5-0.1c0.2-0.1,0.4-0.2,0.5-1.1"/>
	<path class="st1" d="M88.2,30.8c-0.4,0.9-0.3,1,0.1,1.1c0.4,0.1,0.9,0.1,1.5,0c0.6,0,1.1-0.1,1.7-0.1c0.5,0,1.1,0,1.6,0.1
		c0.5,0.1,0.9,0.3,1.1,0.4c0.3,0.1,0.4,0.2,0.6,0.3c0.2,0,0.5,0,0.6,0c0.1-0.1,0.1-0.2-0.2-0.4c-0.2-0.2-0.6-0.4-1-0.6
		c-0.4-0.2-0.9-0.3-1.4-0.6c-0.6-0.2-1.3-0.5-3.1-0.5"/>
	<path class="st1" d="M89.4,34c-0.1,0.5-0.1,0.7-0.1,0.8c0,0.1,0.1,0.2,0.1,0.3c0,0.1,0.1,0.1,0.2,0.1c0.1,0,0.3-0.2,0.5-0.2
		c0.2-0.1,0.5-0.1,0.8-0.1c0.3,0,0.7-0.1,1.1-0.1c0.4,0,0.7,0,1.4,0.2"/>
	<path class="st1" d="M89.2,33.4c-0.1,0.4-0.3,0.5-0.3,0.6c-0.1,0.1-0.1,0.1,0,0.1c0.1,0,0.3,0,0.5-0.1c0.2,0,0.3-0.1,0.6-0.2
		c0.2-0.1,0.6-0.2,0.8-0.2c0.3,0,0.5,0,0.7,0.1c0.3,0.1,0.6,0.3,0.8,0.4c0.2,0.1,0.4,0.2,0.6,0.3c0.2,0.1,0.3,0.2,0.6,0.3"/>
	<path class="st1" d="M85.8,25.3c0.7,0.6,1.2,0.6,1.6,0.5c0.4-0.1,0.9-0.2,1.3-0.3c0.4-0.2,0.7-0.4,1.1-0.7c0.3-0.2,0.6-0.4,1.2-0.5
		c0.6-0.2,1.5-0.3,2.6-0.5c1.1-0.1,2.3-0.1,3.3-0.1c1,0,1.7,0,2.4,0.1c0.6,0.1,1.2,0.2,1.4,0.4c0.3,0.2,0.2,0.3,0.1,0.5
		c-0.1,0.2-0.4,0.4-0.6,0.6c-0.2,0.2-0.4,0.5-0.4,0.8c0,0.3,0.2,0.5,0.4,0.8c0.2,0.2,0.3,0.5,1,0.9c0.7,0.5,1.9,1.1,2.7,1.7
		c0.8,0.6,1.2,1.1,1.4,1.7c0.1,0.7-0.1,1.5-0.5,2.3c-0.4,0.8-1,1.5-1.5,2.1c-0.5,0.6-1,0.9-1.3,1.4c-0.4,0.5-0.6,1-0.5,1.4
		c0.1,0.4,0.5,0.5,0.9,0.7c0.3,0.1,0.6,0.2,0.8,0.1c0.2-0.1,0.3-0.6,0.6-0.9c0.3-0.3,0.8-0.6,1.2-0.8c0.4-0.2,0.7-0.3,1.2-0.3
		c0.5-0.1,1.1-0.1,1.5,0c0.4,0.1,0.7,0.2,0.9,0.4c0.3,0.2,0.5,0.6,0.8,1.1c0.2,0.5,0.5,1,0.5,1.6c0.1,0.6-0.1,1.1-0.3,1.7
		c-0.2,0.5-0.5,1-0.7,1.4c-0.3,0.4-0.5,0.7-0.7,0.9c-0.2,0.3-0.3,0.5-0.5,0.7c-0.2,0.2-0.3,0.4-0.3,0.9c0,0.5,0.2,1.3,0.3,3.9"/>
	<path class="st1" d="M107.4,45.3c-1,0.7-1.7,1-2.3,1.2c-0.6,0.1-1.3,0-1.6-0.2c-0.3-0.2-0.3-0.4-0.3-0.7c0.1-0.3,0.2-0.6,0.4-1.9"
		/>
	<path class="st1" d="M104.4,42.9c1-0.5,1.2-0.4,1.5-0.5c0.2-0.1,0.4-0.3,0.3-0.5c-0.1-0.2-0.6-0.3-1-0.4c-0.4,0-0.7,0-0.8-0.1
		c-0.2-0.1-0.2-0.4-0.1-0.5c0.1-0.2,0.2-0.3,0.4-0.3c0.2-0.1,0.6-0.1,1-0.1c0.4,0,1,0.1,1.4,0.2c0.4,0,0.5,0,0.6-0.3
		c0.1-0.2,0.2-0.7,0-1c-0.2-0.4-0.6-0.7-1.6-0.9c-0.9-0.2-2.4-0.3-2.6,1.3"/>
	<path class="st1" d="M56.9,59.3c-1.2,2.3-1.2,2.6-1.1,3c0.1,0.4,0.3,0.9,0.4,1.2c0.1,0.3,0.2,0.5,0.1,0.9c-0.1,0.4-0.4,0.9-0.7,1.3
		c-0.2,0.5-0.4,0.9-0.4,1.2c0,0.3,0.1,0.5,0.1,2.8c0.1,2.3,0.2,6.7,0.2,9c0.1,2.3,0.1,2.6,0.3,2.8c0.2,0.2,0.6,0.2,1,0.2
		c0.4,0,0.9,0,1.1-0.1c0.3-0.2,0.4-0.5,0.6-0.7c0.2-0.2,0.4-0.3,0.7-0.4c0.3-0.1,0.7-0.3,1.1-0.6c0.4-0.4,0.7-0.9,1-1.6
		c0.3-0.7,0.5-1.5,0.7-2.3c0.2-0.8,0.4-1.6,0.4-2.4c0-0.7-0.2-1.3-0.5-1.8c-0.3-0.5-0.9-0.8-1.3-1c-0.5-0.3-1-0.4-1.3-0.7
		c-0.4-0.2-0.6-0.5-0.6-0.8c0-0.3,0.1-0.6,0.4-0.8c0.2-0.2,0.5-0.2,0.9-0.2c0.4,0,0.9,0.1,1.3-0.3c0.4-0.4,0.8-1.3,1-2.3
		c0.2-1,0.2-2-0.3-3.1c-0.5-1.1-1.4-2.3-3.8-3.7"/>
	<path class="st1" d="M82.1,47.9c0.4,3.2,0.7,3.6,1.1,3.8c0.4,0.3,0.8,0.4,1.1,0.5c0.3,0.1,0.6,0.2,1,0.4c0.4,0.2,0.8,0.4,1.4,0.8
		c0.6,0.4,1.2,0.8,1.7,1.2c0.5,0.4,0.8,0.7,1.3,1.6c0.5,0.9,1.1,2.4,1.5,3.3c0.3,1,0.3,1.4,0.7,1.9c0.4,0.4,1.1,0.9,1.6,1.1
		c0.5,0.2,0.8,0.2,1.1,0.4c0.3,0.2,0.6,0.6,0.9,1c0.4,0.5,0.8,1,1.5,1.8"/>
	<path class="st1" d="M83.1,50.3c1.5,0.9,1.8,0.7,2.1,0.5c0.3-0.2,0.4-0.3,0.7-0.4c0.3-0.1,0.6,0,0.9,0c0.3,0.1,0.6,0.2,1,0.3
		c0.4,0.1,1,0.1,1.6,0.1c0.6-0.1,1.1-0.3,1.8-0.6"/>
	<path class="st1" d="M93.5,50.2c4.4-0.2,5.1,0,5.8-0.4c0.8-0.4,1.6-1.4,2.6-2.7"/>
	<path class="st1" d="M83.5,42.8c0.8,0.2,1.1,0,1.4-0.1c0.3-0.1,0.4-0.2,0.7-0.2c0.3,0,0.6,0,1.1,0.1c0.5,0,1,0.1,1.6,0.1
		c0.6,0,1.1,0.1,1.6,0.1c0.5,0,0.9,0,1.3,0c0.4,0,0.7,0,0.9,0c0.2,0,0.2-0.1,0.2,0c0,0.1-0.2,0.3-0.5,0.4c-0.3,0.1-0.9,0.2-1.3,0.3
		c-0.4,0.1-0.7,0.3-1.2,0.4c-0.6,0.2-1.5,0.4-2.1,0.5c-0.6,0.1-0.8,0-1.2,0c-0.3,0-0.7-0.1-1,0c-0.3,0-0.7,0.1-0.9,0.1
		c-0.2,0.1-0.4,0.1-0.5,0.1c-0.2,0-0.4,0-1.6-0.6"/>
	<path class="st1" d="M91.3,40.6c0.9,1,0.9,1.5,1,1.8c0.1,0.3,0.2,0.3,0.2,0.5c0,0.2-0.1,0.6-0.1,1.5"/>
	<path class="st1" d="M82.6,34.5c-0.1,0.5,0,0.6,0,0.7c0,0.1,0.1,0.2,0.2,0.2c0.1,0.1,0.1,0.1,0.2,0.1c0.1,0,0.3-0.1,0.4-0.2
		c0.2,0,0.3,0,0.3,0"/>
	<path class="st1" d="M82.5,33.9c-0.2,0.3-0.1,0.4,0.1,0.5c0.2,0,0.5,0,0.8,0c0.3,0,0.7-0.1,0.9-0.1"/>
	<path class="st1" d="M77.8,104.7c-0.3-4.6,0.3-6.4,0.8-7.5c0.5-1.1,1.1-1.5,1.6-2c0.5-0.6,0.9-1.3,1.2-2c0.2-0.7,0.2-1.4,0.3-3.2
		c0-1.8,0.1-4.7,0.1-6.7c0-2-0.2-2.9-0.2-3.7c0-0.8,0-1.4,0.6-2.7c0.5-1.3,1.5-3.4,2.3-4.6c0.8-1.2,1.3-1.6,1.7-2.4
		c0.5-0.8,0.8-2.1,2.1-4.1c1.3-2,3.5-4.7,3.3-5.3"/>
	<path class="st1" d="M89.6,63.5c4.4,2.4,5.2,3.9,5.9,5.3c0.7,1.4,1.2,2.8,1.8,4.8c0.6,2.1,1.1,4.9,1.6,6.6c0.5,1.7,0.8,2.4,1,2.9
		c0.2,0.5,0.3,1,0.4,1.3c0.1,0.3,0.3,0.6,0.5,0.4c0.2-0.1,0.4-0.6,0.5-1.5c0.2-0.9,0.3-2.2,0.9-3.5c0.5-1.3,1.5-2.5,2.1-3.7
		c0.7-1.2,1-2.4,1.5-3.6c0.5-1.2,1.1-2.3,1.4-3.8c0.3-1.6,0.4-3.6,0.4-5.9c-0.1-2.3-0.4-4.9,0.1-10.1"/>
	<path class="st1" d="M87.6,66.4c4.7,5.3,5.3,6,5.8,6.7c0.4,0.8,0.7,1.7,1,3.1c0.3,1.4,0.6,3.4,1.1,5.2c0.5,1.8,1.1,3.5,1.4,4.7
		c0.4,1.2,0.5,1.9,0.6,2.7c0.1,0.8,0.2,1.8,0.2,2.9"/>
	<path class="st1" d="M78.2,90.8c-3.4,5.4-6.2,6.9-8.2,7.9c-2,1-3.1,1.6-4.2,2.4c-1.1,0.7-2.3,1.7-3.2,2.4c-0.9,0.7-1.5,1.2-2.3,2.3
		c-0.8,1.1-1.8,3-2.1,3.8c-0.3,0.9,0.3,0.8,0.6,0.5c0.4-0.2,0.5-0.6,1.6-2.1c1-1.5,2.9-4.1,5.3-5.4"/>
	<path class="st1" d="M78,98.7c-2,4.1-2.6,5.2-3.1,5.9c-0.5,0.7-0.8,1-1.1,1.3c-0.3,0.4-0.6,0.8-0.9,1.2c-0.2,0.4-0.4,0.9-0.5,0.3
		c-0.1-0.5,0-2,1.4-4.6"/>
	<path class="st1" d="M20.3,57.1c3.7,4.4,3.8,6.9,3.6,8.8c-0.2,1.9-0.6,3.4-0.8,4.7C23,72,23,73.3,23.3,75.2
		c0.3,1.9,0.9,4.5,1.1,6.4c0.2,1.9,0.1,3.1-0.8,0.5c-0.9-2.6-2.7-8.9-1.2-15.1"/>
	<path class="st1" d="M21.4,93.2c1.3-0.8,1.8-1.8,2.2-2.8c0.4-1,0.8-2.1,0.8-6.8"/>
	<path class="st1" d="M13.4,75.5c1.8,5.2,2.6,6.7,3.2,8.6c0.5,1.9,0.7,4.2,0.8,5.5c0,1.4-0.1,1.8-0.4,1.2c-0.3-0.6-0.9-2.3-2.6-9.4"
		/>
	<path class="st1" d="M16.7,95.7c-2.5,1.2-4.6,0.4-6.1,0.3c-1.5-0.1-2.5,0.5-1.7,0.9c0.8,0.4,3.4,0.6,5.4,0.9"/>
	<path class="st1" d="M97.7,91.8c0.3,3.2,0.9,4.7,1.3,6.1c0.3,1.4,0.4,2.7,0.7,4.7c0.3,2,0.9,4.6,1.7,6.7c0.8,2.1,1.7,3.8,2.2,6.5
		c0.5,2.8,0.5,6.6,0.6,10.7c0.1,4,0.2,8.2-0.1,11.2c-0.3,3-1.1,4.7-0.9,6.7c0.2,2.1,1.5,4.4,2.5,6.8c1,2.4,1.6,4.7,2,6.5
		c0.4,1.8,0.5,3,0.5,3.8c0,0.8-0.1,1.1,0.1,1.3c0.2,0.2,0.7,0.2,1.5,0c0.7-0.1,1.7-0.4,3.5-1.1c1.8-0.6,4.5-1.6,6.8-2.7
		c2.3-1.1,4.2-2.4,6.1-3.7c1.9-1.3,3.6-2.7,5.3-4.1c1.7-1.3,3.3-2.6,5.9-3.5c2.7-0.9,6.5-1.4,9.6-0.2"/>
	<path class="st1" d="M206.1,229.3c12.2,17.3,12.9,18,14.2,18.3c1.3,0.3,3.1,0.3,4.5,0.1c1.4-0.1,2.4-0.4,3.2-0.5
		c0.7-0.1,1.2-0.1,1.8-0.1c0.6,0,1.5,0,2.4,0.2c0.9,0.2,1.9,0.5,4.8,0.4"/>
	<path class="st1" d="M110.5,55.3c0,10.7,0,13.9,0,15.8s0,2.5-0.5,3.6c-0.5,1-1.6,2.5-2.6,4.2c-1.1,1.6-2.2,3.4-2.9,4.7
		c-0.7,1.2-0.9,1.9-1,2.7c-0.2,0.8-0.3,1.6-0.3,2.5c0,0.9,0.1,1.7,0.2,3.1c0.2,1.3,0.4,3.1,0.5,4.9c0.1,1.8,0,3.5,0.2,5.3
		s0.8,3.7,1.3,5c0.5,1.4,1,2.2,1.5,3c0.5,0.8,0.9,1.5,1.1,2.9c0.2,1.4,0.3,3.5,0.4,6.9c0.1,3.3,0.3,8,0.5,11.4
		c0.2,3.4,0.5,5.7,0.4,7.7c0,2-0.4,3.7-0.5,4.9c-0.2,1.2-0.2,1.9,0.1,2.7c0.3,0.8,0.8,1.8,1.6,3.9c0.9,2,2.1,5.1,3.5,11.1"/>
	<path class="st1" d="M87.3,159.3c4.1,1.4,6.2,1.8,7.6,1.9c1.5,0.1,2.4-0.1,3.5-0.3c1.1-0.2,2.3-0.5,3.3-0.5c1,0,1.6,0.3,2.1,0.5
		c0.5,0.2,0.8,0.3,4.3,0.2"/>
	<path class="st1" d="M84.8,82.5c4.1,5.4,5.3,7.2,8.8,8.2"/>
	<path class="st1" d="M84.8,95.6c4.8,5.8,6,6.1,7.2,6.5c1.2,0.4,2.5,0.8,5,2.7"/>
	<path class="st1" d="M141.6,116.6c-2.2-0.1-2.6-0.8-2.8-1.4c-0.2-0.5-0.2-0.9-0.1-1.2c0.1-0.4,0.3-0.7,0.4-1.2
		c0.1-0.4-0.1-1-0.3-1.6c-0.3-0.6-0.7-1.4-1-2.1c-0.3-0.7-0.6-1.2-0.9-2.3c-0.3-1.1-0.6-2.6-0.8-3.6c-0.3-1-0.5-1.5-0.9-2.6
		c-0.4-1.1-1-2.8-1.5-4.1c-0.5-1.3-0.9-2.1-1.4-3.1c-0.5-1-1-2.2-1.1-3.6c-0.1-1.4,0.3-3-0.1-3.3"/>
	<path class="st1" d="M47.6,188.2c-0.6-7.2-0.6-9-0.6-10.7c0-1.8,0.1-3.5,0.3-5c0.2-1.5,0.4-2.9,0.4-4c0-1.2-0.2-2.2-1.6-12.8"/>
	<path class="st1" d="M54.5,153.9c5.2-3.9,7.9-4.4,9.5-4.7c1.6-0.3,2.1-0.2,2.5,0c0.4,0.2,0.6,0.7-4.2,1.9"/>
	<path class="st1" d="M121.7,178.7c-0.5-4.3-0.9-5.3-1.2-6.1c-0.3-0.8-0.5-1.4-0.5-1.8c0-0.4,0.2-0.6,0.6-0.7c0.4,0,1.1,0.1,2.2-0.2
		c1.1-0.3,2.7-1,3.8-1.5c1.1-0.5,1.8-0.8,3.2-1.1c1.4-0.3,3.5-0.5,4.1-0.9c0.6-0.4-0.4-1.1-3-0.6"/>
	<path class="st1" d="M120.7,168.9c4.2-2.3,5.1-2.8,5.9-3.3c0.8-0.5,1.4-1.1,2.5-1.6c1-0.5,2.4-1,5.7-0.5"/>
	<path class="st1" d="M116.6,170.3c-5.7-1.2-9.1,0.5-13,0.5"/>
	<path class="st1" d="M107,230.5c6.1-4.7,7.9-5.4,9.2-5.6c1.4-0.2,2.3,0.2,2.9,0.5c0.6,0.3,0.8,0.7,0.6,0.9c-0.2,0.2-1,0.2-3.1,0"/>
	<path class="st1" d="M114.9,220.5c-5.5-0.5-8.8-0.5-9.9,0.1"/>
	<path class="st1" d="M135,217.9c5.9,0.1,6.9,1.1,7.6,1.9c0.7,0.8,1.1,1.3,1.4,1.7c0.3,0.4,0.4,0.8-1.9-0.9"/>
	<path class="st1" d="M148.9,203.1c-1.5-2-2.3-2.1-2.5-1.9c-0.2,0.2,0.2,0.7,0.5,1c0.3,0.3,0.6,0.5,0.9,0.9c0.2,0.4,0.4,1.1,0.4,2.6
		"/>
	<path class="st1" d="M133.5,205c1.2,0.4,1.1,0.7,0.7,1c-0.4,0.3-1,0.5-1.3,0.8c-0.4,0.3-0.4,0.6-0.6,1.2c-0.2,0.6-0.4,1.6-1.8,2.7"
		/>
	<path class="st1" d="M124.1,59.8c-0.3,1.8-1,2.9-1.4,3.5c-0.4,0.6-0.5,0.8-0.4,1.1c0.2,0.3,0.7,0.6,1.2,0.9c0.5,0.2,1,0.3,1.5,0.2
		c0.5-0.1,0.8-0.3,1.2-0.8c0.4-0.5,0.7-1.1,1-1.9c0.3-0.8,0.5-1.7,0.7-2.3c0.2-0.6,0.4-0.9,0.7-1.2c0.3-0.2,0.6-0.4,1.1-0.4
		c0.4,0,1,0.1,1.3,0.3c0.4,0.2,0.5,0.5,0.5,2.1"/>
	<path class="st1" d="M127.7,61.3c1.9,1.3,2.5,1.2,2.9,1.1c0.4-0.1,0.5,0,0.7,0.1c0.1,0.2,0.3,0.5,0.2,0.9c-0.1,0.4-0.3,0.8-0.6,1.5
		c-0.3,0.7-0.6,1.7-1.1,2.4c-0.5,0.8-1.2,1.3-1.9,1.9c-0.7,0.6-1.5,1.2-1.9,1.7c-0.4,0.5-0.5,0.9-0.5,1.3c0,0.3,0.1,0.6,0.6,0.6
		c0.5,0.1,1.5,0,2.5-0.5c1.1-0.5,2.3-1.5,3.1-2.3c0.8-0.8,1.3-1.5,1.8-2.1c0.4-0.5,0.8-0.9,1.4-1.7c0.6-0.8,1.4-2,1.3-4.3"/>
	<path class="st1" d="M134.3,67c-0.8,3.2-1.7,4.2-2.4,5c-0.7,0.7-1.3,1.2-1.8,1.6c-0.5,0.4-0.9,0.8-1.1,1.2c-0.2,0.4-0.3,0.7-0.3,1
		c0,0.3,0,0.5,0.1,0.7c0.1,0.2,0.4,0.3,0.9,0.1c0.5-0.2,1.2-0.7,1.9-1.2c0.6-0.5,1.2-1.1,1.7-1.6c0.6-0.5,1.1-0.9,1.6-1.2
		c0.4-0.4,0.7-0.7,1.1-1.1c0.3-0.4,0.8-1,1.1-1.4c0.4-0.5,0.8-0.9,1.7-3.6"/>
	<path class="st1" d="M137.2,69.6c-0.6,3.1-1.9,4.6-2.7,5.6c-0.7,0.9-0.8,1.3-0.8,1.6c0,0.3,0.2,0.7,0.6,0.8c0.4,0.1,1,0.1,1.6-0.5
		c0.6-0.6,1.3-1.8,2.1-3.1c0.8-1.3,1.7-2.7,2.3-5.5"/>
	<path class="st1" d="M141.9,68.4c-0.2,2.9-0.4,4-0.5,5c-0.2,1-0.4,1.8-0.6,2.3c-0.2,0.5-0.4,0.8-0.7,1c-0.3,0.2-0.8,0.2-1.1,0.2
		c-0.3,0-0.4-0.1-0.2-0.6c0.1-0.4,0.4-1.2,0.6-1.8c0.2-0.7,0.3-1.3,0.5-3.7"/>
	<path class="st1" d="M239.7,252.4c-2.5-1.4-3.9-2.1-4.8-2.2c-0.9-0.2-1.5,0.2-1.8,0.5c-0.3,0.3-0.5,0.5-0.8,0.6
		c-0.3,0.1-0.9,0.1-1.7,0.1c-0.8,0-1.8,0.1-2.6,0.2c-0.8,0.1-1.4,0.3-2.8,1.4"/>
	<path class="st1" d="M140.3,80.7c0.9,4.2,0.9,5.5,0.6,6.6c-0.3,1.1-0.9,2-1.2,4.8"/>
	<path class="st1" d="M108.9,104.1c5.4,4.6,8.4,5.8,11,6.7c2.7,0.9,5.1,1.3,7.6,1.4c2.5,0.1,5.1-0.3,6.3-0.6c1.2-0.3,1-0.6-0.3-0.5
		c-1.3,0-3.7,0.4-11-1.2"/>
	<path class="st1" d="M82.2,98.3c7.8,8.9,10,10.4,12,11.8c2.1,1.4,4.1,2.6,5.2,3.5c1.1,0.9,1.4,1.5,2,2.2c0.6,0.7,1.4,1.4,1.5,2
		c0.1,0.6-0.7,0.9-1.7,0.4c-1.1-0.5-2.4-1.9-7.1-5.5"/>
	<path class="st1" d="M141.6,116.6c5.5-1.7,7.5-2.5,8.8-3.1c1.3-0.7,2-1.3,3-3.1"/>
	<path class="st1" d="M140.7,111.2c4.4-0.4,5.5-1.3,6.4-2.2c0.9-0.9,1.5-1.8,2-2.4c0.5-0.6,1-1,1.3-1.4c0.3-0.4,0.4-0.8,0.2-0.7
		c-0.2,0.1-0.8,0.6-1.5,1.2c-0.6,0.6-1.3,1.3-1.9,2c-0.6,0.7-1,1.2-2.5,1.7"/>
	<path class="st1" d="M35.4,267.2c5.8-0.2,7,0.2,8,0.2c1,0,1.9-0.2,2.6-0.6c0.6-0.4,1-0.8,1.3-1.1c0.3-0.3,0.5-0.5,0.6-1
		c0.1-0.4,0-1,0-2.4c0-1.4-0.1-3.7,0.2-8.1c0.3-4.4,0.8-10.8-1.2-15.5"/>
	<path class="st1" d="M48,264.8c0.6,3,0.1,4.4-0.2,5.7c-0.3,1.3-0.6,2.4-0.6,3.4c0,1,0.2,2,0,3.5c-0.2,1.6-0.8,3.8-0.3,5.8"/>
	<path class="st1" d="M46.7,281.2c0.8-1,1.6-1.6,2.7-2.1c1-0.5,2.2-0.9,3.5-1.7c1.2-0.8,2.5-1.9,3.3-2.8c0.8-0.9,1.2-1.6,1.7-2.5
		c0.5-0.9,1.2-2.1,1.9-3c0.7-0.9,1.5-1.5,2.5-1.8c1.1-0.3,2.4-0.3,3.6-0.5c1.2-0.2,2.3-0.6,4.2,2.4"/>
	<path class="st1" d="M68.2,266.2c-3.3-0.6-5.1-0.4-6.2-0.1c-1.1,0.2-1.4,0.4-1.7,0.7c-0.3,0.2-0.5,0.5-1.1,1.3
		c-0.5,0.8-1.3,2-2.4,3.3c-1.1,1.3-2.4,2.7-3.5,3.7c-1.1,1-2,1.8-3.3,2.4c-1.3,0.6-2.9,1.2-3.2,3.9"/>
	<path class="st1" d="M29.4,278.8c3.2-1.3,4.9-1.3,6.1-1.3c1.2,0.1,1.9,0.2,2.8,0.4c0.9,0.3,1.9,0.6,2.6,1c0.8,0.4,1.3,0.7,2.1,1.2
		c0.8,0.5,1.9,1.1,3.8,1.1"/>
	<path class="st1" d="M37.7,267.2c-2,5.1-2.6,5.7-2.7,6.1c-0.2,0.4-0.1,0.6,0.3,0.7c0.4,0.1,0.9,0.2,1.4,0.2
		c0.5,0.1,0.9,0.1,1.2,0.2c0.3,0,0.6,0,0.9-0.4c0.3-0.4,0.7-1.3,0.9-2.3c0.2-1,0.3-2.2,1-4.3"/>
	<path class="st1" d="M64,262.6c-4.2-2.4-5.6-2.9-6.8-3c-1.2-0.1-2.1,0.2-2.8,0.6c-0.7,0.4-1.3,0.8-1.9,1.5
		c-0.6,0.7-1.3,1.6-4.3,1.7"/>
	<path class="st1" d="M48,259.7c4.2-1.4,5.2-2.1,6.2-2.5c1-0.4,2.1-0.5,3.3-0.2c1.2,0.2,2.5,0.8,6.6,2.9"/>
	<path class="st1" d="M54,260.3c1.7,3.6,2.4,4.1,3.1,4.3c0.6,0.2,1-0.1,1.5-0.2c0.4-0.2,0.9-0.3,1.4-0.3c0.5,0,1,0.1,1.2-0.3
		c0.1-0.4-0.1-1.3-0.7-3.2"/>
	<path class="st1" d="M215.8,267.4c-1.3-3.3-2-4-2.4-4.6c-0.3-0.6-0.2-1.1,0.3-1.5c0.5-0.3,1.5-0.4,2.3-0.8c0.7-0.4,1.2-1.2,1.6-2
		c0.4-0.8,0.7-1.8,1.3-3.1c0.6-1.4,1.6-3.1,2.2-4.1c0.7-1,1-1.1,3.4-1.1"/>
	<path class="st1" d="M126.4,245.6c1.2,5.7,2.3,7.8,2.8,9.4c0.5,1.6,0.5,2.8,0.8,4.3c0.2,1.5,0.7,3.2,0.9,4.8
		c0.2,1.5,0.3,2.8,0.6,6.3"/>
	<path class="st1" d="M129.8,257.4c2.4,2.1,3.6,2.4,4.7,2.6c1.1,0.1,2.2,0.1,3.3-0.5c1.1-0.5,2.2-1.6,4.3-3.1"/>
	<path class="st1" d="M114.8,272.5c2.5-2.5,3.5-3.4,4.2-3.8c0.7-0.5,1.3-0.5,1.9-0.4c0.6,0.1,1.4,0.5,2,0.8c0.6,0.4,1.1,0.7,1.8,1
		c0.7,0.3,1.5,0.5,2.4,0.8c0.8,0.3,1.7,0.7,2.4,2.8"/>
	<path class="st1" d="M110.7,279.2c-0.1,1.4,0.5,1.4,0.9,1.4c0.4,0,0.7-0.2,1.2-0.4c0.4-0.2,0.9-0.5,1.5-0.6
		c0.5-0.2,1.1-0.2,1.8-0.2c0.7,0,1.5,0.1,2.3,0.2c0.8,0.1,1.6,0.3,3,0.7c1.4,0.3,3.4,0.8,5,1.1c1.6,0.3,2.7,0.6,3.2-2.3"/>
	<path class="st1" d="M132.4,272.9c2.1,4.7,3.7,6.6,4.9,7.6c1.1,1,1.8,1.1,2.5,1.2c0.7,0,1.4,0,2-0.1c0.6-0.1,1-0.4,1.6-0.6
		c0.5-0.2,1.1-0.4,1.6-0.5c0.5-0.2,0.8-0.3,1.1-0.5c0.4-0.3,0.8-0.6,1.1-0.9c0.3-0.3,0.5-0.5,0.8-1.5c0.3-0.9,0.5-2.5,0.7-6"/>
	<path class="st1" d="M134.5,262.6c3.3-1.7,4.8-1.3,5.6-1c0.8,0.3,0.9,0.5,0.8,0.5c-0.1,0.1-0.4,0-1,0c-0.6,0-1.4,0.1-2,0.2
		c-0.6,0.1-0.9,0.3-1.2,0.5c-0.3,0.2-0.7,0.5-1,0.7c-0.3,0.2-0.4,0.5-0.3,0.7c0.1,0.2,0.5,0.4,0.9,0.4c0.4-0.1,0.9-0.4,1.4-0.7
		c0.5-0.3,1.1-0.5,1.8-0.5c0.7-0.1,1.6,0,2.2,0.2c0.6,0.2,0.9,0.6,1.1,0.9c0.2,0.3,0.3,0.5-0.1,0.4c-0.4-0.1-1.4-0.4-2.1-0.6
		c-0.7-0.2-1.3-0.1-1.8,0.1c-0.5,0.2-1.1,0.6-1.5,1c-0.4,0.4-0.6,0.7-0.7,1.1c-0.1,0.3-0.2,0.6-0.1,0.7c0.1,0.1,0.5-0.1,1-0.3
		c0.4-0.2,1-0.5,1.5-0.6c0.5-0.1,1.1-0.1,1.8,0c0.6,0.1,1.4,0.2,1.9,0.4c0.5,0.2,0.8,0.5,0.8,0.7c0,0.2-0.3,0.4-0.7,0.4
		c-0.5,0-1.1-0.1-1.8-0.2c-0.7-0.1-1.3-0.1-1.7,0c-0.4,0.1-0.5,0.4-0.4,0.6c0.1,0.2,0.4,0.2,0.9,0.2"/>
	<path class="st1" d="M119.2,270.2c-0.2-0.2,0.2-0.5,0.7-0.6c0.5-0.1,1.1,0,1.7,0.3c0.6,0.3,1.3,0.7,1.8,1.2
		c0.5,0.4,0.8,0.9,0.7,0.9c-0.1,0.1-0.7-0.2-1.2-0.5c-0.5-0.3-1-0.7-1.8-0.9C120.3,270.5,119.4,270.4,119.2,270.2z"/>
	<path class="st1" d="M118.1,271.6c1.9-0.4,3.3-0.1,4.2,0.3c0.9,0.4,1.2,1,1.1,1.2c-0.1,0.2-0.7,0.1-1.2,0c-0.5-0.2-0.9-0.4-1.6-0.5
		c-0.7-0.1-1.7-0.1-2.4,0.1c-0.7,0.1-1.1,0.3-1.3,0.5c-0.2,0.2-0.2,0.5,0.3,0.5c0.5,0,1.5-0.1,2.3-0.2c0.8-0.1,1.4,0,1.7,0.1
		c0.3,0.1,0.4,0.3,0.3,0.5c-0.1,0.1-0.4,0.2-0.9,0.2c-0.5-0.1-1.3-0.2-2.3-0.2"/>
	<path class="st1" d="M163.6,164c0.3,2.4,0.2,2.7,0.3,3c0.1,0.3,0.4,0.6,1.1,0.6"/>
	<path class="st1" d="M164.6,155.5c-0.3,2.5-0.1,3.2,0.3,3.7c0.4,0.5,0.9,0.9,1.2,1.2c0.3,0.3,0.3,0.7,0.9,2.8"/>
	<path class="st1" d="M165.8,160.2c1.4,0.7,1.7,1.3,1.9,1.8c0.2,0.5,0.3,0.9,0.4,1.4c0.1,0.5,0.1,1,0.2,1.4c0.1,0.4,0.2,0.6,0.4,0.7
		c0.2,0.1,0.5,0.1,0.7,0.1c0.2,0,0.2,0.1,0.3,0.2c0,0.1,0.1,0.2,0.3,0.4c0.2,0.2,0.6,0.6,0.8,0.4"/>
	<path class="st1" d="M161,149.3c-0.5,1.5-0.8,1.9-1,2.4c-0.2,0.5-0.3,1.1-0.2,2"/>
	<path class="st1" d="M116.6,166.9c-4-1-5.6-1.4-6.6-1.6c-1-0.2-1.5-0.3-1.5,0c0,0.2,0.6,0.7,1.9,1.5"/>
	<path class="st1" d="M129.1,268.1c-3.1-3.4-4.3-4.2-5.8-4.6c-1.5-0.4-3.2-0.2-4.5,0c-1.2,0.2-2,0.6-1.4,0.7c0.5,0.2,2.3,0.1,3.6,0
		c1.3-0.2,2.1-0.4,3.4,1.5"/>
	<path class="st1" d="M114.7,265.6c3.6,0.6,4.3,0.6,4.7,0.6c0.3,0.1,0.3,0.2,0,0.4c-0.4,0.1-1.1,0.3-2.1,0.6c-1,0.3-2.4,0.9-2.7,2.3
		"/>
	<path class="st1" d="M135.4,240.3c2.7,5.2,3.3,6.2,3.4,7c0.1,0.8-0.2,1.4-0.7,1.5c-0.5,0.1-1.3-0.2-2.1-0.4
		c-0.8-0.2-1.8-0.3-2.7-0.2"/>
	<path class="st1" d="M130.8,251c6.2-0.5,7.7-0.5,8.8-0.4c1.1,0.1,1.7,0.3,2.2,0.6c0.5,0.2,0.8,0.5,0.6,0.7
		c-0.2,0.2-0.9,0.4-1.7,0.3c-0.7-0.1-1.5-0.3-2.8-0.1"/>
	<path class="st1" d="M206,261.9c-1.4-3.3-2-4.5-2.4-5.7c-0.4-1.2-0.4-2.5-0.3-3.7c0.1-1.2,0.3-2.3,0.6-3.3c0.3-0.9,0.7-1.7,1.4-2.7
		c0.7-1,1.8-2.2,3.1-4.3"/>
	<path class="st1" d="M198,259.3c-4.1-3-5.5-4.5-6.5-5.8c-1-1.3-1.6-2.5-1.9-3.1c-0.3-0.6-0.4-0.7-0.4-0.7s0.1,0.1,0.1,0.4
		c0,0.3-0.1,0.9-0.2,1.8c0,0.9,0.1,2.1,0.3,3.4c0.2,1.3,0.6,2.8,0.8,3.8c0.2,1,0.3,1.6,0.4,2.1c0.1,0.6,0.1,1.1-0.3,1.9
		c-0.4,0.8-1.2,1.9-1.9,4.3"/>
	<path class="st1" d="M228.8,272.2c-1,1.8-1.1,2.2-1.3,2.5c-0.2,0.3-0.4,0.3-0.8,0.3c-0.4,0-0.9-0.2-2.5-1.1"/>
	<path class="st1" d="M228.8,272.2c0.6-2.3,0.9-3.4,1.3-4.1c0.4-0.7,0.8-1,1.4-1.4c0.6-0.4,1.3-0.8,1.7-0.9c0.4-0.1,0.5,0,0.4,0.2
		c-0.1,0.2-0.5,0.4-1.2,1c-0.7,0.5-1.7,1.3-2.1,1.9"/>
	<path class="st1" d="M249.3,263.7c-1.3-1.2-1.7-1.6-2-1.7c-0.3-0.1-0.6-0.1-0.8,0.1c-0.2,0.1-0.4,0.3-0.4,0.6
		c-0.1,0.3,0,0.6,0.2,1.1c0.2,0.5,0.5,1.3,0.7,1.8c0.2,0.5,0.2,0.6,0.3,1c0.1,0.4,0.3,1.2,0.2,2.7"/>
	<path class="st1" d="M246.9,271.3c-0.3-1.3-1.1-1.5-1.7-1.5c-0.6-0.1-0.8,0-1.1,0.2c-0.3,0.2-0.6,0.5-0.8,0.8
		c-0.2,0.3-0.3,0.7-0.2,1.1c0.2,0.4,0.7,0.8,1.4,4.1"/>
	<path class="st1" d="M234,271.9c1.7,0.2,2.9-0.1,3.6-0.2c0.7-0.1,0.9,0,1.1,0.2c0.1,0.2,0.2,0.5,0.1,0.8c-0.1,0.3-0.2,0.5-0.9,1.7"
		/>
	<path class="st1" d="M220.8,268.7c0-3.4,0.8-3.9,1.6-4.3c0.8-0.5,1.7-0.9,2.5-1.2c0.8-0.3,1.4-0.5,1.9-0.8c0.4-0.4,0.7-1,1.1-1.5
		c0.4-0.5,0.9-0.8,1.5-1.1c0.6-0.3,1.2-0.5,2-0.9c0.8-0.4,1.6-1,2.4-1.3c0.8-0.3,1.5-0.2,4,0.1"/>
	<path class="st1" d="M245.4,278.8c-2.5-0.4-2.8,0-3.1,0.4c-0.2,0.4-0.2,0.8-0.2,1.3c0.1,0.4,0.3,0.9,0.5,1.2
		c0.2,0.4,0.4,0.7,0.5,0.9c0.1,0.2,0.2,0.3,0.2,0.5c0,0.2-0.1,0.3-0.3,0.5c-0.2,0.2-0.4,0.4-0.9,0.8c-0.5,0.4-1.3,1-2.4-1.2"/>
	<path class="st1" d="M218.2,249.5c3.9-0.2,5.2,0.2,6.3,0.2c1.1,0,2.2-0.5,3.2-0.8c1-0.3,2.1-0.4,3.5-0.3c1.4,0.1,3,0.4,5.7,0.6"/>
</g>
</svg>
