<?xml version="1.0" encoding="utf-8"?>
<!-- Generator: Adobe Illustrator 21.0.0, SVG Export Plug-In . SVG Version: 6.00 Build 0)  -->
<svg version="1.1" xmlns="http://www.w3.org/2000/svg" xmlns:xlink="http://www.w3.org/1999/xlink" x="0px" y="0px"
	 viewBox="0 0 107.7 284.5" style="enable-background:new 0 0 107.7 284.5;" xml:space="preserve">
<style type="text/css">
	.st0{fill:#FFFFFF;stroke:#000000;stroke-linecap:round;stroke-linejoin:round;}
	.st1{fill:none;stroke:#000000;stroke-width:0.15;stroke-linecap:round;stroke-linejoin:round;}
</style>
<g id="outer">
	<path class="st0" d="M67.8,259.3c-0.4,0.1-0.9,0.2-1.3,0.1c-0.4,0-0.5-0.1-1.2-0.9c-0.3-0.4-0.8-0.9-1.2-1.6
		c-0.3,3.7-1,7.1-1.4,9.3c-0.4,2.2-0.6,3.2-0.7,4c-0.2,0.7-0.3,1.2-0.7,1.3c-0.1,0-0.2,0-0.3,0c0.9,1.8,1.3,3.3,0.8,5
		c0.1,0.1,0.2,0.2,0.3,0.3c0.4,0.3,0.9,0.7,1.4,1.2c0.5,0.5,0.9,1.2,1.2,1.7c0.3,0.5,0.4,0.9,0.5,1.3c0.1,0.4,0.1,0.8,0.1,1.1
		c0,0.3-0.1,0.6-0.3,0.8c-0.1,0.2-0.3,0.3-0.7,0.4c-0.3,0.1-0.8,0.2-1.3,0.3c-0.5,0.1-1.1,0.2-1.8,0.2c-0.7,0-1.4-0.1-2.3-0.1
		c-0.8-0.1-1.8-0.1-2.6-0.1c-0.8,0-1.5,0-2.3,0c-0.9,0-1.9,0.1-2.9,0.2c-1,0.1-1.8,0.1-2.5,0.1c-0.7,0-1.2,0-1.5-0.2
		c-0.3-0.1-0.5-0.3-0.6-0.7c-0.1-0.3,0-0.7,0-1.2c0-0.4-0.2-0.9-0.4-1.6c-0.2-0.7-0.5-1.5-0.6-2.4c0-0.9,0.2-1.9,0.6-2.7
		c0.4-0.8,0.9-1.6,0.7-3.8c-0.3,0.1-0.6,0.1-0.7,0c-0.2-0.2-0.3-0.7-0.3-1.3c0-0.6,0-1.4,0-2.7c-0.1-1.3-0.2-3.1-0.4-4.5
		c-0.2-1.4-0.5-2.5-0.6-3.8c-0.1-1.2-0.1-2.7-0.1-4c0-1.3,0-2.6-0.1-4c-0.1-1.4-0.4-3-0.7-4.3c-0.4-1.3-0.8-2.3-1.2-3.2
		c-0.4-0.9-0.7-1.8-0.9-2.8c-0.2-1-0.3-2.1-0.5-3.5c-0.1-1.3-0.3-2.9-0.5-3.9c-0.2-1.1-0.4-1.8-0.8-5.3c-0.3,0-0.5,0-0.7-0.1
		c-0.8-0.1-1.3-0.5-1.4-2.3c-0.1-1.8,0.3-5,0.1-7.9c-0.2-2.9-0.9-5.6-1.5-8.5c-0.6-2.9-1.1-6.1-0.9-8.5c0.2-2.2,1-3.8,1.3-7.2
		c-1.5-3.9-2.3-6.9-2.8-9.7c-0.6-3.2-0.9-6.2-1-9.7c-0.1-2.6-0.1-5.4,1.1-11.6c-0.7-1.8-1.6-5.2-3.7-12.1c-0.2,0.4-0.3,0.7-0.5,1.1
		c-0.4,1-0.8,1.8-1.2,2.6c-0.4,0.8-0.9,1.7-1.4,2.7c-0.5,0.9-1.1,1.9-1.6,2.6c-0.5,0.8-0.9,1.4-1.3,1.9c-0.1,0.2-0.3,0.3-0.4,0.4
		c-7.1,36.4-13.9,73.7-17.6,94c-3.7,20.3-4.4,23.4-4.9,25c-0.5,1.6-0.8,1.6-1,1.5c-0.2-0.1-0.2-0.4,1.2-9.1
		c1.5-8.7,4.4-25.8,19.9-117.6c-0.1-0.1-0.1-0.1-0.2-0.2c-0.3-0.3-0.7-0.5-0.9-1c-0.3-0.5-0.4-1.2-0.6-1.9c-0.2-0.8-0.4-1.6-0.7-2.1
		c-0.3-0.5-0.8-0.5-1.2-0.8c-0.3-0.3-0.5-0.7-0.9-1.2c-0.3-0.4-0.8-0.9-1.3-1.4c-0.5-0.5-1-1.1-0.6-4.1c0,0.1-0.1,0.2-0.1,0.3
		c-0.4,0.8-0.6,1.6-0.7,1.8c-0.2,0.3-0.3,0.2-0.7-0.8c-0.1-0.3-0.1-0.7-0.1-1.1c0-0.6-0.1-1.5-0.4-2.5c-0.3-1-0.8-2.3-1.2-3.4
		c-0.4-1.1-0.7-2.1-1-3.2c-0.2-1.1-0.3-2.3-0.6-3.6c-0.2-1.4-0.5-3-0.9-4.4c-0.4-1.4-0.8-2.6-1.2-3.8c-0.4-1.3-0.8-2.6-1.1-4.1
		c-0.3-1.5-0.4-3.2-0.5-4.4c-0.1-1.2-0.1-2.1,0-3.4c0.1-1.3,0.3-3,0.5-4.5c0.2-1.5,0.5-2.8,0.8-4.4c0.2-1.6,0.4-3.5,0.7-5.5
		c0.2-2,0.5-4.1,0.8-5.9c0.3-1.7,0.7-3.1,1-4.7c0.3-1.6,0.7-3.6,1.1-5.6c0.4-2,0.9-4,1.4-5.8c0.4-1.8,0.8-3.5,1.1-5.1
		c0.3-1.6,0.7-3.1,1.4-5.7c0.8-2.7,2-6.5,2.8-8.5c0.7-1.7,1.1-2.1,1.6-2c0,0,0,0,0,0c-0.2-0.3,0.4-0.6,1.1-0.7
		c0.8-0.1,1.7-0.1,3.1-0.8c1.3-0.6,3-1.9,8.7-4.5c-0.5-1-0.3-1.7,0.2-2.6c0.6-1,1.9-2.1,3.5-3.4c1.7-1.3,3.8-2.8,6.7-3.7
		c0-0.4,0-0.8,0.1-1.2c0.1-0.5,0.5-1,0.8-1.6c0.3-0.6,0.6-1.2,1-1.8c0.4-0.6,1-1.1,2.6-1.2c0-0.2,0.1-0.4,0.2-0.6
		c0-0.1,0.1-0.2,0.1-0.2c-3.3-0.3-4.5-1-5.2-1.8c-0.9-1-0.8-2.3,0.1-3.4c0.8-1.1,2.5-2.1,5.1-2.7c0.3-0.1,0.6-0.1,0.9-0.2
		c-0.2-7.3-0.6-10.8,0-13.4c0.6-2.9,2.3-4.8,5.5-6.3c3.2-1.4,7.9-2.4,12.3-1.3s8.5,4.2,10.4,7.5c1.4,2.4,1.8,5,2.7,9.7
		c5.5,0.2,7,1.2,7.7,2.2c0.8,1.2,0.4,2.3-0.5,3.2c-0.9,0.9-2.4,1.5-4.4,2c-0.9,0.2-1.9,0.4-3,0.5c0.3,0.9-0.1,1.4-0.5,1.6
		c-0.6,1.1-0.3,1.8-0.1,2.4c0.2,0.6,0.4,1.1,0.3,1.7c-0.1,0.6-0.3,1.3-0.6,2.4c-0.2,1.1-0.4,2.4-1.3,3.2c0,0,0,0,0,0c0,0,0,0,0,0
		c0.1,0.2,0.1,0.3,0.2,0.5c0,0.2,0,0.4,0,0.6c0,0.2,0,0.5,0,0.6c0,0.2,0,0.3,0,0.4c0,0.1-0.1,0.2-0.2,0.2c-0.1,0-0.2-0.1-0.3-0.2
		c-0.6,1.9-0.8,2.4-0.9,2.7c-0.1,0.3-0.2,0.5-0.3,0.6c5.5,5.3,6.5,6.3,7.3,7.5c0.3,0.5,0.5,1,0.7,1.5c2.3,0.6,3.1,1.1,3.7,1.6
		c0.6,0.5,1,1,1.3,1.8c0.3,0.8,0.5,1.9,0.8,3.4c0.3,1.5,0.7,3.4,1.2,5.2c0.5,1.8,1,3.5,1.4,5.4c0.4,1.8,0.6,3.8,0.7,5.2
		c0.1,1.4,0.1,2.2,0.4,3.7c0.3,1.4,1,3.5,1.5,5.5c0.5,2,1,4,1.2,5.6c0.2,1.6,0.2,2.9,0.3,4.5c0.1,1.6,0.4,3.4,0.7,5.1
		c0.3,1.7,0.7,3.2,1,4.3c0.2,1.1,0.3,1.8,0.4,2.9c0.1,1.1,0.1,2.5,0.6,4.6c0.5,2.1,1.4,5,2.1,7c0.6,2,1,3.2,1.2,4.3
		c0.2,1.1,0.3,2.1,0.4,3c0,1,0,1.9,0.1,3c0.1,1.1,0.2,2.3,0.4,3.5c0.2,1.2,0.5,2.4,0.8,3.6c0.3,1.3,0.6,2.6,0.9,3.9
		c0.3,1.3,0.6,2.5,0.9,3.9c0.3,1.4,0.6,2.9,0.8,3.8c0.2,0.8,0.2,1,0.2,1.3c0,0.3,0,0.7,0,1c0,0.3,0,0.5,0,0.7c0,0.2,0,0.4-0.2,0.6
		c-0.1,0.2-0.4,0.3-1,0.4c-0.1,0-0.3,0.1-0.4,0.1c0,2.8,0.1,3.7,0.4,4.5c0.3,0.8,0.6,1.5,0.9,1.9c0.3,0.4,0.4,0.6,0.5,0.9
		c0,0.3,0,0.9-0.1,1.3c-0.1,0.4-0.2,0.8-0.4,1.1c-0.2,0.3-0.4,0.6-0.6,1.1c-0.2,0.5-0.5,1.2-0.7,2c-0.2,0.8-0.4,1.6-0.8,2.4
		c-0.4,0.8-1,1.5-1.5,2.1c-0.5,0.5-1,0.9-1.5,1.3c-0.5,0.3-1,0.7-1.4,1c-0.4,0.3-0.8,0.5-1.1,0.7c-0.1,0.1-0.2,0.1-0.3,0.2
		c0.2,1.9,0.1,3.2,0,4.7c-0.1,2.6-0.3,5.5-0.4,8.9c-0.1,3.5,0,7.5-0.1,11c-0.1,3.5-0.2,6.5-0.9,9.9c-0.7,3.4-1.9,7.3-2.4,10.3
		c-0.5,3.1-0.1,5.4-0.4,6.9c-0.2,1.5-1,2.2-1.9,2.7c-1,0.5-2.1,0.8-3.4,0.9c-0.1,0-0.3,0-0.4,0c-1.7,4.1-4.3,8.6-5.3,9.4
		c0,2.7-0.4,3.6-0.6,4.6c-0.3,1.4-0.4,2.8-0.5,3.8c-0.1,1-0.3,1.6-0.4,2.3c-0.1,0.7-0.3,1.5-0.3,2.3c0,0.8,0,1.7-0.1,2.8
		c-0.1,1-0.4,2.2-0.8,2.7c-0.1,0.1-0.1,0.1-0.2,0.2c0.7,4.3,1.1,6.3,1.6,8.3c0.5,2,1.1,4.1,1.7,5.2c0.5,1.2,1,1.6,1.3,2.1
		c0.3,0.5,0.3,1.2,0.3,1.6s-0.1,0.6-0.1,0.8c-0.1,0.2-0.2,0.3-0.3,0.6c-0.1,0.2-0.2,0.5-0.3,0.6c0,0.1,0,0.1,0.1,0.3
		c0.1,0.2,0.4,0.5,0.4,0.9c0,0.4-0.1,0.7-0.3,1.1c-0.1,0.4-0.2,0.7-0.2,0.9c0,0.2,0,0.3,0.1,0.6c0.1,0.2,0.2,0.6,0.2,0.9
		c0,0.3-0.1,0.7-0.5,0.8c-0.4,0.2-1.2,0.3-1.7,0.3c-0.5,0-0.8,0-1.5,0c-0.7,0-2-0.1-3-0.4c-1.1-0.3-2-0.7-3.1-1.4
		c-1.1-0.7-2.4-1.7-3.3-2.7c-1-1-1.6-2.1-2.1-3.7c-0.5-1.5-0.8-3.6-1-5.3c-0.2-1.7-0.4-3.2-0.7-4.5c-0.1-0.7-0.3-1.3-0.7-2.4
		 M64.3,244.2c0,0.1,0,0.1,0,0.2c0.6-0.8,1.4-1.6,2.4-2.5c0-0.1,0-0.2,0.1-0.3c0.1-0.7,0.4-1.3,0.7-1.9c0.3-0.6,0.5-1.2,0.8-1.9
		c0.2-0.7,0.4-1.5,0.6-2.2c0.1-0.7,0.2-1.2,0.3-1.6c0.1-0.4,0.3-0.8,0.5-1.1c0.2-0.3,0.3-0.5,0.5-0.7c0,0,0,0,0,0
		c-0.6-2.9,1.4-5,0.9-8.4c-1,0-2.3,0.1-4.1,0.3c-0.5,0.1-1.1,0.1-1.6,0.2C64,234.2,64.2,239.5,64.3,244.2z"/>
</g>
<g id="inner">
	<path class="st1" d="M105.4,150.7c-0.5,0.2-1.2,0.3-1.8,0.5c-0.8,0.1-1.5,0.2-2.3,0.2c-0.8,0-1.6,0-2.3-0.1c-0.7,0-1.1-0.1-1.7-0.2
		c-0.3,0-0.7-0.1-1-0.2"/>
	<path class="st1" d="M30.4,150.5c0.3-0.6,0.5-1.3,0.7-1.8c0.2-0.7,0.2-1.1,0.2-1.5c0-0.4-0.1-0.9-0.3-1.3c-0.2-0.4-0.4-0.7-0.5-0.9
		c-0.1-0.2,0.1-0.4,0.2-0.7c0.1-0.3,0.1-0.6,0.3-1.2c0.2-0.6,0.4-1.3,0.4-1.9c-0.1-0.6-0.5-1.1,0.7-1.9"/>
	<path class="st1" d="M47.8,30.9c-0.1,0.2-0.1,0.4-0.1,0.6c0,0.4,0.2,0.8,0.4,1.2c0.2,0.3,0.5,0.6,0.8,0.6c0.3,0.1,0.7-0.1,1.2,0
		s1.3,0.3,2,0.2"/>
	<path class="st1" d="M80.8,254.6c-0.4,0.3-1,0.2-1.9,0c-1-0.2-2.2-0.5-3.3-0.6c-1.1-0.1-2-0.1-2.8-0.2c-0.8-0.1-1.6-0.4-2-0.8
		c-0.5-0.5-0.7-1.1-0.9-1.8c-0.2-0.7-0.5-1.4-1-2.5c-0.5-1.1-1.3-2.4-1.7-3.3c-0.4-0.9-0.5-1.2-0.5-1.8c0-0.5,0-1,0.1-1.6"/>
	<path class="st1" d="M20.1,52.4c0.2,0.3,1.3,0.6,2.8,1.9c1.5,1.3,3.3,3.7,5.1,6.8c1.7,3.1,3.4,6.8,4.1,10.2
		c0.7,3.4,0.5,6.5,0.1,8.9c-0.4,2.5-0.8,4.3-1.3,6.8c-0.5,2.5-1,5.7-1.4,8c-0.4,2.2-0.7,3.5-1.1,5c-0.4,1.5-0.9,3.2-1.3,5.3
		c-0.4,2.1-0.7,4.5-0.7,6.3c0,1.7,0.2,2.7,0.4,4c0.2,1.2,0.4,2.7,0.7,3.9c0.3,1.1,0.6,1.9,0.9,2.9c0.3,1,0.6,2.2,0.7,3.4
		c0.2,1.3,0.2,2.7,0.4,3.8c0.2,1.1,0.4,2,0.9,2.9c0.4,0.9,1,1.8,1.4,2.5c0.4,0.7,0.6,1.2,0.8,1.7c0.2,0.5,0.3,1.1,0.4,1.6
		c0.1,0.5,0.1,0.9,0.1,1.2c0,0.1,0,0.2-0.1,0.2"/>
	<path class="st1" d="M80,18.1c0.3,1.8,0.8,3.8,1.4,6.2"/>
	<path class="st1" d="M33,46.4c0.1,0.2,0.3,0.5,0.5,0.7c1,1.3,3.1,3,5.4,5.1c2.3,2.1,4.8,4.5,6.9,7c2.1,2.5,3.7,5,5.8,8
		c2,3,4.5,6.6,7.6,9.9c3.1,3.3,6.7,6.4,9,8.3"/>
	<path class="st1" d="M70,47.9c-1,0.8-1.4,1-1.8,1.1c-0.4,0.1-0.8,0-1.2,0c-0.4-0.1-0.7-0.1-1.1-0.2c-0.4-0.1-0.8-0.2-1.3-0.4
		c-0.6-0.3-1.3-0.7-1.9-1.1c-0.6-0.4-0.9-0.6-1.3-0.9c-0.4-0.3-0.7-0.5-1.1-0.7c-0.3-0.2-0.6-0.5-0.8-0.8c-0.3-0.3-0.5-0.6-1-1.2
		c-0.5-0.5-1.3-1.3-1.7-1.8c-0.4-0.5-0.5-0.9-0.6-1.3c-0.1-0.4-0.2-1-0.3-1.5c-0.1-0.5-0.2-0.9-0.3-1.8"/>
	<path class="st1" d="M97.9,165.6c0.5,2.3,0.8,4.1,0.9,5.5"/>
	<path class="st1" d="M86.1,52.5c1.5,4,2.5,8.8,3,12.9c0.5,4.1,0.6,7.6,0.2,11.2c-0.4,3.6-1.1,7.3-1.7,9.8c-0.6,2.5-1.1,3.8-1.3,4.5
		c-0.2,0.7-0.2,0.9-0.1,1.2c0.1,0.3,0.4,0.6,0.4,1c0,0.4-0.1,1-0.3,1.4c-0.1,0.4-0.2,0.6-0.3,0.9c-0.1,0.3-0.2,0.7-0.4,1
		c-0.1,0.4-0.2,0.7-0.5,1c-0.2,0.3-0.5,0.6-0.7,1.1c-0.2,0.4-0.2,1-0.1,1.7c0.2,0.6,0.5,1.3,0.7,1.9c0.2,0.7,0.3,1.3,0.6,2.3
		c0.2,1,0.6,2.3,1,3.5c0.4,1.2,0.8,2.3,1.2,3.3c0.4,1,0.8,2,1.1,3c0.3,1,0.4,2.2,0.7,3.3c0.2,1.1,0.5,2.1,0.8,4
		c0.3,1.8,0.6,4.5,1,6.7c0.4,2.2,0.8,3.9,1.2,5.4c0.4,1.5,0.7,2.8,1.1,6.6c0.3,3.8,0.6,10.2,2.5,10.6"/>
	<path class="st1" d="M67.4,116.8c-0.5-0.3-0.9-0.3-1.2-0.1c-0.3,0.1-0.5,0.4-0.6,0.7c-0.1,0.3-0.1,0.7,0,1.2
		c0.2,0.5,0.5,1.2,0.9,1.4c0.4,0.3,0.9,0.2,1.3-0.2c0.4-0.4,0.7-1,0.6-1.5C68.4,117.7,67.9,117.1,67.4,116.8z"/>
	<path class="st1" d="M43.4,36.7c0,0.2,0,0.3,0.1,0.5c0.1,0.6,0.3,1.3,1.6,3c1.4,1.6,3.9,4.1,5.5,5.5c1.6,1.4,2.2,1.7,2.9,2.1
		c0.7,0.4,1.5,0.9,2.3,1.6c0.8,0.7,1.7,1.6,2.3,2.6c0.6,1.1,1,2.3,1.5,3c0.4,0.7,0.9,0.9,1.1,0.6c0.1-0.4-0.2-1.4-0.5-2.4
		c-0.3-1.1-0.7-2.2-1.2-3.3c-0.4-1.1-0.9-2.2-2.5-4.8"/>
	<path class="st1" d="M65.4,138.8c-0.3-0.2-0.6-0.1-0.8,0.1c-0.2,0.3-0.2,0.8-0.1,1.4c0.1,0.6,0.4,1.2,0.7,1.7
		c0.3,0.4,0.8,0.7,1.1,0.6c0.3-0.1,0.5-0.5,0.5-1.1c0-0.5-0.2-1.2-0.4-1.7C66.1,139.3,65.8,138.9,65.4,138.8z"/>
	<path class="st1" d="M74.6,28.7c-2-1.4-3.7-1.9-6.2-2.1"/>
	<path class="st1" d="M71.9,29.7c-0.8,0.1-1.5,0.1-2.3,0.2c-0.7,0-1.4,0.1-3.1-0.3"/>
	<path class="st1" d="M75.8,40.6c0.2,0.4,0.2,0.7,0.1,0.9c-0.1,0.2-0.3,0.3-0.8,0.3c-0.4,0-1-0.1-1.6-0.2c-0.5-0.1-1-0.2-1.4-0.2
		c-0.4-0.1-0.9-0.1-1.2-0.4"/>
	<path class="st1" d="M61,271.5c-0.4-0.1-0.8-0.4-1.3-0.7c-0.6-0.4-1.3-0.7-2-0.8c-0.7-0.2-1.6-0.2-2.6-0.1c-1,0-2,0.1-2.9,0.1
		c-0.9,0.1-1.6,0.1-2.4,0.4c-0.8,0.2-1.7,0.6-2.4,0.9c-0.2,0.1-0.4,0.2-0.6,0.2"/>
	<path class="st1" d="M71.1,223.9c0.9,0,1.5,0,2,0c1.1,0,1.5-0.1,2.8-7"/>
	<path class="st1" d="M36,154.6c-0.8,3.2-1.4,5.8-1.9,7.9"/>
	<path class="st1" d="M100.7,166.8c0.5-0.3,0.6-0.4,0.7-0.6c0.2-0.3,0.3-0.6,0.4-0.9c0.1-0.3,0-0.6,0-0.8c0-0.3,0-0.5,0.1-0.8
		c0.1-0.3,0.2-0.6,0.3-0.9c0.1-0.3,0.3-0.4,0.3-0.6c0.1-0.2,0.1-0.3,0.1-0.5c0-0.1,0-0.2-0.1-0.4c-0.1-0.1-0.2-0.3-0.4-0.5
		c-0.2-0.2-0.6-0.3-0.8-0.4c-0.2-0.1-0.2-0.2-0.2-0.3c0-0.2,0-0.4-0.1-0.7c-0.1-0.3-0.4-0.5-0.6-0.7c-0.2-0.1-0.4-0.2-0.6,0
		c-0.1,0.2-0.2,0.6-0.2,1c0,0.4,0.1,0.8,0.2,1.2c0.1,0.3,0.3,0.6,0.4,0.9c0.1,0.2,0.1,0.4,0.1,0.8c0,0.3-0.1,0.7-0.1,1.1
		c0,0.4,0.1,0.7,0.1,1.1c0.1,0.3,0.1,0.6,0.2,1.2c0,0.5,0.1,1.3-0.1,1.8c-0.2,0.5-0.5,0.7-0.8,0.7c-0.3,0-0.6-0.2-0.8-0.6
		c-0.2-0.4-0.3-0.9-0.7-1.5c-0.3-0.6-0.8-1.3-1.1-1.9c-0.3-0.6-0.4-1.2-0.3-1.9c0-0.7,0.1-1.4,0.1-2.1c-0.1-0.6-0.3-1.1-0.5-1.6
		c-0.2-0.5-0.4-1-0.5-1.6c-0.1-0.6-0.1-1.2-0.2-2c0-0.7-0.1-1.5,0.6-4.3"/>
	<path class="st1" d="M79.2,27.7c-0.3,0.1-0.6,0.2-0.8,0.3c-0.7,0.1-1.1,0-1.4,0c-0.3,0-0.5,0.3-0.5,0.7c-0.1,0.4,0,0.9,0.3,1.8
		c0.2,0.9,0.7,2,1,2.9c0.3,0.9,0.5,1.4,0.5,1.8c0,0.4-0.1,0.7-0.5,0.8c-0.4,0.1-1,0.1-1.5,0c-0.5,0-0.8-0.1-1.3,0
		c-0.5,0.1-1.2,0.3-1.6,0.4c-0.4,0.1-0.6,0.1-0.7-0.2c-0.1-0.2-0.2-0.6-0.2-1.1c0-0.5,0.1-1,0.7-1.6"/>
	<path class="st1" d="M64.3,244.4c0.1,4.6,0.1,8.6-0.2,12.4c0,0.1,0,0.1,0,0.2"/>
	<path class="st1" d="M49.9,34.2c-0.9,1-0.9,2.1-0.6,3.2c0.3,1.1,1,2.3,1.8,3.4c0.9,1,1.9,2,2.8,2.7c0.9,0.7,1.6,1.2,2,1.5
		c0.4,0.2,0.5,0.2,0.6,0c0.1-0.2,0.2-0.5,1.5-1.6"/>
	<path class="st1" d="M21.8,155.5c0.2,0.2,0.4,0.4,0.6,0.4c0.3,0,0.7-0.2,0.9-0.8c0.3-0.6,0.4-1.5,0.8-2.3c0.3-0.8,0.9-1.3,1.6-1.8"
		/>
	<path class="st1" d="M70.2,232.2c0.2-0.2,0.6-0.4,1.5-1.4"/>
	<path class="st1" d="M75.7,42.8c-0.2,1.1-0.5,1.7-0.7,2c-0.2,0.4-0.3,0.5-0.4,0.7c-0.1,0.2-0.2,0.4-0.2,0.7
		c-0.1,0.2-0.1,0.5-0.2,0.7c-0.1,0.2-0.2,0.4-0.3,0.5c-0.1,0.1-0.3,0.3-0.6,0.4c-0.3,0.1-0.6,0.2-1,0.3c-0.3,0.1-0.7,0.1-1.1,0
		c-0.4,0-0.9-0.1-1.3-0.2c-0.5-0.1-0.9-0.3-1.3-0.5c-0.4-0.2-0.6-0.3-0.9-0.5c-0.3-0.2-0.6-0.4-0.9-0.6c-0.2-0.2-0.4-0.4-0.7-0.6
		c-0.3-0.2-0.7-0.5-1.8-0.8c-1.1-0.4-2.7-0.9-4-1.5"/>
	<path class="st1" d="M89.1,226.6c-1.1,0.1-2.3,0.1-3.6-0.1c-1.5-0.2-3.3-0.5-4.7-0.9c-1.4-0.4-2.5-0.9-3.1-1.4
		c-0.6-0.5-0.7-1-0.9-2c-0.2-0.9-0.4-2.3-0.6-3.8c-0.2-1.5-0.4-3.2-0.7-6.4c-0.3-3.2-0.6-7.8-2-17.4c-1.4-9.5-4-23.9-6-33
		c-2-9.1-3.6-12.9-4.4-16c-0.8-3.2-0.9-5.7-0.7-7.9c0.2-2.2,0.7-3.9,1.3-8.6c0.6-4.7,1.3-12.4,1.6-32.8"/>
	<path class="st1" d="M79.8,26.1c-1.3,0.1-2.7,0.1-4.3,0c-2.9-0.3-6.1-1.3-9-2.2c-2.9-0.9-5.5-1.7-8.7-2c-2.8-0.3-6.1-0.2-8.7,0.2"
		/>
	<path class="st1" d="M83.5,231.2c0.2,2,0.3,3.6,0.3,4.8"/>
	<path class="st1" d="M57.6,42.8c-2.8-0.8-3.7-1.4-4.2-1.9c-0.6-0.5-0.9-0.8-1.1-1.1c-0.2-0.3-0.4-0.5-0.7-0.9
		c-0.3-0.4-0.6-0.8-0.9-1.2c-0.2-0.3-0.4-0.6-0.4-0.8c-0.1-0.2-0.2-0.5-0.2-0.8c0-0.3,0-0.8-0.1-1.2c0-0.4-0.1-0.9-0.5-1.7"/>
	<path class="st1" d="M75.9,42.7C75.9,42.7,75.9,42.8,75.9,42.7c-0.2,0.1-0.4,0.2-0.7,0.2c-0.2,0-0.5,0-0.9-0.1
		c-0.3-0.1-0.6-0.2-2.3-0.4"/>
	<path class="st1" d="M24.8,151.7c-1.8,5.4-2.2,6.7-2.5,7.6c-0.3,0.9-0.6,1.2-0.7,1.7c-0.1,0.5,0,1,0.3,1.3c0.3,0.3,0.8,0.2,1.2,0
		c0.3-0.1,0.6-0.3,0.9-0.6"/>
	<path class="st1" d="M57.2,44.1c4.5,6.7,5.4,7.7,6.2,8.6c0.8,1,1.5,1.9,2.2,2.8c0.7,0.9,1.2,1.8,1.7,2.4c0.4,0.6,0.7,1,1,1.4
		c0.3,0.4,0.6,0.9,0.8,1.3c0.3,0.4,0.5,0.9,0.6,1.2c0.2,0.4,0.3,0.8,0.3,1.2c0.1,0.4,0.1,0.9,0.1,1.3c0,0.5-0.1,0.9-0.3,1.4
		c-0.2,0.5-0.4,1-0.6,1.5c-0.2,0.5-0.4,1-0.6,1.2c-0.2,0.3-0.5,0.3-0.8,0c-0.4-0.3-0.8-1-1.2-1.9c-0.4-0.9-0.8-1.9-1.2-3
		c-0.5-1-1.1-1.9-1.6-2.8c-0.6-0.8-1.2-1.5-1.5-2.1c-0.4-0.5-0.6-0.9-1.7-3"/>
	<path class="st1" d="M15.4,142.9c0.4-0.8,0.9-1.6,1.5-2.4c0.8-0.9,1.7-1.7,2.7-2.3c1-0.6,2-1.1,3.3-1.3c1.3-0.2,2.8-0.1,4.1,0.1
		s2.5,0.6,3.3,1c0.8,0.4,1.3,0.9,1.7,1.3c0.4,0.4,0.6,0.7,0.9,0.2"/>
	<path class="st1" d="M65.5,253.8c1.1,2.7,1.8,4.4,2.2,5.5"/>
	<path class="st1" d="M70.8,40.7c1.2-0.4,1.5-0.6,1.8-0.6c0.3-0.1,0.5-0.1,0.8-0.1c0.3,0,0.6,0,0.9,0c0.3,0,0.4,0,0.6,0
		c0.2,0,0.4,0,0.5,0c0.2,0,0.3,0.1,0.4,0.2c0.1,0.1,0.2,0.2,0.2,0.2c0,0.1,0,0.1-0.1,0.1c-0.1,0-0.3,0-0.4,0.1c-0.2,0-0.4,0-0.5,0
		c-0.2,0-0.4,0-0.6,0c-0.2,0-0.4,0.1-0.7,0.1c-0.3,0-0.6,0-1.5-0.1"/>
	<path class="st1" d="M61.8,276.5c-0.2-0.2-0.5-0.5-0.8-0.7c-0.5-0.4-1.2-0.8-2.8-1.7"/>
	<path class="st1" d="M54.8,26.7c-3.1-1-4-0.6-4.5,0.1c-0.4,0.7-0.4,1.6-0.2,2.4c0.2,0.8,0.4,1.5,0.7,2.2c0.3,0.7,0.7,1.3,1.1,1.9
		c0.4,0.6,0.9,1.2,1.3,1.5c0.4,0.4,0.8,0.6,1.2,0.6c0.3,0,0.6-0.1,0.8-0.4c0.3-0.3,0.6-0.9,1.1-1.4"/>
	<path class="st1" d="M77.2,39.4c-0.1-0.1-0.2-0.2-0.4-0.2c-0.1,0-0.2,0-0.3,0.1c-0.1,0-0.2,0-0.4,0c-0.2,0-0.4-0.1-0.6-0.1
		c-0.2,0-0.3,0-0.5,0.1c-0.2,0-0.4,0.1-0.5,0.1c-0.2,0-0.3,0-0.4,0c-0.1,0-0.3,0-0.5,0c-0.2,0-0.4,0-0.6,0c-0.2,0-0.4,0-0.6,0
		c-0.2,0-0.3,0.1-0.5,0.2c-0.2,0-0.3,0.1-0.4,0.1c-0.1,0-0.2,0-0.4,0.1c-0.2,0.1-0.4,0.2-0.5,0.2c-0.2,0.1-0.2,0.1-0.4,0.2
		c-0.1,0.1-0.2,0.2-0.3,0.2c-0.1,0.1-0.2,0.1-0.3,0.1c-0.1,0-0.3,0-0.4,0c-0.1,0-0.2,0-0.3,0c-0.1,0.1-0.2,0.2-0.3,0.3
		c-0.1,0.1-0.1,0.1-0.2,0c-0.1-0.1-0.2-0.2-0.2-0.3c0-0.1,0-0.1,0.1-0.3c0.1-0.1,0.4-0.3,0.6-0.5c0.2-0.2,0.4-0.5,0.7-0.6
		c0.3-0.1,0.7-0.2,1.1-0.2c0.3-0.1,0.5-0.2,0.7-0.3c0.2-0.1,0.4-0.3,0.6-0.4c0.2-0.1,0.3-0.2,0.5-0.3c0.1-0.1,0.2-0.1,0.5-0.2
		c0.3-0.1,0.7-0.1,1-0.2c0.4-0.1,0.7-0.2,1-0.2c0.2-0.1,0.4-0.1,0.5-0.1c0.1,0,0.2,0.1,0.2,0.1c0.1,0,0.2-0.1,0.2-0.2
		c0.1-0.1,0.1-0.1,0.2-0.1c0.1,0,0.2,0.1,0.3,0c0.1,0,0.2-0.1,0.3-0.1c0.1-0.1,0.2-0.1,0.4,0c0.1,0.1,0.3,0.2,0.4,0.3
		c0,0,0.1,0.1,0.1,0.1c0,0,0,0.1,0.1,0.1"/>
	<path class="st1" d="M98.5,168.2c0.2-0.1,0.4-0.2,0.6-0.3"/>
	<path class="st1" d="M38.2,163.2c-1.3,19.5-1,25.8-1.3,29.7c0,0.2,0,0.5-0.1,0.7"/>
	<path class="st1" d="M39.9,228.1c0.7,0,1.7-0.1,3.4-0.3c2.4-0.3,6.3-0.9,10.7-1.7c3.8-0.6,8-1.3,11.3-1.7"/>
	<path class="st1" d="M63.4,52.7c4.7,0.2,6.1,0.6,7.1,0.8c1,0.2,1.5,0.4,2,0.4c0.5,0.1,1.1,0,1.3-0.4c0.2-0.4,0-1.2,0.1-2.3
		c0.1-1.1,0.4-2.5-0.4-3.5"/>
	<path class="st1" d="M72.5,53.9c-0.2,1.7-0.4,3-0.5,4.3c-0.2,2.4-0.1,4.5-0.1,7.3c0,2.8-0.2,6.3-0.3,8.8c-0.2,2.5-0.3,3.9-0.8,5.3
		c-0.5,1.5-1.2,2.9-2.2,4.8c-0.9,1.9-2,4.1-2.7,5.8c-0.6,1.7-0.8,2.8-0.9,3.9c-0.1,1.1-0.2,2.1,0,2.3c0.2,0.2,0.5-0.4,1.7-0.8
		c1.1-0.4,3-0.7,4.4-1.2c1.4-0.5,2.2-1.2,3-2.2c0.8-0.9,1.7-2.1,2.7-3.4c1-1.3,2.2-2.6,3.3-4.1c1.1-1.5,2.3-3.1,3-4.7
		c0.7-1.5,1.1-3,1.4-4.8c0.3-1.9,0.6-4.2,0.8-7.1c0.2-2.9,0.3-6.4,0.2-8.8c-0.1-2.4-0.5-3.7-0.8-5.1c-0.2-0.8-0.5-1.7-0.8-2.5"/>
	<path class="st1" d="M33,139.6c-0.1,0.1-0.1,0.2-0.2,0.4c-0.1,0.2-0.2,0.3-0.6,0.7c-0.2,0.2-0.4,0.5-0.8,0.8"/>
	<path class="st1" d="M53.1,26.1c-2.5-0.2-3.2,0.4-3.7,1c-0.4,0.6-0.6,1.2-0.8,1.8c-0.2,0.4-0.4,0.9-0.6,1.2"/>
	<path class="st1" d="M76.8,26.1c-14.4-0.7-19.6-0.7-22.7-0.2c-0.3,0-0.7,0.1-1,0.2"/>
</g>
</svg>
