<?xml version="1.0" encoding="utf-8"?>
<!-- Generator: Adobe Illustrator 21.0.0, SVG Export Plug-In . SVG Version: 6.00 Build 0)  -->
<svg version="1.1" xmlns="http://www.w3.org/2000/svg" xmlns:xlink="http://www.w3.org/1999/xlink" x="0px" y="0px"
	 viewBox="0 0 132.3 227.8" style="enable-background:new 0 0 132.3 227.8;" xml:space="preserve">
<style type="text/css">
	.st0{fill:#FFFFFF;stroke:#000000;stroke-linecap:round;stroke-linejoin:round;}
	.st1{fill:none;stroke:#000000;stroke-width:0.15;stroke-linecap:round;stroke-linejoin:round;}
</style>
<g id="Layer_3">
</g>
<g id="Outer">
	<path class="st0" d="M131.8,79.9c-0.1-1.1-0.3-2.3-0.3-3.2c0-0.9,0.1-1.7,0-2.5c-0.1-0.9-0.5-2-1-2.9c-0.5-1-1.2-1.8-1.4-2.4
		c-0.3-0.5-0.1-0.7-0.5-1.3c-0.4-0.6-1.4-1.6-2.1-2.3c-0.7-0.7-1.2-1.1-1.8-1.5c-0.6-0.4-1.2-0.7-1.5-1.2c-0.3-0.6-0.3-1.4-0.4-2.9
		c-0.1-1.5-0.3-3.8-0.6-5.5c-0.3-1.8-0.8-3-1.6-4c-0.7-1-1.7-1.8-2.3-2.8c-0.6-1-0.9-2.1-1.6-2.9c-0.7-0.8-2-1.3-2.9-1.9
		c-0.9-0.6-1.5-1.2-2.5-1.9c-1-0.8-2.3-1.7-3.6-2.4c-1.3-0.7-2.5-1-3-1.3c-0.6-0.3-0.5-0.5-0.1-0.5c0.4-0.1,1,0,1.8,0.1
		c0.8,0.1,1.6,0.1,2.1-0.1c0.5-0.2,0.6-0.7,1.4-1.5c0.8-0.8,2.3-2,2.9-3.3c0.6-1.3,0.4-2.6,0-3.8c-0.4-1.2-1.1-2.4-1.7-3.9
		c-0.6-1.5-1.2-3.3-1.8-4.5c-0.6-1.2-1.2-1.7-1.7-2.3c-0.5-0.6-0.7-1.3-1.1-1.9c-0.4-0.6-0.8-1.1-1.9-1.8c-1.1-0.7-2.9-1.5-3.8-2
		c-1-0.5-1.1-0.6-1.5-1.3c-0.4-0.6-1.1-1.8-1.9-2.3c-0.8-0.6-1.6-0.5-2.1-0.6c-0.5,0-0.6-0.1-0.9-0.4c-0.2-0.3-0.5-0.7-1.2-0.9
		c-0.7-0.2-1.6-0.3-2.7-0.4c-1.1-0.1-2.3-0.1-2.9-0.3c-0.6-0.2-0.7-0.5-0.9-0.8c-0.2-0.2-0.7-0.3-1.3-0.4C84.5,4,83.8,4,82.9,3.8
		c-0.8-0.2-1.7-0.7-3-0.9c-1.3-0.2-3-0.1-4.3,0c-1.3,0-2,0-2.9-0.1c-0.9-0.1-1.8-0.1-2.5-0.1c-0.7,0-1,0.2-1.4,0
		c-0.4-0.1-0.7-0.5-1-0.7c-0.3-0.1-0.6,0-1.1,0.3c-0.5,0.3-1.3,0.7-1.7,1c-0.5,0.3-0.6,0.4-0.8,0.5c-0.1,0.1-0.2,0.1-0.4,0
		c-0.1,0-0.3-0.1-0.4-0.2c-0.1-0.1-0.1-0.3,0-0.5c0-0.2,0.1-0.4,0-0.7c-0.1-0.3-0.4-0.7-0.7-1.1c-0.4-0.3-0.9-0.6-1.5-0.8
		c-0.6-0.1-1.3-0.1-1.9-0.1c-0.6,0-1.2,0.1-1.8,0.4c-0.6,0.3-1.3,1-2,1.6C55,3.3,54.4,4,54,4.5c-0.4,0.4-0.5,0.6-0.8,0.7
		c-0.3,0.1-0.7,0.1-1-0.1c-0.3-0.1-0.6-0.4-0.8-0.4c-0.2-0.1-0.4,0-0.5,0.2c-0.2,0.3-0.4,0.8-0.6,1c-0.2,0.2-0.3,0.1-0.5,0.1
		c-0.2,0-0.3,0.2-0.9,0.2c-0.5,0-1.5-0.1-2.3-0.3C45.7,5.6,45,5.3,44.2,5c-0.8-0.3-1.5-0.8-2-0.9c-0.5-0.1-0.7,0.1-1.3,0.8
		c-0.6,0.7-1.5,2-2.1,2.9c-0.6,0.9-0.8,1.5-0.9,2c-0.1,0.5-0.1,0.9-0.4,1c-0.3,0.2-0.8,0.1-1.4,0.3c-0.6,0.3-1.4,0.9-2.4,1.5
		c-1,0.6-2.1,1.2-3,1.9c-0.9,0.7-1.4,1.5-2,2.2c-0.6,0.7-1.2,1.1-1.4,1.6c-0.2,0.5-0.2,1-0.2,1.3c-0.1,0.3-0.4,0.5-0.6,0.5
		c-0.2,0.1-0.4,0.1-0.5,0c-0.1,0-0.1-0.1-0.1-0.3c0-0.2,0-0.4-0.8-0.6c-0.8-0.1-2.4-0.1-3.4,0c-1,0.1-1.5,0.2-2,0.4
		c-0.6,0.2-1.2,0.6-2,0.8c-0.8,0.2-1.6,0.1-2.2,0c-0.6-0.1-1-0.2-1.6-0.2c-0.5,0-1.1,0.2-1.7,0.8c-0.5,0.6-1,1.6-1.3,2.2
		c-0.3,0.7-0.5,1-0.8,1.2c-0.2,0.2-0.4,0.2-0.6,0.1c-0.1-0.2-0.1-0.5-0.4-0.8c-0.2-0.3-0.7-0.6-1.7-1c-1-0.4-2.7-0.8-4-0.4
		c-1.3,0.4-2.3,1.6-2.7,2.9c-0.4,1.3-0.1,2.9,0,3.7c0.1,0.9,0.1,1.1,0.3,1.6c0.2,0.4,0.8,1,1.2,1.2c0.4,0.2,0.7,0.1,1,0
		c0.3-0.1,0.5-0.1,0.6,0c0.2,0.1,0.3,0.5,0.2,0.9c-0.1,0.4-0.4,1-0.5,1.6c-0.1,0.5,0,1.1,0.1,1.9c0.1,0.8,0.2,2,0.4,2.9
		c0.2,0.9,0.6,1.5,0.8,2c0.2,0.5,0.2,0.9,0.3,1.8c0.1,0.8,0.4,2.1,1.4,3.8c0.9,1.7,2.6,3.9,3.6,5.2c1.1,1.4,1.7,2,2.3,2.3
		c0.6,0.3,1.2,0.2,1.7,0.4c0.5,0.1,0.9,0.4,2,1.1c1.1,0.6,2.8,1.6,3.5,2.1c0.8,0.5,0.7,0.7,0.7,0.7s0.1-0.1,0.3-0.4
		c0.1-0.3,0.3-0.8,0.7-0.9c0.4-0.2,1.1,0,1.7,0.2c0.6,0.2,1,0.5,1.5,0.2c0.5-0.3,1.1-1.1,1.5-1.5c0.4-0.5,0.7-0.7,0.9-0.5
		c0.2,0.2,0.4,0.8,1.1,2.1c0.7,1.4,1.9,3.6,2.7,5.2c0.9,1.6,1.4,2.7,1.5,3.7c0.1,0.9-0.4,1.7-0.4,2.7c0,1,0.4,2.3,0.8,3.3
		c0.4,1,0.9,1.8,1,2.4c0.1,0.6,0,1-0.2,1.6c-0.2,0.5-0.3,1.1-0.4,2.3c-0.1,1.1-0.3,2.7,0,4c0.3,1.3,1,2.2,1.3,2.9
		c0.3,0.7,0.3,1.3-0.2,2.1c-0.4,0.8-1.3,1.9-1.5,3.2c-0.2,1.3,0.2,2.8,0.5,3.9c0.3,1.1,0.5,1.8,0.4,2.9c-0.2,1.1-0.7,2.6-0.9,4.4
		c-0.2,1.8,0,4,0.1,5.2c0.1,1.2,0,1.4-0.1,1.9c-0.2,0.5-0.4,1.3-0.4,1.9c0,0.6,0.4,1.1,0.5,1.5c0.1,0.4,0,0.8-0.2,1.2
		c-0.2,0.4-0.4,0.8-0.6,1.1c-0.2,0.3-0.3,0.7-0.4,1.2c-0.1,0.5-0.3,1.3-0.7,1.7c-0.4,0.3-1,0.2-1.7,0.4c-0.7,0.1-1.3,0.5-2.5,0.6
		c-1.2,0.1-2.9-0.1-4.1-0.1c-1.1,0-1.7,0.1-2.2,0.3c-0.5,0.2-1,0.4-1.7,0.6c-0.7,0.2-1.7,0.4-3.2,1.6c-1.5,1.2-3.4,3.3-4.9,5.4
		c-1.5,2.1-2.6,4.1-3.2,5.3c-0.6,1.2-0.8,1.7-0.8,2.3c0.1,0.7,0.5,1.6,0.2,2.9c-0.3,1.3-1.2,3.1-2.2,7.1c-1,3.9-2,10.1-2.5,14.4
		c-0.5,4.3-0.4,6.9,0.1,8.5c0.4,1.7,1.2,2.4,1.7,2.9c0.5,0.5,0.8,0.7,1,0.9c0.2,0.2,0.4,0.5,0.5,2.1c0.1,1.5,0.3,4.3,0.5,6.8
		c0.2,2.5,0.5,4.7,0.9,7.4c0.4,2.7,1,5.8,1.5,8.2c0.5,2.4,0.9,3.9,1,5.1c0.1,1.2-0.1,2,0,2.6c0.1,0.6,0.6,0.9,0.7,2.2
		c0.1,1.3-0.1,3.6-0.2,5.6c-0.1,2,0,3.6-0.2,5c-0.2,1.3-0.8,2.4-1.1,3.2c-0.3,0.8-0.5,1.3-0.5,1.7c0,0.4,0.1,0.7,0.3,1.1
		c0.2,0.4,0.5,1,0.6,1.5c0.2,0.5,0.2,1,0,1.5c-0.2,0.4-0.5,0.8-0.7,1.1c-0.2,0.3-0.1,0.5,0,0.7c0.1,0.2,0.3,0.4,1.1,0.6
		c0.9,0.1,2.5,0.1,3.4,0c0.9-0.1,1.2-0.2,1.3-0.5c0.1-0.3,0.2-0.6,0-1.2c-0.2-0.6-0.6-1.4-0.6-2c0-0.6,0.4-1.1,0.6-1.9
		c0.3-0.8,0.4-2,0.4-3c0-1.1-0.1-2.1-0.1-2.8c0-0.6,0.3-0.8,0.4-1.2c0.2-0.4,0.2-1.1,0.1-1.7c-0.2-0.6-0.6-1.1-0.9-2
		c-0.3-0.9-0.3-2.2-0.5-3.3c-0.2-1.1-0.4-2-0.4-3.5c0-1.5,0.1-3.5,0.4-6.3c0.2-2.8,0.4-6.5,0.7-8.7c0.3-2.2,0.6-2.9,0.8-3.7
		c0.1-0.8,0.1-1.8,0-2.6c-0.1-0.8-0.1-1.3,0.1-2c0.3-0.7,0.9-1.4,1.8-3.2c0.8-1.7,1.8-4.4,2.5-6.1c0.7-1.7,1-2.4,1.4-3
		c0.3-0.6,0.6-1,0.8-1.2c0.2-0.2,0.3-0.1,0.3,0c0,0.1,0.1,0.3-0.1,1.2c-0.2,0.9-0.5,2.6-0.8,4.6c-0.3,2-0.6,4.4-0.7,7
		c-0.1,2.6-0.1,5.4-0.1,7.9c0,2.5-0.1,4.6,0.3,6.3c0.4,1.8,1.2,3.2,2,4.5c0.8,1.4,1.6,2.7,2.2,3.5c0.6,0.8,0.9,1.2,1.5,1.8
		c0.6,0.6,1.5,1.4,1.8,1.4c0.4,0,0.3-0.7,0.2-1.7c0-1,0-2.3-0.2-3.3c-0.3-1.1-0.9-2-1.5-3.4c-0.5-1.4-0.9-3.3-1-5.8
		c-0.1-2.4,0.2-5.4,0.5-7.8c0.3-2.4,0.8-4.3,0.9-6c0.2-1.8,0.1-3.4,0.2-4.8c0.1-1.4,0.4-2.4,0.7-2.9c0.3-0.5,0.5-0.5,1-0.4
		c0.5,0.1,1.2,0.2,1.8,0.6c0.6,0.3,0.9,0.9,1,1.5c0,0.6-0.2,1.4-0.7,2.1c-0.5,0.7-1.1,1.3-1.1,2.2c-0.1,0.9,0.5,2.1,0.9,3.5
		c0.4,1.5,0.8,3.2,1.3,7.6c0.5,4.3,1,11.3,1.3,15.2c0.3,3.9,0.3,4.9,0.3,5.9c0,1-0.1,2.2,0,2.9c0.1,0.7,0.2,1,0.5,1.4
		c0.2,0.4,0.5,0.8,0.6,1.5c0.1,0.7,0.1,1.6-0.1,3c-0.1,1.5-0.3,3.4-0.5,4.6c-0.1,1.2-0.2,1.7-0.1,2.1c0.1,0.4,0.2,0.8,0.5,1
		c0.3,0.2,0.7,0.2,1.5,0.2c0.7,0,1.8-0.1,2.4-0.2c0.7,0,0.9-0.1,1.2-0.1c0.2-0.1,0.4-0.1,0.5-0.1c0.1,0,0.1,0.2,0,0.6
		c0,0.4-0.1,1-0.1,1.4c0,0.4,0,0.6,0.2,0.8c0.1,0.1,0.3,0.1,1.2,0.2c0.8,0,2.3,0,3.1,0c0.8,0,0.9-0.1,1-0.3c0.1-0.2,0.2-0.5,0.4-0.7
		c0.2-0.2,0.4-0.3,0.5-0.2c0.2,0.1,0.3,0.3,0.4,0.6c0.2,0.2,0.4,0.4,0.7,0.6c0.3,0.1,0.6,0.1,6.4,0.1c5.8,0,17.2,0,23.1,0
		c5.9,0,6.4,0.1,6.8,0c0.3,0,0.5-0.1,0.8-0.4c0.3-0.3,0.6-0.8,0.9-0.9c0.3-0.2,0.6,0,0.8,0.3c0.2,0.3,0.4,0.6,1.7,0.8
		c1.3,0.2,3.7,0.2,5.8,0.2c2.1,0,4,0,5.3-0.4c1.3-0.4,2-1.3,2.1-2.5c0.1-1.2-0.4-2.7-0.8-4.5c-0.5-1.7-0.9-3.7-1.4-5.6
		c-0.5-2-1-4-1.2-5.9c-0.2-1.9-0.1-3.8,0.1-4.9c0.2-1.1,0.5-1.5,0.9-1.8c0.5-0.3,1.1-0.5,1.6-1c0.5-0.5,0.8-1.2,1.2-3.2
		c0.4-2,0.9-5.2,2.4-10.1c1.5-4.9,4.1-11.5,5.4-17.5c1.3-6,1.2-11.4,1-16.6c-0.2-5.2-0.7-10.4-0.3-15.6c0.3-5.2,1.5-10.4,2.4-14.2
		c0.9-3.8,1.6-6.2,2.8-10.2c1.2-4,2.9-9.8,4-13.6c1.2-3.8,1.8-5.6,2.1-6.6c0.3-1,0.3-1.2,0.6-1.4c0.3-0.2,1-0.4,1.8-0.5
		c0.7-0.1,1.5-0.1,2.1-0.3c0.6-0.2,0.9-0.6,1.3-1c0.4-0.4,0.8-0.7,1-1.4c0.3-0.6,0.5-1.5,0.8-2.1c0.3-0.6,0.8-0.8,1.3-1.3
		c0.4-0.5,0.8-1.2,1-2.1C131.8,82.1,131.8,81,131.8,79.9z M71.3,154.7c-0.2,0.4-0.5,0.7-0.6,1.3c-0.1,0.6,0,1.6-0.4,7.3
		c-0.5,5.7-1.5,16.1-1.5,23.1c-0.1,2.1-0.3,2.5-0.5,2.7c-0.2,0.2-0.2,0.4-0.2,0.8c0,0.3,0.1,0.8,0.1,1.3c0,0.6-0.2,1.2-0.5,1.9
		c-0.3,0.7-0.7,1.5-0.9,2.3c-0.1,0.8,0.1,1.6,0.3,2.2c0.2,0.6,0.5,0.9,0.6,1.3c0,0.3-0.3,0.7-0.6,0.9c-0.3,0.1-0.7,0-1.1,0
		c-0.4,0-0.8,0.1-1.4,0.4c-0.5,0.3-1.2,0.8-1.6,1.3c-0.4,0.5-0.7,1-1.1,1.3c-0.3,0.3-0.7,0.4-1.3,0.5c-0.6,0.1-1.4,0.2-1.9,0.3
		c-0.4,0.1-0.5,0.3-0.3,0.4c0.2,0.1,0.6,0.1,1.1,0c0.4-0.1,0.9-0.4,1.3-0.4c0.4,0.1,0.9,0.5,1.1,0.7c0.2,0.3,0.2,0.5,0.1,0.7
		c-0.2,0.2-0.5,0.5-0.9,1.2c-0.4,0.7-1,1.7-1.1,2.4c-0.1,0.7,0.3,0.9,0.3,1.1c0,0.2-0.3,0.3-0.5,0.4c-0.3,0.1-0.5,0.2-0.8,0.4
		c-0.2,0.1-0.4,0.3-0.6,0.7c-0.2,0.3-0.5,0.8-0.8,1c-0.3,0.2-0.7,0.2-1,0.4c-0.3,0.2-0.6,0.5-0.9,0.8c-0.3,0.3-0.5,0.6-0.8,0.6
		c-0.4,0.1-0.9-0.1-1.4,0.2c-0.5,0.3-1,1.1-1.4,1.5c-0.5,0.4-0.9,0.5-1.5,0.6c-0.6,0.1-1.3,0.4-1.8,0.4c-0.4,0-0.6-0.1-0.6-0.3
		c0-0.2,0-0.5,0-0.8c0-0.4,0.1-0.8,0.2-1.3c0.1-0.5,0.3-1,0.3-1.9c0-0.8-0.2-1.9-0.1-3.8c0-1.9,0.3-4.6,0.5-7.6
		c0.2-3,0.4-6.3,0.8-9.5c0.3-3.2,0.8-6.2,1.2-8.9c0.4-2.7,0.8-5.2,1-6.7c0.2-1.5,0.2-2-0.1-2.7c-0.3-0.6-1-1.3-0.9-2
		c0-0.6,0.8-1.1,1.3-1.5c0.5-0.4,0.7-0.7,0.9-1c0.2-0.4,0.4-0.8,0.6-1.1c0.2-0.3,0.4-0.4,0.9-0.4c0.5,0,1.2,0.2,2-0.1
		c0.8-0.2,1.6-0.9,2.1-1.4c0.5-0.5,0.8-1,0.9-1.4c0.1-0.4,0.1-0.9-0.1-3.6c-0.2-2.7-0.5-7.6-0.8-11.1c-0.3-3.5-0.5-5.5-0.9-7.3
		c-0.4-1.8-0.9-3.4-1.2-4.2c-0.3-0.9-0.2-1-0.1-1.1c0.1-0.1,0.3-0.2,0.6-0.2c0.3,0,0.8,0.1,1.1,0c0.4,0,0.6-0.2,0.9-0.6
		c0.2-0.4,0.5-1.2,0.5-1.8c0.1-0.7-0.1-1.3-0.2-2.2c-0.1-0.9-0.2-2.1,0-2.9c0.1-0.8,0.5-1.3,0.7-1.7c0.2-0.4,0.2-0.6,0.6-0.8
		c0.3-0.2,1-0.4,1.2-1.3c0.2-0.9,0.1-2.5,0-3.9c-0.1-1.4-0.3-2.6-0.7-3.8c-0.4-1.2-1.1-2.5-1.9-3.4c-0.7-0.9-1.5-1.3-2.2-1.5
		c-0.7-0.2-1.3-0.2-1.8-0.1c-0.5,0.1-0.7,0.2-1.1,0.2c-0.3,0-0.7,0-1.2,0c-0.5,0-1.1,0.2-1.7,0.3c-0.6,0.1-1.1,0.1-1.6,0.2
		c-0.5,0-1,0-1.7,0.2c-0.7,0.2-1.5,0.5-1.6,0.2c0.7-1.8,1-2.2,1.1-2.8c0.1-0.6,0.1-1.4,0.2-2.4c0.1-1,0.3-2.4,0.8-3.7
		c0.5-1.4,1.3-2.8,1.7-4.2c0.4-1.4,0.5-2.7,0.6-3.7c0.1-0.9,0.1-1.5,0.4-1.9c0.3-0.4,0.8-0.7,1.2-1.8c0.4-1.1,0.5-3.1,0.6-5.2
		c0.1-2.1,0-4.2,0-5.9c0.1-1.7,0.2-2.9,0.3-4.2c0-1.3,0-2.8-0.1-3.7c-0.1-1-0.2-1.4-0.2-1.7c0-0.3,0.1-0.4,0.3-0.3
		c0.2,0.1,0.4,0.3,0.7,0.7c0.4,0.4,0.8,1.1,1.2,1.6c0.4,0.6,0.6,1,1.1,1.7c0.4,0.6,1.1,1.4,1.6,2.1c0.5,0.7,0.8,1.2,1.2,2
		c0.4,0.7,0.7,1.6,1.1,2.4c0.4,0.8,0.7,1.6,1.3,2.5c0.5,0.9,1.3,1.9,2,2.7c0.7,0.8,1.3,1.5,1.7,2.1c0.4,0.6,0.7,1.1,0.9,1.4
		c0.2,0.3,0.4,0.5,0.6,0.7c0.2,0.2,0.3,0.4,0.3,0.5c0,0.2-0.1,0.4-0.3,0.5c-0.1,0.2-0.3,0.3-0.2,0.5c0.1,0.1,0.4,0.2,0.8,0.2
		c0.4,0,0.9,0,1.2,0.1c0.3,0.2,0.4,0.5,0.4,1c0,0.5-0.1,1-0.1,1.7c0,0.7,0.1,1.6,0.2,2.5c0.1,0.9,0.2,1.8,0.2,4.9
		c0,3.1,0,8.4,0,11.1c0,2.7,0,3,0.2,3.5c0.2,0.5,0.5,1.3,0.6,2.1c0,0.7-0.2,1.4-0.3,1.9c-0.1,0.5-0.1,0.8,0,1
		c0.1,0.3,0.3,0.5,0.4,1.2c0.1,0.8,0.2,2.1,0.2,3c0,1,0,1.7,0,2.4c0.1,0.8,0.2,1.6,0.4,2.6c0.2,0.9,0.4,1.9,0.4,2.5
		c0,0.6-0.1,0.7-0.2,0.9c-0.1,0.2-0.2,0.5-0.2,0.8c0,0.3,0,0.6,0.1,0.9c0.1,0.3,0.3,0.6,0.4,0.8c0.1,0.2,0.1,0.2,0.1,0.3
		c0,0.1-0.1,0.3-0.2,1.1c-0.1,0.8-0.2,2.1-0.1,2.9c0.1,0.8,0.4,1.2,0.7,1.6c0.3,0.4,0.6,0.9,0.6,1.3c0,0.4-0.2,0.7-0.5,1.1
		c-0.2,0.4-0.4,0.9-0.4,1.4c0,0.5,0.2,0.9,0.4,1.5c0.2,0.7,0.4,1.6,0.5,2.4C71.6,153.7,71.5,154.3,71.3,154.7z"/>
</g>
<g id="Inner">
	<path class="st1" d="M47.7,116.4c1.9,0.8,2.4,0.6,2.6,0.7c0.2,0.1,0.1,0.4,0.3,0.7c0.2,0.3,0.5,0.5,1.1,0.6
		c0.5,0.2,1.2,0.3,1.7,0.9c0.5,0.6,1,1.5,1.4,2.5c0.4,1,0.9,2,1.4,5.1"/>
	<path class="st1" d="M44.1,117c1.3-0.6,1.8-1.6,2-2.9"/>
	<path class="st1" d="M56.6,133.7c0.3-6.7-1.2-8.8-2.3-10.1c-1.2-1.3-2.1-1.8-2.7-2.4c-0.6-0.6-0.8-1.4-1.2-2
		c-0.4-0.6-0.9-1-2.1-1.4c-1.2-0.4-2.9-0.8-4.1-0.9c-1.1,0-1.7,0.3-3.2,0.4c-1.6,0.1-4.2,0.1-6.3,0.1"/>
	<path class="st1" d="M79.2,43.4C67.6,50.6,67,53.8,66.6,54.9c-0.4,1.1-0.6-0.1-0.6-2.1c-0.1-2-0.1-4.8,2.1-6.4"/>
	<path class="st1" d="M54.1,115.2c-1.5,1.5-0.8,2.4-0.1,2.9c0.7,0.5,1.4,0.6,1.8,1.2c0.4,0.6,0.5,1.7,0.5,2.6c0,0.9,0,1.6,0.1,2.2
		c0.1,0.6,0.2,1,0.7,1.6c0.4,0.6,1.1,1.2,2.9,1.2"/>
	<path class="st1" d="M49.1,49c-0.9-6.6-0.4-8.2-0.5-9.6c0-1.4-0.6-2.5,0.1-3.5c0.7-0.9,2.5-1.7,3.9-1.7"/>
	<path class="st1" d="M16.2,43.6c-0.3,4.2-0.4,4.7-0.3,5.1c0.1,0.4,0.4,0.6,0.6,0.9c0.1,0.3,0.1,0.8,0,1.1c-0.1,0.3-0.2,0.6-0.1,0.8
		c0.1,0.2,0.3,0.5,0.5,0.7c0.2,0.2,0.5,0.4,0.2,0.9"/>
	<path class="st1" d="M17.1,26.5c-2.9,6.2-5.4,8.5-6.9,10.4C8.6,38.8,8,40.4,7.7,48.2"/>
	<path class="st1" d="M17.1,53.2c2.2,1.3,2.9,1.1,3.5,0.9c0.6-0.2,1.1-0.5,1.6-0.6c0.5-0.1,0.9-0.2,1.3,0c0.4,0.2,0.9,0.5,1.2,0.8
		c0.3,0.3,0.6,0.6,1.4,0.3"/>
	<path class="st1" d="M19.9,52.7c-0.4-0.1-1.1-0.3-1.6-0.7"/>
	<path class="st1" d="M20.4,52.8c-0.1,0.5-0.3,0.6-0.5,0.6c-0.2,0-0.4-0.2-0.6-0.3C19,53,18.8,53,18.5,52.8c-0.3-0.1-0.5-0.4-1.1-2"
		/>
	<path class="st1" d="M19.7,50.4c0.4,0.9,0.5,1.1,0.6,1.2c0.2,0.1,0.4,0.3,0.7,0.2"/>
	<path class="st1" d="M18.6,47.9c1.3,1.3,1.6,2,2.1,2.6c0.5,0.5,1.3,0.8,2.5,1.2"/>
	<path class="st1" d="M45.8,12.3c0-1.7,0.5-2.3,0.6-2.7c0.1-0.5,0-0.8,0-1.2c0-0.4,0.1-1,1.6-2.3"/>
	<path class="st1" d="M25.8,22.7c4.4-4,6.2-5.8,7.4-7c1.2-1.2,1.8-1.9,3.9-2.7c2-0.9,5.5-1.9,8.7-2.5"/>
	<path class="st1" d="M73.2,8.2c-2.3-0.9-2.5-0.4-2.6,0.1c-0.1,0.6-0.2,1.3-0.6,2.3c-0.4,1-1,2.4-1.5,3.6c-0.4,1.1-0.6,2.1-0.8,2.9
		c-0.2,0.9-0.5,1.7-1,2.5c-0.5,0.8-1.3,1.6-2.5,2.6"/>
	<path class="st1" d="M92,25.1c7.6,4.9,8.8,4.6,10.8,4.5c2-0.2,4.6-0.2,6.2-0.1c1.6,0.1,2.3,0.4,3.1-3.3"/>
	<path class="st1" d="M72.5,4.4c4.9,3.3,5.3,4.5,5.8,4.8c0.5,0.3,1-0.4,1.3-0.8c0.4-0.4,0.7-0.4,1.1-0.4c0.4,0,1,0.2,2.5,0.6
		c1.5,0.4,3.8,1,5.6,1.5c1.7,0.5,2.9,0.7,3.8,0.8c0.9,0.1,1.7,0.1,2.3,0.2c0.6,0.1,1.1,0.5,2.3,0.9c1.2,0.5,3.1,1.1,4.2,1.5
		c1.1,0.4,1.4,0.5,1.9,0.7c0.5,0.2,1.2,0.6,1.5,0.8c0.4,0.2,0.4,0.4,0.7,0.5c0.2,0.1,0.6,0.2,0.8-0.4"/>
	<path class="st1" d="M92.8,11.2c1.5,4.8-0.7,16-3.3,20.9"/>
	<path class="st1" d="M74.4,32.2c1.4-1.1,2.1-1.5,2.9-1.5c0.8,0,1.9,0.4,3.1,1c1.2,0.6,2.7,1.5,8.1,1.7"/>
	<path class="st1" d="M71.9,10.5c4.3,2.8,7.2,5.7,8.7,8c1.5,2.2,1.5,3.7,1.2,5.1c-0.2,1.4-0.7,2.8-1.6,7.9"/>
	<path class="st1" d="M73.2,8.2c-2.1,3.2-3,7-3.6,9.6c-0.7,2.6-1.1,4.1-3.7,6.3"/>
	<path class="st1" d="M33.2,100.3c0.8,2,1.1,4.3,1.6,5.2c0.5,0.9,1.1,0.4,1.5-0.1c0.4-0.5,0.7-1.1,1.3-1.7c0.6-0.6,1.4-1.3,1.6-0.9
		c0.2,0.4-0.2,1.9,0.1,3.1c0.3,1.1,1.3,1.8,1.9,1.8c0.6-0.1,0.8-0.9,1.3-1.6c0.5-0.7,1.3-1.2,1.8-1.6c0.5-0.4,0.7-0.6,0.9-0.7
		c0.2,0,0.2,0.1,0.4,0.7c0.2,0.6,0.5,1.7,0.8,2.4c0.3,0.7,0.5,0.9,1.4,0.6"/>
	<path class="st1" d="M86.8,192.6c3.3,4.1,5.2,5.2,7.4,5.9c2.2,0.8,4.9,1.2,7.4,0.7"/>
	<path class="st1" d="M67,195c1.7,2.3,5,3,7.1,3.4c2.1,0.4,3,0.3,3.9,0.5c0.8,0.1,1.6,0.4,2.5,0.9c0.9,0.5,1.9,1.1,3.7,0.1"/>
	<path class="st1" d="M66.2,204.2c-1.1,1.6-0.2,2.3,0,3.1c0.3,0.8-0.1,1.8-0.4,2.6c-0.2,0.7-0.3,1.2-0.5,1.3c-0.2,0.1-0.6-0.1-1-0.2
		c-0.4-0.1-0.8-0.1-1.2,0c-0.3,0.2-0.6,0.5-0.5,0.8c0,0.4,0.4,0.8,0.6,1.2c0.2,0.3,0.3,0.6,0,0.8c-0.3,0.2-1,0.5-1.5,0.4
		c-0.4-0.1-0.6-0.5-0.6-0.9c0-0.4,0-0.7-0.2-0.9c-0.2-0.2-0.5-0.3-0.8-0.2c-0.2,0.1-0.4,0.3-0.3,0.5c0,0.2,0.2,0.5,0.4,0.8
		c0.2,0.3,0.3,0.5,0.2,0.7c-0.1,0.2-0.4,0.4-0.6,0.5c-0.2,0.1-0.4,0.1-0.4-0.1c-0.1-0.2-0.1-0.6-0.2-0.9c0-0.3-0.1-0.4-0.3-0.5
		c-0.2-0.1-0.4,0-0.7,0.1c-0.3,0.1-0.5,0.3-0.6,0.6c-0.1,0.3,0.1,0.7,0.1,1.1c0,0.4-0.1,0.9-0.2,1.1c-0.2,0.2-0.5,0.2-0.7,0.1
		c-0.2-0.1-0.2-0.2-0.2-0.5c0.1-0.3,0.3-0.7-0.6-1.2"/>
	<path class="st1" d="M67.2,199.8c0.2,1.6,0,1.9,0.2,2.1c0.2,0.2,0.8,0.5,1.3,0.7c0.5,0.2,0.8,0.2,1.4,0.5c0.6,0.2,1.5,0.7,2.5,1.2
		c1.1,0.5,2.3,1.2,3.7,1.8c1.4,0.6,3,1,4.5,0.2"/>
	<path class="st1" d="M67.7,198.8c7.1,2.8,9,2.5,10.2,2.6c1.1,0.1,1.5,0.4,3.4,1.2"/>
	<path class="st1" d="M83.6,219.1c-3.5,1.2-6.3,2.7-8.3,3.5c-2,0.8-3.3,0.8-4.3,0.5c-1.1-0.3-1.9-0.9-3.1-1.1
		c-1.2-0.1-2.7,0.2-4.1,0.6c-1.3,0.4-2.4,0.9-4.3,1.3c-1.9,0.4-4.5,0.8-6.6,0.7c-2.2-0.1-3.9-0.7-6-1.2"/>
	<path class="st1" d="M100.6,219.2c-3-0.3-6,1.3-8,2c-2,0.7-3,0.5-3.8,0c-0.8-0.5-1.5-1.4-4.8-1.1"/>
	<path class="st1" d="M99,201.6c-3.5,0-5.3-0.6-6.5-1.2c-1.3-0.6-2-1.2-3.1-2.2c-1-1-2.3-2.5-3.3-3.5"/>
	<path class="st1" d="M84.8,198.2c3.1,3.9,10.4,7.4,13.7,4.2"/>
	<path class="st1" d="M103.8,85.4c-2.9,7.5-3.4,10.5-3.8,13.9c-0.4,3.5-0.6,7.4-1.1,12.4c-0.5,5-1.2,11.1-2.1,16.9
		c-1,5.8-2.2,11.2-3.1,14.5c-0.9,3.3-1.5,4.5-1.7,5.8c-0.2,1.3-0.1,2.8,0.2,3.8c0.3,1,0.6,1.6,0.7,3.2c0.1,1.6-0.1,4.1-0.4,6.9
		c-0.2,2.8-0.5,5.8-0.8,8.6c-0.3,2.8-0.7,5.3-1.3,8.1c-0.6,2.8-1.4,5.9-2.3,9c-0.9,3.1-1.9,6.2-2.6,8.1c-0.7,1.9-1.1,2.6-1.3,3.2
		c-0.2,0.6-0.1,1.2-0.1,1.7c0,0.4,0,0.7-0.5,0.8c-0.5,0.1-1.5,0-2,0.1c-0.5,0.2-0.4,0.6-0.4,1c0,0.5,0,1-0.1,1.6
		c-0.1,0.5-0.2,1.1-0.1,1.4c0.1,0.4,0.6,0.5,0.9,0.7c0.3,0.2,0.5,0.4,0.3,0.7c-0.2,0.3-0.7,0.7-0.8,1.3c-0.1,0.7,0.1,1.6,0.5,3
		c0.4,1.5,0.8,3.5,1.4,5.2c0.5,1.7,1.1,3.2,1.6,4.3c0.5,1,0.9,1.7,1.2,4.1"/>
	<path class="st1" d="M118.2,71.7c-1.2,8.4-1.4,9.8-1.2,10.8c0.2,0.9,1,1.3,3.2,3"/>
	<path class="st1" d="M55.8,38.7c-1.6,2.1-1.9,3.1-2.7,3.9c-0.8,0.8-2.1,1.5-2.9,2.3c-0.8,0.8-1.1,1.6-1.1,2.5
		c-0.1,0.9,0.1,1.9,0.6,2.9c0.5,1,1.3,2.2,2.2,5.2c0.9,3,1.8,7.9,0.8,16.9"/>
	<path class="st1" d="M71.7,29.5c-4.1,0.1-5.6-0.2-6.7-0.2c-1.1,0.1-1.8,0.6-2.5,1.4c-0.7,0.8-1.5,1.9-2.3,2.9
		c-0.8,0.9-1.7,1.7-2.6,2.4c-0.9,0.7-1.8,1.5-1.8,2.8"/>
	<path class="st1" d="M75.9,35.1c-5.6,1-10.2,1.2-12.7,1.5c-2.5,0.4-2.9,0.9-4.2,2.4c-1.3,1.4-3.5,3.7-5.5,3.9"/>
	<path class="st1" d="M27.1,19.3c-1,3.5-1.5,3.9-2.8,5.2C23,25.8,20.9,28,22,33"/>
	<path class="st1" d="M104.2,36.6c-3.7,2.1-6.5,1.6-8.4,1c-1.9-0.6-2.7-1.2-4-1.4c-1.2-0.2-2.9-0.1-4.8-0.1s-4.1,0.1-5.4-0.2
		c-1.3-0.2-1.7-0.6-2.4-0.7c-0.7,0-1.8,0.4-2.7,0.1c-0.9-0.3-1.7-1.2-1.9-2.1c-0.2-0.9,0-1.7-0.7-2.4c-0.7-0.7-2.4-1.4-3.7-2.3
		c-1.4-1-2.5-2.3-3.4-3.3c-0.9-1-1.6-1.8-2.7-2.9c-1.1-1.2-2.7-2.8-4.2-3.9c-1.5-1.2-2.8-2-4.7-2.6c-1.9-0.7-4.3-1.2-6.9-1.2
		c-2.6-0.1-5.5,0.4-8.3,1.2c-2.7,0.8-5.4,2-7.2,3.2c-1.9,1.2-3,2.4-3.9,3.6c-0.9,1.2-1.6,2.4-2.3,3.5c-0.6,1.1-1.2,2-1.8,2.9
		c-0.6,0.9-1.1,1.7-1.6,2.3c-0.5,0.6-0.8,1-1,1.2c-0.2,0.2-0.3,0.2-0.3,0.3c0,0.1,0,0.2,0,0.5c0.1,0.3,0.2,0.9,0.1,1.5
		c0,0.6-0.2,1.3-0.2,2.7c0,1.3,0.2,3.2,0.4,5c0.2,1.8,0.6,3.3,1,4.5c0.4,1.2,0.8,2,1,2.8c0.2,0.7,0.1,1.4,0.2,2.1
		c0,0.7,0.2,1.4,0.7,2.1c0.5,0.6,1.5,1.1,1.6,1.5"/>
	<path class="st1" d="M63,67.2c-5.5-3.6-5.7-6.4-6.1-9.7c-0.4-3.3-1.1-7-3-9.3"/>
	<path class="st1" d="M67.4,77.8c-2.3-2.3-3.3-4.6-3.8-6.7c-0.5-2-0.6-3.8-0.5-5.1c0.1-1.3,0.5-2.2,0.7-3.5c0.2-1.2,0.1-2.7-0.1-4.1
		c-0.2-1.3-0.7-2.5-1.3-2.3c-0.6,0.2-1.4,1.6-1.4,5"/>
	<path class="st1" d="M68.3,80.6c3.4-6.1,9.2-11.1,13.6-14.9c4.3-3.8,7.2-6.2,10-8.2c2.8-2,5.6-3.4,8.9-4.4c3.3-1,7.2-1.5,10.2-1.2
		c3,0.3,5.1,1.4,6.7,2.4c1.6,0.9,2.7,1.6,4.9,5.7"/>
	<path class="st1" d="M66.1,92.3c2.7-6,3.1-11.6,1.3-14.6"/>
	<path class="st1" d="M117,63.8c-2.4-2.1-4.8-5.2-6.2-7.1"/>
	<path class="st1" d="M123.5,65.2c0.7,3,1.3,5.1,1.5,6.9c0.2,1.8-0.1,3.3-0.3,4.9c-0.2,1.6-0.3,3.3-0.5,5.1c-0.2,1.8-0.6,3.8-1,5.6
		c-0.5,1.8-1,3.3-1.2,4.6"/>
	<path class="st1" d="M68.1,94.6c7.6,1,8.7,0.1,9.5-0.4c0.8-0.5,1.3-0.5,2.7-0.8c1.4-0.3,3.7-1.1,6.3-2.9c2.5-1.8,5.2-4.7,7.4-6.8
		c2.1-2.1,3.7-3.4,5.4-4.6c1.7-1.2,3.6-2.4,5.6-4.2c2.1-1.8,4.3-4.2,6-6.1c1.7-1.9,3-3.2,4-4.1c1-0.8,1.8-1.1,2.1-1
		c0.4,0.2,0.3,0.8,0.2,1.3c-0.1,0.5-0.2,0.7,0.2,0.9c0.4,0.2,1.2,0.3,2.2,0.2c0.9-0.1,2-0.3,2.7-0.6c0.7-0.2,1-0.5,1.8-0.5
		c0.8-0.1,2,0,3.3,1.2"/>
	<path class="st1" d="M9.5,24.5c-1.1,1.1-2.3,1.4-3,1.7c-0.7,0.3-1.1,0.6-1.2,1c-0.2,0.4-0.2,1-0.4,3.1"/>
	<path class="st1" d="M22,33c-3.3,5.9-4.3,7.6-5,9c-0.7,1.4-1.2,2.5-1.6,3.6c-0.4,1.1-0.7,2.3-0.9,4.2c-0.2,1.9-0.3,4.6,0.8,5.1"/>
	<path class="st1" d="M32.8,112.3c5.4,1.5,7.4,1.5,9,1.3c1.6-0.2,2.7-0.7,5-1.1"/>
	<path class="st1" d="M38.4,186.8c-0.1,4.4-0.2,6.2-0.2,7.8c-0.1,1.6-0.2,3-0.2,4.1c0,1.2,0,2.2,0.3,3.3c0.3,1.2,0.7,2.5,1.2,5.3"/>
	<path class="st1" d="M50.7,160.2c3.3,1.6,3.8,2.8,4.6,3.5c0.7,0.6,1.7,0.7,2.6,0.8c0.9,0.1,1.6,0.1,1,1.1"/>
	<path class="st1" d="M38,121c3.6-1,7.5,0.2,10,1.3c2.5,1.1,3.6,2,4.8,4.1c1.2,2.1,2.6,5.5,3.5,10.7"/>
	<path class="st1" d="M37.8,154.9c3.2,6,2,8.3,1.7,10.4c-0.4,2.1,0.1,4.1,0.7,5.1c0.6,1,1.4,1.1,1.7,1.5c0.3,0.4,0.2,1.2-0.2,3.4
		c-0.4,2.2-1,6-0.7,9.1"/>
	<path class="st1" d="M8.2,160.5c-1.1,6.3,0.3,6.6,0.9,7.1c0.7,0.4,0.7,1,0.6,1.9c-0.1,0.9-0.4,2.2-0.4,4c0,1.8,0.3,4.1,0.5,6.1
		c0.2,2,0.3,3.7,0.2,9.6"/>
	<path class="st1" d="M21.5,139.9c-0.7,4.1-0.4,6.1-0.2,8.2c0.2,2.1,0.4,4.4,0.6,6.4c0.2,2,0.3,3.7,0.5,5.6c0.2,1.8,0.6,3.7-0.3,8"
		/>
	<path class="st1" d="M27.2,140.6c0.9,3.1,0.6,3.9,0.5,4.8c-0.1,0.9-0.2,1.8-0.1,4c0.1,2.2,0.2,5.6,0.3,7.8c0.1,2.3,0.1,3.4,0,4.4
		c-0.1,1-0.2,2-0.4,3c-0.1,1-0.3,2.1-0.2,3.5c0.1,1.4,0.4,3.2,0.1,4.8"/>
	<path class="st1" d="M40.6,224.6c0.5-3.5,0.6-5.8,0.4-7.6c-0.2-1.8-0.6-3.1-1.1-4.2c-0.4-1.1-0.8-2-0.8-2.9
		c-0.1-0.9,0.2-1.9,0.5-3.1c0.3-1.2,0.5-2.5,0.6-3.7c0.1-1.2,0.1-2.4,0.1-4.1c0-1.8-0.1-4.2-0.5-6.6c-0.4-2.4-1.1-4.9-1.9-6.6
		c-0.7-1.7-1.4-2.7-1.6-3.7c-0.2-0.9,0.2-1.8,0.3-2.7c0.1-1-0.2-2.1-0.8-3.5c-0.6-1.4-1.7-2.9-2.6-4.3c-0.9-1.4-1.8-2.7-2.9-3.6
		c-1.1-1-2.3-1.7-2.7-3.4"/>
	<path class="st1" d="M45.7,158.4c0.6,5.4,0.5,6.7,0.5,7.9c-0.1,1.2-0.2,2.1-0.1,3c0.1,0.9,0.3,1.6,0.3,2.3c0,0.7-0.1,1.2-0.2,3.2
		c-0.1,1.9,0,5.2,0.1,7.8c0.2,2.7,0.4,4.8,0.6,7.3c0.2,2.5,0.3,5.5,0.2,7.6c0,2.1-0.1,3.5-0.2,5c-0.1,1.5-0.3,3.1-0.5,4.3
		c-0.2,1.1-0.3,1.8-0.4,2.7c-0.1,0.9,0,2.2,0.1,4.1c0.1,1.9,0.3,4.3,0.4,6c0.1,1.7,0.1,2.6,0.1,3.7c0,1,0,2.2-0.5,2.9"/>
	<path class="st1" d="M2.4,167.4c1-7.6,3.2-11.4,4.9-14.5c1.8-3.1,3-5.6,4.6-8.1c1.6-2.6,3.5-5.2,5-6.7c1.5-1.5,2.6-1.8,3.9-1.9
		c1.3-0.2,2.8-0.2,5.1,1.1c2.3,1.3,5.4,3.8,7.8,6c2.4,2.1,4.2,3.9,5.3,5.5c1.1,1.6,1.5,3,3,4.6c1.5,1.6,4,3.2,5.5,4.7
		s1.9,2.8,2.1,3.9"/>
	<path class="st1" d="M47.6,136.4c2,6.6,2.1,9,2.2,10.8c0.1,1.8,0.2,2.9,0.4,4c0.2,1.1,0.6,2.1,0.7,3.5c0.1,1.3,0.1,3-0.1,4.4
		c-0.1,1.4-0.3,2.4-1.2,2.2"/>
	<path class="st1" d="M30.9,117.8c4.5,1.2,5.9,2.2,7.2,3.4c1.3,1.2,2.6,2.6,3.2,4.5c0.6,1.9,0.5,4.4,1,6.5c0.5,2.1,1.6,3.8,2.3,5.1
		c0.7,1.2,1,2,1.3,3.3c0.3,1.3,0.5,3.3,0.8,4.5"/>
	<path class="st1" d="M61.2,43.6c-0.2,4.9-1.1,5.8-1.7,6.7c-0.7,0.9-1.1,1.7-1.1,3.4"/>
</g>
</svg>
