<?xml version="1.0" encoding="utf-8"?>
<!-- Generator: Adobe Illustrator 21.0.0, SVG Export Plug-In . SVG Version: 6.00 Build 0)  -->
<svg version="1.1" xmlns="http://www.w3.org/2000/svg" xmlns:xlink="http://www.w3.org/1999/xlink" x="0px" y="0px"
	 viewBox="0 0 129.6 281.5" style="enable-background:new 0 0 129.6 281.5;" xml:space="preserve">
<style type="text/css">
	.st0{fill:#FFFFFF;stroke:#000000;stroke-linecap:round;stroke-linejoin:round;}
	.st1{fill:none;stroke:#000000;stroke-width:0.15;stroke-linecap:round;stroke-linejoin:round;}
</style>
<g id="ytter_x5F_skalgubbar">
	<path class="st0" d="M110.5,249.2c-1,0.1-1.9,0.1-2.9,0.2"/>
	<path class="st0" d="M93.3,267.9c0.3-0.1,0.5-0.2,0.8-0.2"/>
	<path class="st0" d="M107.9,261c-0.1,0.2-0.3,0.4-0.6,0.4c-0.2,0-0.5-0.1-0.7-0.2c-0.2-0.1-0.4-0.2-0.5-0.2c-0.1,0-0.2,0-0.3,0"/>
	<path class="st0" d="M41.5,267.5c0.2,0.8,0.2,1.7-0.1,2.4c-0.3,0.6-0.9,1-1.5,1.4c-0.4,0.3-0.9,0.7-1,1.1c-0.2,0.4-0.1,1-0.2,1.5
		c-0.1,0.8-0.5,1.6-0.3,2.2c0.2,0.6,0.8,1,1.5,1.4c1.4,0.9,2.7,1.6,4.2,1.9c1,0.2,2.1,0.2,3.2,0.1c1.1,0,2.2-0.1,3.4,0
		c1.5,0.1,3.1,0.6,4.3,0c1.2-0.5,2-2.1,2.7-3.6c0.3-0.6,0.6-1.2,0.5-1.8c-0.1-0.6-0.6-1.2-1.1-1.7c-0.5-0.5-1-1-1.2-1.6
		c-0.4-1-0.3-2.2,0-3.2c2.6,0.4,5.2,0.4,7.7,0c2.2-0.3,4.5-0.8,6.5-1.7c3.5-1.6,6.4-4.4,9.8-6.3c1.6-0.9,3.3-1.6,5.1-1.9
		c1.8-0.4,3.7-0.3,5.6-0.2c1.1,0.1,2.3,0.1,3.4,0.3c0,0.7,0,1.4,0,2.1c0,1.5,0,3,0,4.5c0,1.1,0,2.1,0,3.2l-0.8,0.2
		c0.2,0.3,0.4,0.7,0.5,1.1c0.2,0.8,0,1.6-0.2,2.5c-0.3,1.6-0.5,3.4,0.4,4.5c0.5,0.6,1.4,1,2.2,1.2c0.9,0.2,1.8,0.2,2.6,0.5
		c1.6,0.5,2.8,2.2,4.4,2.8c1.2,0.5,2.5,0.5,3.8,0.5c0.8,0,1.6,0,2.4,0c1.7,0,3.3-0.1,5.1-0.3c1.4-0.2,2.9-0.5,3.8-1.7
		c0.7-0.9,1.1-2.4,0.7-3.3c-0.5-1.2-2.2-1.5-3.7-2c-1.6-0.5-2.9-1.1-4.2-2c-1.2-0.9-2.4-1.9-3.4-3.2c-0.8-0.9-1.4-2-1.7-3.1
		c-0.4-1.4-0.4-3-0.1-4.5l2.1,0c0-0.7,0-1.5,0-2.2c0-2.2,0-4.3-0.1-6.5c-0.1-1-0.1-2-0.2-3l2.9-0.2c0.3-0.2,0.5-0.4,0.7-0.6
		c3.6-3.3,1.5-9.4,0.4-15c-2.2-10.6-0.9-19.4,0-28.6c1.1-11.4,1.4-23.6-0.1-35.5c-0.3-2.3-0.7-4.6-0.3-6.8c0.1-0.6,0.2-1.1,0.4-1.6
		c1-2.7,3.2-4.8,5.4-6.8c2.9-2.5,5.8-4.9,7.9-7.9c1.3-1.9,2.4-4.1,3-6.4c1-3.9,0.4-8,0.5-12c0-4.5,0.8-9,0.7-13.4
		c-0.1-4.5-1-8.9-1.6-13.4c-0.7-5.2-1.1-10.4-2.7-15.2c-1.7-5-4.8-9.6-7.5-14.3c-3.8-6.5-6.9-13.2-9.5-20.2
		c-1.7-4.6-3.2-9.2-5.2-13.6c-2.1-4.5-4.8-8.7-7.5-12.8c-3.6-5.4-7.3-10.4-11.9-15.6c-3.6-4-7.8-8.2-12.5-8.8c-4-0.5-8.4,1.5-12.3,4
		c-4.5,3-8.4,6.9-9.9,11.4c-1.2,3.6-1.1,7.6-1.7,11.8c-0.4,3-1.2,6.2-3.3,7.9c-1.3,1.1-3.2,1.7-4.9,2.5c-4,1.8-7.1,4.8-9.8,8.2
		c-3.3,4.2-5.8,9-7.9,13.8c-1.9,4.3-3.5,8.7-5,13.2c-1.2,3.6-2.2,7.3-3.9,10.7c-1.4,3-3.3,5.8-4.5,8.8c-1.1,2.9-1.6,6.2-1.8,9.3
		c-0.8,2.1-1.6,4.3-2.3,6.5c-1.2,3.6-2.4,7.3-2.7,11.2c-0.3,4,0.5,8.3,3,11.5c1.6,2,3.8,3.6,4.6,5.8c0.6,1.7,0.4,3.8-0.1,5.7
		c-0.5,1.9-1.4,3.5-1.6,5.4c-0.2,1.3-0.1,2.7,0.3,4c0.5,1.5,1.5,2.9,2.2,4.3c0.8,1.6,1.4,3.3,1.9,5.1c0.9,3.1,1.8,6.1,2.8,9.2
		c0.6,1.7,1.2,3.5,2.5,4.8c0.6,0.6,1.2,1,1.6,1.7c0.5,0.9,0.2,2.2,0.2,3.4c0.1,2.2,1.2,3.9,0.6,6.5c-0.4,1.6-1.6,3.6-0.6,4.1
		c0.3,0.2,0.9,0.2,1.5,0.2c0.6,0,1.1,0,1.5,0.2c2.1,0.7,1.4,4.3,1.1,7.5c-1.2,11.5,1.5,19,1.3,26.8c-0.1,2.7-0.5,5.4-0.8,9.2
		c-0.1,0.5-0.1,1,0.1,1.2c0.2,0.2,0.7,0.1,1,0c0.6-0.1,1-0.2,1.5,0c0.6,0.3,1.3,1.2,1.8,0.7c0.1,0,0.1-0.1,0.1-0.1
		c0.6-0.6-0.4,1.5-0.7,2.8c-0.3,1.1-0.1,1.7,0,2.4c0.1,1.2-0.2,2.7,0.1,3.9c0.7,1.9,3.4,2.8,4.8,4.5c0.5,0.7,0.9,1.4,1.2,2.2
		c0.4,1.1,0.9,2.2,1.6,3.1c0.6,0.6,1.3,1.1,1.8,1.8c0.8,1.2,0.7,2.9,0.9,4.5c0.2,1.5,0.6,3,1.6,4c0.7,0.7,1.6,1.2,2.5,1.3
		c0.6,0.1,1.2,0,1.8,0c1.9-0.1,3.8,0.2,5.7,0.3c1.6,0.1,3.3,0,4.9,0"/>
</g>
<g id="inner_x5F_skalgubbar">
	<path class="st1" d="M83.4,237.7c0.7-0.8,0.7-1.4-0.1-2.1c-0.8-0.7-1.4-0.7-2.1,0.1c-0.7,0.8-0.7,1.4,0.1,2.1
		C82.1,238.5,82.7,238.5,83.4,237.7z"/>
	<path class="st1" d="M52.4,28.6c-0.1,1.7,0,3.4,0.2,5.1c0.3,1.9,0.8,3.8,1.7,5.5c0.9,1.7,2.1,3.2,3,4.9c1.1,2,1.8,4.3,3.3,5.8
		c2,2.2,5.5,2.8,8.4,4c3.4,1.4,6.3,3.6,8.7,6.1c4.1,4.3,7.2,9.6,10.7,14.4c2.6,3.5,5.6,6.8,8.4,10.2c3.8,4.5,7.3,9.3,11.2,13.6
		c1.2,1.3,2.5,2.6,3.6,4.2c0.5,0.7,1,1.4,1,2.2c0,0.7-0.4,1.5-0.9,2c-0.9,0.8-2.3,0.8-3.5,1.2c-1.5,0.4-2.7,1.3-4.1,2.1
		c-2.3,1.2-5,1.8-7.5,1.7c-4.6-0.3-8.7-3.2-13.2-4.7c-3.8-1.3-7.9-1.5-11.9-1.8c-3-0.2-5.9-0.4-8.9-0.4"/>
	<path class="st1" d="M62.1,33.4c-0.4-0.2-0.9-0.4-1.4-0.6c-0.9-0.2-1.9-0.2-2.8,0.1c-0.4,0.1-0.9,0.4-1.2,0.6"/>
	<path class="st1" d="M68.4,34.1c-0.3,0-0.7-0.1-0.8-0.3c-0.1-0.2,0.1-0.5,0.4-0.7c0.4-0.4,0.9-0.4,1.3-0.4c1.1-0.1,2.1-0.3,3.2-0.2
		c1.1,0.2,2.2,0.7,3.1,1.4"/>
	<path class="st1" d="M107.5,229.8c0.7-0.8,0.7-1.4-0.1-2.1c-0.8-0.7-1.4-0.7-2.1,0.1c-0.7,0.8-0.7,1.4,0.1,2.1
		C106.3,230.6,106.9,230.6,107.5,229.8z"/>
	<path class="st1" d="M91,257.6c0.1-3.1,0.1-6.2,0.2-9.3c0.2-7,0.5-14.1,0.2-21.1c-0.3-6.3-1.2-12.5-1.7-18.7
		c-0.4-5.4-0.4-10.9-0.2-16.4c0.1-3.5,0.4-7,0.7-10.5"/>
	<path class="st1" d="M108.6,269.7c0.5,1,0.9,2.3,0.7,3.1c-0.5,1.7-4.3,1.3-6.7,0.3c-1.6-0.7-2.6-1.7-3.8-2.6
		c-1.4-1-3.1-1.9-4.7-2.8"/>
	<path class="st1" d="M75.7,35.6c0.3,0.1,0.6,0.1,0.9,0.1c0.2,0,0.5-0.1,0.7-0.2c0.5,0,0.9,0.3,1.4,0.4c0.4,0.1,0.7,0,1.1,0"/>
	<path class="st1" d="M68.1,36.4c0,0.1,0.1,0.3,0,0.5c-0.1,0.2-0.3,0.3-0.4,0.4"/>
	<path class="st1" d="M62.9,187.4c4.8-4,9.7-7.8,14.5-11.9c4.3-3.7,8.5-7.6,13.2-10.8c2.7-1.9,5.6-3.5,8.1-5.7
		c2.8-2.5,4.9-5.6,7.4-8.5c3.2-3.7,6.8-7,10.1-10.5c0.9-1,1.8-2,2.8-2.9"/>
	<path class="st1" d="M94.9,120.1c-5.1,2.4-10,5.1-14.7,8.1c-3.6,2.3-7.1,4.7-10.5,7.2"/>
	<path class="st1" d="M33.5,135c-1.4,0.7-3,1.1-4.6,1.1c-1.7,0.1-3.4-0.3-4.9-0.9"/>
	<path class="st1" d="M37.4,244.2c0.7-0.8,0.7-1.4-0.1-2.1c-0.8-0.7-1.4-0.7-2.1,0.1c-0.7,0.8-0.7,1.4,0.1,2.1
		C36.2,245,36.8,244.9,37.4,244.2z"/>
	<path class="st1" d="M41.7,268.7c0.4-0.1,0.9-0.1,1.2,0.1c0.3,0.3,0.4,0.9,0.3,1.3c-0.1,0.4-0.5,0.6-0.6,1
		c-0.2,0.6,0.3,1.4,0.9,1.8c1,0.7,2.2,0.3,3.4,0.2c1.6-0.1,3.1,0.4,4.9,0.4c1.1,0,2.4-0.1,2.9-1c0.3-0.5,0.3-1.1,0.1-1.6
		c-0.2-0.4-0.5-0.7-0.5-1.1c0-0.3,0.1-0.7,0.4-0.9c0.3-0.2,0.8-0.2,1.1,0"/>
	<path class="st1" d="M85.4,19.3c0.5,1.1,0.8,2.3,1,3.5c0.3,1.9,0.1,3.8-0.6,5.5c-0.3,0.8-0.8,1.6-1.2,2.4c-0.6,1.3-0.8,2.7-0.9,4.1
		"/>
	<path class="st1" d="M86.2,20.6c0.7,1.9,1.4,3.9,1.7,5.9c0.2,1.7,0.2,3.4,0.7,4.9c0.4,1.4,1.3,2.8,2.2,3.9c1.4,1.6,3.1,2.9,4.7,4.2
		c2.5,2.1,4.8,4.4,7.2,6.7"/>
	<path class="st1" d="M115.3,84c-1.6-0.6-3.2-1.1-4.9-1.7c-1.6-0.6-3.2-1.2-4.8-1.3c-1.6-0.1-3.3,0.4-4.6,1.3
		c-1.3,1-2.2,2.4-2.8,3.9"/>
	<path class="st1" d="M68.5,15.7c0,1.6,0.3,3.3,1.1,4.6c1.3,2,3.9,2.7,6.3,3.8c2.2,1,4.3,2.2,5.3,4.2c0.6,1.1,0.8,2.3,0.9,3.5"/>
	<path class="st1" d="M57,14.4c1.4-1.1,2.9-2.1,4.3-3c1.6-1.1,3.2-2.1,4.9-3C68,7.6,69.9,6.9,71.7,7c2,0.2,3.8,1.3,5.6,2.5
		c2.2,1.6,4.1,3.3,5.6,5.3"/>
	<path class="st1" d="M68.1,6.6c-1.8,0.3-3.5,0.9-5.1,1.8c-1.8,1.1-3.3,2.6-4.7,4.2c-1.2,1.5-2.3,3-3.4,4.6c-1.4,2-3,4-3.9,6.3
		c-0.8,2-1.1,4.2-1.1,6.3"/>
	<path class="st1" d="M76.1,35.2c0.8-0.1,1.6-0.3,2.3-0.6c0.6-0.2,1.3-0.5,1.9-0.8"/>
	<path class="st1" d="M119.1,119.6c-0.9,0.9-1.9,1.8-2.9,2.6c-1,0.7-2,1.4-3.1,1.9"/>
	<path class="st1" d="M31.4,236.1c0.7-0.8,0.7-1.4-0.1-2.1c-0.8-0.7-1.4-0.7-2.1,0.1c-0.7,0.8-0.7,1.4,0.1,2.1
		C30.1,236.9,30.7,236.8,31.4,236.1z"/>
	<path class="st1" d="M118.9,115.8c-0.5,1.3-1.4,2.7-2.6,3.4c-0.4,0.2-0.9,0.4-1.2,0.7c-0.9,0.7-1.4,2-1.5,3.1"/>
	<path class="st1" d="M125.7,128.4c0.4,2.4,0.4,4.8,0.1,7.3c-0.3,2.7-0.9,5.5-2.3,7.7c-1.8,2.9-5,4.9-7.8,7.1
		c-5.8,4.6-10.3,10.4-15.8,15c-2.9,2.4-6,4.4-9.2,6.6c-8.8,6.1-17.4,13.3-27.6,15.3c-3.2,0.6-6.6,0.8-9.9,0.7
		c-3.6,0-7.1-0.3-10.7,0.6c-2.3,0.5-4.6,1.5-6.8,0.9c-3-0.8-5.8-4.4-8.5-4.2c-2.5,0.1-5.1,3.6-6.4,6.2"/>
	<path class="st1" d="M96.9,124.9c-2.3,5.1-4.6,10.2-6.3,15.5c-2,6.1-3.2,12.4-5.8,18.2c-3.2,7.2-8.5,13.5-14.1,19.2
		c-3.5,3.6-7.1,7-11.1,10.1"/>
	<path class="st1" d="M54,183.9c7.4-5.7,14.4-12.3,19.6-20.1c4.6-7,7.8-14.9,11.9-22.2c3.3-5.9,7.3-11.3,11.4-16.7"/>
	<path class="st1" d="M76.1,34.6c0.4,0,0.8,0,1.1-0.2c0.2-0.1,0.4-0.2,0.6-0.4"/>
	<line class="st1" x1="77.9" y1="156.3" x2="84.2" y2="160"/>
	<path class="st1" d="M33.9,164.6c1,2.6,1.3,5.5,0.7,8.2c-0.3,1.4-0.9,2.8-1.9,3.9c-1.4,1.4-3.6,2.4-2.9,4.8
		c0.1,0.3,0.2,0.6,0.2,0.6c0.1,0,0-0.5,0-0.8c0.1-1.2,1.2-1.4,2-1.8c3.9-1.7,3.9-7.4,3.7-11.5"/>
	<path class="st1" d="M107.6,249.4c-2.3,0-4.6,0-6.8-0.1c-3.2-0.2-6.4-0.5-9.6-0.9"/>
	<path class="st1" d="M95.2,114c-3.8,1-7.6,2.3-11.3,3.7c-3.9,1.5-7.7,3.2-11.2,5.5c-4,2.6-7.5,6-10.6,9.7c-1.5,1.8-2.9,3.7-4.2,5.7
		"/>
	<path class="st1" d="M63,34.6c0.5,0.2,0.9,0.5,1.2,0.9c0.3,0.5,0.2,1.2,0.1,1.8c-0.1,1.1-0.1,2.1-0.6,2.9c-0.4,0.7-1.2,1.3-1.4,2.1
		c-0.1,0.4-0.1,0.8,0.1,1.1c0.3,0.5,1,0.6,1.5,1c0.4,0.2,0.6,0.5,1,0.7c0.5,0.3,1.3,0.3,1.9,0.1c0.3-0.1,0.5-0.3,0.8-0.4
		c0.2-0.1,0.5-0.2,0.8-0.4c0.5-0.3,1.2-0.9,1.3-1.4c0.1-0.3,0-0.6-0.1-0.8"/>
	<path class="st1" d="M59.7,187.9c-3.4-2.1-6.7-4.5-9.6-7.2c-5.9-5.6-10.3-12.8-13.7-20.3c-1.1-2.4-2.1-4.9-3-7.4"/>
	<path class="st1" d="M14.2,78.1c-0.9,4.1-1.5,8.2-2.6,12.2c-0.2,0.8-0.5,1.5-0.5,2.3c0,0.9,0.3,1.8,0.7,2.6
		c0.5,0.9,1.2,1.7,1.9,2.5c0.6,0.8,1.1,1.7,2.4,1.7c1,0,2.5-0.6,2.3-0.7c-0.1-0.1-0.8,0.1-1.3,0c-0.9-0.1-1.5-0.6-2-1.2
		c-0.8-0.8-1.5-1.7-2-2.7c-1.1-2.2-1-5.1-0.3-7.4"/>
	<path class="st1" d="M116.4,113.4c0.2-1,0.6-2.2,1.4-2.8c1-0.7,2.7-0.8,3.7-0.2c1.3,0.7,1.7,2.3,2.5,3.6c0.6,1,1.5,1.8,2.3,2.7"/>
	<path class="st1" d="M34,240c0.7-0.8,0.7-1.4-0.1-2.1c-0.8-0.7-1.4-0.7-2.1,0.1c-0.7,0.8-0.7,1.4,0.1,2.1
		C32.7,240.8,33.3,240.7,34,240z"/>
	<path class="st1" d="M118.6,148.3c-0.2-3.7-0.1-7.4,0.3-11.1c0.3-2.5,0.7-5.1,1.2-7.6"/>
	<path class="st1" d="M75,36.2c0.2,0.1,0.3,0.2,0.5,0.3c0.3,0.1,0.6,0.2,1,0.2"/>
	<path class="st1" d="M45.7,45.4c-0.7,3.7-0.8,7.7,0.1,11.3c1.2,4.4,3.9,8.3,6.7,12.1C55.6,73,58.8,77.1,63,80
		c1.6,1.1,3.3,2.1,5,2.9"/>
	<path class="st1" d="M69.3,11.5c0.8,1.6,1.9,3.1,3.3,4.2c1.9,1.5,4.4,2.2,6.7,3.2c1.6,0.7,3.2,1.6,4.4,2.9c1.4,1.5,2.2,3.5,2.5,5.5
		"/>
	<path class="st1" d="M68.1,6.6C69.5,6.1,71,5.8,72.4,6c2.6,0.3,5,1.9,6.8,3.9c3.1,3.3,4.7,7.4,7.1,11c0.7,1,1.5,2,2.3,3
		c2.4,2.8,5.1,5.3,7.2,8.2c1.5,2.1,2.8,4.3,3.9,6.6c1.7,3.6,3.1,7.4,4,11.2"/>
	<path class="st1" d="M94,257.9c1.5,0.4,3,0.9,4.5,1.3c2.4,0.6,4.8,1.3,7.2,1.8"/>
	<path class="st1" d="M112.3,127.9c-0.3-0.3-0.6-0.6-0.7-1c-0.1-0.4,0.1-0.9,0.3-1.3c0.2-0.4,0.4-0.6,0.7-1c0.5-0.5,1-1.2,1-1.8
		c0-0.9-0.9-1.9-0.9-2.8c0-0.5,0.3-0.9,0.6-1.3c0.4-0.6,0.9-1,1.3-1.5c0.6-0.6,1.1-1.4,1.4-2.2c0.2-0.6,0.3-1.2,0.3-1.9
		c0-0.9-0.2-1.8-0.6-2.6c-0.3-0.6-0.8-1.2-1.3-1.7c-0.8-0.8-1.7-1.6-2.6-2.2"/>
	<path class="st1" d="M29.8,127.8c-0.8,0-1.5,0-2.3,0c-0.5,0-0.9,0-1.4,0.1c-1,0.2-2,0.6-3,0.3c-0.3-0.1-0.6-0.3-0.8-0.5"/>
	<path class="st1" d="M38,251.5c-0.9-1-1.7-2.1-2.7-3c-1.4-1.4-3.1-2.5-4-4.2c-1-1.8-1.1-4.2-2.3-5.9c-0.5-0.6-1.1-1.1-1.8-1.6"/>
	<path class="st1" d="M88.6,235.4c0.7-0.8,0.7-1.4-0.1-2.1c-0.8-0.7-1.4-0.7-2.1,0.1c-0.7,0.8-0.7,1.4,0.1,2.1
		C87.3,236.2,87.9,236.1,88.6,235.4z"/>
	<path class="st1" d="M24.5,62.7c-3.4,5.2-5.3,8.4-5.5,17.7c-0.1,4.8,0.3,11.2,1.6,9.4c0.3-0.4,0.7-1.3,0.7-2.1c0.1-1.1-0.5-2-0.9-3
		c-0.8-2.1-0.5-4.4-0.1-6.6"/>
	<path class="st1" d="M60,34.5c-0.6-0.1-1.3-0.2-1.9,0c-0.5,0.1-1,0.3-1.5,0.5"/>
	<path class="st1" d="M67.5,36.4c-0.1-0.1-0.2-0.4-0.2-0.5c0.1-0.1,0.2-0.1,0.4-0.2c0.8-0.2,1.3-0.7,1.8-1.1
		c1.1-0.7,2.7-0.7,3.9-0.3c0.7,0.2,1.2,0.6,1.8,1.1"/>
	<line class="st1" x1="76.4" y1="159.1" x2="82.6" y2="163"/>
	<path class="st1" d="M69.3,11.5c-3,0.3-6.2,1.1-8.5,2.9c-2.7,2.1-4.3,5.5-6.2,8.5c-1.5,2.4-3.1,4.6-4.6,6.9"/>
	<path class="st1" d="M69.7,135.4c2.3-0.5,4.6-1.2,6.7-2.2c2.1-1,4-2.4,5.9-3.8c1.3-1,2.5-2.1,3.8-3.1c2.8-2.2,5.8-4.3,8.9-6.2"/>
	<path class="st1" d="M22.3,118.5c1.3-0.5,2.7-0.9,4.1-1c1.7-0.2,3.4-0.1,5.1,0.2c1.6,0.3,3.1,0.7,4.6,1.3"/>
	<line class="st1" x1="84.4" y1="143.7" x2="89" y2="145.8"/>
	<path class="st1" d="M22.3,118.5c1,0.6,2,1,3.1,1.3c2.1,0.6,4.4,0.5,6.5,0.2c1.4-0.2,2.8-0.5,4.1-1"/>
	<line class="st1" x1="88.8" y1="136.3" x2="91.7" y2="137.3"/>
	<path class="st1" d="M62.1,33.4c0.2,0.2,0.4,0.5,0.3,0.7c-0.1,0.2-0.4,0.3-0.7,0.3c-0.5,0-0.8-0.3-1.2-0.5
		c-0.8-0.4-1.7-0.5-2.6-0.5c-0.5,0-0.9,0-1.4,0.1"/>
	<path class="st1" d="M67.9,21.1c0.2,1,0.6,2.2,1.4,2.9c1,0.9,2.5,1.1,3.5,2.1c0.8,0.8,1.2,2,1.1,3.1c0,0.3-0.1,0.6-0.2,0.9"/>
	<path class="st1" d="M62.5,40.6c-0.6,0.2-1.1,0.5-1.6,0.9c-0.6,0.5-0.9,1.3-1.3,1.9c-0.2,0.3-0.4,0.7-0.5,1"/>
	<path class="st1" d="M82.6,33.6c1.4,1.6,3.1,3.1,4.9,4.3c2.3,1.5,4.9,2.5,7.5,3.4c1.3,0.5,2.6,0.9,4,1.3"/>
	<path class="st1" d="M61.2,187.7c0.2,3,0.4,5.9,0.8,8.9c0.5,3.7,1.4,7.3,1.1,10.9c-0.3,3.4-1.6,6.6-2.4,10
		c-0.9,3.8-1.2,7.6-1.5,11.5"/>
	<path class="st1" d="M95.4,229.4c0.7-0.8,0.7-1.4-0.1-2.1c-0.8-0.7-1.4-0.7-2.1,0.1c-0.7,0.8-0.7,1.4,0.1,2.1
		C94.1,230.2,94.7,230.2,95.4,229.4z"/>
	<path class="st1" d="M35.4,123.5c0.5,1.9,0.7,3.9,0.5,5.8c-0.3,2.5-1.4,4.9-1.7,7.4c-0.2,2.1,0.1,4.2,0.1,6.3c0,3.4-0.8,6.7-0.8,10
		c-0.1,3.3,0.5,6.6,0.5,10c0,1.9-0.2,3.7-0.8,5.4c-0.9,2.4-2.8,4.5-4.9,5.9"/>
	<path class="st1" d="M45.7,45.4c-0.2-0.3-0.4-0.6-0.6-0.7c-0.4-0.1-0.6,0.8-0.8,1.6c-0.3,1.8-0.1,2.8-0.1,4
		c0.1,1.7,0.1,3.8,0.4,5.8c0.4,2.6,1.5,5,2.7,7.3c1.3,2.4,2.9,4.7,4.8,6.7"/>
	<path class="st1" d="M123,103.2c1,0.2,2.1,0.7,2.6,1.5c0.5,0.7,0.6,1.8,0.6,2.8c0.1,3.5-0.1,7,0.1,10c0.2,2.5,0.7,4.7,0.4,8.3
		c-0.1,1.2-0.3,2.6-1,2.6c-0.4,0-0.9-0.3-1.3-0.3c-0.3,0-0.6,0.2-1,0.2c-0.4,0.1-0.8,0.1-1.2,0.2c-0.6,0.2-1.1,0.7-1.7,0.9
		c-0.8,0.3-1.7,0.2-2.6,0c-0.1,0-0.2,0-0.3-0.1"/>
	<line class="st1" x1="83.1" y1="146.2" x2="88.3" y2="148.6"/>
	<path class="st1" d="M56.5,35.8c-0.2-0.1-0.4-0.1-0.5-0.1c-0.2,0-0.4,0-0.6-0.1c-0.1,0-0.3-0.1-0.4-0.2"/>
	<path class="st1" d="M82.1,31.8c0.3,0.6,0.5,1.2,0.5,1.8c0,1.2-0.6,2.3-1,3.5c-0.4,1.2-0.6,2.5-1.1,3.6c-0.6,1.5-1.6,2.8-2.6,4
		c-0.7,0.9-1.5,1.9-2.3,2.7c-1.3,1.4-2.8,2.5-4.6,3.5c-1.4,0.8-3,1.5-4.4,1.3c-1.3-0.2-2.4-1.2-3.6-2.1c-0.9-0.7-1.8-1.4-2.4-2.2
		c-1.1-1.4-1.4-3.4-2.4-5c-0.7-1.2-1.8-2.1-2.5-3.2c-0.6-1.1-0.8-2.4-0.9-3.7c0-0.7,0-1.4-0.2-2.1c-0.3-0.9-0.9-1.7-1.2-2.6
		c-0.3-1-0.3-2.2-0.1-3.2"/>
	<path class="st1" d="M91.5,236.7c-4.4,1.9-8.8,3.7-13.2,5.6c-5.5,2.3-10.9,4.6-16.5,6.4c-4.4,1.4-9,2.5-13.6,2.4
		c-3.1,0-6.2-0.6-9.2-1.5"/>
	<path class="st1" d="M20.8,125.3c-0.2,0.1-0.3,0.3-0.4,0.5c-0.1,0.2,0,0.5,0,0.7"/>
	<path class="st1" d="M20.8,128.2c-0.1,0.2-0.1,0.4-0.1,0.7c0,0.2,0.1,0.3,0.2,0.5"/>
	<path class="st1" d="M16.6,123.1c0.1-1.1,0.6-2.3,1.3-3c0.7-0.7,1.7-0.9,2.7-1.3c0.9-0.3,1.7-0.7,2.5-0.9c0.4-0.1,0.9-0.1,1.3-0.1"
		/>
	<path class="st1" d="M67.8,17.5c-0.2,1.1-0.3,2.4,0,3.4c0.8,2.2,3.6,3.1,5.8,4.5c1.8,1.1,3.2,2.6,4.7,3.8c1.2,0.9,2.5,1.8,3.7,2.6"
		/>
	<path class="st1" d="M56.6,35.5c-0.3-0.1-0.7-0.3-1-0.4"/>
	<path class="st1" d="M66.8,46.1c0.4,0.1,0.9,0.3,1.3,0.3c0.5,0.1,1,0.2,1.5,0.2c0.5,0,1,0,1.5-0.1"/>
	<path class="st1" d="M36.1,119c-0.3,1.8-0.5,3.7-0.8,5.5"/>
	<path class="st1" d="M96.9,124.9c1-1.8,1.9-3.7,2.4-5.7c0.6-2.6,0.8-5.3,0.5-7.9"/>
	<path class="st1" d="M91.5,230.6c3,0.9,6.1,1.4,9.3,1.4c3.5,0.1,7-0.4,10.3-1.4"/>
	<path class="st1" d="M29.2,125.2c-0.6,0.2-1.3,0.4-2,0.3c-0.8-0.1-1.5-0.6-2.3-0.4c-0.3,0.1-0.6,0.3-0.9,0.3
		c-0.6,0.1-1.3-0.4-1.7-0.8"/>
	<path class="st1" d="M61.9,46.4c0.8,0.1,1.6,0.3,2.3,0.7c0.4,0.3,0.7,0.6,1.1,0.7c0.6,0.2,1.3-0.1,2-0.3c0.5-0.2,0.9-0.3,1.3-0.5"
		/>
	<path class="st1" d="M67.8,17.5c0.7-1.6,1.2-3.3,1.4-5c0.1-0.8,0.1-1.6,0.1-2.3"/>
	<path class="st1" d="M27.2,110.1c-2-0.5-4.1-0.7-6.1-0.3c-2.5,0.5-4.8,1.9-6.7,3.7c-1.4,1.3-2.6,2.9-4.3,3.7
		c-1,0.5-2.3,0.8-3.4,0.9"/>
	<path class="st1" d="M68.4,34.1c0.8-0.5,1.8-1,2.8-1c1.1-0.1,2.2,0.3,3.3,0.5c0.4,0.1,0.8,0.2,1.2,0.3"/>
	<path class="st1" d="M21.9,122.3c-0.3,0.1-0.5,0.3-0.7,0.5c-0.1,0.2-0.1,0.4,0,0.7"/>
	<path class="st1" d="M73.6,30c0.1-0.5,0.2-1,0.2-1.5c0-1.3-0.5-2.7-1.2-3.7"/>
	<path class="st1" d="M49.5,40c1.6,2.6,3.1,5.2,4.7,7.8c1.5,2.4,3,4.9,4.5,7.3c1.2,1.9,2.3,3.8,3.6,5.6c1.6,2.2,3.4,4.2,4.7,6.6
		c0.6,1.2,1.1,2.5,0.5,4.1c-0.2,0.6-0.6,1.2-1,1.3c-0.4,0-0.7-0.9-1.1-1.8c-1.1-2.7-2.3-4-3.1-5.9c-0.8-1.8-1.3-4-2.4-5.9
		c-0.8-1.4-1.9-2.6-3.2-3.3c-1.4-0.8-3.1-1.1-4.7-1.8c-1.4-0.6-2.6-1.4-3.4-2.6c-0.6-0.9-1-2.1-1.1-3.2"/>
	<line class="st1" x1="87.2" y1="138.8" x2="90.7" y2="140.3"/>
	<path class="st1" d="M44.1,248c0.7-0.8,0.7-1.4-0.1-2.1c-0.8-0.7-1.4-0.7-2.1,0.1c-0.7,0.8-0.7,1.4,0.1,2.1
		C42.8,248.8,43.5,248.7,44.1,248z"/>
	<line class="st1" x1="67.5" y1="171.6" x2="72.3" y2="176.2"/>
	<path class="st1" d="M22.3,118.5c0.2,0.9,0.4,1.8,0.6,2.6"/>
	<line class="st1" x1="72.3" y1="165.6" x2="77.7" y2="170"/>
	<path class="st1" d="M65.9,46.6c-0.3-0.2-0.7-0.4-1-0.5"/>
	<path class="st1" d="M70.9,41.1c0.7,0.1,1.6,0.3,2.1,0.7c0.6,0.5,0.9,1.4,1.4,2.1c0.3,0.5,0.8,0.9,1,1.4c0.2,0.3,0.3,0.7,0.3,1.1"
		/>
	<path class="st1" d="M72.7,242.4c0.7-0.8,0.7-1.4-0.1-2.1c-0.8-0.7-1.4-0.7-2.1,0.1c-0.7,0.8-0.7,1.4,0.1,2.1
		C71.4,243.2,72,243.2,72.7,242.4z"/>
	<path class="st1" d="M22.5,119.6c-0.6,0-1.2,0.2-1.7,0.4c-0.9,0.5-1.6,1.3-2,2.2c-0.3,0.8-0.5,1.6-0.4,2.5c0,0.3,0.1,0.6,0.1,0.9"
		/>
	<path class="st1" d="M34,118.2c-0.3-0.8-0.7-1.6-1.2-2.3c-0.9-1.4-2.1-2.6-3.6-3.3c-1.4-0.6-3.1-0.7-4.7-0.5
		c-1.6,0.2-3.2,0.7-4.6,1.4c-3.1,1.7-5.5,4.9-6.8,8.2"/>
	<path class="st1" d="M62.9,187.4c0,2.9,0.2,6,1.5,8.7c0.9,1.9,2.3,3.6,2.9,5.5c1.5,4.3-1.4,9.3-2.9,14.2
		c-1.9,6.1-1.9,12.1-4.6,17.3c-0.9,1.8-2.2,3.6-3.6,5.2"/>
	<path class="st1" d="M31.5,58.4c-0.9,4.4-1.6,8.8-1.8,13.3c-0.3,6.3,0.3,12.5,0.9,18.9c0.6,5.8,1.2,11.7,3.7,16.8
		c1.7,3.4,4.2,6.5,5.7,10c1.4,3,2,6.4,1.8,9.8c-0.2,3.6-1.5,7.1-3.6,10c-1,1.3-2.1,2.4-3.4,3.4"/>
	<path class="st1" d="M27.2,236.8c0.2-2.5,0.4-5,0.4-7.5c0.1-5.8-0.3-11.7-0.5-17.5C27,207.9,27,204,27,200.1"/>
	<path class="st1" d="M65.9,46.6c0.3-0.2,0.6-0.3,0.9-0.5"/>
	<line class="st1" x1="85.6" y1="141.4" x2="89.7" y2="143.4"/>
	<path class="st1" d="M63.7,46.5c0.5,0,1,0.1,1.4,0.3c0.2,0.2,0.5,0.4,0.7,0.4c0.2,0,0.4-0.1,0.5-0.1c0.2-0.1,0.4-0.2,0.6-0.3
		c0.3-0.1,0.6-0.1,0.8-0.1"/>
	<path class="st1" d="M55.2,248c0.7-0.8,0.7-1.4-0.1-2.1c-0.8-0.7-1.4-0.7-2.1,0.1c-0.7,0.8-0.7,1.4,0.1,2.1
		C53.9,248.8,54.5,248.7,55.2,248z"/>
	<line class="st1" x1="62.3" y1="177" x2="67.3" y2="181.3"/>
	<path class="st1" d="M22.5,119.3c0.1,0,0.2,0.1,0.3,0.1c0.2,0.1,0.5,0.2,0.8,0.3c0.3,0.1,0.5,0.2,0.8,0.3c0.3,0.1,0.5,0.2,0.8,0.3
		c0.1,0,0.3,0.1,0.4,0.1c0.1,0,0.3,0.1,0.4,0.1c0.3,0.1,0.5,0.1,0.8,0.1c0.3,0,0.5,0.1,0.8,0.1c0.3,0,0.5,0,0.8,0.1
		c0.3,0,0.5,0,0.8,0c0.3,0,0.5,0,0.8,0c0.4,0,0.7,0,1.1-0.1c0.3,0,0.5-0.1,0.8-0.1c0.1,0,0.3,0,0.4-0.1c0.1,0,0.2,0,0.3,0
		c0.3-0.1,0.7-0.1,1-0.2c0.3-0.1,0.7-0.1,1-0.2c0.3-0.1,0.7-0.2,1-0.3c0.2-0.1,0.4-0.1,0.7-0.2"/>
	<path class="st1" d="M60.7,246.5c0.7-0.8,0.7-1.4-0.1-2.1c-0.8-0.7-1.4-0.7-2.1,0.1c-0.7,0.8-0.7,1.4,0.1,2.1
		C59.5,247.3,60.1,247.3,60.7,246.5z"/>
	<path class="st1" d="M38.6,274.6c0.8,0.9,1.7,1.7,2.7,2.2c1.5,0.8,3.4,0.9,5.1,1c2.1,0.2,4.1,0.4,6.1,0.2c1.5-0.1,3-0.4,4.4-0.8"/>
	<line class="st1" x1="81.5" y1="149.2" x2="87.1" y2="152.4"/>
	<line class="st1" x1="74.4" y1="162.6" x2="80.1" y2="166.8"/>
	<line class="st1" x1="59.7" y1="179.2" x2="65.1" y2="183.3"/>
	<path class="st1" d="M64.9,46.1c-0.3,0.2-0.7,0.3-1,0.4c-0.4,0.1-0.8,0.1-1.2,0.1c-0.3,0-0.6-0.1-0.9-0.1"/>
	<path class="st1" d="M23,118.9c0.3-0.1,0.6-0.2,0.9-0.3c0.5-0.1,0.9-0.3,1.4-0.3c0.2,0,0.5-0.1,0.7-0.1c0.1,0,0.2,0,0.4-0.1
		c0.1,0,0.3,0,0.4,0c0.1,0,0.3,0,0.4,0c0.1,0,0.3,0,0.4,0c0.3,0,0.6,0,0.9,0c0.3,0,0.6,0,0.9,0c0.3,0,0.6,0,0.9,0.1
		c0.4,0,0.8,0.1,1.3,0.2c0.5,0.1,1,0.2,1.5,0.3c0.5,0.1,0.9,0.2,1.4,0.4c0.3,0.1,0.6,0.2,0.9,0.3"/>
	<path class="st1" d="M77.6,240.2c0.7-0.8,0.7-1.4-0.1-2.1c-0.8-0.7-1.4-0.7-2.1,0.1c-0.7,0.8-0.7,1.4,0.1,2.1
		C76.4,241,77,240.9,77.6,240.2z"/>
	<path class="st1" d="M63,36c-0.3,0-0.6,0-0.9,0c-0.4,0.1-0.8,0.3-1.2,0.4c-0.6,0.2-1.2,0.2-1.7,0.1c-0.5-0.1-0.9-0.4-1.3-0.6
		c-0.2-0.1-0.3-0.2-0.5-0.3"/>
	<path class="st1" d="M29.9,130.6c-0.8,0.1-1.5,0.1-2.3,0.1c-1.1,0-2.3-0.2-3.4,0c-0.6,0.1-1.2,0.3-1.8,0.1
		c-0.3-0.1-0.7-0.3-0.9-0.6"/>
	<path class="st1" d="M8.1,137c2.5,1.5,5.2,2.7,7.9,3.5c2.7,0.8,5.5,1.1,8.3,1.2c3.5,0.1,7-0.3,10.4-1.1"/>
	<path class="st1" d="M74.4,36.4c0.2,0.2,0.4,0.3,0.6,0.4c0.4,0.2,0.8,0.3,1.2,0.3"/>
	<path class="st1" d="M66.7,244.5c0.7-0.8,0.7-1.4-0.1-2.1c-0.8-0.7-1.4-0.7-2.1,0.1c-0.7,0.8-0.7,1.4,0.1,2.1
		C65.4,245.2,66,245.2,66.7,244.5z"/>
	<path class="st1" d="M109.5,107.5c-2.1,0.6-4.4,0.9-6.5,0.5c-3.3-0.5-6.2-2.7-9.2-4.6c-3.4-2.2-6.9-4.2-10.6-5.7
		c-2.5-1-5-1.8-7.6-2.3c-2-0.4-4-0.8-6.1-1"/>
	<path class="st1" d="M68.1,36.4c0.5,0,1.1,0.1,1.6,0.3c0.6,0.2,1.2,0.4,1.9,0.6c0.5,0.1,1,0.2,1.4,0c0.4-0.2,0.8-0.5,1.2-0.7
		c0.3-0.1,0.6-0.2,0.9-0.3"/>
	<path class="st1" d="M71.5,41.7c0.8,0.3,1.6,0.8,2.1,1.5c0.4,0.5,0.6,1.1,0.7,1.8"/>
	<path class="st1" d="M95.2,114c-3.3,1.9-6.5,3.7-9.8,5.6c-5.1,2.8-10.3,5.4-15.1,8.7c-4.4,3-8.5,6.6-12.4,10.3"/>
	<path class="st1" d="M36.5,260c-0.3-2.3-0.3-4.9,0.7-7.1c0.5-1.1,1.3-2.2,1.7-3.3c0.7-1.9,0.6-4,0.5-6.1c-0.3-5.8-0.6-11.4,0-16.9
		c0.7-7.2,2.8-14.3,4.1-21.5c0.8-4.4,1.3-8.8,1.8-13.2"/>
	<path class="st1" d="M103.8,49.9c1.7,3.6,3.3,7.3,4.1,11.3c0.7,3.7,0.8,7.5,1.9,11c1.1,3.4,3.1,6.4,4.6,9.7
		c0.7,1.6,1.3,3.2,1.9,4.8"/>
	<path class="st1" d="M23.9,134.1c0,0.4,0.1,0.7,0.1,1.1"/>
	<path class="st1" d="M35.3,124.5c-0.6,3.5-1.2,7-1.8,10.5"/>
	<path class="st1" d="M49.1,248.5c0.7-0.8,0.7-1.4-0.1-2.1c-0.8-0.7-1.4-0.7-2.1,0.1c-0.7,0.8-0.7,1.4,0.1,2.1
		C47.8,249.3,48.4,249.2,49.1,248.5z"/>
	<path class="st1" d="M54,23.9c1.8-1.3,3.6-2.8,4.6-4.7c0.8-1.5,1.2-3.3,2.1-4.7c1.7-2.6,5.4-4,8.6-4.4"/>
	<path class="st1" d="M119,277.3c-1.1,0.8-2.4,1.5-3.7,1.8c-2.6,0.6-5.4-0.3-8.3,0c-1.1,0.1-2.2,0.4-3.1,0.1c-1-0.3-1.8-1.3-2.8-1.9
		c-1.5-1-3.4-1.1-5.1-1.6c-0.9-0.3-1.8-0.7-2.6-1.1"/>
	<path class="st1" d="M38.1,155.2c0.2,0.5,4.9,0.3,7.7-0.6c2.9-0.9,3.8-2.6,6.4-4.8c2.7-2.2,7.2-5,5.1-6.6c-0.2-0.1-0.4-0.2-0.6-0.3
		c-1.1-0.3-1.6,1.4-2.2,2.8c-1.9,4.4-4.4,5.4-9.2,6.8C42.1,153.6,38,154.7,38.1,155.2z"/>
	<path class="st1" d="M116.4,86.6c2.7,1.9,5.2,4.7,6.3,7.9c1,2.8,0.9,5.8,0.4,8.7"/>
	<path class="st1" d="M3.4,126.2c1.4-0.2,2.9-0.5,4.2-1c2.9-1.1,5.3-3.2,7.6-5.3c2-1.9,3.8-3.9,6.3-5.2c1.3-0.7,2.9-1.3,4.3-1.2
		c2.4,0.1,4.7,1.8,6.4,3.7c0.2,0.2,0.3,0.4,0.5,0.6"/>
	<path class="st1" d="M101.2,230.4c0.7-0.8,0.7-1.4-0.1-2.1c-0.8-0.7-1.4-0.7-2.1,0.1c-0.7,0.8-0.7,1.4,0.1,2.1
		C99.9,231.2,100.5,231.2,101.2,230.4z"/>
	<path class="st1" d="M114.7,127.7c0,0.4,0,0.8,0.1,1.1c0.4,0.8,1.7,0.8,2.8,0.6c0.7-0.1,1.4-0.4,1.8-0.9c0.3-0.4,0.5-0.9,0.9-1.2
		c0.4-0.4,1.1-0.5,1.6-0.8c0.6-0.4,1-1,1.3-1.6"/>
	<path class="st1" d="M50,29.8c1.2-0.6,2.4-1.2,3.5-1.8c2-1.1,4-2.2,5.7-3.7c1.3-1.2,2.5-2.6,4.1-3.3c1.3-0.5,2.9-0.7,3.7-1.7
		c0.4-0.5,0.7-1.2,0.8-1.8"/>
	<path class="st1" d="M69.2,12.4c1.7,1.8,3.5,3.6,5.7,4.6c2.6,1.1,5.9,1,8,2.6c2.1,1.6,3,4.9,3.3,7.6"/>
	<path class="st1" d="M16.6,123.1c-0.2,2.4,0.2,4.7,1.5,7c1.2,2.2,3.3,4.4,5.4,4.1c0.7-0.1,1.5-0.5,2.2-0.8c0.4-0.2,0.8-0.2,1.3-0.3
		c1.3-0.1,3.3,0.1,3.3-0.8c0-0.2-0.1-0.4-0.2-0.6c-0.1-0.3-0.3-0.6-0.3-0.9c0.1-0.5,1-0.7,1.1-1.2c0.1-0.3,0-0.6-0.2-0.9
		c0,0-0.1-0.1-0.1-0.1c-0.2-0.2-0.5-0.4-0.7-0.7c-0.2-0.3-0.1-0.8,0.1-1.1c0.1-0.1,0.1-0.2,0.2-0.3c0.1-0.3,0.2-0.6,0-0.9
		c-0.2-0.3-0.7-0.3-1-0.5c-0.2-0.2-0.1-0.7-0.2-1.1c0-0.4-0.2-0.7-0.5-0.9c-0.1-0.1-0.2-0.1-0.3-0.1c-0.1,0-0.2,0-0.3,0
		c-0.9,0.1-1.9,0-2.8-0.4c-0.9-0.4-1.7-1-2.4-1.7"/>
	<line class="st1" x1="56.7" y1="181.8" x2="62.4" y2="185.6"/>
	<line class="st1" x1="69.9" y1="168.9" x2="74.9" y2="173.3"/>
	<line class="st1" x1="65.1" y1="174.1" x2="69.9" y2="178.7"/>
	<path class="st1" d="M5.5,102.1c0.6,1.6,1.4,3.3,2.7,4.4c1.8,1.6,4.4,2.2,6.9,2.6c2.2,0.4,4.3,0.6,6.4,0.5"/>
	<path class="st1" d="M112.3,127.9c0.7,0.2,1.5,0.2,2.1-0.1c0.2-0.1,0.4-0.2,0.6-0.4c0.6-0.4,1.2-1,1.8-1.4c0.6-0.3,1.4-0.5,1.8-1
		c0.2-0.3,0.4-0.6,0.6-0.9c0.2-0.5,0.5-0.9,0.8-1.3c0.3-0.4,0.6-0.8,0.9-1.2"/>
	<line class="st1" x1="79.7" y1="152.9" x2="85.7" y2="156.6"/>
</g>
<g id="ramar">
	<path class="st1" d="M30.8,115.5c0-2-0.1-2.9,0-3.6c0.2-0.7,0.6-1,0.9-1.5c0.2-0.5,0.3-1.3,0.1-1.8c-0.1-0.6-0.4-1-0.7-1.4
		c-0.2-0.4-0.5-0.7-0.6-1.1c-0.1-0.4-0.1-0.8-0.1-1.3c0-0.4,0-0.9,0.1-1.3c0-0.4,0-0.9,0-2.7"/>
	<path class="st1" d="M26.7,111.3c-0.5-1.3-0.5-1.8-0.4-2.1c0.1-0.4,0.3-0.6,0.5-0.9c0.2-0.3,0.5-0.5,0.7-0.8
		c0.2-0.3,0.2-0.6,0.2-0.9c0-0.3-0.1-0.6-0.3-0.9c-0.2-0.3-0.4-0.6,0.1-2.9"/>
	<path class="st1" d="M29.2,116.1c-1.3-2-1.3-2.9-1.1-3.8c0.2-0.8,0.7-1.6,0.9-2.2c0.2-0.6,0.2-1,0.2-2c0-1,0-2.5,0-4.1"/>
</g>
</svg>
