<?xml version="1.0" encoding="utf-8"?>
<!-- Generator: Adobe Illustrator 21.0.0, SVG Export Plug-In . SVG Version: 6.00 Build 0)  -->
<svg version="1.1" xmlns="http://www.w3.org/2000/svg" xmlns:xlink="http://www.w3.org/1999/xlink" x="0px" y="0px"
	 viewBox="0 0 115 284.5" style="enable-background:new 0 0 115 284.5;" xml:space="preserve">
<style type="text/css">
	.st0{fill:#FFFFFF;stroke:#000000;stroke-linecap:round;stroke-linejoin:round;}
	.st1{fill:none;stroke:#000000;stroke-width:0.15;stroke-linecap:round;stroke-linejoin:round;}
</style>
<g id="outer">
	<path class="st0" d="M80.3,49.2c-0.3-0.1-0.6-0.3-0.9-0.6c-0.6-0.7-1.5-2-2.2-3.1c-0.8-1.1-1.6-1.9-2.3-2.8
		c-0.7-0.8-1.4-1.7-1.9-2.3c-0.6-0.6-1-0.9-2.1-2.3c-1-1.3-2.6-3.7-3.6-5.1c-1-1.4-1.5-2-2.1-2.6c-0.6-0.6-1.3-1.3-1.9-1.9
		c-0.6-0.6-1.1-0.9-1.5-1.3c-0.4-0.4-0.8-0.8-1.2-1.1c-0.3-0.3-0.6-0.4-1-0.5c-0.4-0.1-0.8-0.1-2.1,0.2c0-0.1,0.1-0.3,0.1-0.4
		c0.2-0.5,0.4-1.1,0.6-1.6c0.2-0.5,0.5-0.9,0.7-1.3c0.2-0.4,0.3-0.7,0.4-1c0.1-0.3,0.1-0.6,0.1-1c0,0,0-0.1,0-0.1
		c0.3-0.7,0.3-1.5,0.3-1.9c0-0.5,0-0.7,0-1.7c0-1-0.1-2.9-0.2-4.1c-0.1-1.2-0.2-1.7-0.4-2.1c-0.1-0.5-0.3-0.9-0.4-1.3
		c-0.2-0.4-0.4-0.9-0.6-1.2c-0.2-0.4-0.4-0.6-0.7-0.9c-0.2-0.3-0.5-0.6-0.9-0.9c-0.3-0.3-0.8-0.4-1-0.7c-0.3-0.2-0.5-0.5-0.6-0.7
		c-0.2-0.2-0.3-0.4-0.5-0.7c-0.2-0.3-0.3-0.5-0.5-0.8C53.8,3.2,53.6,3,53.4,3s-0.5-0.1-0.7-0.1c-0.3,0-0.6-0.1-0.9-0.1
		c-0.3-0.1-0.6-0.1-0.8-0.3c-0.3-0.2-0.6-0.5-1-0.8c-0.4-0.3-1-0.5-3.5-1.2c-2.9,0.1-3.5,0.2-4.2,0.3c-0.7,0.1-1.4,0.3-2,0.5
		c-0.6,0.3-1,0.6-1.5,1c-0.5,0.3-1,0.7-1.7,1c-0.7,0.3-1.7,0.7-2.3,1c-0.6,0.3-0.9,0.6-1.3,1.2C32.9,6,32.3,7,31.8,7.7
		c-0.5,0.7-0.7,1.2-0.9,1.7c-0.2,0.5-0.2,0.9-0.3,1.4c-0.1,0.5-0.2,1.2-0.4,1.8c-0.1,0.6-0.2,1.2-0.3,1.6c0,0.4,0,0.6,0.2,0.7
		c0.2,0.1,0.6,0.2,0.7,0.4c0.2,0.1,0.2,0.3,0.2,0.5c-0.1,2.8-0.1,3.9-0.3,4.5c0,0,0,0,0,0c-0.2,0.1-0.3,0.1-0.4,0.2
		c-0.1,0.1-0.1,0.2-0.1,0.3c0,0.1,0.1,0.3,0.2,0.4c0.1,0.1,0.3,0.2,0.5,0.3c0.2,0,0.5,0,0.8,0c0,0,0,0,0,0c0,0.7-0.1,1-0.1,1.2
		c-0.1,0.2-0.1,0.3-0.1,0.3c0,0.1,0,0.1,0.1,0.1c0.1,0.4,0.2,0.9,0.2,1.3c-0.1,0.1-0.1,0.2-0.1,0.3c0,0.1,0,0.3,0,0.5
		c0.1,0.2,0.2,0.4,0.4,0.9c0.2,0.5,0.6,1.4,0.8,2c0.2,0.6,0.3,1,0.4,1.4c0.1,0.4,0.1,0.9,0.3,1.4c0.1,0.5,0.4,1.1,0.6,1.5
		c0.2,0.5,0.5,0.8,0.6,1.1c0.3,0.7,0.3,0.9,0.3,1.1c0,0.2,0.1,0.4,0.1,0.6c0,0.2,0.1,0.3,0.3,0.5c0.1,0.2,0.4,0.4,0.5,0.5
		c0.1,0.2,0.2,0.4,0.3,0.7c0.1,0.3,0.2,0.7,0.3,1.1c0.1,0.3,0.3,0.6,0.4,0.9c-3.5,4.1-3.9,5-4.5,5.8c-0.5,0.9-1.2,1.7-2,2.7
		c-0.8,1-1.7,2.1-2.2,2.8c-0.5,0.7-0.7,0.9-0.8,1c-0.1,0.2-0.3,0.3-0.3,0.5c-0.1,0.1-0.1,0.2-0.1,0.4c0,0.2-0.1,0.4,0.1,0.7
		c0.1,0.2,0.2,0.4,0.4,0.6c-2.2,2.1-3,2.7-3.6,3.2c-0.6,0.5-0.9,1-1.2,1.5c-0.3,0.5-0.5,1-0.6,1.4c-0.1,0.4-0.2,0.8-0.3,1.1
		c0,0.3,0,0.6-0.1,1.1c-0.1,0.6-0.2,1.4-0.2,2.2c-0.1,0.8-0.2,1.5-0.3,2.2c-0.1,0.7-0.3,1.4-0.7,3.9c-0.4,2.4-1.1,6.6-1.4,9.1
		C19,81.7,19,82.6,19,83.6c0,1-0.1,2.1-0.4,3.8c-0.3,1.6-0.9,3.7-1.4,6.3c-0.5,2.6-1,5.6-1.1,7.5c0,0.4,0,0.8,0,1.1
		c-0.5,0.1-0.8,0.2-1,0.5c-0.3,0.3-0.4,0.7-0.4,1.1c0,0.4,0.2,0.7,0.4,1.1c0.2,0.4,0.4,0.9,0.6,1.4c0.2,0.5,0.3,1.1,0.4,1.6
		c0.1,0.5,0.1,0.9,0.1,1.3c-0.9,2.3-0.9,3.1-0.9,3.9c0,0.8-0.1,1.6-0.4,2.4c-0.3,0.8-0.9,1.5-1.4,2.1c-0.5,0.6-1,1-1.5,1.4
		c-0.5,0.4-1,0.8-1.5,1.4c-0.5,0.5-1.1,1.2-1.5,1.9c-0.4,0.7-0.5,1.4-0.6,2.1c-0.1,0.7,0,1.4-0.2,2.2c-0.1,0.8-0.4,1.6-0.7,2.2
		c-0.3,0.6-0.6,1-1.1,1.8c-0.5,0.8-1.2,1.9-2.1,3.9c-0.1,0-0.1,0-0.2,0c-0.4,0.1-0.5,0.3-1,0.9c-0.5,0.6-1.2,1.4-1.6,2
		c-0.4,0.5-0.5,0.7-0.6,0.8c-0.1,0.1-0.1,0.3-0.2,0.5c0,0.2-0.1,0.6-0.1,1.7c0,1.1,0.1,3,0.2,4.2c0,1.2,0,1.7,0.1,2.2
		c0,0.5,0.1,0.9,0.1,1.2c0.1,0.3,0.1,0.4,0.3,0.5s0.3,0.1,0.6,0.4c0.3,0.2,0.7,0.7,1.2,1.1c0.5,0.5,1.2,1,1.6,1.3
		c0.4,0.4,0.6,0.6,0.7,0.8c0.2,0.2,0.3,0.2,0.6,0.3c0.3,0.1,0.8,0.1,1.2,0c0.4-0.1,0.7-0.2,0.9-0.5c0.2-0.2,0.3-0.5,0.4-0.7
		c0.1-0.2,0.1-0.4,0-0.6c0-0.2-0.2-0.4-0.5-0.6c-0.2-0.1-0.5-0.3-0.8-0.4c2.2,0.1,2.2-0.1,2.2-0.3c0-0.2-0.1-0.4-0.2-0.7
		c-0.1-0.2-0.2-0.4-0.3-0.6c-0.1-0.2-0.1-0.2,0-0.5c0.1-0.2,0.2-0.6,0.4-0.7c0.1,0,0.2,0,0.3,0c0.1,0.1,0.2,0.2,0.3,0.2
		c0.4,0.3,0.8,0.4,1.3,0.5c0.5,0.1,1.2,0.2,1.7,0.2c0.5,0,0.8,0,1.1,0c0.4,0,0.8,0,1.2,0c0.4,0,0.7-0.1,1-0.1
		c0.3-0.1,0.5-0.1,0.7-0.2c0.2-0.1,0.4-0.3,1.2-1.3c0.8-1,2.3-2.9,4.1-6.1c1.8-3.2,4-7.7,5.3-10.1c1.3-2.4,1.6-2.7,2.1-3.5
		c0.5-0.7,1.3-1.9,2-2.9c0.6-0.9,1-1.6,1.4-2.2c-0.2,2-0.4,3.6-0.4,4.9c-0.1,1.5-0.1,2.6,0.2,8c0.3,5.4,1,15.1,1.4,21
		c0.4,5.9,0.6,7.9,0.9,11.5c0.3,3.6,0.7,8.7,1.6,15.2c0.9,6.4,2.3,14.2,3.2,19.4c0.9,5.2,1.4,8,2.1,11.7c0.5,2.7,1.1,6,1.7,14.5
		c-1.8,12-3.2,18.1-4,22.3c-1,5.3-1.3,7.8-1.4,9.8c-0.1,1.9-0.1,3.3,0,4.2c0,0.9,0.1,1.3,0.3,1.5c0.2,0.2,0.5,0.3,1.6,0.6
		c0.2,0.1,0.4,0.1,0.6,0.2c-0.1,0.1-0.2,0.1-0.3,0.2c-0.6,0.4-1,1.1-1.5,1.7c-0.4,0.6-0.8,1-1.2,1.5c-0.4,0.5-1,1.2-1.6,1.7
		c-0.6,0.5-1.3,1-1.9,1.4c-0.6,0.4-1.1,0.8-1.5,1c-0.4,0.3-0.6,0.4-0.9,0.6c-0.1,0.1-0.3,0.3-0.5,0.5c-0.9,0-1.5,0-1.9,0.1
		c-0.6,0.1-1,0.3-1.3,0.6c-0.4,0.2-0.7,0.5-1,0.8c-0.3,0.3-0.4,0.7-0.5,1c-0.1,0.3,0,0.6,0.1,0.9c0,0-0.3,0.5-0.5,0.9
		c-0.2,0.4-0.1,0.7,0,0.9c0.1,0.3,0.3,0.5,0.6,0.7c0.3,0.3,0.8,0.5,1.5,0.7c0.7,0.2,1.5,0.3,2.3,0.4c0.9,0.1,1.8,0.1,2.5,0.2
		c0.7,0.1,1.2,0.1,1.8,0.2c0.5,0.1,1.1,0.2,1.8,0.3c0.7,0.1,1.5,0.2,2.2,0.3c0.7,0.1,1.2,0.2,1.8,0.3c0.5,0.1,1,0.2,1.6,0.3
		c0.5,0.1,1.1,0.2,1.6,0.3c0.5,0.1,0.8,0.1,1.1,0.1c0.3,0,0.7-0.1,1-0.2c0.3-0.1,0.6-0.1,0.9-0.2c0.3,0,0.6-0.1,0.9-0.1
		c0.3-0.1,0.6-0.2,1.1-0.2c0.5-0.1,1.2-0.1,1.6-0.1c0.4,0,0.4,0,0.7,0c0.3,0,0.8,0,1.2,0c0.4,0,0.6,0,0.8-0.1c0.2,0,0.4,0,0.6-0.1
		c0.2-0.1,0.4-0.2,0.6-0.3c0.2-0.2,0.3-0.4,0.4-0.7c0.1-0.3,0.1-0.7,0.1-1c0-0.3,0-0.6-0.7-2c0.1-0.4,0.3-0.9,0.3-1.6
		c0-0.6,0-1.3-0.1-1.9c-0.1-0.5-0.3-0.9-0.4-1.3c-0.2-0.3-0.4-0.6-0.6-1c-0.2-0.4-0.5-0.8-0.7-1.3c-0.2-0.5-0.3-1-0.6-2.6
		c0.3,0,0.5,0.1,0.8,0.1c1,0.1,1.5,0.1,1.8,0c0.3-0.1,0.5-0.3,0.7-1.2c0.3-0.9,0.6-2.4,1.2-4.8c0.6-2.4,1.6-5.7,2.5-10.2
		c0.9-4.5,1.8-10.1,4-23.1c1.1-0.2,2.3-0.4,3.7-0.5c2-0.2,4.2-0.3,6.4-0.4c1.3,0,2.7-0.1,3.9,0c3.6,3.1,4.3,4.1,5.1,5.1
		c0.8,1,1.6,2,2.3,2.8c0.7,0.9,1.3,1.7,1.9,2.4c0.6,0.7,1.2,1.3,1.7,1.8c0.5,0.5,0.9,1,1.3,1.5c0.4,0.5,0.8,1,1.2,1.5
		c0.4,0.4,0.7,0.7,1,1c0.3,0.3,0.6,0.5,0.9,0.7c0.3,0.2,0.6,0.4,1,0.3c0.4,0,0.8-0.3,1.3-0.7c0.1-0.1,0.2-0.2,0.3-0.3
		c0.2,2.3,0.4,3.3,0.5,4c0.1,0.7,0.2,1.2,0.3,1.7c0.1,0.4,0.2,0.8,0.2,1.6c0,0.7,0,1.9,0,2.7c0,0.8,0,1.4,0,2c0,0.6-0.1,1.2-0.2,1.8
		c-0.1,0.6-0.2,1.1-0.4,1.7c-0.2,0.6-0.4,1.3-0.8,2.1c-0.3,0.8-0.8,1.6-1.2,2.2c-0.4,0.7-0.8,1.1-1,1.6c-0.3,0.5-0.5,0.9-0.6,1.3
		c-0.1,0.3-0.1,0.5,0,0.7c-0.4,0.7-0.3,0.9-0.2,1.1c0.1,0.2,0.3,0.3,0.6,0.5c0.3,0.1,0.6,0.2,0.9,0.2c0.4,0.1,0.8,0.1,1.2,0.2
		c0.4,0,0.9,0.1,1.3,0.1c0.4,0,0.7,0,1.1-0.1c0.4,0,0.8-0.1,1.1-0.2c0.4-0.1,0.8-0.2,1.3-0.3c0.5-0.1,1.1-0.2,1.5-0.3
		c0.4-0.1,0.7-0.3,1.1-0.6c0.5-0.3,1.1-0.7,1.6-1c0.5-0.3,0.7-0.5,1.4-1.2c0.7-0.7,1.8-2,2.3-2.7c0.6-0.8,0.7-1,0.7-1.3
		c0.1-0.3,0.1-0.6,0.1-1.1c0-0.4,0-1-0.1-1.6c-0.1-0.6-0.1-1.3-0.2-1.8c-0.1-0.5-0.2-1-0.3-1.3c-0.1-0.4-0.2-0.7-0.2-1.1
		c0-0.4,0-0.8,0-1.1c0.1-0.4,0.2-0.7,0.3-1.1c0.1-0.3,0.1-0.6,0.2-1c0.1-0.4,0.2-0.8,0.3-1.2c0.1-0.4,0.3-0.7,0.5-0.9
		c0.2-0.2,0.3-0.4,0.5-0.5c0.1-0.1,0.2-0.1,0.7-0.1c0.4,0,1.2,0,1.6,0c0.4,0,0.4,0,0.4,0c0,0,0-0.1,0.5-1.1c0.5-1.1,1.5-3.1,1.9-4.4
		c0.5-1.3,0.4-1.8,0.3-2.3c-0.2-0.4-0.4-0.8-1-1.4c-0.4-0.5-1-1.1-1.4-1.2c-0.2-0.1-0.3-0.2-0.5-0.3c0,0,0,0,0-0.1
		c0-0.2-0.1-0.5-0.3-0.7c-0.2-0.3-0.5-0.6-0.9-1c-0.3-0.3-0.6-0.6-1.1-0.9c-0.5-0.3-1.4-0.6-4.4-1.6c0-0.3,0-0.6,0-0.9
		c-0.1-0.5-0.2-0.8-0.4-1.2c-0.2-0.4-0.5-0.8-1-1.2c-0.5-0.4-1.1-0.9-3-2.7c-1.9-1.8-5-4.9-7.7-7.4c0.1-0.3,0.1-0.6,0.2-0.9
		c0.2-1.2,0.3-2.7,0.4-4.1c0.1-1.4,0.1-2.7,0.2-4.1c0-1.4,0-2.9,0-4.6c-0.1-1.7-0.2-3.6-0.2-5.6c-0.1-2-0.1-4.1-0.1-6
		c0-1.9,0-3.6,0-5.4c0-1.8-0.1-3.6-0.2-5.3c-0.1-1.7-0.4-3.2-0.6-4.9c-0.2-1.7-0.3-3.5-0.4-5c-0.1-1.5-0.2-2.5-0.3-3.6
		c-0.1-1.1-0.1-2.1-0.1-3.4c0-1.3,0-2.8-0.1-4.3c-0.1-1.5-0.2-2.8-0.3-4.1c-0.1-1.3-0.3-2.6-0.5-3.8c-0.1-1.2-0.3-2.5-0.4-3.8
		c-0.1-1.3-0.3-2.6-0.6-4c-0.2-1.5-0.5-3.1-0.8-4.5c-0.3-1.5-0.6-2.8-0.8-4c-0.2-1.2-0.3-2.3-0.4-3.5c-0.1-1.1-0.1-2.3-0.2-3.1
		c-0.1-0.8-0.1-1.4-0.2-1.9c-0.1-0.5-0.2-1.1-0.3-1.6c-0.1-0.5-0.1-1-0.2-1.7c0.2,0,0.4,0,0.6-0.1c0.4-0.1,0.9-0.3,1-0.5
		c0.1-0.2-0.2-0.5-0.5-0.8c-0.2-0.3-0.4-0.5-0.5-0.7c-0.1-0.2-0.2-0.5-0.4-1.2c-0.2-0.7-0.5-1.9-0.6-2.7c-0.1-0.9,0-1.5-0.1-1.9
		c0-0.4-0.2-0.7-0.3-0.8c-0.1-0.1-0.3-0.1-0.5-0.1c0,0,0,0,0,0c-0.5-2.7-0.5-3.9-0.5-4.8c0-0.9,0-1.6,0-2.4c0-0.8-0.1-1.8-0.4-3.2
		c-0.2-1.4-0.7-3.3-0.8-4.5c-0.2-1.2-0.1-1.8,0-2.8c0-0.1,0-0.2,0-0.2c0.5,1.5,0.9,2.4,1.3,3.5c0.5,1.3,1,2.8,1.5,4.1
		c0.5,1.3,0.9,2.3,1.3,3.3c0.5,1,1.1,1.9,1.7,2.7c0.3,0.4,0.6,0.7,0.9,1c1.1,6.7,1.5,8.3,1.8,9.8c0.3,1.5,0.6,3,0.8,4.5
		c0.2,1.5,0.3,2.9,0.5,4.4c0.2,1.5,0.4,3,0.5,4.2c0.2,1.2,0.4,2.2,0.5,3.1c0.2,0.9,0.3,1.8,0.6,2.7c0.2,0.9,0.5,1.8,0.7,2.4
		c0.2,0.6,0.2,0.8,0.3,1c0.1,0.2,0.1,0.5,0.2,0.6c0,0.2,0.1,0.2,0.1,0.3c0.1,0.1,0.1,0.1,0.8,0.2c0,0,0.1,0,0.1,0
		c0.1,2.7,0.3,3,0.5,3.2c0.2,0.2,0.3,0.2,0.6,0.3c-0.3,0.7-0.4,1.6-0.5,2.2c-0.1,0.6-0.1,0.9-0.2,1.3c-0.1,0.4-0.2,0.8-0.3,1.3
		c-0.1,0.4-0.1,0.9,0,1.3c0,0.4,0.1,0.7,0.1,1.1c0,0.4,0,0.8,0,1.2c0,0.4,0,0.8,0,1.1c0,0.3,0,0.6,0,0.8c0,0.2,0,0.3,0.1,0.4
		c0.1,0.1,0.3,0,0.4,0c0.1,0,0.2-0.1,0.3-0.2c0.1-0.1,0.2-0.3,0.4-0.4c0.1-0.1,0.3-0.3,0.4-0.5c0.2-0.2,0.4-0.5,0.5-0.7
		c0.1-0.3,0.2-0.6,0.3-1c0.1-0.4,0.1-0.8,0.2-1.2c0-0.4,0-0.7,0.1-1c0-0.3,0.1-0.6,0.2-1c0.1-0.4,0.2-0.8,0.5-2.3
		c0,0.1,0.1,0.1,0.1,0.2c0.1,0.1,0.1,0.2,0.1,0.2c0,0.1,0.1,0.2,0.1,0.3c0,0.1,0.1,0.2,0.1,0.3c0,0.1,0,0.1,0.1,0.3
		c0,0.1,0.1,0.4,0.2,0.5c0.1,0.2,0.1,0.3,0.2,0.5c0.1,0.2,0.3,0.5,0.6,0.8c0.2,0.3,0.5,0.6,0.7,0.9c0.2,0.3,0.4,0.6,0.6,1
		c0.2,0.4,0.3,0.8,0.3,1.2c0,0.4,0,0.7,0,1c0,0.3,0,0.5,0,0.8c0,0.3,0.1,0.6,0.1,0.9c0,0.3,0,0.6-0.1,0.8c-0.1,0.3-0.2,0.6-0.2,0.9
		c-0.1,0.3-0.1,0.6-0.1,0.9c0,0.3-0.1,0.6-0.1,0.9c-0.1,0.3-0.1,0.6-0.2,0.9c-0.1,0.3-0.1,0.6,0.1,0.7c0.1,0.2,0.4,0.3,0.6,0.3
		c0.2,0.1,0.4,0.1,0.5,0.1c0.2,0,0.3-0.2,0.5-0.3c0.2-0.2,0.4-0.4,0.5-0.7c0.2-0.3,0.3-0.6,0.5-0.9c0.1-0.4,0.3-0.7,0.4-1
		c0.1-0.3,0.3-0.5,0.5-0.9c0.1-0.3,0.2-0.6,0.3-1c0.1,0.1,0.3,0.2,0.4,0.2c0.1,0,0.2-0.1,0.4-0.1c0.2-0.1,0.4-0.2,0.5-0.3
		c0.2-0.1,0.3-0.2,0.5-0.3c0.2-0.1,0.4-0.2,0.6-0.4c0.2-0.1,0.4-0.3,0.5-0.5c0.1-0.2,0-0.3,0.1-0.9c0.1-0.2,0.2-0.2,0.3-0.3
		c0.1-0.1,0.3-0.2,0.4-0.5c0.2-0.3,0.3-0.6,0.4-1.2c0.1-0.5,0.3-1.3,0.4-1.9c0.1-0.7,0.2-1.3,0.1-1.9c-0.1-0.7-0.4-1.4-0.9-5.5
		c0.6-0.4,1.1-0.8,1.4-1.3c0.4-0.5,0.4-1-0.7-3.2c0.1-0.2,0.1-0.4,0.1-0.6c0-0.3,0-0.6,0-1.2c0-0.5-0.1-1.3-0.3-2.3
		c-0.2-0.9-0.6-2-0.8-2.8c-0.2-0.8-0.4-1.4-0.6-2.6c-0.2-1.2-0.4-2.9-0.5-4.3c-0.2-1.5-0.3-2.7-0.5-4c-0.2-1.3-0.3-2.6-0.5-3.6
		c-0.1-1-0.2-1.8-0.6-3.5c-0.4-1.7-1.1-4.4-1.7-6.4c-0.6-1.9-1.1-3.1-1.8-4.6c-0.7-1.5-1.5-3.3-2.2-5.1c-0.7-1.8-1.2-3.6-1.8-5.7
		c-0.6-2.1-1.3-4.5-2.1-7c-0.8-2.5-1.6-5.2-2.3-7.3c-0.7-2.2-1.4-3.8-2.3-6.1c-0.9-2.3-1.9-5.1-2.6-7.4c-0.7-2.3-1.1-4-1.4-5.5
		c-0.3-1.4-0.5-2.6-0.7-4c-0.3-1.4-0.6-3.1-0.9-4.5c-0.3-1.4-0.5-2.6-0.6-3.5c-0.2-0.8-0.4-1.3-0.6-1.8c-0.3-0.5-0.6-1-0.9-1.5
		c-0.3-0.5-0.6-0.9-0.9-1.3c-0.3-0.4-0.7-0.6-1.1-0.9c-0.4-0.2-0.8-0.4-1.3-0.5c-0.4-0.1-0.9-0.3-1.3-0.4c-0.4-0.1-0.8-0.1-1.9,0.1"
		/>
</g>
<g id="inner">
	<path class="st1" d="M16.2,109.2c0,0.4,0.1,0.6,0.7,1.2"/>
	<path class="st1" d="M26.2,101.4c-7.4,0.7-8.7,0.8-9.6,0.9c-0.2,0-0.3,0-0.5,0.1"/>
	<path class="st1" d="M34.6,21.6c0.5,0.1,0.6,0.1,0.7,0.2c0.1,0.1,0.1,0.2,0.1,0.9c-0.1,0.6-0.2,1.8-0.4,2.8
		c-0.1,1.1-0.3,2.1-0.3,2.8c-0.1,0.7,0,1.1,0.1,1.4c0.1,0.3,0.3,0.5,0.6,0.5c0.3,0,0.6-0.2,1.1-0.5c0.5-0.2,1.1-0.4,1.6-0.5
		c0.5-0.1,0.9-0.1,1.1-0.1c0.3,0,0.5,0,0.7-0.2c0.2-0.2,0.3-0.5,0.2-1c-0.1-0.4-0.5-0.9-0.7-1.3c-0.2-0.3-0.2-0.4-0.4-0.8
		c-0.1-0.4-0.4-1-1-2.5"/>
	<path class="st1" d="M44.2,132.9c0.6-5.1-0.1-6.2-0.5-7.4c-0.4-1.2-0.7-2.4-0.9-3.5c-0.3-1.1-0.6-2-0.9-3.1c-0.3-1-0.6-2.2-1.8-5.4
		c-1.2-3.2-3.3-8.5-4.7-11.7c-1.4-3.2-2.2-4.3-2.8-5.4c-0.6-1.1-1.2-2.2-1.8-3.5c-0.6-1.3-1.2-2.7-2.1-4.8c-0.9-2.1-2-4.9-3.2-7.2
		c-1.2-2.3-2.4-4-3.1-5c-0.7-1-0.9-1.3-1-1.6c-0.1-0.3,0-0.6,0.2-0.9c0.1-0.3,0.3-0.8,0.5-1c0.2-0.3,0.4-0.4,1.4-1.2
		c1-0.8,2.8-2.4,3.8-3.3c1-0.9,1.3-1.3,1.6-1.7c0.4-0.4,0.8-0.9,1.4-1.4c0.6-0.5,1.3-1.1,4.1-4.1"/>
	<path class="st1" d="M90.5,116.7c0.4,0.4,0.8,0.8,1.3,1.3c0.9,0.9,2,1.9,2.6,3.3"/>
	<path class="st1" d="M40.3,22.7c1.3,1,1.7,1.4,2.1,1.8c0.4,0.4,0.8,0.7,1.7,1.2"/>
	<path class="st1" d="M76.6,76c2.7,14.6,3.4,15.9,4.3,18c0.8,2.1,1.9,5.1,2.6,7.2c0.1,0.3,0.2,0.6,0.3,0.9"/>
	<path class="st1" d="M52.1,269.3c-1.7,1.9-2.3,1.8-2.8,1.6c-0.5-0.2-0.9-0.5-1.4-0.8c-0.5-0.3-1-0.6-1.5-1.1
		c-0.5-0.4-1.1-1-1.7-1.3c-0.6-0.4-1.2-0.6-1.6-0.9c-0.4-0.3-0.6-0.7-1.1-0.8c-0.4-0.1-0.9-0.1-1.4,0.2"/>
	<path class="st1" d="M80.3,49.2c0.2,0.1,0.4,0.2,0.7,0.3c0.4,0.3,0.9,0.9,1.2,1.5c0.3,0.6,0.5,1.1,0.5,1.4c0.1,0.4,0.1,0.6-0.1,0.8
		c-0.1,0.2-0.4,0.4-0.7,0.5c-0.3,0.1-0.7,0.2-1.1,0.4c-0.4,0.2-0.9,0.5-1.4,0.7c-0.5,0.2-1.1,0.3-1.8,0.4c-0.7,0.1-1.4,0-2.3,0
		c-0.9,0-1.9,0.1-3,0.2c-1.1,0.1-2.1,0.2-3.1,0.4c-1,0.1-1.9,0.3-2.6,0.4c-0.7,0.1-1.1,0.1-1.5,0.1c-0.4,0-0.9,0.1-1.2,0.1
		c-0.4,0.1-0.7,0.1-1,0.3c-0.3,0.1-0.4,0.4-0.8,0.4c-0.3,0.1-0.8,0-0.3,0.9"/>
	<path class="st1" d="M53.5,21.5c-0.1,0.2-0.4,0.5-0.6,0.7c-0.2,0.2-0.2,0.3-0.3,0.7c-0.1,0.4-0.2,1.1-0.3,1.5
		c-0.1,0.4-0.2,0.6-0.3,0.7c-0.1,0.1-0.3,0.3-0.3,0.2c-0.1-0.1-0.1-0.4-0.1-0.6c0-0.2-0.1-0.4-0.1-0.7c0-0.3,0.1-0.7,0.1-1
		c0.1-0.3,0.1-0.6,0-0.9c0-0.3-0.1-0.7-0.3-1c-0.2-0.3-0.4-0.4-0.5-0.5c-0.1-0.2-0.2-0.5-0.2-0.8c0-0.3-0.1-0.8-0.2-1
		c-0.1-0.2-0.4-0.3-0.5-0.7c-0.1-0.4-0.1-1-0.2-1.2S49.2,17,49,16.9c-0.2,0-0.2-0.4-0.2-0.7c0-0.4,0-0.8-0.1-1.3
		c0-0.5,0-1.1-0.3-1.3c-0.2-0.3-0.7-0.2-1.1-0.4c-0.3-0.1-0.5-0.4-0.5-0.6c-0.1-0.2,0-0.4-0.3-0.2c-0.2,0.2-0.7,0.7-0.9,0.9
		c-0.2,0.1-0.1-0.2,0-0.7c0.1-0.5,0.2-1.3,0.1-1.6c-0.1-0.3-0.2-0.2-0.5,0c-0.3,0.2-0.7,0.4-1,0.7c-0.3,0.2-0.6,0.5-0.8,0.6
		c-0.2,0.2-0.3,0.2-0.4,0.1c-0.1-0.1,0-0.4,0-0.6c0-0.2,0-0.2-0.2,0.1c-0.2,0.3-0.7,0.8-0.9,1.1c-0.2,0.2-0.2,0.2-0.1-0.1
		c0.1-0.3,0.2-0.8,0.2-1c0-0.3-0.2-0.3-0.3-0.1c-0.1,0.2-0.2,0.6-0.4,0.8c-0.2,0.2-0.5,0.3-0.6,0.3c-0.1-0.1-0.1-0.2,0-0.5
		c0.1-0.2,0.2-0.5,0-0.6c-0.2,0-0.7,0.2-1.2,0.5c-0.4,0.3-0.8,0.7-1.3,1.1c-0.4,0.4-1,0.8-1.3,1c-0.3,0.1-0.5,0-0.5-0.2
		c0-0.2,0.1-0.5,0.2-0.9c0.1-0.5,0.1-1.1,0.1-1.4c0-0.4-0.1-0.4-0.4-0.2c-0.3,0.2-0.8,0.7-1.3,1c-0.5,0.4-0.9,0.6-1.6,0.9
		c-0.7,0.3-1.6,0.7-2,1.2c-0.5,0.5-0.5,1.1-0.5,1.3c0,0,0,0.1,0,0.1"/>
	<path class="st1" d="M26.8,278.3c0.1,0.1,0.1,0.2,0.2,0.2c0.4,0.3,1.1,0.6,1.8,0.8c0.7,0.2,1.4,0.4,2.3,0.6
		c0.9,0.2,1.9,0.3,2.9,0.5c1.1,0.2,2.1,0.4,3.1,0.5c0.9,0.1,1.7,0.2,2.6,0.4c0.8,0.2,1.7,0.5,2.4,0.7c0.7,0.2,1.1,0.3,1.6,0.4
		c0.5,0.1,1.1,0.1,1.5,0c0.5-0.1,0.8-0.2,1.3-0.4c0.5-0.2,1.2-0.4,1.7-0.7c0.5-0.3,0.9-0.6,1.3-0.8c0.4-0.2,0.8-0.3,1.2-0.4
		c0.4-0.1,0.7-0.1,1.1-0.2c0.4,0,0.9,0,1.3-0.1c0.3,0,0.5-0.1,0.7-0.2c0.2-0.1,0.3-0.3,0.5-0.7"/>
	<path class="st1" d="M42.5,275.3c-3.1,0.3-4.2,0.3-5.7,0.2c-1.5-0.1-3.4-0.4-4.8-0.6c-0.3,0-0.5,0-0.7-0.1"/>
	<path class="st1" d="M10.4,146.5C10.4,146.5,10.4,146.5,10.4,146.5c0.4,0.2,0.9,0.3,1.4,0.3c0.5,0,0.9-0.1,1.4-0.3
		c0.5-0.2,1.2-0.5,1.7-0.8c0.5-0.3,0.9-0.7,1.1-1.1c0.2-0.4,0.3-0.7,0.2-1.2c-0.1-0.5-0.4-1-1.2-2.3c-0.8-1.2-2.1-3.1-3-4.2
		c-0.8-1.1-1.1-1.3-1.9-1.6c-0.8-0.3-2-0.7-3.3-0.7"/>
	<path class="st1" d="M8.4,143.5c1.9,0.4,2.2,0.1,2.5-0.4c0.2-0.4,0.4-0.9,0.6-1.3c0.2-0.4,0.5-0.8,0.9-1.1c0.3-0.2,0.7-0.4,1.8-0.9
		"/>
	<path class="st1" d="M3.6,145.1c1.4,0.5,1.9,0.6,2.3,0.6c0.4,0,0.7-0.2,1-0.3c0.3-0.2,0.5-0.4,0.7-0.6s0.5-0.6,0.8-1.3
		c0.3-0.7,0.7-1.8,0.9-2.4c0.2-0.7,0.4-1,0.5-1.3c0.2-0.3,0.4-0.7,0.5-0.9c0.2-0.2,0.3-0.4,0.5-0.5c0.2-0.1,0.4-0.2,0.7-0.5
		c0.2-0.2,0.5-0.4,0.7-0.6"/>
	<path class="st1" d="M38.5,19.8c0.3-0.3,0.8-0.6,1.1-0.9c0.4-0.2,0.7-0.4,1.1-0.4c0.5,0,1.1,0.1,1.7,0.1c0.6,0.1,1,0.1,1.4,0.2
		c0.4,0.1,0.6,0.1,0.6,0.3c0,0.1-0.2,0.3-0.5,0.4c-0.3,0.1-0.7,0.2-1,0.2c-0.3,0-0.6,0-1,0c-0.4,0-0.8,0.1-1.3,0.2
		c-0.5,0.2-0.9,0.4-1.3,0.6c-0.4,0.2-0.8,0.3-0.9,0.1C38.3,20.6,38.3,20.2,38.5,19.8z"/>
	<path class="st1" d="M97.5,158.3c0,0,0.5,0,1.4,0.2"/>
	<path class="st1" d="M57.4,25.9c0.7,0.5,0.8,0.7,0.9,0.9c0.1,0.2,0.2,0.4,0.2,0.7c0,0.2-0.1,0.5-0.1,0.7c-0.1,0.2-0.1,0.5-0.2,0.7
		c-0.1,0.3-0.1,0.6-0.2,0.9c-0.1,0.3-0.2,0.6-0.3,0.8c-0.1,0.2-0.3,0.3-0.4,0.4c-0.1,0.1-0.2,0.2-0.2,0.3c0,0.2,0,0.5,0,0.7
		c0,0.2,0,0.3,0,0.5c0,0.1-0.1,0.3-0.2,0.4c-0.1,0.1-0.3,0.2-0.4,0.2c-0.1,0-0.2-0.2-0.3-0.4c0-0.2-0.1-0.4-0.1-0.6
		c0-0.2-0.1-0.4-0.2-0.7c-0.1-0.3-0.2-0.6-0.3-0.9c-0.1-0.3-0.1-0.5-0.1-0.7c0-0.2-0.1-0.4-0.2-0.6c-0.1-0.2-0.3-0.5-0.5-1.3"/>
	<path class="st1" d="M41.3,40.5c0.3,2.3,0.5,2.6,0.8,2.7c0.2,0.2,0.4,0.2,0.6,0.2c0.2,0,0.5-0.1,0.9-0.2c0.4-0.1,0.9-0.2,1.4-0.3
		c0.4-0.1,0.8-0.3,1.2-0.4c0.4-0.1,0.7-0.3,1.2-0.4c0.4-0.1,0.9-0.3,1.5-0.4c0.6-0.1,1.2-0.3,1.7-0.4c0.5-0.1,0.8-0.3,1.1-0.5
		c0.4-0.2,0.8-0.6,1.2-1c0.4-0.4,0.8-1,1.3-1.6c0.5-0.7,1.1-1.4,1.6-2.2c0.5-0.8,0.9-1.7,0.8-2.8"/>
	<path class="st1" d="M48.4,90.4c-0.7-7.3-1.9-12.7-2.8-17.2c-0.9-4.5-1.4-8.2-1.9-11.8c-0.5-3.6-0.9-7.2-0.6-10.7"/>
	<path class="st1" d="M46.5,52.6c1.5,5,2.5,11,4.3,21.8"/>
	<path class="st1" d="M47.9,48.4c3.3-2.6,4.2-3.6,5.1-4.7c1-1.1,2-2.2,2.6-4"/>
	<path class="st1" d="M56,48.4c-0.5,0.2-0.8,1.6-1.8,6.8c-1,5.2-2.7,14.1-4.1,23.4c-1.4,9.3-2.6,18.9-3.4,26.9
		c-0.8,8-1.3,14.3-1.7,19.5c-0.5,5.2-0.9,9.2-2.4,16.8"/>
	<path class="st1" d="M108.3,158.9c0.5-0.2,0.8-0.3,1-0.5"/>
	<path class="st1" d="M33.3,22.9c0.4,1,0.4,1.1,0.5,1c0.1-0.1,0.2-0.2,0.2-0.9"/>
	<path class="st1" d="M85.4,119.9c-0.3,0-0.6,0.1-1.5,0.4c-0.9,0.3-2.3,0.8-3.8,1.2c-1.5,0.5-3.1,0.9-5,1.3c-1.9,0.4-4.1,0.8-5.3,1
		c-1.2,0.2-1.3,0.3-1.2,0.7c0.1,0.4,0.3,1.2,0.6,2c0.2,0.8,0.4,1.6,0.6,2.2c0.1,0.7,0.2,1.2,0.4,1.6c0.1,0.5,0.3,0.8,0.6,1.1
		c0.3,0.2,0.7,0.3,1.2,0.3c0.5,0,0.9-0.1,1.6-0.2c0.7-0.1,1.5-0.4,2.3-0.6c0.8-0.2,1.5-0.5,2.1-0.7c0.6-0.2,1-0.4,1.8-0.7
		c0.9-0.3,2.3-0.6,3.3-0.8c1-0.2,1.7-0.3,2.2-0.4c0.5,0,0.9,0,1.2,0c0.1,0,0.2,0,0.3,0"/>
	<path class="st1" d="M41.6,46.1c1.4,1.4,2.5,2.4,3.4,3.1c0.9,0.7,1.5,1.1,2.3,1.5c0.9,0.4,2,0.7,3.7,0.4"/>
	<path class="st1" d="M35.3,23.7c-0.1,0.8-1,1.4-2.6,1.9"/>
	<path class="st1" d="M91.9,268.7c0,0.1,0.1,0.2,0.1,0.2c0.2,0.3,0.6,0.5,1.1,0.7c0.5,0.2,1.1,0.2,1.7,0.3c0.6,0,1.2,0,1.8,0
		c0.6-0.1,1.2-0.2,1.7-0.3c0.5-0.1,0.9-0.3,1.6-0.6c0.7-0.3,1.6-0.6,2.2-0.9c0.6-0.3,0.8-0.5,1.5-1.1c0.7-0.6,1.9-1.6,2.5-2.3
		c0.7-0.8,0.8-1.4,0.9-1.9c0.1-0.5,0.1-1,0.1-1.5c0-0.4-0.1-0.8-0.2-1.1c-0.1-0.3-0.1-0.6-0.2-1c-0.1-0.4-0.2-0.9-0.3-1.2
		c-0.1-0.3-0.1-0.5-0.1-0.7c0-0.2,0-0.5,0-0.8c0-0.3,0-0.7,0.1-1.1c0.1-0.4,0.2-0.7,0.2-1c0.1-0.3,0.1-0.5,0.2-0.8
		c0.1-0.3,0.2-0.6,0.3-0.9c0.1-0.3,0.2-0.6,0.3-0.8c0.1-0.3,0.3-0.6,0.5-1.1c0.2-0.5,0.5-1.2,0.9-1.9c0.4-0.7,0.9-1.5,1.2-2
		c0.4-0.6,0.6-0.9,0.9-1.3c0.3-0.4,0.5-0.9,0.7-1.3c0.1-0.4,0.2-0.8,0.2-1.2c0-0.4,0-0.9,0-1.4c0-0.5,0-1,0-1.4c0-0.3,0-0.5-0.1-0.7
		"/>
	<path class="st1" d="M110,156.9c0.6,2.9,0.3,4.7,0.2,5.7c0,0.3,0,0.5-0.1,0.6"/>
	<path class="st1" d="M52.8,23.1c0.6-1.6,1-2.1,1.4-2.5c0.4-0.5,0.7-0.8,1.1-1.2c0.4-0.3,0.8-0.6,1-0.9c0.3-0.3,0.4-0.5,0.6-0.6
		c0.2-0.1,0.5-0.2,0.8-0.2c0.3,0,0.6,0.1,0.9,0.3c0.3,0.2,0.5,0.5,0.6,0.9c0.1,0.4,0.2,1,0.2,1.5"/>
	<path class="st1" d="M57.4,25.9c-0.1,0.4-0.2,0.7-0.3,1c-0.1,0.4-0.4,0.6-0.7,0.7c-0.3,0.2-0.7,0.2-1.4,0.2c-0.6,0-1.5-0.2-2.2-0.4
		"/>
	<path class="st1" d="M98.5,153.5c0.1,0,0.1,0,0.2,0c0.5,0.1,1.2,0.1,2.4,0.2c1.1,0,2.7,0,4-0.1c1.3-0.1,2.5-0.2,3.4-0.4
		c0.9-0.2,1.6-0.6,2.3-1.1c0.1-0.1,0.2-0.1,0.2-0.2"/>
	<path class="st1" d="M97.4,150c0.7,0.1,2,0.3,3.4,0.4c1.5,0.1,3.2,0,4.7-0.1c1.5-0.1,2.9-0.4,3.6-0.5c0.7-0.2,0.7-0.2,0.9-0.4
		c0.2-0.2,0.6-0.4,0.8-0.6c0.2-0.2,0.3-0.3,0.4-0.4c0.1-0.2,0.3-0.4,0.4-0.6c0-0.1,0.1-0.1,0.1-0.2"/>
	<path class="st1" d="M32.1,95.8c1.1,8.7,1.8,10.3,1.9,11.9c0.1,1.7-0.3,3.5-0.6,5.7c-0.3,2.3-0.4,5-0.6,7.3c0,0.2,0,0.4,0,0.6"/>
	<path class="st1" d="M105.1,159.7c1-0.1,1.6-0.1,1.6-0.1"/>
	<path class="st1" d="M37.2,38.9c0.2,0.3,0.4,0.5,0.6,0.7c0.2,0.2,0.5,0.4,0.9,0.5c0.4,0.1,0.9,0.3,1.3,0.3c0.4,0.1,0.7,0,1.1,0
		c0.4,0,0.8-0.1,1.2-0.2c0.5-0.1,1-0.2,1.6-0.4c0.6-0.1,1.4-0.3,2.1-0.7c0.7-0.4,1.4-1.1,2-1.7c0.5-0.6,1-1,1.4-1.4
		c0.4-0.4,0.9-0.8,1.3-1.2c0.5-0.4,1-0.9,1.3-1.2c0.4-0.4,0.6-0.7,0.8-1c0.2-0.4,0.5-0.8,0.6-1.1c0.1-0.4,0.2-0.7,0.2-1.1
		c0-0.4,0-0.8-0.1-1.2c0-0.4-0.1-0.7-0.1-0.9c0-0.2,0-0.2,0-0.3c0,0,0-0.1,0-0.3c0,0,0,0,0-0.1"/>
	<path class="st1" d="M110.6,157.2c0.2-0.4,0.4-0.7,0.5-1"/>
	<path class="st1" d="M100.9,155.8c0-0.1-0.1-0.1-0.2-0.2c-0.1-0.1-0.2-0.2-0.3-0.3c-0.1-0.1-0.2-0.2-0.3-0.2"/>
	<path class="st1" d="M36.5,33.7c-0.5,0.4-0.4,0.6-0.4,0.7c0.1,0.1,0.2,0.2,0.3,0.2c0.1,0,0.3,0.1,0.6,0.1c0.2,0,0.5,0,0.7,0
		c0.2,0,0.4,0,0.6,0c0.2,0,0.3,0,0.5,0c0.2,0,0.5,0,0.8,0c0.3-0.1,0.6-0.2,0.8-0.2c0.2-0.1,0.4-0.1,0.6-0.2c0.2-0.1,0.3-0.2,0.5-0.9
		"/>
	<path class="st1" d="M41.2,33.3c-0.3,0-0.7,0-1.1,0c-0.4,0-0.8,0.1-1.2,0.1c-0.4,0-0.9,0.1-1.3,0.1c-0.4,0-0.7,0.1-0.9,0.1
		c-0.2,0-0.4-0.1-0.5-0.1c-0.1,0-0.3-0.1-0.5-0.1c-0.2,0-0.4,0-0.1-0.1c0.3-0.1,1.2-0.3,1.9-0.4c0.7-0.1,1.3-0.1,1.9-0.1
		c0.6,0,1.2,0,1.6,0.1c0.4,0,0.4,0.1,0.5,0.1c0.1,0,0.2,0.1,0.2,0.1C41.7,33.3,41.5,33.3,41.2,33.3z"/>
	<path class="st1" d="M35.4,33.5c0.3-1.1,0.4-1.4,0.5-1.6c0.1-0.3,0.1-0.5,0.2-1"/>
	<path class="st1" d="M27.7,53.5c0.1,0.2,0.2,0.3,0.3,0.4c0.3,0.3,0.5,0.5,0.9,0.9c0.4,0.4,0.9,0.9,1.7,1.7c0.8,0.8,1.9,1.8,2.5,2.6
		c0.6,0.7,0.8,1.1,1.1,1.5c0.3,0.4,0.7,0.7,1.3,1c0.6,0.3,1.5,0.7,3.5,1.9"/>
	<path class="st1" d="M44.9,218c-0.5,3.6-0.9,6.7-1.4,9.6"/>
	<path class="st1" d="M54.1,23c0.8-1.5,1.1-2.3,1.4-2.9c0.2-0.6,0.3-0.9,0.6-1.2c0.3-0.2,0.9-0.4,1.3-0.5c0.4-0.1,0.5,0,0.6,0.1
		c0.2,0.1,0.4,0.3,0.5,0.6c0.1,0.3,0.2,0.6,0.2,0.9c0,0.3-0.1,0.7-0.2,1c-0.1,0.4-0.3,0.8-0.5,1.3c-0.2,0.5-0.4,1-0.6,1.5
		c-0.2,0.4-0.3,0.8-0.4,1.1c-0.1,0.3-0.2,0.6-0.3,0.8c-0.1,0.2-0.2,0.5-0.4,0.6c-0.2,0.1-0.4,0.2-0.9,0.3"/>
	<path class="st1" d="M95.1,245.4c0.4-0.4,0.7-0.9,1.1-1.3c0.5-0.5,1-0.8,1.5-1.1c0.5-0.3,1.1-0.6,1.8-1c0.7-0.4,1.6-1,2.3-1.6
		c0.7-0.6,1.3-1.2,1.7-1.7c0.4-0.5,0.7-1,0.9-1.4c0.2-0.4,0.4-0.8,0.4-1.3c0-0.2,0.1-0.4,0.1-0.6"/>
	<path class="st1" d="M6.9,134.6c-1.7-0.1-2.4-0.2-2.7-0.1"/>
	<path class="st1" d="M7.1,149.6c-0.2-0.1-0.4-0.2-0.5-0.2c-0.4-0.2-0.5-0.2-0.8-0.4c-0.3-0.1-0.8-0.3-1.1-0.4
		c-0.3-0.1-0.3-0.1-0.3-0.2c0-0.1,0-0.4,0-0.8c-0.1-0.3-0.2-0.7-0.4-1c-0.2-0.3-0.3-0.5-0.4-0.7c-0.1-0.1-0.2-0.2-0.2-0.3
		c0-0.1,0-0.3,0.1-0.5c0.1-0.2,0.1-0.4,0.2-0.6c0-0.2,0-0.3,0.1-0.4c0.1-0.1,0.2-0.3,0.3-0.6c0.1-0.2,0.2-0.5,0.3-0.9
		c0.1-0.4,0.2-1,0.4-1.7"/>
	<path class="st1" d="M40.2,21.5c0.9-0.2,1.4-0.3,1.8-0.3c0.4,0,0.7-0.1,1-0.1c0.4,0,0.9,0,1.3-0.1"/>
	<path class="st1" d="M95.6,244.6c1.2,1.7,1.7,2.2,2.1,2.5c0.4,0.3,0.6,0.5,1.1,0.5c0.5,0.1,1.1,0.1,1.7,0c0.6-0.1,1.2-0.2,1.7-0.4
		c0.4-0.2,0.7-0.4,1-0.7c0.2-0.3,0.4-0.6,0.7-1.1c0.3-0.5,0.7-1.1,1.1-1.7c0.4-0.6,0.8-1.1,1.1-1.6c0.3-0.5,0.5-1,0.5-1.6
		c0-0.5,0-1.1-0.1-1.7c-0.1-0.5-0.2-1-0.4-1.4c-0.2-0.5-0.5-0.9-1.5-1.7"/>
	<path class="st1" d="M41.9,21.2c-0.1,1,0,1.2,0.2,1.2c0.1,0.1,0.3,0.1,0.5,0c0.1-0.1,0.2-0.4,0.2-1.3"/>
	<path class="st1" d="M38.1,36.6c0.5-0.2,1.5-0.5,3-0.7"/>
	<path class="st1" d="M31.9,21.6c0.3,0,0.6,0,0.9,0c0.3,0,0.7,0.1,1,0.2c0.3,0.1,0.5,0.1,0.6,0.1c0.1,0,0.2-0.1,0.2-0.2
		c0-0.2-0.2-0.4-0.4-0.6c-0.2-0.2-0.6-0.4-1-0.6c-0.4-0.2-1-0.3-1.4-0.3c-0.4,0-0.7,0-0.9,0.1c0,0-0.1,0-0.1,0"/>
	<path class="st1" d="M35.4,23.4c-1.3,0.6-1.7,0.7-1.9,0.7c-0.3,0-0.4,0.1-0.6,0.1c-0.2,0-0.3,0-0.4,0.1c-0.1,0-0.2,0.1-0.3,0.2
		c0,0,0,0.1-0.1,0.1"/>
	<path class="st1" d="M31.8,23.2c0.1,0,0.2,0,0.3,0c0.1,0,0.1,0,0.3-0.1c0.2,0,0.5-0.1,0.7-0.2c0.3-0.1,0.5-0.2,2.4-1"/>
	<path class="st1" d="M9.5,147c0.1,0.1,0.2,0.1,0.3,0.2c0.2,0.1,0.2,0.2,0.3,0c0.1-0.1,0.2-0.4,0.2-0.8c0-0.4,0-0.8,0-1.3
		c-0.1-0.4-0.2-0.8-0.4-1.6"/>
	<path class="st1" d="M56.5,33.1c1.2,1.7,1.5,2.3,1.6,2.9c0.1,0.6,0.2,1.4,0.1,2.2c-0.1,0.8-0.3,1.7-0.5,2.7c-0.2,1-0.5,2.2-0.7,3.3
		c-0.2,1.1-0.4,2-0.6,2.8c-0.2,0.8-0.4,1.4-0.5,2c-0.1,0.6-0.1,1.2,0,1.8c0.1,0.6,0.3,1.1,0.5,1.6c0.2,0.5,0.5,0.8,0.8,1.3
		c0.3,0.5,0.7,1.1,1.2,1.7c0.5,0.6,1,1.1,1.6,1.5c0.6,0.5,1.2,0.9,2,1.4c0.8,0.5,1.9,1,2.8,1.3c1,0.4,1.8,0.5,3,0.9
		c1.1,0.4,2.5,0.9,3.6,1.4c1.1,0.5,1.9,1.1,2.6,1.6c0.8,0.4,1.6,0.8,2.5,1.2c0.8,0.4,1.7,1,2.5,1.5c0.8,0.5,1.7,1.1,2.2,1.4
		c0.5,0.3,0.5,0.5,0.6,0.7c0.1,0.2,0.2,0.4,0.2,0.7c0,0.3-0.1,0.8-0.4,1.2c-0.3,0.4-0.7,0.8-3.4,3.9c-2.7,3.1-7.8,8.8-10.4,11.9
		c-2.6,3.1-2.9,3.7-3.3,4.2c-0.4,0.5-1.1,1.1-1.9,1.8c-0.8,0.7-1.8,1.4-2.7,2.3c-0.9,0.9-1.8,2.1-2.4,2.9C56.9,98,56.4,98.6,56,99
		c-0.4,0.4-0.8,0.8-1.1,1.3c-0.3,0.5-0.6,1.3-1.1,3c-0.5,1.7-1.2,4.5-1.7,6.1c-0.5,1.7-0.8,2.2-1,2.8c-0.2,0.5-0.4,1-0.5,1.5
		c-0.1,0.5-0.2,1-0.3,1.5c-0.1,0.5-0.3,1.2-0.5,1.8c-0.2,0.7-0.5,1.3-0.8,2c-0.3,0.6-0.5,1.2-0.7,1.9c-0.2,0.6-0.5,1.3-0.8,2.1
		c-0.3,0.8-0.7,1.6-1,2.5c-0.2,0.8-0.4,1.7-0.4,2.3c-0.1,0.7-0.1,1.1-0.1,1.5c0,0.4-0.1,0.8-0.1,1.3c-0.1,0.4-0.1,0.9-0.2,1.3
		c-0.1,0.4-0.2,0.7-0.9,3c-0.7,2.3-2,6.4-2.7,9.3c-0.7,2.8-0.7,4.3-0.6,5.6c0.1,1.3,0.2,2.3,0.1,3.5c-0.1,1.2-0.3,2.4-0.5,4.2
		c-0.2,1.8-0.4,4-0.6,7.5c-0.2,3.5-0.4,8.2-0.3,11c0.1,2.9,0.4,3.9,0.7,5.2c0.3,1.2,0.5,2.7,0.7,4.8c0.2,2.1,0.4,4.9,0.6,7.4
		c0.2,2.5,0.4,4.8,0.7,7.1c0.3,2.3,0.7,4.6,1,6.6c0.3,2,0.5,3.7,0.7,6c0.2,2.3,0.4,5.3,0.6,7.4c0.2,2.1,0.4,3.4,0.7,4.8
		c0.3,1.5,0.6,3.1,0.7,4.3c0.1,1.2,0.1,1.9,0.3,2.5c0.1,0.6,0.4,1.1,0.9,1.3c0.4,0.2,0.9,0.1,2.2-0.1c1.2-0.2,3.1-0.6,4.6-1
		c1.5-0.4,2.6-0.9,3.6-1.2c1.1-0.3,2.1-0.5,3.6-0.7c0.5-0.1,1-0.2,1.5-0.2"/>
	<path class="st1" d="M31.1,16.1c0-0.1,0-0.1,0-0.2c0,0,0,0,0-0.1"/>
	<path class="st1" d="M43.9,267.2c0.2,0.1,0.5,0.1,0.7,0.2c1.6,0.5,3,0.9,4.4,1.2c1.1,0.3,2.2,0.5,3.1,0.6"/>
	<path class="st1" d="M55.9,50.7c-0.4,0.2-0.9,0.3-1.6,0.4c-0.8,0.1-1.9,0.3-2.9,0.5c-1,0.2-1.8,0.5-2.6,0.7
		c-0.8,0.2-1.7,0.3-2.4,0.3c-0.7,0-1.1-0.2-1.7-0.5c-0.6-0.3-1.2-0.8-1.7-1.3c-0.4-0.5-0.6-1-0.8-1.5c-0.2-0.5-0.3-0.9-0.4-1.4
		c0-0.5,0-1.1-0.2-1.6c-0.2-0.5-0.8-1-1.2-1.4c-0.4-0.5-0.5-1-0.6-1.4c-0.1-0.4,0-0.8,0.6-1.3c0.3-0.2,0.6-0.3,0.8-0.5"/>
	<path class="st1" d="M77.2,229.2c0.8,0,1.6,0,2.4,0c1.9,0.1,3.5,0.2,4.7,0.1c1.2-0.1,2-0.3,2.8-0.7c0.9-0.4,1.8-1,2.4-1.4
		c0.6-0.4,0.7-0.5,1.1-0.8c0.3-0.4,0.8-0.9,1.1-1.4c0.3-0.5,0.4-0.8,0.6-1.5c0.1-0.5,0.3-1.1,0.4-1.8"/>
	<path class="st1" d="M31.1,16.2c0,0,0,0,0-0.1"/>
	<path class="st1" d="M42.3,49.3c-1.6,6.3-1.4,9-1.2,11.2c0.3,2.2,0.5,4,1,6.3c0.5,2.3,1.2,5.1,1.5,8c0.3,2.9,0.1,5.7,0.1,7.7
		c-0.1,1.9-0.1,2.8-0.1,3.8c0,0.9,0.1,1.8,0.2,2.9c0.1,1.1,0.3,2.3,0.5,4.8c0.2,2.5,0.3,6.2,0.5,8.4c0.2,2.2,0.4,3,1.1,10.9"/>
	<path class="st1" d="M107.3,158.4c0.1,2.3,0.2,3.2,0.2,3.9c0,0.7,0.1,1.1,0.1,1.4c0,0.3,0,0.6-0.1,1.1c0,0.2-0.1,0.4-0.2,0.7"/>
</g>
</svg>
