<?xml version="1.0" encoding="utf-8"?>
<!-- Generator: Adobe Illustrator 21.0.0, SVG Export Plug-In . SVG Version: 6.00 Build 0)  -->
<svg version="1.1" xmlns="http://www.w3.org/2000/svg" xmlns:xlink="http://www.w3.org/1999/xlink" x="0px" y="0px"
	 viewBox="0 0 148.3 284.5" style="enable-background:new 0 0 148.3 284.5;" xml:space="preserve">
<style type="text/css">
	.st0{fill:#FFFFFF;stroke:#000000;stroke-miterlimit:10;}
	.st1{fill:none;stroke:#000000;stroke-width:1.500000e-02;stroke-miterlimit:10;}
</style>
<g id="outer">
	<g id="SPLINE_57_">
		<path class="st0" d="M99.4,21.5c0.1,0.6,0.3,1.1,0.5,1.4c0.2,0.3,0.3,0.5,0.5,0.9c0.2,0.3,0.5,0.8,0.6,1.1
			c0.2,0.3,0.3,0.5,0.4,0.7c0.1,0.2,0.3,0.4,0.4,0.6c0.2,0.2,0.3,0.4,0.4,0.5c0.1,0.2,0.2,0.4,0.2,0.6c0,0.2,0.1,0.4,0,0.6
			c0,0.2-0.2,0.5-0.3,0.7c-0.1,0.2-0.3,0.4-0.4,0.5c-0.1,0.1-0.3,0.1-0.4,0.2c-0.1,0.1-0.2,0.2-0.4,0.2c-0.2,0-0.5-0.1-0.6,0
			c-0.2,0.1-0.2,0.4-0.3,0.6c-0.1,0.2-0.2,0.3-0.3,0.5c0,0.1,0,0.2,0.1,0.4c0.1,0.2,0.3,0.5,0.4,0.7c0.1,0.2,0.2,0.3,0.2,0.5
			c0.1,0.1,0.1,0.3,0.2,0.4c0,0.2,0.1,0.3,0,0.5c0,0.2-0.2,0.3-0.3,0.5c-0.1,0.1-0.2,0.2-0.5,0.3c-0.3,0.1-0.8,0.2-1.2,0.3
			c-0.4,0.1-0.7,0.1-0.6,0.2c0.1,0.1,0.5,0.2,0.9,0.2c0.3,0.1,0.6,0.1,0.8,0.2c0.2,0.2,0.4,0.5,0.5,0.8c0.1,0.3,0,0.7-0.1,0.9
			c-0.1,0.3-0.3,0.4-0.5,0.5c-0.2,0.1-0.3,0.2-0.4,0.3c0,0.1,0,0.3,0.1,0.5c0,0.2,0,0.4,0.1,0.6c0.1,0.2,0.2,0.4,0.3,0.6
			c0.1,0.2,0.1,0.4,0.1,0.6c0,0.2,0,0.5-0.1,0.6c-0.1,0.2-0.2,0.3-0.3,0.5c-0.2,0.1-0.4,0.3-0.7,0.4c-0.3,0.2-0.6,0.3-0.9,0.5
			c-0.3,0.2-0.5,0.3-0.7,0.4c-0.2,0.1-0.4,0.2-0.6,0.2c-0.2,0.1-0.3,0.1-0.5,0.1c-0.1,0-0.3,0-0.4,0c-0.1,0-0.2,0-0.4,0.1
			c-0.2,0-0.4,0.1-0.7,0.1c-0.3,0-0.7,0.1-1.1,0.1c-0.4,0.1-0.9,0.1-1.3,0.3c-0.4,0.1-0.7,0.3-0.9,0.4c-0.3,0.1-0.6,0.3-0.8,0.5
			c-0.2,0.2-0.4,0.6-0.6,0.8c-0.1,0.2-0.3,0.3-0.4,0.5c-0.1,0.2-0.2,0.5-0.1,0.8c0,0.3,0.1,0.7,0.1,1c0,0.3,0,0.4-0.1,0.6
			c-0.1,0.2-0.2,0.3-0.3,0.5c-0.1,0.1-0.3,0.3-0.3,0.4c-0.1,0.1-0.1,0.3,0.7,0.4c0,0,0,0,0,0c0.1,0,0.4,0,0.7,0c0.4,0,0.8,0,1.3,0.1
			c0.4,0.1,0.8,0.3,1,0.8c0.2,0.5,0.1,1.2,0.1,1.9c-0.1,0.7-0.2,1.5-0.4,2.2c-0.1,0.7-0.3,1.4-0.5,1.9c-0.2,0.5-0.6,0.7-0.8,0.9
			c-0.2,0.3-0.4,0.5-0.2,0.9c0.1,0.4,0.5,0.8,0.8,1.8c0.4,1,0.8,2.7,1.2,4.1c0.5,1.4,1.1,2.5,1.6,4.5c0.5,2,1,4.8,1.5,6.9
			c0.6,2.1,1.3,3.6,1.9,4.8c0.6,1.1,1,2,1.7,3.1c0.7,1.2,1.7,2.7,2.7,4.3c0.9,1.6,1.8,3.3,2.6,4.6c0.8,1.2,1.6,2,2.4,2.9
			c0.8,0.8,1.7,1.8,2.7,3c1,1.3,2.1,2.9,3.2,5c1.1,2.2,2.3,4.9,3,7.9c0.7,3.1,1,6.5,1.4,9.4c0.4,2.9,0.9,5.4,1.3,7.3
			c0.3,2,0.5,3.4,0.8,4.2c0.2,0.8,0.5,1,0.7,1.2c0.3,0.3,0.5,0.6,0.9,1c0.4,0.4,0.9,0.8,1.5,1.3c0.6,0.5,1.2,1.1,1.8,1.9
			c0.6,0.8,1.2,1.8,1.6,2.6c0.3,0.7,0.4,1.2,0.6,1.9c0.2,0.7,0.6,1.8,0.8,2.8c0.2,1,0.2,2.1,0.1,3.6c-0.1,1.5-0.5,3.6-1.1,4.9
			c-0.6,1.3-1.5,1.8-1.9,2.2c-0.4,0.4-0.4,0.7-0.7,1c-0.2,0.3-0.7,0.5-1.5,0.5c-0.8,0.1-2,0.1-4.3,0c-2.2,0-5.4,0-8.6,0
			c-3.1,0-6.1-0.1-8.2-0.2c-2-0.1-3.1-0.2-4.1-0.3c-1-0.1-2-0.3-2.5-0.4c-0.6-0.1-0.8-0.1-1-0.1c-0.2,0.1-0.4,0.2-0.5,0.4
			c-0.1,0.2-0.1,0.6-0.3,1.1c-0.2,0.6-0.5,1.4-0.5,2.5c0,1.1,0.4,2.5,0.5,3.7c0.1,1.2-0.1,2.2-0.1,3.1c-0.1,0.9,0,1.6,0.1,2.5
			c0.1,0.9,0.2,1.8,0,2.5c-0.2,0.7-0.6,1.2-0.9,1.5c-0.3,0.3-0.6,0.5-0.7,1.1c-0.1,0.5,0.1,1.4,0.4,2.4c0.3,1,0.8,2.1,1.3,3.2
			c0.5,1.1,1,2.3,1.3,3.1c0.3,0.8,0.5,1.3,0.8,1.9c0.4,0.6,1,1.2,1.3,1.8c0.3,0.7,0.4,1.3,0.5,2.1c0.1,0.7,0.3,1.5,0.4,2.1
			c0.1,0.6,0.1,1.1,0.3,1.5c0.2,0.5,0.5,0.9,0.6,1.4c0.1,0.5-0.1,0.9,0.1,1.6c0.1,0.6,0.5,1.4,1,2c0.5,0.6,1.1,1.1,1.5,1.6
			c0.4,0.5,0.7,1.2,0.7,1.8c0,0.6-0.2,1.1-0.1,1.7c0.1,0.5,0.5,1.1,1.1,1.6c0.6,0.5,1.4,1,1.9,1.6c0.5,0.5,0.5,1.1,0.7,1.8
			c0.1,0.7,0.2,1.6,0.5,2.3c0.2,0.7,0.6,1.3,0.7,2c0.1,0.7,0.1,1.6,0.1,2.5c0.1,0.9,0.2,1.9,0.5,2.5c0.3,0.6,0.7,0.9,1,1.4
			c0.3,0.5,0.5,1.2,0.9,2.1c0.4,0.9,0.9,1.9,1.7,2.7c0.8,0.8,1.9,1.3,2.7,1.9c0.8,0.5,1.3,1,1.9,1.6c0.6,0.6,1.1,1.2,1.7,1.9
			c0.5,0.7,1,1.4,1.7,2.3c0.7,0.9,1.7,2,2.2,2.7c0.6,0.6,0.7,0.8,0.9,1c0.3,0.2,0.6,0.3,0.9,0.5c0.3,0.2,0.5,0.4,0.8,1
			c0.3,0.6,0.7,1.5,1.4,2.6c0.8,1.2,1.9,2.6,3,4.1c1.1,1.5,2.2,3.1,3,4.3c0.8,1.2,1.3,2,1.6,2.5c0.3,0.5,0.5,0.8,0.8,0.9
			c0.3,0.1,0.6,0.1,1,0.2c0.4,0.1,0.9,0.4,1.5,1.1c0.6,0.7,1.3,1.9,1.9,2.8c0.6,0.9,1.3,1.7,1.3,2.2c0.1,0.5-0.4,0.9-1.2,1.5
			c-0.9,0.6-2.1,1.6-3.5,2.7c-1.3,1.1-2.6,2.3-3.8,3c-1.1,0.7-2,0.9-2.5,1.4c-0.4,0.5-0.4,1.3-0.3,1.8c0.1,0.5,0.4,0.6,0.9,0.8
			c0.4,0.1,1.1,0.2,2,0.3c0.9,0.1,2.1,0.3,3,0.6c1,0.3,1.8,0.8,2.8,1.1c1,0.4,2.2,0.6,3.5,0.6c1.2-0.1,2.5-0.5,3.5-1.1
			c1.1-0.6,2-1.3,2.6-1.6c0.7-0.3,1.2-0.2,1.6,0.2c0.4,0.4,0.6,1.1,0.4,2.2c-0.2,1.1-0.7,2.5-1.1,3.8c-0.4,1.2-0.6,2.2-1.4,3.3
			c-0.8,1-2.3,2.1-3.6,3.3c-1.3,1.2-2.6,2.5-3.6,3.3c-1.1,0.8-2,1-3,0.9c-0.9-0.1-1.8-0.5-3.3-0.6c-1.5-0.1-3.5,0.1-5.3,0.3
			c-1.7,0.2-3.1,0.3-4.2,0.4c-1.1,0.1-1.8,0.1-2.5,0c-0.7-0.1-1.3-0.4-1.9-0.9c-0.6-0.6-1.1-1.4-1.6-2.2c-0.5-0.8-0.9-1.6-1.2-2.5
			c-0.3-0.9-0.4-2-0.7-2.9c-0.3-0.9-0.8-1.8-1.4-2.9c-0.6-1.1-1.2-2.5-1.6-3.3c-0.5-0.8-0.8-1.1-1-1.4c-0.2-0.3-0.2-0.6-0.1-1
			c0.1-0.4,0.3-0.8,0.3-1.2c0-0.4-0.1-0.9-0.3-1.1c-0.3-0.2-0.6-0.2-1.2-0.6c-0.6-0.4-1.4-1.3-3.1-3.2c-1.8-1.9-4.6-5-7-7.9
			c-2.4-2.8-4.5-5.5-6.4-8c-1.9-2.5-3.5-4.9-5.6-8.7c-2.1-3.8-4.5-8.9-5.9-11.8c-1.4-3-1.6-3.8-2.1-4.7c-0.5-0.9-1.1-2-1.6-2.9
			c-0.6-0.9-1.1-1.7-1.7-2.7c-0.7-1.1-1.5-2.4-1.9-3.5c-0.4-1.1-0.5-2-0.7-3c-0.2-1.1-0.6-2.4-1.2-3.7c-0.6-1.3-1.4-2.7-2.1-3.8
			c-0.7-1.2-1.4-2.1-1.7-2.9c-0.3-0.8-0.2-1.6-0.3-1.9c-0.1-0.3-0.4-0.3-0.6-0.5c-0.2-0.2-0.3-0.7-0.6-1.1c-0.2-0.4-0.6-0.7-0.9-0.8
			c-0.3-0.1-0.5,0-0.5,0.3c0,0.3,0.2,0.7,0,1.5c-0.2,0.8-0.7,1.9-1.4,3.6c-0.7,1.7-1.6,3.9-2.9,7.1c-1.3,3.3-3.1,7.6-4.8,11.2
			c-1.7,3.7-3.2,6.7-4,8.8c-0.8,2.1-1,3.3-1.3,4.4c-0.3,1.1-0.8,2.2-1.3,3.2c-0.4,1-0.8,2-1.4,2.9c-0.6,0.8-1.5,1.5-2,2.1
			c-0.4,0.6-0.4,1.3-0.4,1.8c0,0.5,0.1,1-0.4,2.2c-0.5,1.2-1.6,3.1-2.6,5.7c-1,2.5-2,5.7-2.8,8.2c-0.8,2.5-1.3,4.5-1.5,6.3
			c-0.3,1.8-0.3,3.5,0.1,4.6c0.4,1.1,1.1,1.7,1.3,2.1c0.2,0.5-0.1,0.9-0.3,1.1c-0.3,0.2-0.6,0.2-0.9,0.2c-0.3,0-0.6,0.1-0.6,0.4
			c0.1,0.4,0.5,1,0.9,1.5c0.4,0.4,0.9,0.7,1.4,0.9c0.5,0.2,1.1,0.4,1.8,0.6c0.7,0.2,1.4,0.4,1.5,1.1c0.1,0.7-0.4,1.9-1.1,2.7
			c-0.7,0.9-1.5,1.4-2.1,1.7c-0.6,0.3-1.1,0.4-1.6,0.3c-0.6,0-1.2-0.1-1.7-0.4c-0.5-0.3-0.8-0.8-1-1c-0.3-0.2-0.6-0.2-0.7,0
			c-0.2,0.2-0.2,0.4-0.8,0.6c-0.6,0.2-1.7,0.3-2.6,0.3c-0.9,0-1.6-0.1-2.3-0.3c-0.8-0.2-1.7-0.4-2.3-0.7c-0.7-0.3-1.1-0.7-1.8-1.2
			c-0.6-0.5-1.5-1.1-2.4-1.6c-0.9-0.5-1.8-0.9-2.8-1.2c-0.9-0.3-1.9-0.5-3-0.8c-1.1-0.3-2.3-0.5-3.3-0.5c-0.9,0-1.6,0.3-2.3,0.5
			c-0.6,0.2-1.3,0.3-1.8,0.4c-0.5,0.1-0.9,0.1-1.7,0.1c-0.8,0.1-2,0.2-3,0c-1.1-0.1-2-0.5-2.9-1.1c-0.9-0.6-1.7-1.5-2-2.6
			c-0.3-1.2-0.1-2.7,0.2-3.9c0.3-1.3,0.5-2.3,0.7-2.9c0.2-0.7,0.3-1,0.5-1.3c0.2-0.3,0.6-0.5,0.8-1.3c0.3-0.8,0.4-2.3,1.4-5.2
			c1-2.9,2.8-7.2,4.3-10.9c1.6-3.7,3-6.9,4.8-11c1.9-4.1,4.2-9.1,6.2-13.3c2-4.2,3.8-7.5,5.9-11.5c2.1-3.9,4.7-8.4,6.4-12.5
			c1.8-4.1,2.8-7.6,3.4-9.8c0.6-2.1,0.8-2.7,1-3.4c0.2-0.7,0.4-1.4,0.9-2.2c0.5-0.8,1.3-1.8,1.7-2.3c0.5-0.5,0.6-0.6,1.1-0.8
			c0.5-0.2,1.5-0.4,2.1-0.9c0.6-0.5,0.9-1.1,1.1-1.8c0.2-0.7,0.3-1.3,0.2-1.8c-0.1-0.4-0.4-0.7-0.2-1.1c0.2-0.4,0.9-1.1,1.3-1.5
			c0.4-0.5,0.5-0.8,0.7-1c0.1-0.2,0.3-0.4,0.2-0.5c-0.1-0.2-0.3-0.4-0.7-0.5c-0.4-0.1-0.9,0-1.4,0.1c-0.5,0.2-0.8,0.4-1,0.4
			c-0.2,0-0.3-0.3-0.5-0.6c-0.2-0.3-0.5-0.6-1.1-0.9c-0.6-0.4-1.6-0.9-2.3-1.4c-0.7-0.6-1.3-1.2-1.4-2.9c-0.1-1.7,0.2-4.4,0.6-7.8
			c0.4-3.4,0.9-7.6,1.5-11.7c0.6-4.2,1.2-8.3,1.8-11.7c0.6-3.4,1.2-6.1,1.8-8.8c0.6-2.7,1.2-5.4,1.7-7.8c0.5-2.5,0.9-4.8,1-6.7
			c0.1-1.9,0-3.5-0.2-5.1c-0.2-1.6-0.4-3.2-0.5-4.9c-0.1-1.7-0.1-3.5-0.1-4.6c0-1.2,0-1.7,0-2.2c0-0.5,0.1-1,0.1-1.6
			c0-0.5,0-1.1-0.1-2c-0.1-0.9-0.4-2.2-0.6-3.4c-0.2-1.3-0.3-2.6-0.3-4c0-1.4,0.3-3,0.5-4.5c0.2-1.4,0.4-2.8,0.6-3.9
			c0.2-1.1,0.4-2,0.8-3.1c0.4-1,1.1-2.2,1.8-3.3c0.7-1.1,1.3-2.1,2-2.8c0.6-0.8,1.3-1.3,2-1.8c0.7-0.5,1.6-1.1,2-1.6
			c0.4-0.5,0.4-0.9,0.4-1.4c-0.1-0.5-0.2-1-0.3-1.4c-0.1-0.5-0.2-0.9-0.2-1.1c0-0.2,0.2-0.3,0.7-0.4c0.5-0.1,1.4-0.4,2-0.6
			c0.6-0.2,1-0.3,1.4-0.7c0.3-0.3,0.6-0.8,0.8-1.2c0.1-0.4,0.1-0.7,0.3-1.1c0.1-0.3,0.4-0.7,1.4-1.2c1-0.5,2.8-1.2,4.6-2.9
			c0.3-0.7,0-0.9-0.2-0.9c-0.3-0.1-0.6-0.1-0.9-0.2c-0.3-0.1-0.6-0.3-1-0.5c-0.3-0.2-0.7-0.5-1-0.8c-0.3-0.3-0.4-0.6-0.5-0.9
			c-0.1-0.3-0.1-0.6,0.2-0.9c0.2-0.3,0.7-0.5,0.9-0.8c0.2-0.3,0.3-0.7,0.3-1c0-0.3,0-0.7-0.1-0.9c-0.1-0.2-0.4-0.4-0.5-0.8
			c-0.1-0.4-0.2-1-0.1-1.5c0.1-1.5,0.6-2,0.8-2.4c0.1-0.1,0.1-0.3,0.2-0.5c0-0.3,0-0.7-0.1-1.1c-0.1-0.4-0.3-0.8-0.5-1.1
			c-0.2-0.3-0.4-0.4-0.4-0.7c-0.1-0.3,0-0.6,0-1c0-1.1-0.3-2.3-0.2-2.7c0-0.1,0.1-0.2,0-0.5c-0.1-0.3-0.2-0.8-0.5-1.3
			c-0.2-0.5-0.5-1-0.7-1.9c-0.1-0.9-0.2-2.2-0.1-3c0.1-0.8,0.3-0.9,0.4-1.1c1.1-1.4,1.1-3.4,1.7-4.5c0.1-0.2,0.2-0.3,0.4-0.4
			c0.2-0.1,0.4-0.1,0.5-0.4c0.1-0.2,0.1-0.6-0.1-1c-0.1-0.3-0.3-0.6-0.4-1c0-0.3,0.1-0.7,0.2-1.2c0.1-0.5,0.2-1,0.3-1.3
			c0.2-0.4,0.4-0.6,0.6-0.7c0.2-0.1,0.4-0.2,0.6-0.4c0.2-0.2,0.4-0.6,0.4-1c0-0.4-0.1-0.7,0-1c0.1-0.4,0.4-0.8,0.7-1.1
			c0.2-0.3,0.4-0.6,0.8-0.9c0.4-0.4,1.1-0.8,1.6-1.4c0.5-0.6,0.9-1.3,1.3-1.8c0.4-0.5,0.8-0.7,1.3-0.8C71,2.1,71.6,2,72,2
			c0.4,0,0.7,0.1,1,0.1c1.6,0.1,4.7-0.9,5.8-1.5c0.2-0.1,0.4-0.2,1-0.1c0.6,0.1,1.8,0.3,2.3,0.5c0.6,0.2,0.6,0.2,0.8,0.3
			c0.2,0.1,0.6,0.3,1.1,0.3c0.4,0,0.9-0.2,1.3-0.4c0.4-0.2,0.9-0.4,1.4-0.6c0.5-0.1,1.2-0.1,1.6,0c0.4,0.1,0.7,0.3,1,0.5
			c0.3,0.2,0.6,0.4,0.8,0.6c0.2,0.1,0.2,0.2,0.7,0.1c0.5,0,1.3-0.1,1.8-0.1c0.5,0,0.5,0.1,0.6,0.3c0,0.2,0,0.6,0.1,0.9
			c0.1,0.3,0.3,0.4,0.8,0.6c0.4,0.2,1,0.4,1.4,0.6c0.4,0.2,0.6,0.5,0.8,0.8c0.2,0.3,0.4,0.8,0.5,1.1c0.1,0.4,0.1,0.6,0.3,0.9
			c0.2,0.3,0.5,0.5,0.6,0.8c0.2,0.3,0.2,0.6,0.1,0.9c-0.1,0.3-0.3,0.7-0.3,1c0,0.3,0.1,0.4,0.3,0.6c0.2,0.1,0.4,0.2,0.8,0.4
			c0.3,0.2,0.7,0.4,0.9,0.9c0.2,0.5,0.2,1.4,0.2,2c0,0.6-0.1,0.9-0.1,1.3c0,0.4,0.2,0.9,0.3,1.3c0.1,0.4,0.2,0.6,0.3,0.8
			c0.1,0.2,0.2,0.4,0.2,0.5c0,0.2-0.1,0.3-0.3,0.4c-0.1,0.1-0.2,0.1-0.4,0.1c-0.1,0.1-0.3,0.2,0,0.6c-0.1,1.7-0.1,2.2-0.2,2.5
			C99.5,21.3,99.4,21.4,99.4,21.5z"/>
	</g>
</g>
<g id="inner">
	<g id="SPLINE">
		<path class="st1" d="M70.7,73.7c1.6,0.3,1.6,2.4,1.7,4.2c0.1,1.7,0.2,3,0.2,4.2c0,1.2-0.2,2.3-0.5,3.8c-0.3,1.5-0.7,3.5-1.2,5.9
			c-0.5,2.4-1.3,5.4-1.6,7.1c-0.4,1.7-0.4,2.2-0.4,2.9c0,0.7,0,1.5,0.1,2.4c0.1,0.9,0.2,1.8-0.1,2.5c-0.3,0.7-1,1.3-1.5,1.7
			c-0.4,0.4-0.5,0.8-0.2,1.3c0.3,0.5,0.8,1.2,1.1,1.8c0.2,0.6,0.1,1.1,0,2.1c-0.1,1-0.2,2.4-0.2,3.5c0,1.1,0,2,0,2.8
			c0,0.8,0.1,1.6,0,2.3c0,0.7-0.2,1.2-0.4,1.9c-0.2,0.7-0.3,1.6-0.5,2.4c-0.1,0.8-0.2,1.6-0.1,2.3c0.1,0.7,0.3,1.2,0.5,1.8
			c0.2,0.5,0.4,1,0.4,1.4c0,0.4-0.2,0.7-0.4,1.1c-0.2,0.4-0.4,0.8-0.4,1.1c0,0.3,0.2,0.5,0.4,0.8c0.2,0.3,0.4,0.5,0.5,1
			c0,0.4-0.2,1-0.3,1.6c-0.1,0.6-0.1,1.2,0.1,1.8c0.2,0.7,0.5,1.4,0.9,2.4c0.4,1,0.8,2.3,1.1,3.5c0.3,1.1,0.7,2.1,0.9,3
			c0.2,0.9,0.4,1.7,0.6,2.4c0.2,0.8,0.4,1.5,0.5,2.3c0.1,0.8,0.1,1.8,0.3,2.6c0.1,0.8,0.4,1.5,0.6,2c0.1,0.5,0.1,0.9-0.1,1
			c-0.2,0.1-0.7-0.1-1.2-0.3c-0.5-0.2-1.1-0.3-1.6-0.4c-0.5-0.1-1-0.1-1.4-0.1c-0.4,0-0.7,0.2-1.5,0.4c-0.7,0.2-1.9,0.4-2.8,0.8
			c-0.9,0.3-1.7,0.8-2.5,1.3c-0.8,0.5-1.6,1-2.3,1.5c-0.7,0.5-1.2,0.9-1.8,1.3c-0.6,0.5-1.2,1.1-3.5,1.9"/>
	</g>
	<g id="SPLINE_1_">
		<path class="st1" d="M54.2,165c-1.3-1.8-1.3-2.2-1.4-2.6c0-0.5,0-1,0-1.6c0-0.6,0-1.1-0.2-1.5c-0.2-0.4-0.6-0.7-0.8-1
			c-0.2-0.3-0.2-0.5-0.1-1c0.1-0.5,0.2-1.2,0.3-1.9c0.1-0.7,0.1-1.5-0.1-2.4c-0.2-0.9-0.6-1.8-0.8-2.6c-0.2-0.8-0.3-1.5-0.5-2.4
			c-0.2-0.9-0.5-1.9-0.8-3c-0.3-1-0.4-2.1-0.5-2.9c-0.1-0.8-0.1-1.4-0.2-2.1c-0.1-0.7-0.4-1.6-0.9-3.7c-0.4-2.1-1-5.4-1.5-7.5
			c-0.5-2.2-0.9-3.2-1.2-4.3c-0.3-1.1-0.6-2.3-0.7-3.4c-0.1-1,0-1.9,0.1-2.7c0.1-0.8,0.3-1.6,0.3-2.8c0-1.3-0.3-3,0-5.1"/>
	</g>
	<g id="SPLINE_2_">
		<path class="st1" d="M2.7,260.5c3.1,2.3,5,3.2,6.3,3.9c1.4,0.7,2.2,1.2,3.1,1.5c0.9,0.3,1.8,0.5,3,0.5c1.3,0.1,2.9,0,4.1,0
			c1.2,0,1.9,0,3.1,0c1.1,0,2.7,0,4,0.2c1.3,0.2,2.4,0.7,3.2,1c0.8,0.3,1.3,0.6,1.5,0.8c0.3,0.2,0.4,0.4,0.6,0.6
			c0.2,0.2,0.6,0.3,1,0.3c0.3,0,0.7-0.1,1-0.2c0.3-0.1,0.6-0.2,1.3-0.2c0.7,0,1.9,0,3.2,1.2"/>
	</g>
	<g id="SPLINE_3_">
		<path class="st1" d="M25,257.8c2.8-1.8,3.9-3.1,4.8-4.6c0.9-1.5,1.7-3,2.2-4.4c0.5-1.3,0.7-2.3,0.9-3.3c0.1-0.9,0.2-1.8,0-2.1
			c-0.2-0.2-0.7,0.1-1,0.8c-0.3,0.7-0.4,1.7-0.7,2.8c-0.3,1.1-0.8,2.4-1.3,3.4c-0.5,0.9-0.9,1.6-1.6,2.2c-0.7,0.7-1.6,1.3-2.4,1.9
			c-0.8,0.5-1.6,1-2.1,1.2c-0.6,0.3-0.9,0.4-1,0.8c0,0.4,0.3,0.9,0.7,1"/>
	</g>
	<g id="SPLINE_4_">
		<path class="st1" d="M45,169.6c3.5,2,4.4,2,5,2.1c0.6,0,1,0.1,1.5,0.4c0.5,0.3,1.1,0.7,1.6,1c0.5,0.3,1,0.5,2,0.7
			c1,0.2,2.4,0.3,3,0.1"/>
	</g>
	<g id="SPLINE_5_">
		<path class="st1" d="M65.7,192.5c-1.7-3.9-3-5.3-4-6.2c-1-0.9-1.6-1.2-3.6-3.3c-2-2-5.3-5.8-8.1-11.3"/>
	</g>
	<g id="SPLINE_6_">
		<path class="st1" d="M57.8,163c-0.2,3-0.2,4.1-0.2,4.9c0,0.8,0,1.5,0,2.1c0,0.6,0,1.1,0.1,1.7c0.1,0.6,0.2,1.4,0.4,2.1
			c0.2,0.7,0.5,1.3,0.6,1.9c0.1,0.6,0.2,1.2,0.3,1.6c0.1,0.5,0.4,0.9,0.6,1.3c0.3,0.4,0.5,0.8,0.8,1.1c0.3,0.3,0.7,0.4,1,0.5
			c0.3,0.1,0.6,0,0.8,0c0.3,0,0.5,0,0.6,0.1c0.1,0.1,0,0.3,0.1,0.5c0.1,0.2,0.5,0.5,0.8,0.6c0.3,0.1,0.6,0.2,0.8,0.2
			c0.2,0,0.3,0,0.3,0c0.1,0.1,0.2,0.2,0.3,0.3c0.1,0.1,0.2,0.2,0.3,0.4c0.1,0.2,0.2,0.4,0.3,0.6c0.1,0.2,0.2,0.2,0.4,0.3
			c0.1,0.1,0.3,0.1,0.5,0.2c0.3,0.1,0.7,0.1,1,0.2c0.4,0,0.7,0.1,0.9,0.1c0.2,0,0.3,0.1,0.3,0.1c0,0.1,0.1,0.1,0.1,0.3
			c0,0.1,0,0.3,0,0.9c0.1,0.6,0.2,1.8,0.3,2.9c0.1,1.1,0.2,2.2,0.3,2.8c0.1,0.7,0.1,0.9,0.2,1.1c0.1,0.2,0.3,0.3,0.5,0.4
			c0.2,0.1,0.5,0.3,0.7,0.4c0.2,0.1,0.4,0.2,0.6,0.2c0.2,0,0.4,0,0.5,0c0.2,0,0.4-0.1,0.6-0.3c0.2-0.1,0.4-0.3,0.6-0.5
			c0.2-0.2,0.3-0.3,0.3-0.5c0.1-0.2,0.1-0.4,0-0.7c-0.1-0.3-0.3-0.7-0.5-1.1c-0.2-0.4-0.2-0.8-0.4-1.4c-0.1-0.7-0.3-1.6-0.4-2.2
			c-0.1-0.6-0.1-0.9-0.1-0.9s0,0.3,0.2,0.5c0.2,0.2,0.5,0.3,0.7,0.3c0.2,0,0.4,0,0.6,0c0.2-0.1,0.4-0.2,0.5-0.4
			c0.1-0.2,0.2-0.4,0.3-0.6c0-0.2,0.1-0.4,0.1-1c0-0.6,0.1-1.6,0.1-2.4c0-0.8-0.1-1.4-0.2-1.8c-0.1-0.4-0.2-0.7-0.2-1.4
			c-0.1-0.7-0.1-1.8-0.1-3.3c0-1.5,0.1-3.2,0.1-4.4c0-1.2,0-1.8-0.1-2.3c-0.1-0.4-0.4-0.6-0.6-0.9c-0.2-0.2-0.4-0.5-0.7-1.1
			s-0.7-1.5-1.1-2.2c-0.4-0.7-0.7-1-0.9-1.3c-0.2-0.3-0.4-0.6-0.7-0.8c-0.2-0.2-0.5-0.3-0.8-0.6c-0.3-0.3-0.7-0.8-0.9-1.2
			c-0.2-0.4-0.2-0.7-0.4-1c-0.2-0.3-0.6-0.7-0.9-0.9"/>
	</g>
	<g id="SPLINE_7_">
		<path class="st1" d="M53.8,58.4c4.6-1.6,6.8-1.4,8.4-1c1.6,0.4,2.5,0.9,3.9,1.9c1.4,1.1,3.3,2.7,3.7,6.2"/>
	</g>
	<g id="SPLINE_8_">
		<path class="st1" d="M46.8,111.6c1.3,1.5,2,1.1,2.5,0.6c0.5-0.5,0.6-1.2,0.7-1.9c0.1-0.7,0.2-1.5,0.7-3.7"/>
	</g>
	<g id="SPLINE_9_">
		<path class="st1" d="M52.5,90.9c-1.2,2.3-0.6,2.6-0.2,2.7c0.4,0.1,0.6,0,0.6,0s-0.2,0.1-0.3,0.5c0,0.4,0.1,1-0.1,1.8
			c-0.2,0.8-0.8,1.8-1.4,2.7c-0.6,0.9-1.3,1.8-3.1,4.9"/>
	</g>
	<g id="SPLINE_10_">
		<path class="st1" d="M62.3,81.5c0.9-2.5,1.6-2.6,2.1-2.2c0.5,0.4,0.7,1.2,0.7,1.8c0,0.5-0.3,0.8-0.8,1.2c-0.5,0.3-1.2,0.8-1.8,1.8
			c-0.6,1-1.1,2.7-2,5c-0.9,2.3-2.3,5.3-3.4,7.8c-1.2,2.5-2.2,4.5-3,6c-0.8,1.5-1.5,2.4-2.6,5.4"/>
	</g>
	<g id="SPLINE_11_">
		<path class="st1" d="M69.6,86.7c-2.5,9.4-3.6,10.9-4.2,12.2c-0.7,1.3-1,2.4-1.6,3.7c-0.7,1.3-1.7,2.7-2.6,4
			c-0.9,1.2-1.5,2.3-2,3.1c-0.5,0.8-0.8,1.4-0.7,1.9c0.1,0.5,0.5,0.8,0.8,0.8c0.3-0.1,0.4-0.5,0.8-0.8c0.3-0.3,0.9-0.5,1.3-0.7
			c0.4-0.3,0.7-0.7,2.3-4.3"/>
	</g>
	<g id="SPLINE_12_">
		<path class="st1" d="M66.7,112.8c-2.7-0.7-3.6,0.3-4.4,1.1c-0.9,0.7-1.7,1.2-2.4,1.8c-0.7,0.6-1.3,1.4-1.8,1.9
			c-0.5,0.6-0.9,0.9-1.1,1.3c-0.2,0.4-0.3,0.8,0,1c0.3,0.2,0.9,0.1,1.2-0.1c0.4-0.2,0.5-0.6,0.8-1c0.3-0.4,0.8-0.8,1.3-1.1
			c0.5-0.3,1.1-0.5,1.7-0.7c0.6-0.1,1.1-0.2,1.5-0.6c0.4-0.4,0.7-1,1.6-2.2"/>
	</g>
	<g id="SPLINE_13_">
		<path class="st1" d="M53.3,130.4c3,1,5,1.6,6.3,0.4"/>
	</g>
	<g id="SPLINE_14_">
		<path class="st1" d="M58.5,133.7c-1.8,0.9-2.1,1.2-2.5,1.1c-0.4,0-0.9-0.3-1.8-0.7c-0.9-0.4-2.1-0.9-2.8-1c-0.7-0.1-1,0.1-1,0.5
			c0,0.4,0.1,0.9,0.4,1.2c0.3,0.3,0.6,0.4,1.1,0.5c0.5,0.1,1,0.2,1.7,0.7"/>
	</g>
	<g id="SPLINE_15_">
		<path class="st1" d="M64.3,134.6c-0.9,1.2-2.1,1.2-2.8,1.2c-0.7,0-1-0.1-1.3,0.2c-0.3,0.3-0.7,0.9-1.1,1.5c-0.4,0.6-1,1.3-2.4,2.4
			"/>
	</g>
	<g id="SPLINE_16_">
		<path class="st1" d="M48.9,139.6c1.7,2.8,2.8,3.3,3.8,3.5c0.9,0.2,1.7,0.2,2.4,0.2c0.7,0,1.5,0,2.4,0.1c0.9,0.1,2,0.4,2.5,0.7
			c0.5,0.3,0.3,0.6-0.1,0.8c-0.5,0.2-1.2,0.4-1.7,0.3c-0.5-0.1-0.8-0.3-1.2-0.4c-0.4-0.1-0.9,0-1.3,0.3c-0.4,0.3-0.6,0.6-0.9,0.9
			c-0.3,0.2-0.7,0.3-1,0.1c-0.2-0.2-0.3-0.8-0.7-1.7"/>
	</g>
	<g id="SPLINE_17_">
		<path class="st1" d="M67.3,145.3c-3.2,0.6-3.9,0.2-4.5,0.2c-0.6,0-1.2,0.5-1.6,1c-0.4,0.5-0.5,0.9-0.9,1.5
			c-0.4,0.6-1.1,1.3-1.4,1.3"/>
	</g>
	<g id="SPLINE_18_">
		<path class="st1" d="M64.5,47.3c2.8-1.4,3.5-1.9,4-2.4c0.5-0.5,0.8-0.9,1.1-1.2c0.3-0.3,0.6-0.5,0.8-0.7c0.2-0.2,0.4-0.3,0.5-0.4
			c0.1-0.1,0.2-0.2,0.2-0.3c0-0.1-0.1-0.1-0.2-0.2c-0.1-0.1-0.2-0.2-0.2-0.4c-0.1-0.2-0.1-0.4,0-0.8c0.1-0.3,0.2-0.7,0.4-1
			c0.2-0.3,0.4-0.6,0.6-0.8c0.3-0.1,0.6-0.1,0.8,0c0.2,0.1,0.3,0.1,0.5,0.2c0.2,0.1,0.5,0.2,0.6,0.4c0.1,0.2,0.2,0.6,0.4,1.1
			c0.3,0.5,0.8,1,1.7,2c0.8,0.9,2,2.3,2.8,3.1c0.9,0.8,1.4,1.2,2,1.7c0.6,0.5,1.2,1.1,1.5,1.7c0.4,0.6,0.6,1,0.8,1.5
			c0.2,0.4,0.5,0.8,0.8,1.1c0.3,0.3,0.8,0.6,1.2,0.9c0.4,0.3,0.8,0.7,1.2,1c0.4,0.3,0.8,0.7,1,1c0.2,0.3,0.3,0.7,0.5,1.1
			c0.2,0.4,0.4,0.9,0.5,1.1c0.1,0.3,0,0.3-0.1,0.3c-0.1,0-0.2,0-0.3,0c-0.1,0-0.3,0-0.5,0.1c-0.1,0-0.2,0-0.4,0.1
			c-0.2,0-0.4,0.1-0.5,0.1c-0.2,0-0.3,0-0.4-0.3c-0.2-0.3-0.4-0.9-0.8-1.4c-0.4-0.5-1-0.9-1.6-1.3c-0.6-0.4-1.2-0.9-1.7-1.3
			c-0.5-0.4-0.8-0.8-1.2-1.1c-0.5-0.4-1.1-0.8-1.6-1.3c-0.5-0.5-1-1.1-1.6-1.9c-0.6-0.8-1.3-1.7-1.9-2.3c-0.6-0.7-1.1-1.2-1.6-1.6
			c-0.5-0.5-1.1-0.9-2.8-2.6"/>
	</g>
	<g id="SPLINE_19_">
		<path class="st1" d="M74.3,174.6c3.1,0.9,5,0.4,7.1,0.1c2.1-0.3,4.5-0.6,10-1.7"/>
	</g>
	<g id="SPLINE_20_">
		<path class="st1" d="M93.3,155.4c0.2-1.5-0.6-1.8-0.9-2.1c-0.3-0.3-0.2-0.6,0.1-0.9c0.3-0.3,0.8-0.5,1-1c0.2-0.5,0.3-1.2,0.2-1.6
			c-0.1-0.4-0.3-0.6-0.5-0.7c-0.1-0.1-0.2-0.2,0-0.4c0.1-0.2,0.5-0.7,0.7-1.3c0.2-0.7,0.3-1.6,0.5-2.9c0.2-1.4,0.4-3.2,0.5-4.6
			c0.2-1.4,0.3-2.4,0.3-3.4c0.1-1,0.1-2,0.2-2.9c0.2-0.9,0.4-1.8,0.6-2.5c0.1-0.7,0.1-1.3,0.4-2.6c0.3-1.3,0.9-3.4,1.3-4.9
			c0.4-1.5,0.8-2.3,0.9-3.1c0.2-0.8,0.2-1.6,0.3-2.4c0.1-0.8,0.3-1.7,0.5-2.4c0.2-0.7,0.3-1.3,0.5-1.5c0.2-0.2,0.4-0.1,0.7,0
			c0.3,0.1,0.7,0.2,0.8-0.1c0.1-0.3,0-0.9-0.2-1.3c-0.2-0.4-0.5-0.7-0.8-1.4c-0.3-0.7-0.5-1.8-0.8-3c-0.3-1.1-0.7-2.2-1.2-3.1
			c-0.4-0.9-0.9-1.6-1.6-2.6c-0.6-1.1-1.5-2.5-2-4c-0.5-1.5-0.7-3.1-1-4.7c-0.3-1.6-0.6-3.1-1-5.3c-0.4-2.2-0.9-5-1.5-7.8
			c-0.6-2.8-1.3-5.6-2.1-8c-0.8-2.4-1.6-4.5-2.4-6.2c-0.8-1.8-1.5-3.3-2.2-4.7c-0.7-1.4-1.4-2.8-1.9-3.9c-0.5-1.1-0.9-2-1.3-3.2
			c-0.4-1.2-0.9-2.7-2.4-3.9"/>
	</g>
	<g id="SPLINE_21_">
		<path class="st1" d="M100,114.4c-2-1.5-2.8-2.7-3.4-4c-0.6-1.2-1.1-2.5-1.6-3.6c-0.5-1.2-1-2.4-1.5-3.5c-0.5-1.1-0.9-2.1-1.3-3
			c-0.3-0.9-0.6-1.6-0.9-2.4c-0.3-0.8-0.7-1.7-1.2-3c-0.6-1.3-1.3-3-1.8-4.7c-0.5-1.6-0.9-3.2-1.1-4.6c-0.2-1.4-0.3-2.7-0.8-4.2
			c-0.4-1.5-1.1-3.1-1.8-4.3c-0.6-1.2-1.2-2.1-1.9-3.2c-0.7-1.1-1.4-2.4-2.1-3.8c-0.7-1.4-1.4-2.7-2.1-3.7c-0.7-0.9-1.4-1.3-1.9-1.8
			c-0.4-0.4-0.6-0.8-0.4-1.1c0.2-0.3,0.8-0.5,1.4-0.5c0.6,0,1.1,0.1,2.9,1"/>
	</g>
	<g id="SPLINE_22_">
		<path class="st1" d="M82.3,65.2c-0.6-2.1-1.8-2.7-2.6-3.1c-0.8-0.5-1.3-0.8-1.7-1.5c-0.4-0.7-0.8-1.7-1.1-2.7
			c-0.3-1-0.6-2-1.1-2.8c-0.5-0.9-1.3-1.7-2.1-2.6c-0.9-0.9-1.9-1.8-4-2.5"/>
	</g>
	<g id="SPLINE_23_">
		<path class="st1" d="M73.2,39.4c-0.4-2.4,0-3.6,0.3-4.3c0.3-0.8,0.5-1.3,0.7-1.7c0.2-0.5,0.3-0.9,0.4-1.4c0-0.5-0.1-1-0.2-1.7
			c-0.1-0.6,0-1.4-0.1-1.9c-0.1-0.5-0.4-0.9-0.5-1.3c-0.1-0.4,0-0.9,0.1-1.3c0.1-0.4,0.3-0.8,0.6-1.1c0.3-0.3,0.8-0.7,1-0.7
			c0.2,0,0.3,0.3,0.3,0.6c0.1,0.3,0.2,0.5,0.6,1.1c0.3,0.6,0.8,1.4,1.1,2c0.3,0.6,0.3,0.8,0.5,1c0.2,0.2,0.6,0.2,1,0.1
			c0.3-0.1,0.6-0.4,0.9-0.6c0.2-0.3,0.4-0.5,0.5-0.7c0.1-0.1,0.2-0.1,0.5,0.2c0.3,0.3,0.6,0.8,0.9,1.1c0.3,0.3,0.5,0.4,0.7,0.7
			c0.2,0.3,0.4,0.9,0.4,1.3c0,0.4-0.3,0.7-0.6,1c-0.3,0.3-0.7,0.5-1.1,0.6c-0.4,0.1-0.9,0.2-1.4,0.1c-0.6-0.1-1.2-0.3-1.7-0.6
			c-0.4-0.3-0.7-0.5-1-0.9c-0.4-0.3-0.8-0.7-1.4-1.3"/>
	</g>
	<g id="SPLINE_24_">
		<path class="st1" d="M75.4,146.8c2-3.2,2.1-4.4,2.4-5.3c0.3-0.9,1-1.4,1.4-1.6c0.4-0.2,0.6-0.1,0.9,0.1c0.4,0.1,1,0.3,1.5-0.1
			c0.5-0.4,0.9-1.4,0.9-2.5c0-1.1-0.5-2.2-0.4-3.2c0-1,0.5-1.9,1.2-2.7c0.7-0.8,1.5-1.5,2.1-2.6c0.6-1.1,1.1-2.5,1.1-3.9
			c0-1.4-0.4-2.7-0.4-4.1c0.1-1.4,0.6-2.8,1.3-3.7c0.6-0.9,1.4-1.4,2.3-1.8c0.9-0.5,2-1,1.8,1.2"/>
	</g>
	<g id="SPLINE_25_">
		<path class="st1" d="M91.2,118.8c-1.6,4.2-2,5.4-2.2,6.4c-0.2,1-0.1,1.7-0.2,2.3c-0.1,0.6-0.4,1-0.7,1.3c-0.3,0.3-0.6,0.5-0.8,0.7
			c-0.2,0.2-0.2,0.5,0,1.2c0.1,0.7,0.3,1.9,0.5,2.6c0.2,0.7,0.3,0.9,0.1,1.5c-0.2,0.6-0.6,1.4-1.9,1.6"/>
	</g>
	<g id="SPLINE_26_">
		<path class="st1" d="M71.9,158.5c-0.1,2.4,0,2.5,0,2.5c0,0.1,0,0.1-0.2,0.1c-0.2,0-0.5-0.1-2.3-0.1"/>
	</g>
	<g id="SPLINE_27_">
		<path class="st1" d="M71,162.8c2.2,0.5,2.9,1.2,3.4,1.6c0.4,0.5,0.6,0.8,1,0.9c0.4,0.1,1,0,1.9,0.1c0.9,0.1,2,0.3,2.8,0.7
			c0.8,0.3,1.3,0.7,1.8,0.9c0.5,0.2,1.1,0.1,1.8,0.2c0.7,0.1,1.5,0.5,1.3,1c-0.3,0.5-1.6,1-3.9-0.4"/>
	</g>
	<g id="SPLINE_28_">
		<path class="st1" d="M120,132.1c0.8,4,0.8,5.5,1,6.6c0.2,1.1,0.5,1.8,0.8,2.9c0.2,1.1,0.4,2.6,0.4,3.8c0,1.2-0.2,2-0.2,2.9
			c0,0.9,0.1,2,0.2,2.9c0.1,0.9,0.2,1.7,0.7,2.4c0.5,0.7,1.4,1.4,1.7,1"/>
	</g>
	<g id="SPLINE_29_">
		<path class="st1" d="M95.8,100.9c0.3-3.2,0.6-4.2,0.7-5c0.1-0.9,0.1-1.8,0.1-2.8c-0.1-1.1-0.2-2.4-0.3-3.7c-0.1-1.4-0.2-2.8-0.3-4
			c-0.1-1.1-0.1-2-0.2-2.8c-0.1-0.8-0.3-1.6-0.6-2.7c-0.3-1.1-0.7-2.5-1-4.3c-0.3-1.8-0.6-3.9-1.1-5.9c-0.4-1.9-1-3.6-1.5-4.9
			c-0.5-1.3-0.9-2.2-1.1-3c-0.3-0.8-0.4-1.5-0.8-2.2c-0.3-0.7-0.8-1.4-1.5-2.6"/>
	</g>
	<g id="SPLINE_30_">
		<path class="st1" d="M87.4,55.5c0.7-1.8,0.8-2.2,1-2.5c0.2-0.2,0.4-0.3,0.6-0.3c0.2,0,0.5,0,0.6-0.2c0.1-0.2,0.1-0.6,0.1-0.9
			c-0.1-0.3-0.2-0.5-0.2-0.8c0-0.3,0-0.6,0-2.1"/>
	</g>
	<g id="SPLINE_31_">
		<path class="st1" d="M88.7,58c0-0.7,0.1-0.8,0.1-1c0.1-0.1,0.2-0.2,0.3-0.2c0.1,0,0.3,0,0.4,0c0.1,0,0.3,0,0.5,0
			c0.2,0,0.6-0.1,1-0.5"/>
	</g>
	<g id="SPLINE_32_">
		<path class="st1" d="M86.6,39.6c1.9,1.5,2.4,2.1,2.7,2.6c0.3,0.5,0.4,1,0.4,1.9"/>
	</g>
	<g id="SPLINE_33_">
		<path class="st1" d="M140.2,276.2c1-0.5,1.3-1.1,1.8-1.5c0.5-0.4,1.1-0.7,1.6-0.9c0.5-0.2,0.8-0.2,1.3,0c0.5,0.2,1.2,0.6,0.3,2.4"
			/>
	</g>
	<g id="SPLINE_34_">
		<path class="st1" d="M141,275.1c1.5-1.2,2.1-1.5,2.6-1.9c0.4-0.3,0.7-0.7,1-1c0.3-0.2,0.7-0.3,0.9-0.4c0.2,0,0.4-0.1,0.6,0.1
			c0.3,0.1,0.7,0.4,0.4,1.4"/>
	</g>
	<g id="SPLINE_35_">
		<path class="st1" d="M113.5,273.3c4.3-1.4,5.9-1.5,7.1-1.6c1.1-0.2,1.8-0.3,2.4-0.6c0.6-0.3,1.3-0.7,1.7-1.2
			c0.4-0.4,0.7-0.9,1.3-1.6c0.7-0.7,1.8-1.7,1.6-3.2"/>
	</g>
	<g id="SPLINE_36_">
		<path class="st1" d="M40.4,272.7c-2.7,0.3-3.4,0.1-4,0c-0.6-0.1-1.1-0.1-1.7-0.5c-0.6-0.3-1.3-1-2-1.6"/>
	</g>
	<g id="SPLINE_37_">
		<path class="st1" d="M147.5,270.3c-0.7-0.8-1.2-1-1.7-1c-0.4,0-0.8,0.1-1,0.3c-0.2,0.2-0.3,0.5-0.4,0.7c-0.1,0.2-0.2,0.3-0.3,0.5
			c-0.2,0.1-0.4,0.3-0.7,0.5c-0.3,0.2-0.6,0.4-0.9,0.6c-0.3,0.2-0.7,0.3-2.1,0.6"/>
	</g>
	<g id="SPLINE_38_">
		<path class="st1" d="M54.3,199c-6.5,10.7-9.2,12.5-10.5,13.5c-1.2,0.9-1,1-0.7,1.1c0.3,0.1,0.8,0.2,1.1,0.2c0.3,0,0.6-0.1,0.5,0.3
			c-0.1,0.5-0.5,1.5-1.3,2.9c-0.8,1.4-2.1,3.3-3,4.5c-0.9,1.2-1.6,1.8-2.4,2.5c-0.8,0.7-1.7,1.4-2.7,2.1c-0.9,0.7-1.8,1.4-2,2
			c-0.2,0.7,0.4,1.3,0.2,2c-0.1,0.7-0.9,1.5-1.8,2.8c-0.9,1.3-2.1,3.1-3,4.8c-0.9,1.6-1.6,3.1-2.4,4.6c-0.8,1.4-1.8,2.8-2.8,4.1
			c-1,1.4-2.1,2.7-3.5,4.2c-1.4,1.4-3,3-4,3.9c-1,0.9-1.5,1.2-1.7,1.4c-0.2,0.2-0.2,0.4,0.1,0.3c0.2-0.1,0.6-0.6,1.2-0.8
			c0.5-0.2,1.2-0.2,3.2-1.8c2.1-1.6,5.5-5,7.8-7.7c2.3-2.7,3.3-4.9,4.5-7c1.2-2.1,2.7-4.2,4.5-5"/>
	</g>
	<g id="SPLINE_39_">
		<path class="st1" d="M61.9,175c-0.1,1.4,0.2,2.3,0.5,2.9c0.3,0.7,0.5,1.1,0.4,1.8"/>
	</g>
	<g id="SPLINE_40_">
		<path class="st1" d="M65.9,176.2c0,2-0.3,3.8-1,5.4"/>
	</g>
	<g id="SPLINE_41_">
		<path class="st1" d="M72.3,185c-0.6-2.6-0.9-2.8-1.1-3.2c-0.2-0.3-0.4-0.7-0.5-1.1c-0.1-0.3,0-0.6,0-0.9c0-0.3-0.1-0.5-0.1-1.1
			c-0.1-0.6-0.2-1.6-0.3-2.1c-0.1-0.5-0.2-0.5-0.3-0.3c-0.1,0.2-0.2,0.6-0.3,1.1c-0.1,0.5-0.1,1-0.2,1.6c0,0.7-0.1,1.5-0.6,4.5"/>
	</g>
	<g id="SPLINE_42_">
		<path class="st1" d="M115.4,147.4c-3.2,0-4.6-1.1-6.3-2.1c-1.6-1-3.5-2-4.7-2.5c-1.2-0.5-1.7-0.5-2.1-0.4
			c-0.4,0.1-0.8,0.4-1.5,0.7c-0.7,0.3-1.7,0.8-2.3,1.1c-0.6,0.3-0.7,0.5-0.5,0.9c0.1,0.4,0.5,1,1,1.3c0.5,0.3,1.2,0.5,1.7,0.7
			c0.5,0.2,0.8,0.6,1.2,1.1c0.3,0.5,0.6,1.2,1.4,1.8c0.8,0.5,2,1,2.7,1c0.8,0,1.1-0.3,0.8-0.8c-0.3-0.5-1.2-1.1-2.1-2.1
			c-1-0.9-2-2.2-1.7-3.1"/>
	</g>
	<g id="SPLINE_43_">
		<path class="st1" d="M101.6,29.1c-1.2,0-1.5-0.2-1.8-0.2c-0.2-0.1-0.4,0-0.5,0c-0.1,0-0.1,0-0.1,0.1c0,0,0,0.1,0.2,0.2
			c0.1,0.1,0.3,0.2,0.4,0.1"/>
	</g>
	<g id="SPLINE_44_">
		<path class="st1" d="M98.3,29.4c-1-0.3-1.1-0.6-1-0.9c0.1-0.3,0.3-0.7,0.7-0.9"/>
	</g>
	<g id="SPLINE_45_">
		<path class="st1" d="M75,200.7c3,10.3,6.1,14.1,8.1,16.7c2,2.6,2.9,3.9,3.3,5c0.4,1.1,0.3,1.9,0.2,2.6c-0.1,0.7-0.3,1.2-0.2,1.7
			c0.1,0.6,0.4,1.3,1.4,3.1c1.1,1.8,2.9,4.7,5.5,8.6c2.7,3.9,6.2,8.6,8.8,11.9c2.6,3.2,4.4,4.8,6,5.8c1.6,1,3,1.4,4.3,1.6
			c1.3,0.3,2.5,0.5,3.4,0.3c0.9-0.2,1.7-1,2.7-1.2c1-0.2,2.4,0.2,2.9,0.1c0.5-0.1,0.2-0.6-1-0.9c-1.2-0.3-3.3-0.4-5.8-1
			c-2.6-0.6-5.6-1.8-7.8-3.7"/>
	</g>
	<g id="SPLINE_46_">
		<path class="st1" d="M79.4,14.9c-1.8,0.8-1.9,1.2-2.1,1.4c-0.2,0.3-0.5,0.4-0.9,0.2c-0.4-0.2-0.9-0.7-1.1-1.1
			c-0.2-0.4,0-0.7,0.1-1c0.1-0.3,0.1-0.6,0.4-0.7c0.3-0.1,0.8-0.1,1.2-0.1c0.4,0,0.8,0,1-0.2c0.2-0.2,0.4-0.7,0.7-1.1
			c0.3-0.4,0.6-0.6,1.3-0.8c0.7-0.2,1.6-0.3,2.3-0.2c0.7,0.1,1,0.3,1.5,0.3c0.5,0,1.2-0.1,1.6-0.2c0.5-0.1,0.8-0.1,1.2-0.1
			c0.4,0,0.8,0.1,1.2,0.4c0.3,0.3,0.6,1,0.8,1.7c0.3,0.7,0.6,1.4,0.9,2.1c0.4,0.7,0.9,1.3,1.3,1.7c0.5,0.4,0.9,0.7,1.3,0.9
			c0.4,0.2,0.8,0.2,1.2,0.1c0.4-0.1,0.7-0.2,0.8-0.5c0-0.2-0.2-0.6-0.6-0.9c-0.4-0.3-0.9-0.6-1.5-1c-0.6-0.4-1.2-1.1-1.6-1.7
			c-0.4-0.6-0.4-1.2-0.2-1.7c0.2-0.5,0.6-0.9,1-1c0.4-0.1,0.7,0.3,1.1,0.7c0.3,0.5,0.7,1,1.1,1.4c0.3,0.3,0.7,0.4,0.7,0.1
			c0.1-0.3-0.2-1-0.1-1.4c0.1-0.4,0.5-0.5,1.2-0.2c0.6,0.3,1.4,1.1,1.9,1.7c0.5,0.7,0.8,1.2,0.9,1.7c0.1,0.5,0,1.1,0.3,1.5
			c0.2,0.5,0.8,0.9,1.4,0.9"/>
	</g>
	<g id="SPLINE_47_">
		<path class="st1" d="M71.7,23.9c-1,4.7-1.9,5-2.7,5.3c-0.9,0.3-1.8,0.6-2.6,2.8"/>
	</g>
	<g id="SPLINE_48_">
		<path class="st1" d="M72.1,20c-1.7-0.4-2.1,0.8-2.4,1.7c-0.3,0.9-0.6,1.5-1.1,1.9c-0.5,0.4-1.2,0.7-2,1c-0.8,0.3-1.7,0.5-2.5,3.6"
			/>
	</g>
	<g id="SPLINE_49_">
		<path class="st1" d="M97.8,20.6c-1.5,0.3-1.9,0.9-2.3,1.3c-0.4,0.5-0.8,0.8-1.4,1c-0.6,0.2-1.4,0.3-2.4,0.2"/>
	</g>
	<g id="SPLINE_50_">
		<path class="st1" d="M95.9,21.4c0.3,0.7,0.3,1.1,0.4,1.3"/>
	</g>
	<g id="SPLINE_51_">
		<path class="st1" d="M96.4,22.8c-1,0-2.1,0.4-3.1,0.2"/>
	</g>
	<g id="SPLINE_52_">
		<path class="st1" d="M96,22.8c-0.1,0.8-0.1,1-0.1,1.2c0,0.2-0.1,0.2-0.3,0.3c-0.2,0.1-0.6,0.2-1.2,0.1"/>
	</g>
	<g id="SPLINE_53_">
		<path class="st1" d="M97.8,20.6c0.6,0.3,0.6,0.6,0.4,0.7c-0.2,0.2-0.5,0.2-1.3,0.2"/>
	</g>
	<g id="SPLINE_54_">
		<path class="st1" d="M93.7,41.2c-1.1-0.3-2.1-0.4-2.7-0.5c-0.7-0.1-1.1-0.2-1.4-0.4c-0.4-0.2-0.7-0.4-1.2-0.7
			c-0.5-0.3-1.2-0.7-1.9-1.1c-0.8-0.5-1.7-1.1-2.3-1.3"/>
	</g>
	<g id="SPLINE_55_">
		<path class="st1" d="M101.5,206.7c1.6,1,2,2.2,1.9,2.9c-0.1,0.7-0.6,0.9-1.7,0.8c-1-0.1-2.4-0.3-3.3-0.4c-0.8-0.1-1.1,0.1-0.8,0.3
			c0.3,0.2,1,0.5,1.9,0.6c0.8,0.1,1.8-0.1,2.5,0.1c0.7,0.2,1.3,0.9,1.7,1.5c0.4,0.6,0.8,1,1,1.6c0.2,0.6,0.2,1.2,0.1,1.7
			c-0.1,0.4-0.3,0.7-0.5,0.9c-0.2,0.3-0.5,0.6-0.6,1.1c-0.1,0.5-0.1,1-1.9,1"/>
	</g>
	<g id="SPLINE_56_">
		<path class="st1" d="M30.5,208.4c2.6-3.7,3.4-4.5,4.3-5.3c0.9-0.8,1.9-1.6,2.9-2.6c1-0.9,2.1-1.9,3.6-2.9c1.4-1,3.2-2,4.8-2.7
			c1.6-0.7,2.9-1.2,3.4-1.2c0.6,0,0.4,0.5-0.3,0.7c-0.7,0.2-1.8,0.2-2.9,1c-1.1,0.8-2.2,2.4-3.9,3.9c-1.7,1.6-4.2,3.1-5.7,4.3"/>
	</g>
	<g id="SPLINE_58_">
		<path class="st1" d="M81.6,12.9c0.6,0.1,1.1,0.5,1.5,0.7c0.4,0.2,0.7,0.2,1,0.1c0.3-0.1,0.7-0.3,1.1-0.3c0.3,0,0.6,0.1,0.8,0.3
			c0.2,0.3,0.3,0.7,0.5,1.3c0.2,0.6,0.4,1.5,0.8,2.1c0.4,0.6,1,1,1.4,1.5c0.4,0.5,0.5,1.2,0.5,2c0,0.8-0.2,1.7-0.3,2.4
			c-0.1,0.7-0.1,1.1-0.2,1.4c-0.1,0.3-0.2,0.6-0.5,0.8s-0.5,0.4-0.9,0.3c-0.3-0.1-0.7-0.5-1-0.8c-0.3-0.4-0.7-0.7-1-0.8
			c-0.3-0.1-0.6,0.1-0.8,0.4c-0.2,0.4-0.3,0.9-0.3,1.5c0,0.6,0.2,1.3,0.4,2.7"/>
	</g>
	<g id="SPLINE_59_">
		<path class="st1" d="M84.7,28.4c0.6,1.2,1.1,1.7,1.3,2c0.2,0.3,0.3,0.5,0.3,0.6c0,0.1-0.1,0.3-0.2,0.4c-0.1,0.1-0.3,0.2-0.5,0.4
			c-0.3,0.2-0.6,0.5-0.8,0.7c-0.2,0.2-0.3,0.3-0.5,0.3c-0.2,0.1-0.5,0.1-0.7,0c-0.2-0.1-0.2-0.2-0.2-0.4c0-0.2-0.1-0.3-0.5-1.6"/>
	</g>
</g>
</svg>
