<?xml version="1.0" encoding="utf-8"?>
<!-- Generator: Adobe Illustrator 21.0.0, SVG Export Plug-In . SVG Version: 6.00 Build 0)  -->
<svg version="1.1" xmlns="http://www.w3.org/2000/svg" xmlns:xlink="http://www.w3.org/1999/xlink" x="0px" y="0px"
	 viewBox="0 0 130 284.5" style="enable-background:new 0 0 130 284.5;" xml:space="preserve">
<style type="text/css">
	.st0{fill:#FFFFFF;stroke:#000000;stroke-linecap:round;stroke-linejoin:round;}
	.st1{fill:none;stroke:#000000;stroke-width:0.2091;stroke-linecap:round;stroke-linejoin:round;}
</style>
<g id="outer">
	<path class="st0" d="M71.6,177.1c0.5,1.5,0.7,2.1,0.8,2.6c0.1,0.5,0.2,0.8,0.4,1.2c0.1,0.4,0.3,0.7,0.5,1.1
		c0.2,0.4,0.5,0.8,0.7,1.2c0,0,0,0.1,0.1,0.1c0.7,0,0.8,0.1,0.7,0.3c0,0.2-0.1,0.3-0.4,0.6c0.1,0.2,0.1,0.3,0.2,0.6
		c0.1,0.3,0.3,0.7,0.5,1c0.2,0.3,0.3,0.6,0.4,0.9c0.1,0.3,0.2,0.5,0.3,0.8c0.1,0.3,0.2,0.5,0.3,0.7c0.4-0.2,0.7-0.3,0.8-0.2
		c0.2,0.1,0.2,0.3-0.1,1c0,0,0,0,0.1,0c0.1,0,0.2,0,0.3,0.1c0.1,0.1,0.1,0.2,0.2,0.3c0.1,0.1,0.3,0.3,0.4,0.4
		c0.1,0.1,0.2,0.3,0.2,0.5c0,0.2,0,0.5,0.1,0.7c0,0.2,0.1,0.3,0.3,0.5c0.1,0.1,0.4,0.3,0.6,0.6c0.2,0.3,0.4,0.6,0.6,0.9
		c0.2,0.3,0.4,0.7,0.5,0.9c0.2,0.2,0.3,0.2,0.5,0.2c0.1,0,0.3,0,0.5,0.1c0.2,0.1,0.5,0.3,0.5,0.5c0,0.2-0.1,0.3-0.2,0.6
		c0,0.1,0.4,0.1,0.7,0.2c0.3,0,0.4,0.1,0.5,0.2c0.1,0.1,0.2,0.3,0.2,0.5c0,0.2,0.1,0.4,0.1,0.5c0,0.2,0.1,0.3,0.4,0.6
		c0.3,0.3,0.8,0.6,1.3,1c0.5,0.4,1,0.8,1.5,1.3c0.5,0.5,1,1,1.5,1.6c0.5,0.5,1,1,1.5,1.5c0.5,0.5,1.1,1.1,1.7,1.6
		c0.5,0.5,1,0.9,2.2,2.6c1.2,1.7,3,4.7,4.2,6.6c1.2,2,1.7,2.9,2.4,3.9c0.7,1,1.4,2.1,2.4,3.7c0.3,0,0.6,0.1,1,0.2
		c0.5,0.2,1,0.5,1.4,1c0.4,0.5,0.9,1.3,0.9,2.8c0,0,0-0.1,0.1-0.1c0.1-0.1,0.3-0.1,0.6,0.2c0.4,0.2,0.9,0.7,1.3,1.1
		c0.4,0.5,0.8,1,1.1,1.5c0.3,0.5,0.5,1.1,0.7,1.7c0.2,0.5,0.2,1,0,1.5c-0.2,0.4-0.5,0.8-0.8,1.1c0,0,0.5,0.5,0.9,0.8
		c0.4,0.3,0.6,0.4,0.9,0.5c0.3,0.1,0.8,0.1,1,0.6c0.3,0.4,0.4,1.1,0.6,1.7c0.2,0.5,0.6,0.8,0.8,1c0.3,0.2,0.5,0.2,0.7,0.3
		s0.5,0.2,0.8,0.4c0.3,0.2,0.5,0.5,0.6,0.6c0.2,0.1,0.3,0,0.5-0.2c0.2-0.2,0.4-0.5,0.6-0.8c0.2-0.3,0.3-0.6,0.7-0.5
		c0.4,0.1,1,0.5,1.8,0.8c0.7,0.3,1.6,0.4,2.4,0.5c0.8,0.1,1.6,0.2,2.2,0.4c0.5,0.1,0.9,0.4,1.2,0.6c1.7,0.2,2.9,0.4,3.6,0.5
		c0.7,0.1,1,0.3,1.2,0.7c0.2,0.5,0.4,1.2,0.5,1.9c0.1,0.7,0,1.2-0.1,1.7c-0.1,0.5-0.3,1.1-0.4,1.6c-0.2,0.5-0.3,1-0.4,1.4
		c-0.1,0.4-0.3,0.8-0.4,1.3c-0.1,0.5-0.3,1-0.5,1.5c-0.2,0.6-0.5,1.2-0.7,1.9c-0.2,0.6-0.4,1.2-0.5,1.6c-0.1,0.4-0.3,0.5-0.5,0.6
		c-0.2,0.1-0.6,0.1-0.9,0c-0.3-0.1-0.5-0.3-0.6-0.4c-0.1-0.1-0.2-0.2-0.4-0.3c-0.1,0-0.3,0-0.4,0.1c-0.1,0.1-0.2,0.4-0.3,0.7
		c0,0.3-0.1,0.6,0,1.3c0,0.7,0.1,1.9,0.1,3.2c0,1.3,0,2.8-0.1,3.8c-0.1,1.1-0.2,1.7-0.4,2.6c-0.2,0.9-0.6,2-1.1,3.3
		c-0.5,1.3-1.3,2.7-1.9,3.9c-0.6,1.2-1.2,2.3-1.9,3.2c-0.7,0.9-1.5,1.7-2.3,2.4c-0.8,0.7-1.5,1.2-2,1.4c-0.5,0.3-0.8,0.3-1.1,0.1
		c-0.3-0.1-0.6-0.4-0.2-1.7c-0.4-0.5-0.9-1.4-1.2-2.1c-0.3-0.7-0.4-1.2-0.3-1.7c0.1-0.5,0.4-1,0.6-1.4c0.2-0.5,0.2-0.9,0.4-1.2
		c0.2-0.3,0.6-0.6,0.7-0.7c0.1-0.2,0-0.3-0.1-0.4c-0.1-0.2-0.2-0.4-0.2-0.6c0-0.2,0.3-0.3,0.4-0.5c0.1-0.2,0.1-0.4-2-5.2
		c-0.3,0-0.5,0-0.7,0c-0.4,0-0.6-0.2-0.6-0.3c-0.1-0.2,0-0.4,0-0.9c-0.1-0.5-0.2-1.3-0.4-2.2c-0.2-1-0.3-2.1-0.5-3.1
		c-0.2-1-0.4-1.9-0.7-2.6c-0.3-0.7-0.8-1.3-1.1-1.7c-0.3-0.4-0.6-0.6-0.7-0.7c-0.1-0.2-0.1-0.3-0.5-0.6c-0.3-0.4-1-1-2.1-1.9
		c-1.1-0.9-2.7-2.1-3.8-2.9c-1.1-0.8-1.7-1.3-2-1.7c-0.3-0.4-0.2-0.8,0-1.3c0.2-0.4,0.5-1,2-3c-0.1-0.1-0.2-0.1-0.3-0.2
		c-0.2-0.2-0.5-0.4-0.7-0.6c-0.2-0.3-0.5-0.6-0.8-0.9c-0.3-0.4-0.6-0.7-0.9-1c-0.3-0.3-0.7-0.5-1-0.6c-0.3-0.2-0.5-0.3-0.7-0.5
		c-0.2-0.1-0.3-0.3-0.4-0.6c-0.1-0.3-0.1-0.9-0.1-0.9c0,0,0-0.1-0.1-0.1c0-0.1,0-0.3,0-0.5c0-0.1,0.1-0.2,0.1-0.3
		c0-0.1-0.1-0.2-0.2-0.3c-0.1-0.1-0.3-0.2-0.4-0.3c-0.2-0.1-0.4-0.1-0.6-0.2c-0.2-0.1-0.4-0.2-0.5-0.4c-0.2-0.2-0.4-0.4-0.6-0.6
		c-0.2-0.2-0.3-0.4-0.4-0.7c-0.2-0.3-0.4-0.8-0.6-1.1c-0.2-0.4-0.4-0.6-0.6-0.9c-0.2-0.3-0.3-0.6-0.6-1c-0.3-0.4-0.7-0.8-1.2-1.3
		c-0.5-0.4-1.2-0.9-2.2-2c-1-1.1-2.2-2.9-3.1-4.2c-0.9-1.3-1.6-2-2.5-2.9c-0.9-0.9-2-1.9-3-2.7c-1-0.8-1.7-1.5-2.4-2.2
		c-0.7-0.7-1.2-1.3-2.9-3.9c-0.1,0-0.1,0-0.2,0.1c-0.3,0.1-0.5,0.1-0.7,0c-0.1-0.1-0.2-0.2-0.4-0.5c-0.2-0.3-0.5-0.7-2.6-3.2
		c-0.1,0-0.2,0-0.3,0c-0.3,0-0.4-0.1-0.7-0.3c-0.2-0.2-0.5-0.4-1.1-0.7c-0.6-0.3-1.4-0.6-2.4-1c-0.9-0.4-1.9-0.9-2.7-1.7
		c-0.8-0.8-1.5-1.9-2.1-2.8c-0.5-0.9-1-1.6-1.5-2.7c-0.5-1.1-1.2-2.6-4.4-8.4c0,0.1,0,0.2,0,0.3c0,0.9,0,1.4,0.1,1.7
		c0,0.3,0.1,0.4,0.2,0.6c0.1,0.2,0.2,0.5,0.2,0.9c0,0.3,0,0.7,0,0.9c0,0.3-0.1,0.6,0,0.8c0,0.2,0.2,0.4,0.2,0.7c0,0.2,0,0.5-0.1,0.7
		c-0.1,0.2-0.1,0.5,0,0.8c0.1,0.3,0.3,0.7,0.4,1c0.1,0.3,0.1,0.6,0.1,1c0,0.4-0.1,0.8-0.1,1.1c0,0.3,0.1,0.6,0.1,0.8
		c0,0.2,0,0.4,0,0.7s0,0.6,0.1,0.9c0.1,0.3,0.1,0.4,0.1,0.6c0,0.2-0.2,0.4-0.4,0.6c0.3,0.9,0.2,1.2,0.1,1.5
		c-0.1,0.2-0.2,0.3-0.3,0.5c1.1,1.3,1,1.7,0.9,2.1c-0.1,0.3-0.1,0.6-0.1,0.8c0.1,0.2,0.3,0.3,0.4,0.4c0.1,0.1,0.1,0.2,0.2,0.4
		c0,0.1,0.1,0.4,0.1,0.6c0.1,0.2,0.1,0.5,0.2,0.7c0.1,0.3,0.1,0.5,0.2,0.8c0.1,0.3,0.2,0.5,0.2,0.9c0,0.4,0,1,0.1,1.8
		c0.2,0.8,0.6,1.8,1,4c0.4,2.2,0.9,5.4,1.2,8.2c0.3,2.8,0.3,5.1,0.4,6.8c0.1,1.7,0.1,2.7,0.2,3.5c0.1,0.8,0.2,1.5,0.3,2.2
		c0.1,0.7,0.1,1.4-0.2,2.2c-0.2,0.5-0.4,1-0.8,1.6c0.1,0.6,0,1.2,0,1.7c-0.1,0.4-0.2,0.9-0.5,1.7c1.2,0.4,1.6,0.8,1.8,1.2
		c0.3,0.4,0.2,0.7,0.1,1c-0.1,0.2-0.2,0.4-0.5,0.5c0.1,1.8,0.4,2.4,0.7,2.9c0.2,0.4,0.3,0.7,0.3,0.9c0,0.3,0,0.6-0.1,0.9
		c-0.1,0.3-0.2,0.5-0.4,0.9c-0.1,0.3-0.3,0.8-0.4,1.1c0,0.1,0,0.2-0.1,0.2c1.1,1.7,1,3.2,0.9,4.5c-0.1,1.3-0.2,2.2-0.2,3.6
		c0,1.3,0.1,3,0.2,4.1c0.2,1.1,0.4,1.6,0.7,2.3c0.3,0.7,0.6,1.5,0.9,2.5c0.2,0.9,0.4,2,0.5,3c0.1,1,0.3,2.1,0.3,2.8
		c0,0.1,0,0.3,0,0.4c1.1,1.2,1.1,2.6,1,3.7c-0.2,1-0.6,1.7-1.4,2.2c-0.9,0.5-2.2,0.9-3.6,1.2c-1.3,0.3-2.6,0.4-3.9,0.5
		c-1.3,0-2.5-0.1-3.1-0.1c-0.6-0.1-0.6-0.2-0.6-0.5c0-0.3,0-0.7-0.1-1c-0.1-0.2-0.2-0.3-0.4-0.3c-0.2,0-0.6,0-0.8,0
		c-0.3,0-0.5,0-0.8,0.1c-0.3,0-0.8,0.1-1.5,0.3c-0.7,0.2-1.7,0.5-2.9,0.8c-1.2,0.2-2.5,0.4-3.9,0.6c-1.4,0.2-2.9,0.3-4.8,0.4
		c-2,0-4.4-0.1-6.7-0.3c-2.2-0.2-4.1-0.5-5.7-0.8c-1.5-0.3-2.6-0.5-3.1-0.9c-0.6-0.4-0.6-1-0.6-1.4c0-0.4,0-0.6,0.1-1
		c0-0.4,0-0.9,0.9-0.8c0.1-0.3,0.3-0.6,0.5-0.9c0.4-0.6,1-1.3,1.5-1.8c0.5-0.5,0.9-0.9,1.8-1.2c0.9-0.3,2.2-0.5,3.4-0.6
		c1.2-0.1,2.2-0.2,3.6-0.9c0.9-0.5,2-1.2,3.3-2c0,0,0-0.1,0-0.1c0-0.1,0-0.3,0.4-0.7c0.4-0.4,1.2-0.9,2.3-1.6
		c1.1-0.8,2.5-1.8,3.3-2.5c0.9-0.7,1.2-1,1.5-1.2c0.2-0.2,0.4-0.4,0.6-0.6c0.2-0.2,0.3-0.4,0.4-0.8c0.1-0.4,0.1-1.1,0.2-1.8
		c0-0.7,0-1.4,0.1-2.1c0-0.7,0.1-1.4,0.1-2.3c0-0.9,0.1-2,0.1-3c0-0.9,0.1-1.6-0.1-1.7c-0.1,0-0.1-0.1-0.2-0.1
		c-0.1-0.1-0.1-0.1-0.2-0.3c0-0.1-0.1-0.3,0-0.4c0-0.1,0.1-0.2,0.3-0.3c0.1-0.1,0.3-0.1,0.7-0.3c0.1,0,0.1,0,0.2-0.1
		c-1.2-0.8-1.4-1.1-1.5-1.4c-0.1-0.3-0.2-0.5-0.1-0.8c0-0.3,0.2-0.6,0.3-0.9c0.1-0.3,0-0.6-0.1-1c-0.1-0.3-0.3-0.7-0.4-1
		c-0.1-0.3-0.1-0.6-0.1-0.9c0-0.3,0.1-0.7,0.2-1c0.1-0.3,0.2-0.6,0.3-0.8c0.1-0.2,0.2-0.4,0.3-0.5c0.1-0.1,0.2-0.2,0.3-0.4
		c-0.8-1.2-0.7-1.6-0.7-2.1c0-0.5,0-1,0-1.8c0-0.7-0.2-1.7-0.2-2.7c-0.1-1-0.1-2.2-0.3-2.9c-0.1-0.7-0.4-0.8-0.6-1.1
		c-0.2-0.3-0.4-0.7-0.6-1.2c-0.2-0.5-0.3-1.1-0.4-1.8c-0.1-0.8-0.1-1.7-0.3-3.4c-0.1-1.6-0.3-3.9-0.5-5.2c-0.2-1.3-0.2-1.6-0.3-2
		c0-0.3,0-0.6,0-0.9c0-0.2-0.1-0.4-0.1-0.5c-0.1-0.1-0.1-0.3-0.2-0.4c-0.1-0.1-0.2-0.2-0.2-0.2c-0.1-0.1-0.2-0.2-0.2-0.3
		c-0.1-0.1-0.1-0.3-0.1-0.5c0-0.2,0.1-0.3,0.2-0.4c0.1-0.1,0.3-0.2,0.5-0.2c0.1-0.1,0.2-0.1,0.3-0.2c0-0.2,0-0.4,0-0.7
		c-0.1-0.3-0.2-0.5-0.4-0.9c-0.2-0.3-0.4-0.7-0.9-2.3c-0.2-0.1-0.3-0.2-0.5-0.5c-0.2-0.3-0.4-0.8-0.3-2.3c-0.4-0.1-0.5-0.1-0.7-0.2
		c-0.1-0.1-0.2-0.3-0.1-0.5c0.1-0.2,0.5-0.5-0.5-2.2c-0.1,0-0.3,0-0.4,0c-0.3,0-0.7,0-0.9-0.1c-0.2-0.1-0.4-0.3-0.4-0.5
		c0-0.2,0-0.4,0-0.6c0-0.2-0.1-0.4-0.1-0.7c0-0.3-0.1-0.5-0.1-0.8c0-0.3,0-0.5,0-0.8c-0.1-0.3-0.3-0.6-0.4-1
		c-0.2-0.4-0.3-0.9-0.5-1.5c-0.1-0.5-0.3-1.1-0.4-1.7c-0.1-0.6-0.2-1.2-0.3-1.8c0-0.6,0-1.1-0.2-1.5c-0.1-0.4-0.4-0.6-0.4-0.9
		c0-0.3,0.3-0.7,0.7-0.7c0.1,0,0.1,0,0.2,0c-0.4-1.5-0.7-1.8-1-2c-0.2-0.2-0.4-0.4-0.3-0.6c0-0.2,0.2-0.4,0.5-0.6
		c-0.5-1.3-0.6-1.6-0.8-1.9c-0.1-0.3-0.2-0.7-0.2-1.2c-0.1-0.5-0.1-1.2-0.2-1.8c-0.1-0.7-0.2-1.4-0.3-2.1c-0.2-0.7-0.4-1.3-1.5-4.5
		c-0.9-0.2-1.8-0.4-2.6-0.6c-1.1-0.2-2.2-0.5-3.2-0.6c-1-0.1-2-0.2-2.9-0.3c-1-0.1-2-0.3-3.3-0.7c-1.4-0.4-3.1-1.1-4.4-1.7
		c-1.4-0.6-2.3-1.1-3-1.5c-0.7-0.4-1.2-0.7-1.6-1c-0.4-0.4-0.8-0.9-1-1.4c-0.2-0.4-0.2-0.8-0.2-1.5c-0.5-0.1-1-0.1-1.5-0.2
		c-1.2-0.2-2.2-0.3-2.9-0.4c-0.7-0.1-1.1-0.1-1.6-0.2c-0.4-0.1-0.9-0.2-1.1-0.4c-0.2-0.2-0.2-0.5-0.2-0.8c0-0.3,0.1-0.7,0.2-0.9
		c0.1-0.2,0.1-0.4,0.3-1.1c0.2-0.8,0.6-2.2,0.9-3.8c0.3-1.6,0.5-3.3,0.8-5c0.3-1.6,0.6-3.1,1.1-4.7c0.5-1.5,1.1-3.1,1.7-4.8
		c0.6-1.8,1.1-3.8,1.9-6.5c0.7-2.5,1.7-5.7,3.7-12.3c0,0,0-0.1,0-0.1c-0.1-0.3-0.2-0.5-0.2-0.8c0-0.3,0-0.7,0.1-1.2
		c0.1-0.5,0.3-1,0.5-1.4c0.2-0.5,0.3-0.9,0.5-1.2c0.1-0.4,0.2-0.7,0.3-1c0-0.3,0-0.7,0.1-1.1c0.1-0.3,0.2-0.6,0.4-1.1
		c0.2-0.4,0.6-1,1-1.4c0.2-0.2,0.5-0.3,0.9-0.4c0.2-4.3,0.1-5.7,0.1-6.9c0-1.7,0-2.7,0.1-3.5c0.1-0.8,0.2-1.5,0.5-2.8
		c-0.1-0.8-0.2-1.2-0.2-1.6c-0.1-1.1,0-2.4,0-3.4c0.1-1,0.2-1.8,0.3-2.6c0.1-0.8,0.2-1.6,0.2-2.2c0-0.6-0.1-1-0.1-1.6
		c0-0.6,0-1.4,0.1-2.2c0.1-0.7,0.2-1.4,0.4-2c0.2-0.6,0.4-1,0.9-2.4c0.4-1.2,0.9-3.1,1.4-5c-0.4-0.6-0.4-1-0.5-1.3
		c-0.1-0.6-0.1-1.1-0.1-1.9c0-0.9,0.1-2.1,0.3-3.1c0.2-1,0.4-1.8,0.7-2.6c0.3-0.8,0.7-1.8,1.1-2.8c0.4-1.1,0.8-2.3,1.2-3.4
		c0.4-1.1,0.8-2,1.1-2.8c-1.3,0.1-2.2-0.4-3.2-1.4c-1.1-0.9-2.3-2.3-3.1-3.2c-0.8-0.9-1.3-1.3-1.4-1.7c-0.1-0.4,0.2-0.8,0.7-1.7
		c0.1-0.2,0.2-0.4,0.4-0.7c-2.2-2.2-2.1-2.8-1.9-3.6c0.2-0.8,0.4-1.7,0.9-2.5c0.4-0.6,0.9-1.2,1.4-1.8c-0.9-1.3-0.8-2.2-0.7-3.1
		c0.1-0.9,0.3-1.8,0.6-2.5c0.3-0.7,0.7-1.4,1.3-2.2c0.6-0.8,1.4-1.8,2.5-2.8c0.5-0.4,1-0.9,1.6-1.3c-0.1-0.4-0.4-0.7-0.9-1
		c-0.1,0-0.1,0-0.1-0.1c0-0.1,0.1-0.2,0.6-0.7c-0.3-0.1-0.5-0.1-0.6-0.2c-0.2-0.1-0.3-0.2-0.3-0.3c0,0,0,0,0-0.1
		c-0.1-0.4,0-0.5,0.1-0.6c0,0,0.1,0,0.1,0c0.3-0.8,0.3-1.1,0.3-1.5c0-0.2-0.1-0.4-0.1-0.6c-0.2-0.1-0.5-0.2-0.7-0.3
		c-0.3-0.1-0.4-0.2-0.6-0.3c-0.1-0.1-0.2-0.1-0.3-0.2c-0.1,0-0.2-0.1-0.3-0.2c-0.1-0.1-0.2-0.2-0.3-0.3c-0.1-0.1-0.2-0.2-0.2-0.3
		c0-0.1-0.1-0.2-0.1-0.3c0-0.1,0-0.2,0-0.4c0-0.2,0.1-0.4,0.3-0.7c0.2-0.3,0.4-0.6,0.6-1c0.2-0.4,0.3-0.8,0.5-1.2
		c0.2-0.4,0.3-0.7,0.5-1c0.2-0.3,0.3-0.7,0.3-1c0.1-0.3,0.1-0.5,0.1-0.8c0-0.2,0-0.5-0.1-0.7c-0.1-0.2-0.1-0.4-0.2-0.6
		c-0.1-0.2-0.2-0.4-0.3-0.5c0-0.1-0.1-0.1-0.1-0.1c-0.1,0.1-0.2,0.2-0.3,0.1c-0.1-0.1-0.3-0.2-0.3-0.4c0-0.1,0.1-0.2,0.2-0.4
		c0,0,0,0,0-0.1c0-0.4,0-1.2,0-2c0-0.9,0.1-1.9,0.2-2.9c0.1-0.6,0.2-1.1,0.3-1.7c0-0.1-0.1-0.2-0.2-0.4c-0.2-0.3-0.5-0.8-0.8-1.3
		c-0.2-0.5-0.2-1.1-0.1-1.5c0.1-0.4,0.4-0.8,0.8-1c0.4-0.3,0.9-0.5,1.3-0.7c0.4-0.2,0.8-0.4,1.1-0.8C21.7,7,22.1,6.5,22.4,6
		c0.3-0.5,0.4-0.9,0.7-1.2c0.3-0.3,0.7-0.4,1.1-0.4c0.4,0,0.8,0.1,1.2-0.1c0.4-0.2,0.8-0.8,1.3-1.1c0.5-0.3,1.1-0.4,1.6-0.3
		c0.5,0.1,1,0.3,1.5,0.4c0.5,0.1,1.1,0,1.6-0.2c0.5-0.2,0.9-0.5,1.3-0.8c0.4-0.3,0.7-0.7,1.1-1c0.4-0.3,0.7-0.6,1.2-0.7
		c0.5-0.1,1.2,0,1.8,0.1c0.6,0.2,1.1,0.4,1.5,0.5c0.5,0.1,0.9,0.1,1.5,0c0.6-0.1,1.3-0.3,1.9-0.4c0.5,0,0.9,0.1,1.1,0.3
		c0.3,0.2,0.4,0.4,0.7,0.7c0.3,0.3,0.6,0.5,0.9,0.7C44.7,2.7,45,2.8,45.2,3c0.3,0.2,0.5,0.6,0.6,1c0.1,0.4,0.2,0.9,0.4,1.2
		c0.2,0.4,0.6,0.6,0.9,0.8c0.4,0.2,0.7,0.4,1,0.6c0.2,0.2,0.3,0.5,0.4,0.8C48.7,7.6,48.8,7.9,49,8c0.2,0.1,0.5,0,0.8-0.1
		c0.3-0.1,0.5-0.2,0.7-0.1c0.2,0.1,0.4,0.2,0.6,0.5c0.3,0.3,0.6,0.6,1,1c0.4,0.4,0.8,0.8,1.5,1c0,0,0-0.1,0-0.1
		c-0.1-0.5-0.4-1.2-0.8-2c-0.4-0.7-0.7-1.5-0.8-2.1c-0.1-0.6,0.2-1.2,0.4-1.6c0.2-0.4,0.5-0.8,0.8-1.1c0.3-0.3,0.5-0.7,1.2-0.9
		C55,2.3,56,2.1,56.9,2.2c0.9,0.1,1.8,0.4,2.7,0.8s1.7,0.8,2.2,1.2c0.5,0.4,0.7,0.8,0.8,1.3c0.2,0.5,0.3,1,0.7,1.3
		c0.4,0.4,1.1,0.7,1.8,1c0.7,0.3,1.3,0.7,1.7,1.2c0.4,0.4,0.5,0.9,0.1,1.3c-0.4,0.4-1.2,0.8-1.9,1c-0.7,0.2-1.2,0.4-1.7,0.7
		c-0.4,0.3-0.8,0.9-0.8,1.2c0,0.4,0.5,0.5,1.1,0.8c0.6,0.3,1.4,0.6,2,1.1c0.6,0.5,1.1,1.3,1.3,1.9c0.2,0.6,0.2,1.1,0.4,1.7
		c0.2,0.5,0.5,1.1,0.9,1.7c0.3,0.6,0.6,1.4,0.6,1.9c0,0.5-0.3,0.9-0.8,1.2c-0.5,0.3-1.1,0.6-1.6,0.9c-0.4,0.3-0.7,0.6-0.7,0.9
		c-0.1,0.3,0,0.7,0.2,1.1c0.2,0.4,0.5,0.9,0.6,1.3c0.1,0.4-0.1,0.7-0.4,0.6c-0.3-0.1-0.8-0.5-1.1-0.9c-0.4-0.4-0.6-0.8-0.9-1.2
		c-0.3-0.4-0.6-0.9-1-1.2c-0.4-0.4-0.9-0.6-1.3-0.6c-0.4,0-0.8,0.2-1.2,0.2c-0.3,0.1-0.6,0-0.8-0.2c-0.3-0.2-0.5-0.4-0.8-0.6
		c-0.3-0.2-0.6-0.4-0.8-0.7c-0.2-0.3-0.4-0.6-0.4-0.9c0-0.3,0.1-0.5,0.2-0.7c0.1-0.2,0.1-0.5,0-0.9c-0.1-0.3-0.5-0.7-0.6-1
		c-0.1-0.3-0.1-0.5-0.1-0.8c0.1-0.3,0.2-0.6,0.1-0.9c-0.1-0.3-0.4-0.6-0.8-0.7c-0.3-0.1-0.7,0-1.1-0.1c-0.1,0.2-0.2,0.3-0.3,0.5
		c-0.2,0.3-0.4,0.7-0.4,1c0,0.4,0.2,0.7,0.3,1.1c0.2,0.4,0.4,0.8,0.5,1.2c0.1,0.4-0.1,0.8-0.2,1.1c-0.2,0.3-0.3,0.4-0.7,0.6
		c-0.4,0.2-0.9,0.4-1.2,0.9c-0.3,0.4-0.4,1-1.4,2.1c0.1,0,0.1,0.1,0.2,0.1C53,26,53.3,26.5,53,28c0.4,0,0.6,0.1,0.9,0.3
		c0.4,0.3,0.8,0.8,1.1,2.9c0.2,0.1,0.4,0.2,0.5,0.3c0.6,0.3,0.8,0.4,0.9,0.7c0.2,0.3,0.3,0.7,0.5,1.1c0.2,0.4,0.3,0.9,0.5,1.3
		c0.2,0.4,0.4,0.8,0.6,1.2c0.2,0.4,0.4,0.9,0.5,1.3c0.1,0.5,0.2,1,0.3,1.4c0.1,0.4,0.1,0.8,0.1,1.1c0,0.3,0,0.7,0,1.1
		c0,0.4-0.1,0.8-0.3,1.2c-0.1,0.3-0.3,0.6-0.5,0.8c-0.2,0.2-0.4,0.5-0.7,0.7c-0.3,0.2-0.6,0.5-1,0.8c0,0.1,0,0.1,0,0.2
		c0,0.3,0,0.6,0.1,0.9c0.1,0.3,0.2,0.8,0.3,1.1c0.1,0.4,0.3,0.7,0.5,1.1c0.3,0.4,0.7,0.9,1.1,1.4c0.4,0.4,0.6,0.8,1,1.2
		c0.3,0.4,0.7,0.8,1.1,1.3c0.4,0.5,0.9,1.2,1.3,1.7c0.4,0.5,0.6,0.7,0.9,1.1c0.2,0.3,0.5,0.6,0.8,1.9c0.4,0.4,0.6,0.8,0.8,1.2
		c0.3,0.5,0.5,1,0.8,1.5c0.2,0.5,0.4,1.1,0.7,1.8c0.3,0.7,0.6,1.4,0.8,2.1c0.2,0.8,0.3,1.6,0.4,2.2c0,0.7,0,1.3-0.1,2
		c0,0.4-0.1,0.9-0.2,1.7c0.1,0.4,0.2,0.7,0.3,1c0.2,0.9,0.3,1.6,0.3,2.1c0,0.6-0.1,1-0.1,1.5c0,0.5,0.2,1,0.3,1.7
		c0.1,0.7,0.2,1.7,0.2,2.5c0,0.9-0.1,1.6-0.2,3c-0.1,1.3-0.2,3.2-0.3,4.7c-0.1,1.5-0.3,2.7-0.3,3.6c-0.1,0.9-0.1,1.7,0.1,2.6
		c0.1,0.9,0.4,1.9,0.6,2.7c0.1,0.9,0.1,1.6,0.1,2.3c-0.1,0.7-0.2,1.4-0.3,2.6c0,0.2,0,0.5-0.1,0.7c0.2,0,0.4,0,0.5,0
		c0.7,0,1.3,0,1.7,0c0.4,0.1,0.6,0.2,0.7,0.6c0.1,0.3,0.2,0.8,0.3,1.3c0.1,0.5,0.2,0.9,0.3,1.3c0,0.4,0,0.7-0.1,1.1
		c-0.1,0.4-0.3,0.8-0.4,1.2c-0.1,0.4-0.3,0.7-0.6,1.1c-0.3,0.4-0.8,0.9-1.2,1.1c-0.4,0.2-0.8,0.2-1.3,0.2c-0.1,0-0.3,0-0.4-0.1
		c0,0.3-0.1,0.7-0.2,1c-0.1,0.6-0.3,1.3-1.3,4.4c0.2,0.9,0.3,1.6,0.4,2.4c0.3,1.3,0.6,2.8,0.8,5c0.3,2.2,0.5,5.3,0.7,7.6
		c0.2,2.3,0.3,3.9,0.4,5.7c0.1,1.8,0.1,3.9,0,5.6c-0.1,1.7-0.2,3.1-0.3,4.4c-0.2,1.1-0.4,2.1-0.7,3.1c-1,3.2-0.4,6.4,0.1,8.7
		c0.5,2.3,0.9,3.6,1.5,5.5c0.6,1.8,1.5,4.2,2,5.7c0.5,1.5,0.6,2,0.7,2.6c0.1,0.6,0.2,1.1,0.2,1.6c0,0.5,0.1,0.9,0.1,1.3
		c0,0.4,0.1,0.9,0.2,1.4c0.1,0.5,0.3,0.9,0.4,1.3c0.2,0.4,0.4,0.8,0.5,1.2c0.1,0.3,0.1,0.5,0.1,0.6c0,0.1,0,0.2-0.2,0.3
		C72.1,176.9,72,177,71.6,177.1"/>
</g>
<g id="inner">
	<path class="st1" d="M57,243.1c0.5,0.1,1,0.3,1.3,0.4"/>
	<path class="st1" d="M110.5,262.9c0.3,0,0.5,0,0.8-0.1c0.6-0.1,1.2-0.1,1.7-0.2c0.5-0.1,0.9-0.1,1.2-0.2c0.3-0.1,0.5-0.2,0.7-0.3
		c0.2-0.1,0.4-0.3,0.5-0.3c0.1-0.1,0.2-0.1,0.2-0.5c0-0.3,0.1-0.9,0-1.6c-0.1-0.7-0.2-1.6-0.3-2.6c-0.1-1.1-0.2-2.3-0.1-3.3
		c0.1-1,0.4-1.7,0.5-2.5"/>
	<path class="st1" d="M59.7,246.2c-0.1,0.1-0.2,0.1-0.3,0.2c-0.4,0.2-1.1,0.4-1.8,0.6c-0.6,0.1-1.2,0.2-1.9,0.3
		c-0.7,0.1-1.5,0.2-2.3,0.4c-0.8,0.1-1.4,0.3-2.2,0.4c-0.8,0.1-1.6,0.2-2.3,0.4c-0.7,0.2-1.3,0.4-2.1,0.7"/>
	<path class="st1" d="M108.4,231.9c-0.1,0.1-0.2,0.2-0.2,0.3c-0.4,0.4-0.6,0.7-0.7,1c-0.1,0.2-0.1,0.4-0.1,0.6c0,0.2,0.1,0.3,0,0.4
		c-0.1,0.1-0.3,0.2-0.6,0.2c-0.2,0-0.5,0-0.7-0.1c-0.2-0.1-0.4-0.1-0.7,0c-0.2,0.1-0.4,0.3-0.6,0.5c-0.2,0.2-0.4,0.4-0.8,0.7
		c-0.4,0.3-0.8,0.6-1.2,0.8c-0.3,0.3-0.6,0.4-0.9,0.7c-0.3,0.2-0.6,0.4-0.9,0.6"/>
	<line class="st1" x1="34.9" y1="24.3" x2="34.4" y2="25.5"/>
	<path class="st1" d="M20.6,20.9c0.7,0.1,1.2,0.3,1.7,0.6"/>
	<path class="st1" d="M56.4,44.1c0-0.2,0.1-0.5,0.2-0.7c0.1-0.3,0.3-0.5,0.4-0.7c0,0,0.1-0.1,0.1-0.1"/>
	<path class="st1" d="M22.5,22.2c-0.8-0.1-1.1-0.2-1.3-0.3c-0.2-0.1-0.3-0.1-0.5-0.1c-0.1,0-0.3-0.1-0.4-0.2
		c-0.1-0.1-0.2-0.1-0.3-0.2"/>
	<path class="st1" d="M34.9,24.3c0.7-1.6,1-2,1.3-2.2c0.3-0.2,0.6-0.3,0.9-0.4c0.3-0.1,0.6-0.1,1,0c0.3,0,0.6,0.1,1,0.5
		c0.3,0.3,0.6,0.9,0.8,2.6"/>
	<path class="st1" d="M33.6,33.2c1.5-0.9,2.8-1.3,4-1.9c1.3-0.7,2.5-1.5,3.7-2.1c1.2-0.5,2.5-0.8,3.8-0.9c1.3-0.1,2.7-0.1,3.9-0.2
		c1.2-0.1,2.3-0.2,3.1-0.2c0.3,0,0.6,0,0.9,0"/>
	<path class="st1" d="M15.4,55.1c0.4-0.8,1-2,1.8-3.5c1.1-2,2.5-4.8,4.2-7.3c1.8-2.5,3.9-4.6,5.9-6.5c2.1-1.8,4.1-3.4,5.8-4.4
		c0.1-0.1,0.2-0.1,0.3-0.2"/>
	<path class="st1" d="M69.4,178.8c-0.1-0.4-0.2-1-0.4-2.2c-0.2-1.6-0.6-4.1-1-6.4c-0.4-2.2-0.9-4.1-1.3-6.1c-0.4-2-0.7-4-1-6.3
		c-0.3-2.3-0.5-5-0.4-6.9c0.1-1.8,0.6-2.9,1-3.9c0-0.1,0.1-0.2,0.1-0.3"/>
	<path class="st1" d="M44.2,242.8C44.2,242.8,44.2,242.8,44.2,242.8c0.2-0.2,0.5-0.4,1.7-1.4"/>
	<path class="st1" d="M20.3,33c-0.4-0.4-0.5-0.5-0.5-0.6c0,0,0-0.1-0.1-0.1"/>
	<path class="st1" d="M20.3,115.8c-0.8-1.2-1-3.2-0.5-5.9"/>
	<path class="st1" d="M74.5,184.2c-0.1,0.1-0.1,0.1-0.2,0.2c-0.4,0.3-1,0.8-1.5,1.1c-0.6,0.3-1.1,0.4-1.6,0.6
		c-0.5,0.2-0.8,0.4-1.3,0.7c-0.5,0.3-1.1,0.8-1.7,1.2c-0.6,0.4-1.1,0.9-1.8,1.2c-0.7,0.3-1.5,0.5-3.1,1.2"/>
	<path class="st1" d="M51.1,274.6c2-0.2,3.4-0.1,4,0"/>
	<path class="st1" d="M66.6,68.6c-0.2-0.7-0.5-1.5-0.8-2.5c-0.5-1.5-1.2-3.3-1.7-5.6"/>
	<path class="st1" d="M27.4,98.4c0.1-0.9,0.1-1.2,0.1-1.5c0-0.3,0-0.6,0.1-0.9c0.1-0.2,0.3-0.4,0.6-0.6c0.3-0.2,0.5-0.3,0.8-0.4
		c0.2-0.1,0.4-0.2,1-0.3c0.6-0.1,1.6-0.1,2.4-0.1c0.9,0,1.7,0.2,2.5,0.3c0.8,0.1,1.6,0.3,2.6,0.5c1,0.2,2.1,0.3,3.7,0"/>
	<path class="st1" d="M34.9,24.3c-1.6,0.1-2.3,0.1-2.8,0c-0.5-0.1-0.7-0.3-1-0.5c-0.3-0.2-0.6-0.5-0.9-0.7c-0.3-0.2-0.6-0.3-0.8-0.4
		c-0.3-0.1-0.6-0.2-0.9-0.4c-0.3-0.2-0.6-0.6-0.9-0.9c-0.3-0.3-0.6-0.6-0.8-0.7c-0.3-0.2-0.6-0.3-0.8-0.5c-0.3-0.2-0.5-0.4-0.7-0.7
		c-0.2-0.3-0.4-0.7-0.7-1c-0.3-0.3-0.7-0.4-1.1-0.5c-0.3-0.1-0.6,0-0.9,0c-0.3,0-0.6-0.1-0.9-0.2c-0.3-0.2-0.5-0.5-0.7-0.8
		c-0.2-0.4-0.3-0.9-0.3-1.3c-0.1-0.4-0.1-0.9-0.3-1.3c-0.3-0.4-0.8-0.8-1.1-1.1c-0.1-0.1-0.2-0.2-0.2-0.4"/>
	<path class="st1" d="M63.8,58.2c-0.1-1-0.3-1.7-0.4-2.2"/>
	<path class="st1" d="M68.4,105.9c1.1,0,1.2-0.7,1.5-1.5c0.2-0.7,0.3-1.8-0.7-1.8c-1.1,0-1.2,0.7-1.5,1.5
		C67.6,104.7,67.5,105.8,68.4,105.9z"/>
	<path class="st1" d="M44.4,100.5c-0.7,2.2-0.6,2.9-0.6,3.4c0.1,0.7,0.2,1.3,0.2,1.8c0,0.5-0.1,0.9-0.3,1.3
		c-0.2,0.4-0.4,0.7-0.7,0.9c-0.3,0.2-0.5,0.3-0.8,0.4c-0.2,0.1-0.4,0.1-0.6,0.2c-0.2,0-0.3,0.1-0.5,0.1c-0.2,0-0.3,0.1-0.8,0.2
		c-0.4,0.1-1.1,0.4-2.9,1.2"/>
	<path class="st1" d="M31.2,120.6c-0.6,1-0.8,1.4-1,1.7c-0.2,0.4-0.3,0.7-0.5,1c-0.2,0.2-0.5,0.4-0.8,0.6c-0.3,0.2-0.5,0.3-0.7,0.6
		c-0.2,0.3-0.4,0.6-0.6,0.9c-0.2,0.3-0.3,0.6-0.3,0.8c-0.1,0.2-0.1,0.3-0.2,0.5c-0.1,0.2-0.4,0.4-0.6,0.6c-0.2,0.1-0.3,0.2-0.6,0.2
		c-0.3,0-0.8,0-1.4,0c-0.6,0-1.4-0.1-2.1-0.1c-0.8,0-1.5,0.1-2.1,0.3c-0.6,0.1-1.1,0.3-1.5,0.4c-0.5,0.1-0.9,0.2-3.1-0.2"/>
	<path class="st1" d="M34.4,117.5c-0.6,1.6-1,2-1.2,2.3c-0.3,0.3-0.6,0.6-1.1,0.7c-0.5,0.1-1.2,0.2-2.1,0.3
		c-0.9,0.1-1.8,0.2-2.7,0.2c-0.9,0-1.8-0.1-2.6-0.3c-0.8-0.2-1.6-0.4-2.4-0.8c-0.8-0.3-1.6-0.7-3.3-1.6"/>
	<path class="st1" d="M94.6,234.2c0,0.1,0.1,0.1,0.2,0.1c0.1,0.1,0.3,0.1,0.7,0.2"/>
	<line class="st1" x1="97.1" y1="233.4" x2="95.4" y2="234.5"/>
	<polyline class="st1" points="18.6,82.3 18.7,81 18.5,80.3 	"/>
	<path class="st1" d="M53.6,10.3c0.1,0.5-0.1,0.9-0.2,1.2c-0.2,0.3-0.4,0.6-0.4,1c0,0.4,0.2,0.9,0.5,1.4c0.3,0.6,0.7,1.2,1.1,1.8
		c0.3,0.6,0.6,1.1,1,1.3c0,0,0.1,0,0.1,0"/>
	<path class="st1" d="M72.1,191.6c2.8-2.5,3.5-3,4-3.3c0.1,0,0.1-0.1,0.2-0.1"/>
	<path class="st1" d="M54.6,201.2c-0.2,0.1-0.6,0.2-1,0.2c-0.4,0.1-0.9,0.1-1.5,0.3c-0.6,0.2-1.3,0.5-2,0.8
		c-0.7,0.3-1.2,0.6-1.9,0.8c-0.6,0.2-1.3,0.3-1.8,0.3c-0.5,0.1-0.9,0.1-1.7,0.3c-0.8,0.2-2.1,0.5-3.3,0.8c-1.3,0.3-2.5,0.6-3.3,0.7
		c-0.5,0.1-0.8,0.1-1,0.1"/>
	<path class="st1" d="M33.9,193c0.3,0,0.7,0.1,1.2,0.3c0.5,0.2,1,0.4,1.8,0.5c0.8,0.2,1.7,0.4,2.5,0.5c0.8,0.1,1.4,0.2,2.6,0.1
		c1.2-0.1,2.9-0.2,5.4-0.9"/>
	<path class="st1" d="M36.9,198.8c3.9,1.1,5,1.3,6,1.4c1,0,1.9-0.1,2.6-0.3c0.7-0.2,1.4-0.5,2.2-0.9c0.8-0.4,1.8-0.9,2.8-1.3
		c1-0.4,1.9-0.8,3.5-1.4"/>
	<path class="st1" d="M13.2,131.3c-0.1,0-0.1,0-0.2,0.1c-0.1,0.1-0.2,0.2-0.2,0.3c-0.1,0.1-0.1,0.2-0.1,0.4c0,0.2,0,0.4,0,0.6
		c0,0.2,0.1,0.4,0.1,0.7c0,0.2,0,0.4,0,0.6c0,0.2-0.1,0.5-0.1,0.9c0,0.4-0.1,1-0.1,1.6c-0.1,0.6-0.2,1.1-0.3,1.7
		c0,0.6,0,1.2,0.1,1.7c0.1,0.5,0.2,1,0.3,1.5c0.1,0.5,0.1,1,0,1.4c0,0.5-0.1,0.9-0.1,1.3c0,0.4,0,0.7,0,1.2c0.1,0.5,0.3,1.1,0.4,1.6
		c0.2,0.5,0.4,0.8,0.7,1.1c0.3,0.3,0.6,0.6,1.1,0.9c0.4,0.3,1,0.6,1.6,1.2c0.6,0.6,1.4,1.4,2,2c0.6,0.6,1,1.1,1.6,1.6
		c0.6,0.5,1.4,1,2.1,1.4c0.6,0.4,1.1,0.7,1.3,0.8c0.2,0.1,0.3,0.1,0.6,0c0.3-0.1,0.9-0.3,1.3-0.5c0.4-0.2,0.6-0.5,0.8-0.9
		c0.2-0.4,0.3-0.8,0.4-1.4c0.1-0.6,0.3-1.3,0.4-2.1c0.1-0.7,0.2-1.4,0.2-2.3c0-0.9-0.2-1.8-0.3-2.7c-0.1-0.9-0.2-1.7-0.3-2.6
		c-0.1-0.9-0.2-2-0.2-3.3c-0.1-1.3-0.1-2.8,0-4.7c0.1-1.9,0.2-4.2,0.3-5.4c0.1-1.2,0.1-1.4,0-1.5c0-0.2,0-0.4-0.4-0.4
		c-0.3,0-0.9,0.1-1.5,0.2"/>
	<path class="st1" d="M40.3,217.2c1.4,0.7,2.2,0.8,2.9,0.8c0.7,0,1.2-0.1,1.7-0.3c0.5-0.2,0.9-0.4,1.4-0.5c0.5-0.1,1.1-0.2,1.8-0.4
		c0.7-0.2,1.4-0.4,2.1-0.8c0.7-0.3,1.3-0.7,3.1-1.3"/>
	<path class="st1" d="M68.8,205c0.3-0.1,0.8-0.2,1.5-0.6c1-0.6,2.4-1.6,3.6-2.4c1.3-0.8,2.4-1.2,3.3-1.7c0.9-0.5,1.6-1,2.2-1.8
		c0.6-0.8,1.3-1.9,1.7-2.5c0.1-0.2,0.3-0.4,0.4-0.6"/>
	<path class="st1" d="M31.1,44.7c0.8,2.1,1.2,2.2,1.4,2.3c0.2,0,0.4-0.1,0.7-0.2c0.3-0.2,0.7-0.4,1.1-0.7c0.4-0.3,0.9-0.7,1.4-1.3
		c0.5-0.5,1.1-1.1,2.3-1.9c1.2-0.8,3-1.8,4.2-2.4c1.2-0.6,2-0.9,2.7-1.1c0.7-0.2,1.5-0.3,2.6-0.5c1.1-0.1,2.5-0.3,3.8-0.2
		c1.3,0,2.4,0.2,3.2,0.5c0.8,0.3,1.2,0.6,1.7,1.2c0.6,0.7,1.3,1.7,1.1,2.3"/>
	<path class="st1" d="M22.1,63.7c0.3-0.8,0.6-1.6,0.9-2.5c0.4-1,0.8-2.1,1.2-3.1c0.4-1,0.8-1.8,1.1-2.5c0.3-0.7,0.6-1.3,0.9-1.9
		c0.3-0.6,0.5-1.2,0.7-1.7c0.2-0.5,0.3-1,0.5-1.4c0.2-0.5,0.4-1,0.6-1.5c0.2-0.5,0.4-0.8,0.6-1.1c0.2-0.3,0.3-0.5,0.5-0.8
		c0.2-0.3,0.4-0.6,0.5-0.8c0.2-0.2,0.3-0.3,0.4-0.4c0.1,0,0.2,0.1,0.3,0.2c0.1,0.2,0.1,0.4,0.2,0.7c0.1,0.3,0.2,0.8,0.3,1.2
		c0.1,0.5,0.1,1,0,1.7c-0.1,0.6-0.3,1.3-0.4,1.9c-0.1,0.6-0.2,1.1-0.2,1.6c0,0.5-0.1,0.9-0.2,1.3c-0.1,0.4-0.2,0.9-0.4,1.4
		c-0.2,0.5-0.4,1-0.6,1.6c-0.3,0.6-0.6,1.2-1.1,2c-0.5,0.8-1,1.8-1.5,2.7c-0.5,0.9-0.9,1.6-1.4,2.4c-0.5,0.8-1.2,1.7-1.7,2.5
		c-0.6,0.9-1.1,1.7-1.6,2.8c-0.6,1.2-1.2,2.7-1.8,4.5c-0.6,1.8-1,3.9-1.5,6.2c-0.1,0.3-0.2,0.7-0.3,1"/>
	<path class="st1" d="M40.7,108.6c-1.3,1.6-1.5,2-1.8,2.4c-0.3,0.5-0.8,1-1.2,1.8c-0.4,0.8-0.9,1.8-1.2,2.5c-0.3,0.7-0.5,1-0.6,1.3
		c-0.1,0.3-0.2,0.5-0.4,0.6c-0.2,0.1-0.4,0.2-0.7,0.2c-0.3,0-0.6,0-1-0.1c-0.4-0.1-0.8-0.4-1.2-0.6c-0.4-0.3-0.9-0.5-1.3-0.8
		c-0.4-0.3-0.9-0.5-1.3-0.9c-0.4-0.4-0.7-0.8-1.2-1.4c-0.4-0.6-0.9-1.3-2.5-2.3"/>
	<path class="st1" d="M38,48.4c1.6-1.6,3.5-2.2,4.8-2.5c1.4-0.3,2.3-0.3,3.1-0.1c0.9,0.2,1.7,0.6,2.7,1.7c1,1.1,2.1,2.9,2.9,4.4
		c0.7,1.5,1.1,2.5,1.5,3.8c0.4,1.3,0.8,2.8,0.9,4.2c0.2,1.4,0.2,2.8,0.1,3.8c-0.1,1-0.4,1.8-0.5,2.5c-0.2,0.7-0.3,1.3-1,2.5
		c0,0,0,0,0,0.1"/>
	<path class="st1" d="M97.1,233.4c1.7-1.2,2.4-1.8,2.9-2.2c0.5-0.4,0.8-0.8,1-1.2c0.2-0.3,0.4-0.6,0.6-0.8c0.1-0.2,0.3-0.3,0.4-0.4
		c0.1-0.1,0.2-0.1,0.2-0.2c0-0.1,0-0.2,0-0.4c0-0.1,0-0.3,0-0.4c0-0.1,0.1-0.2,0.3-0.2c0.2-0.1,0.4-0.1,0.6-0.1
		c0.2,0,0.4,0.1,0.6,0.1c0.1,0,0.2-0.1,0.3-0.2c0.1-0.1,0.3-0.3,0.5-0.4c0.2-0.1,0.5-0.3,0.8-0.4c0.2-0.2,0.4-0.4,0.5-0.7
		c0.2-0.3,0.3-0.5,0.2-0.6c-0.1-0.1-0.4-0.2-0.5-0.2c-0.1,0-0.1-0.1-0.1-0.1"/>
	<line class="st1" x1="108.4" y1="231.9" x2="108.4" y2="231.9"/>
	<path class="st1" d="M51.2,251.5c3.2,1,5.7,1.6,7,0.7"/>
	<path class="st1" d="M72.7,208.6c0.3-0.1,0.6-0.2,0.9-0.5c0.4-0.3,1-0.9,2.8-2.1"/>
	<path class="st1" d="M55.1,278.7c0.3-1.1,0-2.2,0-3.4c0-1.1,0.2-2.3,0.7-3.3c0.5-1,1.3-1.8,5.6-4.4"/>
	<path class="st1" d="M121.4,254.2c-5.6-2-5.6-2.4-5.8-3.3c-0.2-0.8-0.7-2.1-1-3.2c-0.2-1.2-0.1-2.2,0.3-4.2c0.4-2,1-4.8,0.7-6.4"/>
	<path class="st1" d="M53.7,181c-0.2,3.8-0.1,5.3-0.1,6.3"/>
	<line class="st1" x1="94.6" y1="234.2" x2="94.6" y2="234.2"/>
	<path class="st1" d="M21.5,23.3c1,0,1.4-0.1,1.6-0.3c0.2-0.1,0.2-0.3,0-0.5"/>
	<path class="st1" d="M38.7,24.9c-0.2-1.2-0.4-1.7-0.7-2.1c-0.3-0.4-0.6-0.6-1.2-0.4"/>
	<line class="st1" x1="44.2" y1="252.8" x2="44.2" y2="252.8"/>
	<path class="st1" d="M51.1,274.6c-5.2,0.2-7.6,0.6-9.3,1c-1.7,0.4-2.5,0.8-3.1,0.9c-0.6,0.1-0.8,0-1.1-0.6
		c-0.3-0.6-0.5-1.6-0.9-2.4c-0.4-0.8-0.9-1.4-1.1-1.8c-0.1-0.2-0.2-0.3-0.2-0.3"/>
	<path class="st1" d="M20.8,20.9c-0.1,0.3-0.1,0.5-0.1,0.6c0,0.1,0,0.2,0.1,0.3"/>
	<path class="st1" d="M45,251.4c0.5-0.1,1.4-0.3,4.2-0.6"/>
	<line class="st1" x1="18.1" y1="84.6" x2="18.6" y2="82.3"/>
	<path class="st1" d="M63.1,276.2c0,0.5-0.1,0.7-0.3,0.9c-0.2,0.3-0.5,0.4-1.5,0.7c-1,0.2-2.7,0.5-4.2,0.7c-1.6,0.2-3.1,0.2-4.6,0.4
		c-1.5,0.2-3,0.6-4.2,1c-1.2,0.4-2.1,0.8-3.2,1.2c-1.1,0.4-2.5,0.7-3.7,0.9c-1.3,0.2-2.5,0.3-4.3,0.3c-1.8-0.1-4.2-0.3-6.4-0.5
		c-2.2-0.2-4.2-0.4-5.7-0.7c-1.5-0.2-2.3-0.5-2.9-0.7c-0.6-0.2-0.9-0.5-0.9-0.9c0-0.2,0-0.4,0.1-0.7"/>
	<path class="st1" d="M52.9,62.7c-2.2-2.3-2.7-1-2.4,0.7c0.3,1.7,1.4,3.9,2,5.5c0.6,1.6,0.6,2.8,0.6,4.2c-0.1,1.5-0.3,3.3-0.6,4.9
		c-0.4,1.6-0.8,3-1.2,3.9c-0.3,0.9-0.5,1.3-0.8,1.7c-0.2,0.4-0.5,0.7-0.7,1.3c-0.2,0.6-0.2,1.3-0.2,2c0,0.7-0.1,1.3-0.2,1.9
		c-0.1,0.5-0.3,1-0.5,1.3c-0.2,0.4-0.5,0.6-1.1,1c-0.6,0.3-1.6,0.7-4.1,1.4"/>
	<path class="st1" d="M30,178.1c0.2,0.1,0.5,0.1,0.7,0.2c1.1,0.3,2.1,0.7,3.2,1c1,0.3,2,0.4,3.4,0.6c1.4,0.2,3.2,0.4,4.6,0.5
		c1.4,0.1,2.6,0.2,4,0.3c1.4,0.1,3.1,0.2,4.8,0.3c1.7,0,3.3,0,5-0.1c1.8-0.1,3.7-0.2,5.5-0.2c1.8-0.1,3.5-0.2,4.6-0.2
		c1.2-0.1,1.8-0.1,2.3-0.1c0.5,0,0.7-0.1,0.9-0.2c0.2-0.1,0.3-0.2,0.3-0.3c0-0.1,0-0.3,0-0.7c0-0.1,0-0.2-0.1-0.4"/>
	<path class="st1" d="M101.1,237.5c-0.7,0.8-1.2,1.5-1.7,2.1"/>
	<path class="st1" d="M46.6,91.6c0.9,1.7,1.1,2.2,1.2,2.6c0.2,0.5,0.3,1,0.4,1.5c0.1,0.5,0.1,1,0.1,1.6c0,0.5-0.1,1.1-0.3,1.5
		c-0.2,0.4-0.4,0.6-0.7,0.8c-0.3,0.2-0.6,0.4-1.1,0.6c-0.5,0.2-1.2,0.3-2,0.4c-0.8,0.1-1.8,0.1-2.9,0.2c-1.1,0.1-2.4,0.1-3.6,0.2
		c-1.2,0-2.5,0.1-3.8,0c-1.3,0-2.7-0.1-3.8-0.1"/>
	<path class="st1" d="M14.5,118.8c0.2-1.9,0.5-2.5,0.7-3.1c0.2-0.5,0.4-1,0.7-1.4c0.3-0.4,0.5-0.7,0.9-1.1c0.4-0.4,0.8-0.8,1.2-1.2
		c0.4-0.4,0.6-0.9,0.8-1.2c0.2-0.4,0.4-0.7,0.5-0.9c0.2-0.2,0.3-0.3,0.4-0.4c0.2-0.1,0.3-0.2,0.5-0.2c0.1,0,0.2-0.1,0.3-0.1
		c0.1,0,0.3,0,0.5,0"/>
	<path class="st1" d="M61.6,104.4c1.1-0.1,1.1-0.8,1.3-1.6c0.1-0.7,0.1-1.8-0.9-1.7c-1.1,0.1-1.1,0.8-1.3,1.6
		C60.6,103.3,60.6,104.5,61.6,104.4z"/>
	<path class="st1" d="M20.5,109.1c0.3-0.7,0.5-1,0.6-1.2c0.2-0.2,0.3-0.3,0.5-0.3c0.1,0,0.2-0.1,0.2-0.2c0-0.1,0-0.4,0-0.6
		s0-0.4,0.1-0.8c0.1-0.3,0.2-0.7,0.4-1.1c0.2-0.4,0.4-0.8,0.5-1c0.2-0.3,0.3-0.4,0.4-0.7c0.1-0.3,0.3-0.7,0.4-1
		c0.1-0.4,0.2-0.7,0.4-0.9c0.2-0.2,0.4-0.4,0.6-0.5c0.2-0.1,0.4-0.3,0.6-0.4c0.2-0.1,0.4-0.2,0.5-0.2"/>
	<path class="st1" d="M59.8,253.1c-0.1,0.3-0.2,0.5-0.3,0.7c-0.2,0.3-0.5,0.5-0.8,0.8c-0.3,0.3-0.6,0.6-0.8,0.8
		c-0.2,0.3-0.2,0.5-0.4,0.7c-0.2,0.2-0.6,0.2-1,0.2c-0.4,0-0.8-0.1-1.2-0.3c-0.4-0.2-0.9-0.4-1.3-0.6c-0.4-0.2-0.8-0.5-1.2-0.7
		c-0.4-0.2-0.9-0.4-1.4-0.6c-0.5-0.2-0.9-0.3-1.3-0.4c-0.5-0.1-1-0.2-1.4-0.3c-0.5-0.1-0.9-0.1-1.3-0.1c-0.4,0-0.9-0.1-1.2-0.1
		c-0.3,0-0.5,0-0.7-0.1c-0.3-0.1-0.6-0.1-0.8-0.2c-0.1,0-0.1,0-0.2-0.1"/>
	<path class="st1" d="M21,35.4c0.7-0.5,1.4-0.9,2-1.3c1.2-0.7,2.2-1.2,3.5-2c1.3-0.8,2.9-2.1,4-2.9c1.1-0.8,1.5-1.2,2.1-1.7
		c0.5-0.4,1.1-0.9,1.9-1.3c0.8-0.4,1.8-0.7,2.9-1c1.1-0.3,2.3-0.4,3.8-0.5c1.4-0.1,3.1,0,4.7,0.1c1.6,0.1,3,0.4,4.1,0.5
		c1,0.1,1.8,0.2,2.3,0.4"/>
	<path class="st1" d="M20.8,29c0.1,1,0,1.2-0.1,1.3c-0.1,0.1-0.2,0.2-0.2,0.2c-0.1,0-0.1,0-0.4-0.1c-0.1,0-0.1-0.1-0.2-0.1"/>
	<path class="st1" d="M19,20.3c0,0,0.1-0.1,0.1-0.1c0.2-0.2,0.5-0.5,0.8-0.7c0.3-0.2,0.5-0.2,0.6-0.3c0.1,0,0.2-0.1,0.2-0.2
		c0-0.1-0.1-0.1-0.2-0.2c-0.1-0.1-0.2-0.1-0.4-0.1c-0.2,0-0.4,0.1-0.7,0.3c-0.3,0.2-0.5,0.4-0.7,0.5c0,0-0.1,0-0.1,0.1"/>
	<path class="st1" d="M69.4,178.8c1.2-0.9,1.9-1.4,2.3-1.6"/>
	<path class="st1" d="M102.1,221c-0.2,0-0.4,0-0.6,0c-0.5,0-0.9,0.1-1.8,0.1c-0.9,0-2.3-0.2-3.7-0.8"/>
	<path class="st1" d="M65.1,112.8c-0.1-0.6-0.2-1.2-0.4-1.9c-0.2-1.1-0.5-2.3-0.7-3.8"/>
	<path class="st1" d="M33.1,189.7c0.2-0.2,0.4-0.3,1.1-0.6"/>
	<path class="st1" d="M58.8,240.1c-0.3,0.4-0.6,0.9-1,1.4"/>
	<path class="st1" d="M18.1,84.6c-0.6,2.7-0.6,3.8-0.6,4.7c0,0.9,0.1,1.6,0.2,2.3c0.1,0.7,0.1,1.3,0.1,1.9c0,0.6-0.1,1.1-0.2,1.7
		c-0.1,0.5-0.3,1-0.4,1.6c-0.2,0.6-0.4,1.2-0.7,2.7c-0.4,1.4-0.9,3.7-1.2,5.1c0,0,0,0,0,0.1"/>
	<path class="st1" d="M12.5,136.9c-1.7,3.7-2.4,6.2-2.8,8.6c-0.6,3.2-0.9,6.3-1.2,9.4c-0.3,3.1-0.4,6-0.6,8.3
		c-0.1,2.3-0.2,3.9-0.2,5c0,0.2,0,0.4,0,0.6"/>
	<path class="st1" d="M20.3,33C20.3,33,20.3,33,20.3,33c0.3,0,0.5,0,0.8,0.1c0.2,0.1,0.5,0.2,0.6,0.3c0.1,0.1,0.2,0.1,0.3,0.2
		c0,0,0.1,0.1,0,0.1c-0.1,0-0.2,0.1-0.5,0.1c-0.3,0-0.6,0-0.9-0.1"/>
	<path class="st1" d="M54.9,31.2c-0.6-0.3-1.2-0.6-1.9-0.8c-0.8-0.3-1.5-0.4-2.4-0.3c-0.9,0.1-2,0.4-3.5,0.8
		c-1.5,0.4-3.3,0.8-5.2,1.4c-1.9,0.5-3.9,1.2-5.7,2c-1.9,0.8-3.6,1.8-4.7,2.5c-1.1,0.7-1.5,1.1-1.8,1.4c-0.2,0.4-0.3,0.7-0.3,1.1
		c0,0.4-0.1,0.9,0.1,1.5c0.2,0.6,0.5,1.3,0.7,1.8c0.2,0.5,0.4,0.9,0.6,1.2c0.1,0.4,0.3,0.7,0.3,1.1c0,0.3,0,0.5-0.6,1.5"/>
	<path class="st1" d="M25.2,127.5c-0.4,0.7-0.6,1-1,1.2c-0.4,0.3-1,0.4-1.6,0.7c-0.6,0.2-1.4,0.5-1.9,0.8c-0.5,0.2-0.9,0.4-1.1,0.6
		c-0.2,0.1-0.3,0.2-0.5,0.2c-0.2,0.1-0.5,0.2-0.8,0.3c-0.3,0.1-0.7,0.3-0.9,0.4c-0.2,0.1-0.4,0.1-0.6,0.1c-0.2,0-0.6,0-0.9,0
		c-0.3,0-0.6,0-0.9,0c-0.3,0-0.6,0-0.9,0c-0.3,0-0.5-0.1-0.7-0.3c-0.2-0.1-0.4-0.3-0.7-0.5c-0.2-0.2-0.5-0.5-0.6-0.8
		c-0.2-0.3-0.3-0.5-0.4-0.8c-0.1-0.3-0.2-0.7-0.3-1c-0.1-0.3-0.2-0.5-0.3-0.7"/>
	<path class="st1" d="M20.1,34.4c0,0,0.1,0,0.2,0c0.2-0.1,0.7-0.2,1.6-0.7"/>
	<path class="st1" d="M15.8,47.2c0.2-0.2,0.3-0.3,0.4-0.5c0.6-0.7,1.1-1.3,1.8-2.3c0.7-1,1.8-2.4,3.6-4.2c1.8-1.8,4.5-4,11.9-7"/>
	<path class="st1" d="M38.5,208.5c0.1,0,0.1,0,0.2,0c0.5,0.1,1.2,0.1,5.2-0.8"/>
	<path class="st1" d="M26,101.6c-0.4-1.2-0.4-1.6-0.3-1.9c0-0.3,0.2-0.6,0.3-0.8c0.2-0.2,0.4-0.4,0.5-0.5c0.2-0.1,0.3-0.2,0.5-0.3
		c0.2-0.1,0.3-0.2,0.4-0.2"/>
	<path class="st1" d="M39.7,93.2c-3.4-1.5-4.6-2.1-5.5-2.4c-0.9-0.3-1.6-0.5-2.1-0.6c-0.5-0.1-0.8-0.2-1.1-0.3
		c-0.3-0.1-0.6-0.3-0.7-0.5c-0.2-0.2-0.2-0.3-0.2-0.5c0-0.2-0.1-0.4-0.1-0.6c0-0.3,0-0.6,0.1-1.3c0.1-0.7,0.2-1.8,0.3-2.4
		c0.1-0.6,0.2-0.7,0.3-0.9c0.1-0.1,0.2-0.3,0.3-0.7c0.1-0.3,0.1-0.8,0.1-1.3c0-0.5-0.1-0.9-0.2-1.5c-0.1-0.6-0.3-1.4-0.3-2
		c-0.1-0.7-0.1-1.3,0.1-3.6c0.1-2.3,0.4-6.4,0.8-9.6c0.4-3.2,1-5.5,1.6-7.6c0.6-2,1.2-3.7,1.9-5.1c0.7-1.3,1.5-2.3,3.2-3.9"/>
	<path class="st1" d="M67.2,99.6c-0.5,0-1-0.1-1.5-0.2c-0.6-0.2-1.2-0.4-1.9-0.6c-0.7-0.2-1.5-0.3-2.1-0.3c-0.6,0-0.8,0.1-1,0.3
		c-0.2,0.2-0.4,0.4-0.6,0.8c-0.2,0.4-0.4,0.9-0.5,1.4c-0.1,0.5-0.2,1-0.1,1.7c0.1,0.7,0.3,1.5,0.5,2.1c0.2,0.6,0.3,0.9,0.7,1.2
		c0.3,0.3,0.9,0.5,1.5,0.7c0.7,0.2,1.5,0.3,2.1,0.4c0.6,0.1,0.9,0.1,1.3,0.2c0.3,0.1,0.7,0.1,1,0.2"/>
	<path class="st1" d="M54.4,203.2c-0.1,0.1-0.2,0.1-0.3,0.2c-0.4,0.2-1.1,0.3-1.9,0.5c-0.8,0.2-1.9,0.5-2.7,0.8
		c-0.8,0.3-1.4,0.6-2.1,0.9c-0.7,0.3-1.4,0.5-2.4,0.8c-1,0.3-2.2,0.6-3.9,1"/>
	<path class="st1" d="M29.6,94.8c-0.4-0.9-0.6-1.4-0.7-1.8c-0.2-0.5-0.3-0.9-0.2-1.2c0-0.4,0.2-0.7,0.4-1c0.2-0.3,0.4-0.4,0.7-0.6
		c0.3-0.1,0.6-0.2,0.8-0.2c0.2,0,0.3-0.1,0.5-0.1"/>
	<path class="st1" d="M39.3,211.3C39.3,211.3,39.3,211.3,39.3,211.3c0.3,0.2,0.7,0.4,1.1,0.4c0.4,0,1,0,1.7-0.1c0.7,0,1.6,0,2.6,0.1
		c0.9,0.1,1.9,0.1,3.1,0.2c1.2,0.1,2.6,0.2,4.5-0.3"/>
	<path class="st1" d="M112.2,276.8c0.4,0.5,0.7,0.5,1.1,0.4c0.3-0.1,0.7-0.3,1.3-1.1c0.6-0.7,1.6-1.9,2.3-3.1c0.8-1.1,1.4-2.1,1.8-3
		c0.5-0.8,0.8-1.4,1-2c0.2-0.6,0.4-1.2,0.6-2.2c0.2-1,0.5-2.4,0.8-3.8c0.3-1.4,0.5-3,0.6-4c0.1-1.1,0.1-1.7,0-2.4
		c-0.1-0.6-0.3-1.2-0.3-1.7c-0.1-0.5-0.1-1,0-1.6c0.1-0.6,0.5-1.4,0.9-2.7c0.5-1.3,1.1-3.2,1.5-4.5c0.4-1.3,0.7-2,0.9-2.8
		c0.2-0.8,0.2-1.7,0.2-2.3c0-0.6-0.2-1.1-0.5-1.4c-0.1-0.1-0.2-0.2-0.3-0.2"/>
</g>
</svg>
