<?xml version="1.0" encoding="utf-8"?>
<!-- Generator: Adobe Illustrator 21.0.0, SVG Export Plug-In . SVG Version: 6.00 Build 0)  -->
<svg version="1.1" xmlns="http://www.w3.org/2000/svg" xmlns:xlink="http://www.w3.org/1999/xlink" x="0px" y="0px"
	 viewBox="0 0 90.3 284.5" style="enable-background:new 0 0 90.3 284.5;" xml:space="preserve">
<style type="text/css">
	.st0{fill:#FFFFFF;stroke:#000000;stroke-linecap:round;stroke-linejoin:round;}
	.st1{fill:none;stroke:#000000;stroke-width:0.15;stroke-linecap:round;stroke-linejoin:round;}
</style>
<g id="Layer_3">
</g>
<g id="OUTER">
	<path class="st0" d="M89.7,99.4c-0.1-1.3-0.1-2.6-0.3-3.8c-0.2-1.2-0.4-2.2-0.7-3.7c-0.3-1.4-0.5-3.3-0.8-4.8
		c-0.3-1.5-0.7-2.6-1.2-4.1c-0.5-1.5-1.1-3.3-1.9-5.7c-0.8-2.4-1.7-5.3-2.3-7.5c-0.6-2.2-0.8-3.8-1.2-5.5c-0.4-1.7-1.1-3.5-2-5.5
		c-0.9-2.1-2.1-4.4-2.8-5.8c-0.7-1.4-1-1.8-1.3-2.3c-0.3-0.5-0.7-1.1-1.1-1.5c-0.4-0.4-0.9-0.6-1.5-0.8c-0.6-0.2-1.4-0.5-2-0.8
		c-0.6-0.3-1-0.5-1.4-0.6c-0.4-0.1-0.9,0-1.9-0.1c-1,0-2.4-0.2-3.3-0.2c-0.9-0.1-1.3-0.1-1.9-0.2c-0.5-0.1-1.2-0.2-1.7-0.3
		c-0.5-0.1-0.7-0.2-1-0.3c-0.3-0.1-0.5-0.2-0.7-0.2c-0.2,0-0.4,0-0.5,0c-0.2,0-0.4,0-0.6,0c-0.2,0-0.3,0-0.3-0.1
		c-0.1,0-0.1,0-0.1-0.1c0-0.1,0-0.2,0-0.3c0-0.1-0.1-0.2-0.2-0.2c-0.1-0.1-0.2-0.1-0.5-0.3c-0.2-0.1-0.6-0.4-0.8-0.6
		c-0.2-0.2-0.3-0.3-0.5-0.5c-0.1-0.2-0.3-0.3-0.4-0.4c-0.1-0.1-0.2-0.2-0.4-0.3c-0.2-0.1-0.4-0.3-0.6-0.5c-0.2-0.2-0.4-0.5-0.6-0.7
		c-0.2-0.2-0.3-0.4-0.5-0.5C52.3,41,52,41,51.7,40.9c-0.3,0-0.6,0-0.8,0c-0.2,0-0.2,0.1-0.3,0.1c0,0,0,0-0.1,0c0,0,0-0.1-0.1-0.9
		c0-0.7-0.1-2.2-0.2-2.9c0-0.7-0.1-0.8-0.1-0.8c0-0.1,0-0.1,0.1-0.3c0.1-0.2,0.3-0.5,0.4-1c0.1-0.5,0.3-1.2,0.3-1.7
		c0.1-0.6,0-1,0-1.3c0-0.3,0-0.4,0-0.5c0-0.1,0-0.1,0.1-0.2c0.1,0,0.3,0,0.5,0c0.2-0.1,0.3-0.2,0.5-0.5c0.2-0.3,0.3-0.7,0.4-1.1
		c0.1-0.3,0.1-0.5,0.1-0.7c0-0.2,0.1-0.3,0.2-0.5c0.1-0.2,0.2-0.5,0.3-0.9c0.1-0.3,0.1-0.7,0.1-1.2c-0.1-0.4-0.2-0.9-0.3-1.3
		c-0.1-0.4-0.1-0.8,0-1.2c0.1-0.4,0.2-0.8,0.4-1.1c0.1-0.3,0.2-0.5,0.2-0.7c0-0.2-0.2-0.3-0.3-0.4c-0.1-0.1-0.2-0.1-0.1-0.3
		c0.1-0.2,0.4-0.7,0.5-1.2c0-0.5-0.2-0.9-0.3-1.4c0-0.5,0.1-1.1,0.2-1.7c0.1-0.5,0.2-1,0.2-1.4c0-0.4-0.1-0.7-0.2-1.3
		c-0.1-0.6-0.3-1.4-0.3-2.1c0-0.7,0.1-1.4,0.1-2c0-0.6-0.1-1.2-0.2-1.6c-0.1-0.3-0.3-0.4-0.4-0.5c-0.1-0.1-0.1-0.2-0.4-0.4
		c-0.3-0.2-0.9-0.3-1.3-0.4c-0.5-0.1-0.8-0.2-1-0.4c-0.2-0.3-0.3-0.7-0.6-1c-0.3-0.3-0.7-0.4-1-0.6c-0.3-0.2-0.4-0.4-0.7-0.6
		c-0.2-0.2-0.5-0.3-0.8-0.3c-0.3,0-0.5,0.1-0.6,0.1c-0.1,0-0.2-0.2-0.3-0.5C46,4,45.8,3.4,45.5,3.2c-0.3-0.2-0.7-0.2-1.2-0.5
		c-0.5-0.3-1.1-1.1-1.4-1.5c-0.4-0.4-0.5-0.4-0.8-0.4c-0.2,0-0.6,0-1.2,0c-0.6-0.1-1.4-0.3-1.9-0.3c-0.5,0-0.7,0.1-0.9,0.4
		c-0.3,0.2-0.6,0.5-0.7,0.6c-0.2,0-0.1-0.2-0.3-0.3c-0.2-0.1-0.6,0-1.2,0.2c-0.5,0.2-1.1,0.6-1.5,1.3c-0.4,0.7-0.6,1.7-0.9,2.3
		c-0.3,0.6-0.6,0.8-0.9,0.7c-0.2-0.1-0.3-0.6-0.5-0.8c-0.2-0.2-0.4-0.1-0.7,0.2c-0.3,0.4-0.7,1-1,1.3c-0.3,0.3-0.6,0.2-0.8,0.4
		c-0.3,0.2-0.5,0.6-0.9,1c-0.4,0.4-0.8,0.8-1.1,1.3c-0.3,0.5-0.4,1.2-0.4,1.7c0,0.5,0,0.8-0.1,1.2c-0.1,0.4-0.4,1-0.6,1.3
		c-0.2,0.4-0.4,0.5-0.4,1.1c0,0.6,0,1.6,0.2,2.3c0.1,0.7,0.3,1.2,0.5,1.6c0.2,0.4,0.4,0.7,0.4,1.2c0,0.5-0.1,1.3-0.1,1.9
		c0,0.6,0,1.2,0.2,1.7c0.1,0.5,0.4,0.9,0.5,1.2c0.2,0.3,0.2,0.4,0.1,0.4c-0.1,0-0.4-0.1-0.6-0.2c-0.2,0-0.3,0.1-0.4,0.2
		c-0.1,0.2-0.1,0.4-0.1,0.7c0,0.3,0.1,0.8,0.3,1.4c0.2,0.6,0.4,1.4,0.5,2c0.1,0.5,0.2,0.8,0.2,1c0.1,0.2,0.1,0.3,0.3,0.4
		c0.1,0.1,0.3,0.3,0.4,0.5c0.1,0.2,0.2,0.4,0.4,0.7c0.2,0.3,0.4,0.7,0.6,1c0.2,0.3,0.5,0.5,0.7,0.6c0.2,0.1,0.5,0.2,0.6,0.1
		c0.2,0,0.3,0,0.4-0.1c0.1,0,0.2-0.1,0.3,0c0.1,0,0.1,0.2,0.1,0.5c0,0.3,0.1,0.7,0.2,1.3c0.1,0.6,0.3,1.3,0.5,1.7
		c0.2,0.4,0.4,0.6,0.5,0.8c0.1,0.2,0.2,0.5,0.5,1.6c0.2,1.1,0.6,3.1,0.8,4.2c0.2,1,0.3,1.1,0.3,1.2c0,0.1,0,0.1-0.2,0.2
		s-0.5,0.2-0.7,0.3c-0.2,0.2-0.4,0.4-0.6,0.9c-0.2,0.5-0.5,1.3-0.7,1.9c-0.3,0.7-0.6,1.2-1.1,1.8c-0.5,0.6-1.1,1.2-2.1,1.8
		c-1,0.5-2.2,1-3.2,1.4c-1,0.4-1.6,0.9-2,1.1c-0.4,0.2-0.6,0.3-1.1,0.4c-0.5,0.1-1.2,0.4-2.4,1.1c-1.2,0.7-2.8,1.9-3.9,2.7
		c-1.1,0.8-1.7,1.2-2.1,1.7c-0.4,0.5-0.7,1-1.3,2.5c-0.5,1.4-1.3,3.8-2.1,6.2c-0.8,2.4-1.5,5-2,6.4c-0.2,0.6-0.3,1-0.6,1.7
		c-1.4,3.9-2.6,7.7-3.5,10.5c-0.9,2.8-1.5,4.6-2,6.1C2.7,94.6,2.3,96,2,97c-0.3,1-0.7,1.5-0.9,1.8c-0.2,0.3-0.3,0.3-0.4,0.7
		c-0.1,0.4-0.3,1.1-0.2,2.8c1.9,8.5,1.9,8.8,1.9,9.1c0.1,0.3,0.2,0.5,0.4,0.8c0.2,0.3,0.5,0.7,0.7,1.2c0.2,0.4,0.3,0.9,0.6,1.5
		c0.3,0.6,0.7,1.2,1.4,1.7c0.6,0.5,1.4,0.8,2.1,1c0.7,0.2,1.2,0.2,1.9,0.1c0.7-0.1,1.6-0.4,2.3-0.6c0.7-0.2,1.2-0.3,4.2-0.9
		c0.1-0.1,0.3-0.1,0.5-0.1c0.2,0,0.5-0.1,0.9-0.2c0.3-0.1,0.8-0.2,1.3-0.4c0.5-0.1,1.1-0.3,1.3-0.4c0.3-0.1,0.3-0.2,0.3-0.2
		s0,0.1,0,0.7c0,0.6-0.1,1.8-0.4,3.1c-0.3,1.4-1,3-1.5,4.6c-0.5,1.6-0.9,3.2-1.4,5.7c-0.5,2.5-1,6.1-1.3,8c-0.3,2-0.5,2.5-0.6,2.9
		c-0.1,0.4-0.2,0.9-0.1,1.2c0.2,0.4,0.6,0.6,0.8,1c0.2,0.4,0.1,0.8,0.1,1.3c0,0.5,0,1,0.1,2c0.1,1,0.1,2.4,0.1,5.5
		c0,3.1-0.1,8,0.2,12.5c0.3,4.5,1.2,8.8,1.9,12.6c0.7,3.8,1.4,7.1,2.4,10.6c1,3.5,2.2,7.3,3,10.1c0.8,2.7,1.1,4.4,1.3,5.4
		c0.2,1,0.3,1.4,0.3,1.9c0,0.5,0,1.1-0.1,1.6c0,0.5-0.1,0.8-0.3,1.2c-0.2,0.3-0.6,0.7-0.8,1.4c-0.2,0.7-0.2,1.7,0,2.4
		c0.2,0.8,0.5,1.3,0.8,1.6c0.3,0.3,0.5,0.4,0.6,0.6c0.1,0.2,0.2,0.5,0,0.7c-0.2,0.3-0.6,0.5-0.9,0.9c-0.3,0.4-0.6,1-0.5,1.5
		c0,0.5,0.3,0.8,0.5,1.1c0.2,0.3,0.3,0.5,0.7,0.6c0.4,0.2,1.1,0.4,1.3,1.5c0.1,1.2-0.3,3.3-0.5,4.8c-0.2,1.5-0.2,2.3,0,3.1
		c0.2,0.8,0.4,1.5,0.6,4c0.2,2.4,0.4,6.5,0.5,8.8c0.1,2.3,0.2,2.8,0.2,3.7c0,0.9-0.1,2.1-0.2,3c-0.1,0.9-0.3,1.4-0.3,2.1
		c0,0.7,0.3,1.6,0.6,2.2c0.3,0.6,0.6,0.8,0.7,1c0.2,0.1,0.2,0.2,0.3,0.2c0.1,0.1,0.3,0.1,0.3,0.4c0,0.2-0.1,0.6-0.3,0.9
		c-0.2,0.3-0.5,0.6-0.8,1c-0.2,0.3-0.4,0.7-0.7,1.2c-0.3,0.5-0.6,1.1-0.8,1.6c-0.2,0.5-0.3,0.9-0.3,1.3c0,0.4,0.1,0.9,0.2,1.2
		c0.1,0.3,0.1,0.5,0.2,0.7c0.1,0.2,0.3,0.3,0.4,0.4c0.1,0.2,0.1,0.4,0.1,0.6c0,0.3,0,0.6,0.1,0.9c0.1,0.3,0.4,0.6,0.5,1
		c0.1,0.4,0.1,0.8,0.1,1.2c0,0.5,0.1,1,0.1,1.3c0.1,0.4,0.1,0.6,0,1c-0.1,0.3-0.4,0.7-0.8,1.1c-0.4,0.4-0.9,0.8-1.4,1.2
		c-0.5,0.4-1.1,0.6-1.7,1c-0.6,0.4-1.2,0.9-1.7,1.1c-0.5,0.3-0.7,0.4-0.9,0.6c-0.1,0.2-0.1,0.5,0,0.7c0.1,0.2,0.2,0.3,0.3,0.5
		c0.1,0.1,0.2,0.3,0.1,0.5c0,0.2-0.2,0.3-0.3,0.4c-0.2,0.1-0.4,0.2-0.6,0.4c-0.2,0.2-0.4,0.5-0.7,0.9c-0.3,0.3-0.8,0.6-1.3,0.8
		c-0.5,0.2-1.1,0.3-1.6,0.4s-0.9,0.2-1.4,0.4c-0.5,0.1-1.1,0.2-1.6,0.4c-0.5,0.2-1,0.5-1.4,0.7c-0.4,0.3-0.9,0.4-1.2,0.6
		c-0.3,0.2-0.4,0.4-0.5,0.6c-0.1,0.2-0.1,0.3-0.2,0.5c0,0.1-0.1,0.3-0.1,0.3c-0.1,0.1-0.1,0.1-0.2,0.2c-0.1,0.1-0.1,0.2-0.2,0.4
		c0,0.2-0.1,0.6,0,1c0,0.4,0.2,0.7,0.3,1.1c0.2,0.3,0.4,0.6,0.5,0.8c0.2,0.2,0.3,0.2,2.7,0.2c2.4,0,7.1,0,9.9,0s3.5,0,4.1-0.1
		c0.6-0.1,1-0.3,1.3-0.3c0.3,0,0.6,0.2,1.1,0.3c0.5,0.1,1.1,0.1,3.3,0.1c2.3,0,6.1,0,8.2,0c2,0,2.2-0.1,2.2-0.4
		c0.1-0.3,0-0.8,0.1-1.3c0-0.5,0.1-0.9,0.1-1.4c0-0.4,0.1-0.9,0.1-1.3c0-0.4-0.1-0.8-0.2-1.4c-0.1-0.6-0.3-1.4-0.4-2.5
		c-0.2-1.1-0.4-2.6-0.5-3.7c-0.2-1-0.3-1.6-0.3-2.1c0-0.5,0.3-1.1,0.5-1.5c0.2-0.4,0.4-0.6,0.4-1.1c0-0.5-0.3-1.4-0.3-2.2
		c0-0.8,0.2-1.5,0.3-2.5c0.1-1.1,0.2-2.5,0.4-4.8c0.3-2.3,0.8-5.5,1-7.8c0.2-2.3,0.2-3.9,0-6.3c-0.2-2.4-0.7-5.8-1-8.7
		c-0.3-3-0.5-5.6-0.6-7.8c-0.1-2.2,0-3.8,0-5.5c0-1.7-0.1-3.5-0.1-5c0-1.6,0-2.9-0.3-4.3c-0.3-1.4-0.8-2.7-1-3.8
		c-0.1-1,0.1-1.7,0.3-2.7c0.2-1,0.3-2.2,0.3-3.4c0-1.3,0-2.6-0.2-5c-0.2-2.3-0.4-5.6-0.4-7.9c0-2.3,0.3-3.8,0.5-6
		c0.2-2.2,0.3-5.3,0.4-8.2c0.1-2.9,0-5.6,0-7.8c0-2.1,0-3.7,0.1-4.5c0-0.9,0.1-1,0.2-1.1c0.1-0.1,0.2-0.1,0.4-0.2
		c0.2-0.1,0.4-0.1,0.6,0c0.2,0.2,0.5,0.6,0.7,1.2c0.3,0.6,0.6,1.4,1,2.3c0.4,0.9,1.1,1.9,2.1,4.1c1,2.2,2.4,5.7,3.5,8.7
		c1.1,3,1.8,5.4,2.8,9.5c0.9,4.1,2,10,2.6,13.6c0.6,3.7,0.8,5.1,1,6.1c0.2,1,0.3,1.5,0.5,1.9c0.2,0.4,0.4,0.8,0.5,1.1
		c0.1,0.3-0.1,0.6,0.1,1.2c0.2,0.6,0.6,1.6,0.9,2.1c0.3,0.6,0.4,0.8,0.7,1c0.3,0.2,0.7,0.4,0.9,0.8c0.2,0.4,0.2,1.1,0.1,1.8
		c-0.1,0.7-0.4,1.4-0.5,2.2c-0.1,0.8-0.1,1.6,0.2,2.2c0.2,0.6,0.6,1.1,0.9,1.5c0.3,0.4,0.4,0.8,0.4,1c-0.1,0.3-0.3,0.5-0.3,1
		c0,0.4,0.3,1.1,0.6,2.4c0.3,1.3,0.7,3.3,0.8,5c0.1,1.7-0.1,3,0.2,5.2c0.3,2.1,1.2,5.1,1.7,6.9c0.5,1.9,0.5,2.6,0.6,3.1
		c0.1,0.5,0.2,0.8,0.6,1.3c0.4,0.5,1.1,1.4,1.6,1.9c0.5,0.5,0.8,0.8,1.1,1.2c0.3,0.4,0.4,1,0.4,1.4c0,0.4-0.2,0.5-0.5,0.7
		c-0.4,0.2-0.9,0.6-1.3,0.9c-0.4,0.4-0.7,0.7-0.9,1.1c-0.2,0.3-0.3,0.6-0.3,0.9c0,0.4,0.2,0.8,0.4,1c0.2,0.2,0.5,0.3,0.9,0.9
		c0.4,0.6,0.8,1.9,1,2.7c0.2,0.8,0.1,1.2,0,1.6c-0.1,0.4-0.2,0.8-0.2,1.2c0,0.3,0.1,0.6,0.2,0.9c0.1,0.3,0.1,0.6,0.2,0.8
		c0,0.2,0.1,0.3,0.2,0.4c0.1,0.1,0.2,0.3,0.3,0.3c0.1,0.1,0.3,0,0.4,0.2c0,0.1,0,0.3-0.1,0.6c-0.1,0.3-0.2,0.5-0.3,0.9
		c-0.1,0.4-0.3,1-0.5,1.6c-0.2,0.6-0.6,1.3-1,1.9c-0.4,0.7-0.7,1.3-1,1.9c-0.2,0.6-0.3,1-0.5,1.4c-0.2,0.5-0.4,1-0.7,1.4
		c-0.3,0.4-0.7,0.9-0.9,1.2c-0.2,0.4-0.3,0.7-0.4,0.9c-0.1,0.2-0.3,0.4-0.4,0.6c-0.1,0.2-0.2,0.4-0.2,0.6c0,0.2,0,0.4-0.1,0.7
		c0,0.2-0.1,0.5-0.1,0.8c0,0.3-0.1,0.5-0.1,0.7c0,0.2,0,0.4,0,0.6c0,0.2,0.1,0.3,0.1,0.4c0,0.1,0,0.2,0.1,0.2c0,0,0.1,0,3,0
		c2.9,0,8.7,0,11.7-0.1c3-0.1,3.2-0.3,3.3-0.6c0.2-0.2,0.3-0.4,0.3-0.7c0.1-0.3,0.1-0.6,0.1-0.9c0-0.3,0.1-0.5,0.2-0.7
		c0.1-0.2,0.3-0.3,0.4-0.6c0.1-0.3,0.1-0.8,0.1-1.4c0-0.6,0.1-1.4,0.1-2.1c0-0.8,0-1.6,0.1-2.4c0.1-0.8,0.2-1.7,0.2-2.4
		c0-0.7-0.1-1.3-0.3-1.8c-0.2-0.6-0.4-1.1-0.6-1.6c-0.2-0.5-0.4-0.9-0.4-1.1c0-0.2,0.3-0.3,0.5-0.6c0.2-0.3,0.3-0.7,0.4-1.1
		c0-0.4,0-0.8,0.1-1.2c0.1-0.4,0.3-0.9,0.5-1.4c0.2-0.4,0.5-0.8,0.7-1c0.2-0.3,0.4-0.5,0.6-0.7c0.2-0.2,0.4-0.5,0.3-0.8
		c0-0.2-0.3-0.5-0.3-0.9c0-0.4,0.1-1.1,0.3-1.8c0.2-0.7,0.4-1.6,0.2-2.4c-0.2-0.8-0.7-1.7-1.1-2.7c-0.4-1-0.7-2.3-0.9-3
		c-0.2-0.8-0.4-1.1-0.5-1.4c-0.1-0.3-0.1-0.6-0.1-1.2c0.1-0.6,0.2-1.5,0.3-3.3c0-1.8-0.1-4.6-0.3-6.9c-0.2-2.3-0.5-4.1-0.8-5.7
		c-0.4-1.6-0.8-3-1.2-4.8c-0.5-1.8-0.9-4-1.2-5.4c-0.3-1.4-0.3-2-0.4-2.4c-0.1-0.3-0.3-0.4-0.4-0.7c-0.1-0.2-0.2-0.6-0.2-1.1
		c0-0.5,0.1-1.2,0-1.7c-0.1-0.5-0.4-0.7-0.7-0.9c-0.3-0.2-0.5-0.3-0.6-0.5c-0.1-0.2-0.1-0.4-0.1-1.1c0-0.7-0.2-1.9-0.4-2.9
		c-0.3-1-0.7-1.8-0.9-2.4c-0.2-0.5-0.2-0.7,0-1c0.1-0.4,0.4-0.9,0.4-1.6c0-0.7-0.2-1.6,0-3c0.2-1.4,0.9-3.3,1.2-5.2
		c0.3-1.9,0.2-3.8-0.1-6.9c-0.3-3.1-0.8-7.4-1-10c-0.2-2.6-0.2-3.5-0.3-4.4c0-0.9,0-1.7-0.1-2.6c0-0.9-0.1-2-0.2-2.8
		c-0.1-0.8-0.3-1.3-0.4-2c-0.1-0.7-0.1-1.6-0.4-3.4c-0.3-1.8-0.8-4.5-1.3-7.1c-0.4-2.6-0.8-5-1.2-7.1c-0.4-2.1-0.8-4-1-5.4
		c-0.1-1.4,0-2.4,0.2-3.3c0.2-0.9,0.3-1.7,0.3-2.5c0-0.8-0.3-1.6-0.5-2.3c-0.2-0.6-0.4-1-0.6-1.5c-0.2-0.4-0.4-0.9-0.4-1.3
		c-0.1-0.4-0.1-0.7,0-1.1c0.1-0.3,0.3-0.7,0.3-1.1c0.1-0.4,0-0.7,0-1.3c0-0.6-0.1-1.4-0.3-2.2c-0.2-0.8-0.5-1.5-0.6-2
		c-0.2-0.6-0.2-1.1-0.1-1.5c0-0.4,0.1-0.8,0.1-1.4c0-0.6-0.2-1.5-0.4-3c-0.3-1.6-0.6-3.8-0.8-5.1c-0.2-1.3-0.3-1.5-0.3-1.7
		c-0.1-0.2-0.1-0.3-0.2-0.3c0-0.1,0-0.2,1-0.5c1-0.3,3.1-0.8,4.4-1.2c1.3-0.4,1.9-0.7,2.6-1c0.7-0.2,1.5-0.3,2.3-0.5
		c0.8-0.2,1.6-0.4,2.6-0.8c0.9-0.4,1.9-1.1,3-1.8c1.1-0.7,2.4-1.4,3.3-2.2c1-0.8,1.7-1.6,2-2.6C89.9,101.9,89.8,100.7,89.7,99.4z
		 M71.1,96.1c-0.6,0.4-1,0.8-1.3,1.1c-0.3,0.3-0.5,0.4-0.7,0.5c-0.2,0.1-0.4,0.2-0.7,0.2c-0.1-0.3-0.2-0.5-0.3-0.7
		c-0.1-0.2-0.2-0.5,0-1.9c0.2-1.4,0.6-3.8,1-8.1c0.1,0.1,0.1,0.3,0.2,0.4c0.3,0.6,0.7,1.6,1.2,2.5c0.5,0.9,1,1.6,1.4,2.4
		c0.4,0.8,0.7,1.5,0.7,3.1C72,95.5,71.5,95.8,71.1,96.1z"/>
</g>
<g id="INNER">
	<path class="st1" d="M75.2,267.5c0.7,0.7,0.8,1.4,1,1.7c0.2,0.2,0.5,0,0.9,0.3c0.3,0.2,0.7,0.9,1,1"/>
	<path class="st1" d="M74.2,267.1c-2-0.8-2.3,0.2-2.7,0.9c-0.5,0.8-1.1,1.3-1.1,1.5c0,0.3,0.7,0.3,1.4-0.1c0.7-0.4,1.5-1.2,2.6-1.2"
		/>
	<path class="st1" d="M71.6,269.9c1.5-0.6,2.4-0.6,3.4-0.5c1,0.1,2.1,0.5,3.1,1"/>
	<path class="st1" d="M71.5,271.8c0.8-1.3,1.4-1.4,1.9-1.5c0.5-0.1,0.9,0,1.5,0.2c0.7,0.2,1.6,0.4,2.4,0.6"/>
	<path class="st1" d="M70.8,272.2c1.1-0.6,1.6-0.7,2.2-0.8c0.6,0,1.2,0,1.9,0.2c0.7,0.2,1.4,0.4,1.9,0.8"/>
	<path class="st1" d="M70.4,273.4c1.2-0.3,1.9-0.5,2.6-0.5c0.7,0,1.4,0.1,2.2,0.3c0.8,0.2,1.6,0.4,2.2,1"/>
	<path class="st1" d="M70.6,274.3c1.4-0.1,2.2-0.2,3.1-0.1c1,0.1,2.1,0.5,3.1,1.1"/>
	<path class="st1" d="M70.6,274.3c-0.4,0.1-0.6,0.2-0.6,0.6"/>
	<path class="st1" d="M78.8,281.5c0.3-1.7,0.3-2.5,0.1-3.1c-0.2-0.7-0.5-1.2-3.2-2.1"/>
	<path class="st1" d="M66.6,276.6c1.5-0.6,2.8-0.9,3.9-1"/>
	<path class="st1" d="M64.3,280.9c3.1,0.9,6,1.2,7.9,1.3c1.9,0.1,2.8,0,3.8-0.2c1-0.2,2-0.5,6.8-0.9"/>
	<path class="st1" d="M70.3,267.3c2.7-1.5,3-1.5,3.8-1.3c0.8,0.2,2,0.6,2.8,0.8c0.8,0.2,1,0.3,1.3,0.2c0.3-0.1,0.7-0.3,1.4-0.2
		c0.7,0.1,1.6,0.5,2.9,0.5"/>
	<path class="st1" d="M65.6,217c6.8,1.2,7.5,0.6,8.1,0.4c0.5-0.2,0.8,0,0.6,0.5c-0.2,0.5-1,1.3-1.7,1.9c-0.7,0.7-1.4,1.2-2.2,1.5
		c-0.8,0.3-1.8,0.5-3.6-0.2"/>
	<path class="st1" d="M70.2,204.8c-3,3-2.3,3.7-1.6,4.3c0.7,0.5,1.3,0.9,1.6,1.4c0.3,0.5,0.4,1.2,0.1,1.8c-0.3,0.6-1.1,1-2.4,1.2
		c-1.3,0.2-3.3,0.1-3.6,1"/>
	<path class="st1" d="M29.9,217.7c-2,0.2-1.1,1,0.1,1.5c1.2,0.5,2.5,0.8,4.3,1.5"/>
	<path class="st1" d="M27.7,216.2c2.9-0.3,4.1-0.7,5.2-1c1.1-0.2,2.2-0.2,3.7,1"/>
	<path class="st1" d="M26.4,209c8.2-0.8,8.3-0.4,8,0c-0.3,0.4-0.9,0.9-1.7,1.6c-0.7,0.7-1.6,1.6-3.3,3"/>
	<path class="st1" d="M49,158.8c5.7-1.1,9-1.5,10.7-1.5"/>
	<path class="st1" d="M38.2,146.2c-0.6,2.9,0,4.9,0.3,6.2c0.4,1.3,0.5,1.8,0.8,2.4c0.3,0.6,0.7,1.3,1.3,2.5"/>
	<path class="st1" d="M11,281.5c4.5,1.1,5.6,1,6.8,0.8c1.2-0.2,2.5-0.4,3.8-0.4c1.3-0.1,2.4,0,3.4,0c1,0,1.8,0.1,2.7,0
		c0.9-0.1,1.8-0.2,2.9-0.3c1.1-0.1,2.3-0.2,3.4-0.3c1.1,0,1.9,0,2.9,0c1,0,2.1-0.1,3-0.2c0.9-0.1,1.6-0.3,2.4-0.5
		c0.7-0.2,1.5-0.4,2.1-0.8"/>
	<path class="st1" d="M26,274.8c-0.8-0.9-1.5-1.1-2.3-1"/>
	<path class="st1" d="M27.9,273.5c-0.8-0.6-1.2-0.8-1.4-0.9c-0.3-0.1-0.4-0.1-0.7,0"/>
	<path class="st1" d="M29.8,272.2c-0.4-0.6-0.9-0.9-1.3-1.1c-0.4-0.2-0.8-0.2-1.1-0.2"/>
	<path class="st1" d="M31.9,271c-0.4-0.6-0.7-0.8-1-1c-0.2-0.1-0.4-0.2-0.7-0.2c-0.3-0.1-0.6-0.1-1-0.2"/>
	<path class="st1" d="M70.2,255.5c3.9,2.3,5.7,2.3,7,2.3c1.3,0,2-0.2,2.3-0.4c0.3-0.2,0.1-0.4-1-0.9c-1.1-0.5-3.3-1.1-4.1-2
		c-0.9-0.8-0.5-1.8,0.6-3.7"/>
	<path class="st1" d="M30.4,266.6c1.5,0.1,1.7,0.1,1.9,0.2c0.2,0.1,0.4,0.4,0.5,0.6c0.1,0.2,0.1,0.3-0.1,0.5
		c-0.2,0.1-0.7,0.3-1.3-0.1"/>
	<path class="st1" d="M33.6,268.3c-0.7,0.3-1.7-0.1-2.7-1.1"/>
	<path class="st1" d="M29.8,266.2c0.9-0.4,1.7-0.7,2.5-0.4"/>
	<path class="st1" d="M31.1,268c-0.8-0.8-1.1-0.8-1.4-0.8c-0.3,0-0.5,0.1-0.7,0.3c-0.2,0.1-0.4,0.3-0.6,0.4
		c-0.1,0.1-0.2,0.2-0.3,0.3c-0.1,0.1-0.2,0.1-0.7-0.4"/>
	<path class="st1" d="M27.9,267c1-1,1.4-1,1.8-0.8c0.4,0.1,0.9,0.4,1.1,0.9"/>
	<path class="st1" d="M26.5,269.4c-1.8,1.2-2.1,1.6-2.4,1.9c-0.3,0.3-0.6,0.6-0.9,0.7c-0.2,0.1-0.4,0.1-0.6,0.1
		c-0.2,0-0.4,0-0.2-0.7"/>
	<path class="st1" d="M21.8,273.4c1.3,0.3,1.8-0.2,2.3-0.6c0.4-0.4,0.8-0.8,1.2-1.3c0.4-0.4,0.7-0.9,1.1-1.3c0.4-0.4,0.7-0.8,1.1-1
		c0.4-0.2,0.8-0.2,1.1-0.3c0.3-0.1,0.3-0.3,0.4-0.6c0.1-0.2,0.1-0.4,0.2-0.5c0.1,0,0.2,0.2,0.3,0.3c0.1,0.2,0.1,0.3-0.1,0.4
		c-0.1,0.1-0.4,0.3-0.9,0.7c-0.5,0.4-1.3,1-1.8,1.5c-0.5,0.5-0.6,0.7-0.7,1c0,0.3,0.1,0.5,0.7-0.3"/>
	<path class="st1" d="M24.5,276c-1.2-0.8-2.4-1-3-0.8"/>
	<path class="st1" d="M22.9,276.9c-0.5-0.4-1.7-0.6-2.6-0.6"/>
	<path class="st1" d="M33.6,270.1c0.2,0.7,0.8,0.7,1.1,0.7c0.3-0.1,0.4-0.2,0.4-0.4c0-0.2-0.2-0.5-0.7-0.6"/>
	<path class="st1" d="M31.9,271c-0.2,0.4,0.2,0.7,0.5,0.8c0.3,0.1,0.5,0,0.6-0.3c0.1-0.3-0.1-0.9-0.3-0.8"/>
	<path class="st1" d="M29.8,272.2c-0.1,0.5,0.4,0.7,0.7,0.8c0.3,0.1,0.5,0,0.5-0.2c0-0.2-0.1-0.6-0.5-0.8"/>
	<path class="st1" d="M27.9,273.8c0.4,0.4,0.7,0.3,0.8,0.3c0.2-0.1,0.2-0.2,0.1-0.6"/>
	<path class="st1" d="M26.1,275.1c0.5,0.2,0.7,0.2,0.8,0.1c0.1-0.1,0.2-0.2,0.1-0.4c0-0.1-0.2-0.3-0.5-0.3"/>
	<path class="st1" d="M24.3,276.3c1,0.7,1.4,0.4,1.2-0.2"/>
	<path class="st1" d="M22.6,277c0.3,0.8,1.2,0.7,1.3,0.1"/>
	<path class="st1" d="M28,259.6c4.1-1.6,7.1-1.4,8.2-0.5"/>
	<path class="st1" d="M29.9,253.5c3,0.7,3.2,1.2,2.8,1.6c-0.4,0.4-1.6,0.7-2.5,1.2c-1,0.4-1.8,1-1.8,1.4"/>
	<path class="st1" d="M29.2,250.2c-1.2-0.1-1.1,0.2-0.9,0.5c0.2,0.3,0.6,0.6,1.3,0.9c0.7,0.3,1.6,0.7,2.4,0.8
		c0.8,0.1,1.4-0.1,2.1-0.6c0.7-0.5,1.6-1.5,2.3-2.1c0.8-0.6,1.5-0.9,2.1-1c0.6-0.1,1.2,0,0.6,0.8"/>
	<path class="st1" d="M27.8,264.7c0.6-1.5,0.9-1.5,1.1-1.3c0.3,0.2,0.5,0.4,0.8,0.7c0.2,0.3,0.5,0.6,0.7,0.8
		c0.2,0.2,0.4,0.3,0.9,0.5c0.5,0.2,1.2,0.5,1.7,0.8c0.5,0.3,0.7,0.6,0.7,0.8c0.1,0.2,0,0.4-0.1,0.7c-0.1,0.2-0.2,0.5,0,0.7
		c0.2,0.1,0.9,0.2,1.2,0.2c0.4,0.1,0.4,0.2,0.7,0.5s0.6,0.9,1.1,1.5c0.6,0.6,1.3,1.3,2.1,1.6c0.8,0.3,1.7,0.3,2.4-0.1
		c0.7-0.4,1.1-1.3,2-2.6"/>
	<path class="st1" d="M37,122c-0.2,0.1-0.4,0.2-0.5,0.4c-0.1,0.2-0.2,0.4-0.2,0.6c0,0.2,0,0.4,0.2,0.5c0.1,0.1,0.4,0.3,0.6,0.3
		c0.2,0.1,0.5,0.1,0.6,0c0.2-0.1,0.3-0.2,0.4-0.5c0.1-0.2,0.1-0.5,0.1-0.8c-0.1-0.3-0.2-0.5-0.4-0.6C37.5,121.9,37.2,122,37,122z"/>
	<path class="st1" d="M39.5,120c0.6,6.7,0.6,10.9,0.6,14.4c0,3.6-0.1,6.5,0.8,11.1"/>
	<path class="st1" d="M35.3,120.7c0,3.8,0.4,5.4,0.5,8.9c0.1,3.5,0,9,0.5,15.8"/>
	<path class="st1" d="M16.1,142.8c3.3,0.9,6.4,1.9,8.3,2.5c1.9,0.6,2.5,0.6,3.5,0.5c1-0.1,2.4-0.3,4.9-0.4c2.5-0.1,6.2-0.1,9.4,0.1
		c3.3,0.2,6.1,0.5,8.6,0.7c2.5,0.2,4.6,0.3,6.7-0.2c2.2-0.5,4.4-1.6,6.2-2.4c1.8-0.9,3.1-1.5,4.4-2.1c1.4-0.6,2.8-1,4.1-1.5"/>
	<path class="st1" d="M33.1,269.7c-0.9-0.7-2-1.1-2.4-1.1"/>
	<path class="st1" d="M68.4,97.8c0,0-0.1,0-0.1,0c-0.4,0-0.8-0.1-1.2-0.1c-0.4,0-0.6,0.1-0.9,0.4c-0.3,0.3-0.6,0.7-1.1,1.2
		c-0.5,0.5-1.1,1.2-1.6,1.4c-0.4,0.2-0.6,0.1-1,0c-0.4-0.1-1.2-0.1-1.7,0c-0.5,0.1-0.9,0.3-1.2,0.4c-0.3,0.2-0.6,0.3-1,0.4
		c-0.5,0.1-1.1,0.1-1.8,0.3c-0.7,0.1-1.5,0.4-2,0.8c-0.5,0.4-0.7,1.1-0.9,1.3c-0.2,0.2-0.5,0.1-2.4,0.6"/>
	<path class="st1" d="M74.2,95.5c-0.6-0.1-1.1-0.1-1.5-0.1"/>
	<path class="st1" d="M72.5,49.8c-2.2,0.6-3,1.8-3.9,3.6c-0.9,1.7-2,4-2.5,5.3c-0.5,1.4-0.5,1.8-0.5,2.6c0.1,0.8,0.2,1.8,0.1,2.9
		c-0.1,1.1-0.4,2.3-0.5,3.1c-0.1,0.8-0.1,1.2-0.1,1.9c0.1,0.6,0.3,1.5,0.3,2.2c0,0.7-0.2,1.2-0.3,1.8c-0.1,0.5-0.2,1.1-0.2,1.5
		c0,0.4,0.2,0.7,0.4,1.3c0.3,0.5,0.7,1.3,0.9,2c0.2,0.7,0.3,1.5,0.5,2.6c0.2,1.1,0.5,2.5,0.9,3.5c0.4,1,0.8,1.6,1,2.1
		c0.2,0.3,0.3,0.6,0.4,1"/>
	<path class="st1" d="M77.3,91.6c2.7-0.5,4.3,0.3,6,0.1"/>
	<path class="st1" d="M77.9,93.7c3.4-0.5,4.4,0.5,5.3,1.1c0.9,0.6,1.6,0.8,2.2,1c0.6,0.2,1.1,0.3,1.4,0.2c0.3-0.1,0.5-0.6-0.5-1.3"
		/>
	<path class="st1" d="M74.6,94.6c2.1,1,2.7,1.7,3.6,2.4c0.9,0.7,2.1,1.5,2.9,1.9c0.8,0.5,1.2,0.7,1.6,0.8c0.4,0.1,0.7,0.2,0.9,0.1
		c0.2-0.1,0.3-0.2,0-0.5c-0.3-0.3-0.9-0.6-1.6-1c-0.8-0.4-1.7-0.9-2.7-2.1"/>
	<path class="st1" d="M70.3,58.7c-1.3,3-1.9,3.5-2.3,4.1c-0.4,0.6-0.7,1.3-1,2.3c-0.3,1-0.7,2.3-0.7,4.6"/>
	<path class="st1" d="M44.2,65.4c0.1,7-0.1,8.1-0.1,8.9c0,0.8,0.2,1.3,0.5,1.6c0.3,0.3,0.7,0.5,1.1,0.7c0.3,0.1,0.6,0.2,1.1,0.2
		c0.5,0,1.3,0,2.2,0c0.8,0,1.7-0.1,2.9-0.1c1.2,0,2.7,0,3.7,0c1-0.1,1.5-0.2,1.9-0.5c0.4-0.3,0.8-0.8,1-1.4c0.2-0.6,0.3-1.3,0.3-3.2
		c0-1.9-0.1-5.1-0.1-7.2"/>
	<path class="st1" d="M44.3,63.3c0,1.5,0.3,1.7,0.7,1.8c0.4,0.1,1,0.1,1.6,0.2c0.6,0.1,1.3,0.3,2,0.6c0.8,0.3,1.7,0.6,2.3,0.8
		c0.6,0.1,0.8,0,1.1-0.1c0.2-0.2,0.5-0.4,1.1-0.7c0.6-0.3,1.7-0.6,2.6-0.9c0.9-0.2,1.8-0.3,2.2-0.4c0.5-0.1,0.6-0.1,0.7-0.3
		c0.1-0.2,0.3-0.4,0.2-2.8"/>
	<path class="st1" d="M44.2,62.1c4,0,8.9-0.2,14.7-0.6"/>
	<path class="st1" d="M50.5,105.2c-0.5,1.3,0.2,2.5,0.7,3.7c0.5,1.2,0.8,2.4,1.2,3.6c0.3,1.2,0.7,2.5,1,3.3"/>
	<path class="st1" d="M42.6,108c0.3,1.9,1.3,3.3,1.9,4.6c0.6,1.3,0.8,2.5,0.8,3.3c0.1,0.8,0.1,1.1,0.1,1.3c0,0.2,0,0.3,0,0.3
		c0,0,0.1,0,0.2,0c0.1,0,0.2-0.1,0.5-0.1c0.3-0.1,0.9-0.1,1.3-0.2c0.4-0.1,0.7-0.2,0.9-0.3c0.2-0.1,0.3,0,0.4,0c0.1,0,0.3,0,0.7-0.1
		c0.4-0.1,1.1-0.3,1.6-0.4c0.5-0.1,0.9-0.2,1.2-0.3c0.3-0.1,0.7-0.1,1.1-0.2c0.4-0.1,0.8-0.2,1.1-0.2c0.3,0,0.4,0.1,0.6,0.1
		c0.2,0.1,0.4,0.1,0.7,0.1c0.3,0,0.7-0.1,1.7-0.2c1-0.2,2.5-0.4,4.3-0.8c1.7-0.4,3.6-1,7-1.7"/>
	<path class="st1" d="M27.2,119.1c-0.5,0.8-0.3,1.2-0.2,1.4c0.2,0.3,0.3,0.4,0.6,0.5c0.2,0.1,0.6,0.1,1.2,0.1c0.7,0,1.7-0.2,2.7-0.2
		c1-0.1,2.1-0.1,2.9-0.1c0.8-0.1,1.2-0.2,1.8-0.3c0.5-0.1,1-0.1,2-0.3c0.9-0.2,2.3-0.5,3.2-0.9c0.9-0.5,1.3-1.1,1.8-1.5
		c0.5-0.5,1.1-0.8,2.1-1"/>
	<path class="st1" d="M25.6,116.4c-1.2,0.8-1.3,1.6-1.1,2c0.2,0.4,0.5,0.6,0.7,0.7c0.2,0.1,0.4,0.2,0.6,0.2c0.2,0,0.5,0.1,0.9,0
		c0.3,0,0.7-0.1,1.2-0.2c0.5-0.1,1-0.2,1.5-0.3c0.5-0.1,1,0,2.3,0.1"/>
	<path class="st1" d="M23.7,113.8c-0.3,0.7-0.2,1.2,0,1.5c0.1,0.3,0.2,0.4,0.3,0.6c0.1,0.1,0.3,0.3,0.6,0.4c0.3,0.1,0.7,0.1,0.9,0.1
		c0.2,0,0.3,0,0.6-0.1c0.3-0.1,0.7-0.1,1.3-0.3c0.6-0.1,1.4-0.2,1.8-0.1"/>
	<path class="st1" d="M32,108.3c-1.1,0-1.7,0.1-2.4,0.3c-0.7,0.2-1.4,0.5-1.9,0.7c-0.5,0.2-0.8,0.4-1.2,0.5
		c-0.3,0.1-0.7,0.1-1.1,0.1c-0.5,0.1-1,0.2-1.6,0.3c-0.6,0.2-1.2,0.3-1.7,0.5c-0.4,0.2-0.6,0.3-0.7,0.5c-0.1,0.2,0,0.4,0.1,0.7
		c0.1,0.3,0.2,0.6,0.4,0.8c0.1,0.2,0.3,0.4,0.5,0.5c0.2,0.2,0.6,0.4,0.8,0.5c0.2,0.1,0.4,0,0.7,0c0.3-0.1,0.8-0.2,1.3-0.4
		c0.5-0.1,1.2-0.3,1.6-0.4c0.5-0.1,0.7-0.1,1.8-0.3"/>
	<path class="st1" d="M28.9,107.4c-1.1,0.4-1.2,0.5-1.3,0.6c-0.1,0.1-0.1,0.2-0.2,0.4c-0.1,0.2-0.1,0.5,0,1"/>
	<path class="st1" d="M20.5,115c0.9-0.4,1.2-0.6,1.5-0.7c0.3-0.1,0.5-0.1,0.8-0.2c0.3-0.1,0.6-0.2,1-0.3"/>
	<path class="st1" d="M26.5,107c1.5,0.4,2.1,0.4,2.7,0.4c0.6,0,1.2,0.1,1.6,0.1c0.4,0,0.6,0,1,0c0.4,0,0.9,0.1,1.3,0.2
		c0.4,0.1,0.6,0.1,1.5,0.1c0.9,0,2.5,0.1,3.6,0.1c1.1,0,1.5,0.1,1.9,0c0.4-0.1,0.7-0.2,1-0.3c0.4-0.1,0.9-0.2,1.2-0.3
		c0.3-0.1,0.6-0.1,0.8-0.1c0.3,0,0.6,0,0.9,0c0.3,0,0.7,0,1-0.1c0.3,0,0.6-0.1,1-0.2c0.3-0.1,0.7-0.2,1-0.4c0.4-0.2,0.8-0.4,0.9-0.6
		c0.1-0.2,0-0.5-0.4-0.9c-0.5-0.4-1.3-0.8-1.7-0.1"/>
	<path class="st1" d="M38.2,104.2c0.3,0.7,0.2,1.2-0.1,1.6"/>
	<path class="st1" d="M38.5,101.1c0.7,0.9,0.4,1.8-0.6,1.9"/>
	<path class="st1" d="M39.5,97.7c0.9,1.4,0.3,2.2-0.4,2.5"/>
	<path class="st1" d="M39.6,94.7c0.6,0.6,0.7,1.2,0.4,1.6"/>
	<path class="st1" d="M47.2,102.1c0.2,0.6,0.2,1.3-0.1,2"/>
	<path class="st1" d="M48.1,98.1c0.7,1.2,0.6,1.5,0.4,1.7c-0.2,0.2-0.4,0.3-0.9,0.6"/>
	<path class="st1" d="M48.1,95.2c0.4,0.8,0.2,1-0.2,1.1c-0.4,0.1-1,0.1-1.5-0.1"/>
	<path class="st1" d="M40.5,103.8c3.3,0.2,3.8,0.2,4.2,0.2c0.4,0,0.6,0.1,0.9,0.2c0.3,0.1,0.5,0.1,0.7,0c0.2,0,0.5-0.1,0.7-0.1
		c0.2,0,0.5,0,0.9,0c0.4,0,1,0.1,3.4,0.3"/>
	<path class="st1" d="M42.2,100.8c2,0,2.7,0,3.3,0.1c0.6,0,1.1,0,1.7,0.1c0.6,0.1,1.3,0.2,2,0.4c0.7,0.2,1.2,0.4,2.3,0.9"/>
	<path class="st1" d="M41.1,97.2c2.5,0.3,3.5,0.2,4.1,0c0.6-0.1,0.9-0.1,1.2-0.1c0.3,0,0.5,0.1,0.9,0.2c0.4,0.1,0.9,0.2,4.5,1.7"/>
	<path class="st1" d="M23.1,98.8c-1.7,3-2.6,9.3-1.2,12"/>
	<path class="st1" d="M20.8,81.8c-1.6,0-1.5,0.8-1.5,1.2c0,0.4-0.3,0.5-0.5,0.3c-0.2-0.2-0.4-0.7-0.5-1c-0.1-0.3-0.2-0.6-0.3-0.5
		c-0.1,0.1-0.3,0.4-0.4,1.1c-0.1,0.6-0.2,1.5,0,3.1c0.2,1.6,0.7,3.9,0.9,7.7"/>
	<path class="st1" d="M10,98.2c2.8,0.8,3.1,1,3.4,1.3c0.3,0.3,0.6,0.5,1,0.7c0.4,0.2,0.8,0.3,1,0.1c0.2-0.2,0.1-0.5-2.7-1.4"/>
	<path class="st1" d="M29.7,97.8c-1.1,0.2-1.4,1-1.7,2c-0.4,1-0.8,2.1-1,2.9c-0.3,0.8-0.3,1.4-0.4,2.1c-0.1,0.7-0.1,1.5,0,2.3
		c0,0.7,0.2,1.3,0.3,1.7c0.1,0.4,0.2,0.6,0.7,0.7"/>
	<path class="st1" d="M3.5,100.3c1.7-0.5,2.3-1,2.8-1.3c0.5-0.3,1-0.3,1.4-0.1C8.2,99,8.5,99.3,9,99.6c0.4,0.2,1,0.3,1.5,0.3
		c0.6,0,1.2,0,1.8,0.3c0.6,0.3,1,0.8,1.6,1.2c0.6,0.4,1.3,0.6,1.8,0.5c0.5-0.1,0.9-0.6,1.4-1c0.5-0.4,1-0.7,1.6-1
		c0.6-0.3,1.2-0.5,1.9-0.7c0.6-0.2,1.3-0.2,1.8-0.2c0.6,0,1.1-0.1,1.7-0.1c0.6,0,1.2,0,1.9-0.1c0.8-0.1,1.8-0.4,2.4-0.6
		c0.7-0.2,1-0.3,1.3-0.3c0.2,0,0.3,0.1,0.6,0.1c0.3,0,0.7-0.1,1.3-0.3c0.6-0.2,1.4-0.5,2-0.8c0.6-0.3,1.2-0.6,1.8-0.9
		c0.6-0.3,1.2-0.7,1.7-1c0.5-0.3,0.8-0.5,1.1-0.7c0.3-0.1,0.5-0.2,0.6-0.2c0.2,0,0.3,0,0.5,0c0.2,0,0.5-0.1,0.8-0.1
		c0.4,0,0.8,0,1.1,0.1c0.3,0,0.5,0,0.9,0c0.5,0,1.2,0,2,0c0.8,0,1.6,0.1,2.2,0.2c0.6,0.1,1,0.1,1.3,0.3c0.4,0.1,0.7,0.3,1.1,0.5
		c0.4,0.2,0.9,0.4,1.4,0.5c0.5,0.2,1.1,0.3,1.6,0.5c0.6,0.2,1.1,0.5,1.4,0.9c0.3,0.5,0.4,1.1,0.3,1.5c-0.1,0.4-0.4,0.5-0.8,0.6
		C52.5,99,52.2,99,52,99c-0.2,0-0.2,0.1,0,0.1c0.2,0.1,0.5,0.2,0.7,0.4c0.2,0.2,0.3,0.6,0.4,0.9c0.1,0.3,0.1,0.6,0,0.9
		c-0.1,0.3-0.2,0.5-0.4,0.6c-0.2,0.1-0.6,0.1-0.8,0.1c-0.2,0-0.4,0-0.3,0.2c0,0.1,0.3,0.4,0.3,0.6c0.1,0.2,0.1,0.3,0,0.5
		c0,0.2-0.1,0.4-0.5,1"/>
	<path class="st1" d="M42.8,43.2c0,1.4,0,1.9-0.1,2.2c-0.1,0.4-0.2,0.7-0.3,0.8c-0.1,0.1-0.3,0.1-0.2,1.6"/>
	<path class="st1" d="M17.3,70.8c2.5,5.6,3.7,7.7,4.4,9.1c0.6,1.4,0.7,2,0.4,2.6c-0.3,0.6-0.9,1.2-1.3,2c-0.4,0.7-0.6,1.6-0.6,2.6
		c0,1,0.1,2.1,0.3,3.2c0.2,1.1,0.4,2.2,0.6,3.1c0.1,0.9,0.2,1.6,0.2,2.4c0,0.8-0.1,1.6-0.7,3.3"/>
	<path class="st1" d="M37.7,82.7c-0.2,0-0.4,0.1-0.6,0.2c-0.2,0.1-0.3,0.3-0.4,0.6c-0.1,0.2-0.1,0.5,0.1,0.7
		c0.2,0.2,0.5,0.4,0.8,0.4c0.3,0,0.4-0.2,0.5-0.4c0.1-0.2,0.1-0.6,0.1-0.8c0-0.2-0.1-0.4-0.2-0.5C38,82.7,37.9,82.7,37.7,82.7z"/>
	<path class="st1" d="M37.7,69.9c-0.2,0.1-0.4,0.2-0.5,0.3c-0.1,0.2-0.1,0.3-0.2,0.5c0,0.2,0,0.3,0.1,0.4c0.1,0.1,0.3,0.2,0.5,0.2
		c0.2,0,0.5-0.1,0.6-0.2c0.1-0.1,0.2-0.3,0.1-0.5c0-0.2-0.1-0.5-0.3-0.7C38,69.9,37.9,69.9,37.7,69.9z"/>
	<path class="st1" d="M39.1,57.6c-0.3-0.2-0.8-0.3-0.9-0.1c-0.2,0.2,0,0.7,0.2,1c0.2,0.3,0.4,0.3,0.6,0.3c0.2,0,0.4,0,0.5-0.1
		c0.1-0.1,0.2-0.4,0.2-0.6C39.6,57.9,39.4,57.8,39.1,57.6z"/>
	<path class="st1" d="M41.9,55.8c-0.8,1.5-1,2.4-1.1,3.1c-0.1,0.8-0.1,1.5-0.2,3.3C40.5,64,40.2,67,40,69.5
		c-0.1,2.5-0.1,4.6-0.2,8.4c-0.1,3.8-0.2,9.2-0.2,15.8"/>
	<path class="st1" d="M36.6,52.7c0.6,0.6,0.6,0.9,0.6,1.2c0,0.4,0.1,0.9,0.4,1.2"/>
	<path class="st1" d="M34.9,51.6c-0.3,0.2-0.2,0.4-0.1,0.6c0.2,0.2,0.4,0.3,0.6,0.3c0.2,0,0.3-0.2,0.3-0.6"/>
	<path class="st1" d="M57.1,45.5c-1.4,1.7-1.9,2.5-2.4,3.2c-0.5,0.8-1.1,1.5-1.5,2c-0.5,0.5-0.9,0.6-1.3,0.7c-0.4,0.1-0.9,0.1-1.4,0
		c-0.5,0-0.9-0.1-1.4-0.2c-0.4-0.1-0.8-0.3-1.1-0.5c-0.3-0.2-0.4-0.5-0.5-0.7c-0.1-0.3-0.2-0.5-0.3-0.7C47.1,49.1,47,49,46.9,49
		c-0.2,0-0.4,0-0.5,0.3c-0.1,0.3-0.2,0.8-0.5,1.2c-0.3,0.5-0.7,0.9-1,1.3c-0.3,0.4-0.6,0.8-0.8,1.1c-0.2,0.4-0.3,0.8-0.5,1
		c-0.1,0.2-0.3,0.2-0.6,0.3c-0.3,0.1-0.8,0.2-1.3,0.4c-0.5,0.2-1.1,0.5-1.5,0.8c-0.4,0.2-0.7,0.4-1.1,0.8c-0.4,0.3-0.8,0.7-1.2,1.1
		c-0.4,0.4-0.7,0.7-0.8,1c-0.1,0.3,0,0.5,0,0.7c0,0.3,0,0.6-0.2,2.3c-0.2,1.7-0.5,4.8-0.7,6.8C36,70,36,71,36,72.4
		c0,1.4-0.1,3.1-0.1,4.7c0,1.6,0.2,3,0.2,4c0,1,0,1.6-0.1,4.1c0,2.6-0.1,7.1-0.7,10.6"/>
	<path class="st1" d="M51.7,40.9c0.6,0.1,0.5,0.9,0.4,1.3c-0.1,0.5-0.2,0.7-0.4,1c-0.2,0.3-0.5,0.6-0.8,1c-0.3,0.4-0.7,1.1-1.3,1.7
		c-0.5,0.7-1.2,1.4-1.8,1.8c-0.5,0.5-0.9,0.7-1.2,1c-0.3,0.3-0.6,0.7-1,1.1c-0.4,0.4-0.8,0.9-1.1,1.2c-0.3,0.3-0.4,0.4-0.7,0.7
		c-0.3,0.3-0.8,0.7-1.2,1c-0.4,0.3-0.8,0.4-1,0.6c-0.3,0.1-0.5,0.2-1.2,1.3"/>
	<path class="st1" d="M50.7,41c0,0.9,0.2,1.6,0.4,2.2"/>
	<path class="st1" d="M34.6,44.6c-0.6,0.6-0.8,0.9-0.9,1.2c-0.1,0.3-0.1,0.8-0.1,1.1c0,0.3,0,0.5,0,0.7c0.1,0.2,0.3,0.4,0.4,0.7
		c0.1,0.3,0.3,0.6,0.4,0.9c0.1,0.3,0.3,0.5,0.5,0.7c0.2,0.2,0.3,0.5,0.4,0.6c0.1,0.1,0.3,0.1,0.6,0.2c0.3,0.1,0.7,0.3,1,0.5
		c0.3,0.2,0.6,0.3,0.8,0.5c0.2,0.1,0.4,0.3,0.7,0.5c0.3,0.2,0.6,0.4,1.3,1.6"/>
	<path class="st1" d="M34.6,44.3c0.1,0.4,0.1,0.6,0.2,1c0,0.4,0,0.9,0,1.2s-0.2,0.5-0.3,0.8c-0.1,0.3-0.3,0.8-0.3,1"/>
	<path class="st1" d="M30.6,50c-1.3,2.6-1.2,3.8-1.1,4.4c0.1,0.6,0.2,0.6,0.5,0.5c0.3-0.1,0.8-0.4,1.1-0.6c0.4-0.2,0.6-0.4,0.8-0.6
		c0.2-0.2,0.3-0.4,0.5-0.9c0.1-0.5,0.3-1.3,0.4-1.7c0.1-0.4,0.3-0.4,0.5-0.4c0.2,0.1,0.4,0.2,0.7,0.2c0.3,0.1,0.6,0,1.1,0.1
		c0.5,0.1,1,0.3,1.5,0.6c0.5,0.2,0.9,0.5,1.2,0.7c0.4,0.2,0.7,0.4,1,0.6c0.3,0.2,0.6,0.5,0.8,0.8c0.2,0.3,0.3,0.5,0.5,0.9"/>
	<path class="st1" d="M49.6,32.1c0.3,0.4,0.5,0.4,0.7,0.1c0.2-0.3,0.4-0.9,0.5-1.7"/>
	<path class="st1" d="M43.1,20.5c0-0.3,0.3-0.4,0.5-0.5c0.3-0.1,0.5-0.1,0.9-0.2c0.4,0,0.9-0.1,1.4-0.2c0.5-0.1,1-0.1,1.4-0.1
		c0.4,0,0.8,0,1.5,0.1"/>
	<path class="st1" d="M39.7,20.5c-1.4-0.2-2.3-0.4-3.1-0.3c-0.8,0-1.4,0.3-1.9,0.5c-0.6,0.2-1.1,0.4-1.8,1.5"/>
	<path class="st1" d="M44.7,35.4c0.3,0.4,0.2,0.8,0.2,1c0,0.2,0.2,0.3,0.3,0.4c0.1,0,0.2,0,0.4-0.1c0.2-0.1,0.5-0.3,0.7-0.7
		c0.2-0.4,0.3-1,0-2.1"/>
	<path class="st1" d="M41.4,36.2c-0.2,0.9,0,1.3,0.1,1.5c0.1,0.2,0,0.3-0.2,0.4c-0.2,0.1-0.6,0.1-1.1,0c-0.4-0.1-0.9-0.4-1.3-0.5
		c-0.4-0.2-0.8-0.2-1-0.3c-0.2-0.1-0.3-0.3-0.2-0.7c0.1-0.4,0.2-0.9,0.4-1"/>
	<path class="st1" d="M45.2,23.4c1,0,1.3,0,1.6,0c0.3,0,0.7-0.1,1.2-0.2"/>
	<path class="st1" d="M44.4,23.7c1.5,0.7,2,0.7,2.3,0.7c0.3,0,0.5-0.1,1-0.3"/>
	<path class="st1" d="M37.9,11c-0.9-0.8-1.1-1.5-1.1-2.1c0-0.5,0.2-0.9,0.6-1.3c0.3-0.4,0.8-0.8,1.5-1c0.7-0.2,1.5-0.3,2.2-0.2
		c0.7,0.1,1.1,0.2,1.8,0.3c0.6,0.1,1.4,0.1,2.2-0.1c0.7-0.2,1.4-0.8,1.2-2"/>
	<path class="st1" d="M40.7,10.3c-0.8-1.1-0.5-1.6-0.2-2c0.3-0.3,0.6-0.5,1-0.5c0.4-0.1,0.9,0,1.2,0.2c0.4,0.2,0.7,0.5,1,0.9
		c0.3,0.4,0.6,0.8,0.7,1.1c0.2,0.3,0.3,0.4,0.7,0.5c0.3,0.1,0.9,0.2,1.3,0.1c0.4-0.1,0.7-0.3,0.9-1.2"/>
	<path class="st1" d="M44.6,30.2c1.7,0.1,2.2,0.4,2.6,0.7c0.4,0.3,0.6,0.5,0.8,0.7c0.2,0.2,0.4,0.4,0.8,0.7"/>
	<path class="st1" d="M39.6,30.5c-1.3,0.6-1.7,1-2,1.4c-0.3,0.4-0.5,0.8-0.7,1.1c-0.2,0.3-0.5,0.4-0.6,0.6C36.1,33.7,36,33.8,36,34
		c0,0.2,0,0.3-0.1,0.4c-0.1,0-0.3-0.2-0.7-0.4c-0.3-0.3-0.8-0.7-1-1c-0.3-0.3-0.4-0.6-0.6-1c-0.2-0.4-0.5-1-1-1.4
		C32,30,31.4,29.7,31,29.1c-0.3-0.6-0.4-1.4-0.5-1.6"/>
	<path class="st1" d="M42.4,31c-0.2,0.5-0.1,1.1,0.1,1.3"/>
	<path class="st1" d="M53.3,23.2c-0.7,0.5-1,0.5-1.2,0.6C52,23.8,52,23.9,52,24c0,0.1,0,0.3,0,0.4c0,0.1-0.1,0.3-0.2,0.4
		c-0.1,0.2-0.2,0.4-0.1,0.8"/>
	<path class="st1" d="M51.9,26.4c0.3,0.2,0.3,0.5,0.3,0.7c-0.1,0.2-0.2,0.4-0.3,0.6c-0.1,0.2-0.2,0.3-0.2,0.5c0,0.1,0.1,0.2,0.3,0.3
		c0.1,0,0.2,0,0.3-0.1c0.1-0.1,0.2-0.3,0.2-0.6c0.1-0.3,0.1-0.8,0.1-1.2c0-0.3-0.1-0.5-0.2-0.7c-0.1-0.1-0.2-0.2-0.1-0.7"/>
	<path class="st1" d="M51,22.6c0.4,1.5,0.4,2.1,0.5,2.5c0.1,0.4,0.2,0.5,0.2,0.7c0,0.2-0.1,0.3-0.2,0.4c-0.1,0.1-0.1,0.2-0.1,0.3
		c0,0.1,0.1,0.2,0,0.5c0,0.3-0.1,0.8-0.2,1.2c-0.1,0.4-0.1,0.9-0.1,1.3c0,0.5,0.1,1,0.2,1.8"/>
	<path class="st1" d="M30.2,23.5c-0.3-0.8,0-1.5,0.1-2.1c0.2-0.6,0.3-1.2,0.2-1.8c-0.1-0.6-0.5-1.1-0.7-1.6c-0.2-0.4-0.2-0.7-0.1-1
		c0.1-0.2,0.1-0.4,0.2-0.8c0.1-0.4,0.2-0.9,0.4-1.5c0.2-0.6,0.4-1.3,0.6-1.8c0.3-0.5,0.6-1,1.1-1.3c0.5-0.3,1.1-0.5,1.6-0.6
		c0.5-0.1,1-0.2,1.4-0.3c0.4,0,0.7,0,1.4,0.2c0.7,0.2,1.8,0.7,2.5,0.9c0.7,0.2,1,0.2,1.2,0.1c0.2-0.1,0.4-0.3,0.8-0.5
		c0.4-0.2,1-0.4,1.5-0.5c0.5-0.1,0.9,0,1.4,0.1c0.4,0.1,0.9,0.3,1.2,0.5s0.6,0.4,0.8,0.7c0.3,0.3,0.5,0.7,0.8,0.9
		c0.3,0.2,0.6,0.1,1,0c0.3-0.1,0.7-0.3,0.8-0.4c0.2-0.1,0.2-0.1,0.3,0c0.1,0.1,0.2,0.4,0.3,0.7c0.1,0.4,0.3,0.8,0.5,1.3
		c0.2,0.5,0.5,0.9,0.7,1.4c0.2,0.4,0.4,0.9,0.4,1.3c0.1,0.5,0.1,1,0.1,1.4c0,0.4,0,0.7,0.1,1.1c0.1,0.4,0.4,0.8,0.4,1.2"/>
	<path class="st1" d="M30.5,27.2c-0.2-1.7-0.2-2.7-0.3-3"/>
	<path class="st1" d="M45.7,21.9c-0.2,0.3-0.2,0.4-0.2,0.5c0,0.1,0.1,0.2,0.1,0.3c0.1,0.1,0.2,0.1,0.3,0.2"/>
	<path class="st1" d="M47,21.9c0.4,0.4,0.4,0.6,0,1"/>
	<path class="st1" d="M44.8,23c0.3-0.1,0.4-0.1,0.6-0.1c0.2,0,0.4,0,0.6,0c0.2,0,0.3,0,0.6,0c0.2,0,0.6,0,1.3-0.1"/>
	<path class="st1" d="M44.2,23.2c-0.2,0-0.3-0.1-0.3-0.1c0-0.1,0-0.1,0-0.1c0,0,0.1-0.1,0.3-0.2c0.1-0.1,0.4-0.2,0.6-0.4
		c0.2-0.1,0.4-0.3,0.7-0.4c0.2-0.1,0.5-0.2,0.7-0.2c0.2,0,0.4,0,0.6,0c0.2,0,0.4,0.1,0.6,0.2c0.2,0.1,0.3,0.2,0.5,0.3
		c0.2,0.1,0.3,0.1,0.5,0.2c0.1,0,0.2,0.1,0.2,0.1c0,0-0.2,0-0.3,0.1"/>
	<path class="st1" d="M35.2,24.2c0.8,0.2,1.2,0.1,1.7,0c0.4-0.1,0.8-0.3,1.1-0.3"/>
	<path class="st1" d="M38.5,24.3c-0.7,0.5-0.9,0.7-1.1,0.8c-0.2,0.1-0.4,0.2-0.7,0.2c-0.2,0-0.5,0-0.9,0"/>
	<path class="st1" d="M33.9,23.9c0.5-0.3,0.9-0.6,1.2-0.8c0.3-0.2,0.6-0.3,0.8-0.5c0.2-0.1,0.4-0.2,0.6-0.2c0.2,0,0.5,0,0.8,0
		c0.3,0,0.6,0.1,0.9,0.2c0.3,0.1,0.5,0.2,0.6,0.3c0.2,0.1,0.3,0.1,0.4,0.1c0.1,0,0.3,0.1,0.4,0.1c0.1,0,0.1,0.1,0,0.2
		c-0.1,0.1-0.3,0.2-0.4,0.3"/>
	<path class="st1" d="M37.1,22.8c0.3,0.3,0.4,0.4,0.3,0.5c0,0.1,0,0.2-0.1,0.3c0,0.1,0,0.2-0.2,0.3"/>
	<path class="st1" d="M35.8,23.2c-0.1,0.4,0,0.5,0.2,0.8"/>
	<path class="st1" d="M38.2,23.7c-0.7,0.1-1.1,0.2-1.4,0.3c-0.4,0-0.7,0-1-0.1"/>
	<path class="st1" d="M34.6,23.8c0.7-0.3,1.1-0.5,1.3-0.7c0.2-0.1,0.4-0.2,0.5-0.2c0.1,0,0.2-0.1,0.4-0.1c0.1,0,0.3,0,0.5,0
		c0.2,0,0.4,0,0.5,0.1c0.2,0.1,0.4,0.1,0.5,0.2c0.1,0.1,0.2,0.1,0.4,0.2c0.1,0,0.3,0.1,0.4,0.1c0.1,0.1,0.1,0.1-0.2,0.2"/>
	<path class="st1" d="M42,28.6c0.4,0.2,0.6,0.2,0.7,0.2c0.1,0,0.3-0.1,0.4-0.4"/>
	<path class="st1" d="M42.9,25.1c0.2,1.2,0.4,2.2,0.6,2.7"/>
	<path class="st1" d="M44.3,27.4c0.5,0.9,0.5,1.3,0.5,1.6c0,0.3-0.1,0.4-0.4,0.6"/>
	<path class="st1" d="M42.1,30.3c0.4,0,0.6,0,0.7-0.2c0.1-0.1,0.3-0.3,0.3-0.5c0.1-0.2,0.1-0.3,0.2-0.3c0-0.1,0.1-0.1,0.2-0.2
		c0.1,0,0.3-0.1,0.4-0.1c0.1,0,0.3,0.1,0.3,0.1c0.1,0.1,0.1,0.2,0.1,0.2c-0.1,0.1-0.2,0.2-0.5,0.2"/>
	<path class="st1" d="M39.3,28.3c-0.2,0.6,0,0.9,0.1,1.1c0.1,0.2,0.3,0.4,0.4,0.4c0.1,0.1,0.3,0.1,0.4,0c0.1,0,0-0.1,0-0.2
		c0-0.1,0-0.1,0.1-0.2c0.1-0.1,0.3-0.1,0.5-0.1c0.2,0,0.3,0.2,0.7,0.6"/>
	<path class="st1" d="M33.6,37.8c1.4,1,2.2,1.8,2.9,2.4c0.7,0.6,1.2,0.9,1.8,1.3"/>
	<path class="st1" d="M47.8,39.3c0.9-1,1.5-1.7,1.9-2.2"/>
	<path class="st1" d="M37.1,39.7c1.4,1.2,2,1.5,2.6,1.6c0.6,0.1,1.2,0.1,1.8,0.1c0.6,0,1.2-0.1,1.7-0.2c0.5-0.1,0.8-0.3,1.2-0.4
		c0.3-0.1,0.6-0.2,0.9-0.4c0.2-0.2,0.4-0.4,0.5-0.6c0.1-0.1,0.1-0.2,0.4-0.7"/>
	<path class="st1" d="M44,21.5c-0.2,0.2-0.4,0.4-0.6,0.6c-0.1,0.2-0.2,0.5-0.3,0.7c0,0.2-0.1,0.5,0,0.8c0.1,0.3,0.2,0.8,0.4,1.2
		c0.2,0.4,0.4,0.7,0.6,1c0.2,0.3,0.4,0.4,0.7,0.6c0.3,0.2,0.6,0.3,0.9,0.5c0.3,0.1,0.7,0.1,1,0.2c0.3,0,0.6,0,0.9,0
		c0.3,0,0.5-0.1,0.7-0.2c0.2-0.1,0.4-0.2,0.6-0.4c0.2-0.2,0.4-0.4,0.6-0.6c0.2-0.2,0.3-0.5,0.4-0.8c0.1-0.3,0.2-0.5,0.3-0.9
		c0.1-0.3,0.1-0.7,0.1-1.1c0-0.4,0-0.8-0.1-1.1c-0.1-0.3-0.2-0.6-0.3-0.8c-0.2-0.2-0.4-0.4-0.6-0.5c-0.3-0.2-0.5-0.3-0.9-0.4
		c-0.3-0.1-0.7-0.1-1.1,0c-0.4,0-1,0.1-1.5,0.2c-0.5,0.1-0.9,0.3-1.2,0.5C44.5,21.2,44.2,21.3,44,21.5z"/>
	<path class="st1" d="M34.5,21.9c-0.2,0.1-0.5,0.2-0.8,0.4c-0.3,0.2-0.5,0.4-0.7,0.7c-0.2,0.3-0.3,0.6-0.3,1.1c0,0.4,0.1,1,0.2,1.4
		c0.1,0.4,0.2,0.6,0.4,0.9c0.2,0.3,0.4,0.5,0.6,0.8c0.2,0.2,0.5,0.4,0.7,0.6c0.2,0.2,0.4,0.3,0.6,0.3c0.2,0.1,0.5,0.1,0.8,0.1
		c0.3,0,0.5,0,0.8,0c0.3,0,0.5-0.1,0.8-0.3c0.3-0.1,0.6-0.3,0.9-0.5c0.3-0.2,0.5-0.3,0.6-0.5c0.2-0.2,0.4-0.4,0.5-0.7
		c0.1-0.3,0.2-0.5,0.3-0.8c0.1-0.3,0.1-0.5,0.2-0.8c0-0.3,0.1-0.6,0-1c0-0.3-0.1-0.7-0.3-0.9c-0.2-0.3-0.4-0.5-0.7-0.7
		c-0.3-0.2-0.6-0.3-0.9-0.3c-0.3-0.1-0.7-0.1-1.2-0.1c-0.4,0-0.9,0-1.3,0c-0.4,0-0.7,0-1,0.1C34.8,21.8,34.7,21.8,34.5,21.9z"/>
	<path class="st1" d="M28.9,23.6c-0.2,0.1-0.1,0.2,0.1,0.3c0.1,0.1,0.3,0.2,0.5,0.2c0.2,0,0.5,0,0.8,0c0.3,0,0.7,0,1,0
		c0.3,0,0.5,0,0.6,0.1c0.2,0,0.3,0.1,0.4,0.2c0.1,0.1,0.1,0.4,0.2,0.7c0.1,0.3,0.2,0.6,0.4,1c0.2,0.3,0.4,0.6,0.5,0.9
		c0.2,0.3,0.4,0.5,0.6,0.6c0.2,0.2,0.4,0.3,0.6,0.4c0.2,0.1,0.4,0.2,0.5,0.3c0.2,0,0.3,0,0.6,0c0.2,0,0.6,0,0.8,0
		c0.3,0,0.5-0.1,0.8-0.2c0.3-0.1,0.7-0.3,1-0.5c0.3-0.2,0.6-0.4,0.9-0.6c0.3-0.2,0.5-0.5,0.7-0.9c0.2-0.4,0.3-0.8,0.4-1.3
		c0.1-0.4,0.2-0.9,0.3-1.2c0.1-0.3,0.2-0.5,0.3-0.7c0.1-0.1,0.2-0.2,0.3-0.3c0.1-0.1,0.2-0.1,0.4-0.1c0.1,0,0.3,0,0.4,0
		c0.1,0,0.2,0.1,0.3,0.2c0.1,0.1,0.2,0.2,0.3,0.3c0.1,0.2,0.2,0.4,0.2,0.7c0.1,0.3,0.2,0.5,0.3,0.8c0.1,0.3,0.3,0.6,0.4,0.9
		c0.2,0.3,0.3,0.5,0.5,0.7c0.2,0.2,0.4,0.4,0.6,0.5c0.2,0.1,0.5,0.2,0.9,0.3c0.4,0.1,0.8,0.2,1.2,0.2c0.4,0,0.9,0,1.3-0.1
		c0.4-0.1,0.7-0.3,0.9-0.5c0.2-0.2,0.4-0.3,0.6-0.6c0.2-0.2,0.4-0.5,0.5-0.8c0.1-0.3,0.2-0.5,0.3-0.7c0.1-0.2,0.2-0.5,0.3-0.8
		c0.1-0.3,0.2-0.6,0.2-0.8c0-0.3,0.1-0.4,0.1-0.6c0-0.1,0-0.2,0.1-0.2c0.1,0,0.2,0,0.3,0c0.1,0,0.2,0,0.3,0c0.1,0,0.2,0,0.3-0.1
		c0.1,0,0.2-0.1,0.3-0.1c0.1,0,0.1-0.1,0.1-0.1c0-0.1,0-0.2-0.1-0.4"/>
	<path class="st1" d="M29.1,23.5c1,0,1.7,0,2.2-0.1c0.5-0.1,0.8-0.2,1.1-0.5c0.3-0.2,0.6-0.6,1-0.9c0.4-0.3,0.7-0.6,1.3-0.8
		c0.6-0.2,1.4-0.2,2.1-0.2c0.7,0,1.3,0,1.8,0.1c0.5,0.1,0.9,0.2,1.3,0.2c0.4,0.1,0.7,0.1,1.2,0.1c0.5,0,1-0.1,1.6-0.3
		c0.5-0.2,1.1-0.4,1.6-0.6c0.5-0.2,1.1-0.4,1.6-0.5c0.5-0.1,1-0.2,1.5-0.2c0.5,0,1.1,0,1.6,0.1c0.4,0.1,0.7,0.3,1,0.5
		c0.2,0.2,0.5,0.4,0.7,0.6c0.2,0.1,0.4,0.2,0.6,0.2c0.2,0,0.4,0,0.7,0"/>
	<path class="st1" d="M38.4,34.1c0.5,0.1,0.8,0.4,1,0.7c0.3,0.2,0.6,0.4,0.9,0.5c0.3,0.1,0.7,0.1,0.9,0.1c0.2,0,0.4,0,0.7,0
		c0.4,0,1-0.1,1.3-0.2c0.4,0,0.5-0.1,0.7-0.1c0.1,0,0.3-0.1,0.4-0.2c0.2-0.1,0.4-0.3,0.6-0.5c0.2-0.2,0.3-0.3,0.5-0.5
		c0.2-0.1,0.3-0.3,0.7-0.3"/>
	<path class="st1" d="M38.1,33.6c1.2-0.2,1.8-0.4,2.2-0.5c0.4-0.1,0.7-0.2,0.9-0.2c0.2,0,0.4-0.1,0.5,0c0.2,0,0.3,0,0.6,0.1
		c0.2,0,0.5,0,0.7-0.1c0.2,0,0.5-0.1,0.7-0.2c0.2-0.1,0.4-0.1,0.7,0c0.3,0,0.6,0.2,1,0.4"/>
	<path class="st1" d="M39.8,33.8c1.4,0.3,1.9,0.4,2.3,0.4c0.4,0,0.8-0.1,1.1-0.2c0.3-0.1,0.5-0.1,0.7-0.3c0.3-0.1,0.6-0.3,1.7-0.2"
		/>
	<path class="st1" d="M38.1,33.9c1.5-0.1,1.8-0.1,2.3-0.2c0.4,0,1-0.1,1.3-0.1c0.3,0,0.5,0,0.6,0c0.2,0,0.4-0.1,0.6-0.1
		c0.2-0.1,0.5-0.1,0.7-0.1c0.2,0,0.4,0,0.7,0c0.2,0,0.5,0,0.9,0.1c0.3,0,0.8,0.1,1.2-0.1"/>
	<path class="st1" d="M27.4,25.4c0.6,0.2,1.2,0.8,1.5,1.1c0.3,0.4,0.4,0.5,0.4,0.7c0,0.1,0,0.2-0.1,0.3c-0.1,0.1-0.3,0.1-0.3,0.3
		c0,0.2,0.3,0.7,0.5,1c0.2,0.3,0.5,0.6,0.6,0.8c0.1,0.2,0.2,0.4,0.1,0.5c-0.1,0.1-0.3,0.1-0.4,0c-0.1-0.1-0.3-0.2-0.4-0.2
		c-0.1,0-0.2,0-0.3,0c-0.1-0.1-0.2-0.2-0.1-0.5"/>
	<path class="st1" d="M28,24.5c0.9,1,1.4,1.2,1.6,1.4c0.3,0.2,0.3,0.5,0.5,0.9c0.1,0.5,0.2,1.2,0.4,1.7c0.1,0.5,0.3,0.8,0.4,1
		c0.1,0.2,0.1,0.4,0.2,0.7c0.1,0.3,0.2,0.8,0.3,1.2c0.1,0.4,0.1,0.9,0.3,1.8"/>
	<path class="st1" d="M73.9,260.1c0.9,2.8-0.6,3-1.6,3.1c-1,0.1-1.3,0.3-1.5,0.4c-0.2,0.1-0.4,0.3-0.1,0.5c0.3,0.2,1,0.5,1.7,0.6
		c0.6,0.1,1.2,0,1.6-0.1c0.5-0.1,0.9-0.2,1.7-0.1c0.8,0.1,2,0.3,2.8,0.5c0.8,0.2,1.3,0.4,1.9,0.5"/>
</g>
</svg>
